<?xml version="1.0" encoding="UTF-8"?>
<svg id="Capa_1" xmlns="http://www.w3.org/2000/svg" version="1.1" viewBox="0 0 256.59 68.27">
  <!-- Generator: Adobe Illustrator 30.3.0, SVG Export Plug-In . SVG Version: 2.1.3 Build 182)  -->
  <defs>
    <style>
      .st0 {
        isolation: isolate;
      }

      .st1 {
        fill: #066083;
      }
    </style>
  </defs>
  <g class="st0">
    <g class="st0">
      <path class="st1" d="M69.54,28.29l-1.97-.04c-.86,0-1.58.03-2.15.1-.04-.05-.06-.12-.06-.2v-.1c.56-.09.93-.2,1.1-.34.18-.14.29-.37.35-.69.11-.59.17-1.58.17-2.98s-.02-2.36-.05-2.92c-.03-.55-.07-.9-.12-1.03-.2-.04-.44-.06-.73-.06-.67,0-1.2.09-1.57.26l-.53,1.32c-.18,0-.32-.03-.41-.1l.19-1.86c0-.09.07-.13.2-.13l2.11.08h2.94l2.3-.08c.14,0,.22.04.22.13-.13.7-.19,1.35-.19,1.93-.06.03-.14.05-.24.05s-.17-.02-.23-.05c-.14-.79-.22-1.22-.24-1.3-.4-.18-.95-.26-1.64-.26-.31,0-.56.02-.76.06-.02.07-.05.4-.09,1s-.05,1.35-.05,2.28v2.15c0,.89.06,1.66.19,2.32.37.06.78.08,1.25.08.02.06.04.13.04.21s-.01.13-.04.16Z"/>
      <path class="st1" d="M72.28,19.58l1.82.04h1.43c.9,0,1.62.19,2.14.58.52.39.78.99.78,1.81,0,.62-.16,1.12-.49,1.52-.32.4-.77.67-1.33.83.28.49.63,1.04,1.05,1.67s.76,1.08,1.02,1.37c.26.29.48.45.65.48.18.03.45.04.82.04.02.06.02.13.02.19s0,.12-.02.19c-.58.03-1.04.07-1.36.13-.32.05-.52.08-.58.08s-.18-.1-.36-.31c-.18-.2-.39-.49-.63-.85-.24-.36-.46-.7-.65-1.01-.2-.31-.42-.67-.66-1.07-.24-.4-.39-.65-.45-.74-.51,0-.91-.02-1.19-.05v1.79c0,.48.03,1.01.08,1.58.25.06.6.08,1.06.08.02.06.04.13.04.21s-.01.13-.04.16l-1.6-.04c-.61,0-1.16.03-1.67.1-.04-.05-.06-.12-.06-.2v-.1c.43-.1.7-.24.83-.44.1-.16.17-.36.2-.6.1-.73.14-1.71.14-2.95,0-2.65-.07-4-.22-4.04-.15-.04-.42-.06-.79-.06-.03-.06-.05-.11-.05-.16s.02-.12.05-.22ZM77.4,22.12c0-.59-.17-1.09-.5-1.51s-.77-.62-1.33-.62-.94.02-1.15.05c-.09.35-.13,1.68-.13,3.98.29.02.69.04,1.2.04s.96-.18,1.34-.53c.38-.35.57-.82.57-1.41Z"/>
      <path class="st1" d="M89.13,28.29l-1.4-.04c-.61,0-1.14.03-1.6.1-.05-.06-.07-.13-.07-.2l.02-.1c.31-.07.53-.15.65-.25.12-.09.19-.19.19-.31s-.06-.34-.17-.67l-.71-1.8c-.43-.02-.95-.04-1.55-.04l-1.72.04-.3.77c-.4.99-.6,1.7-.6,2.11.18,0,.46.01.84.01.02.06.02.12.02.19s0,.13-.02.18l-1.27-.04c-.5,0-.94.03-1.32.1-.05-.06-.07-.12-.07-.2l.02-.1c.41-.11.71-.29.89-.53.19-.24.47-.78.85-1.63l2.96-6.72h.19l2.76,7.06c.05.15.17.45.38.88.2.44.33.69.39.77.22.02.43.04.62.04.02.06.04.12.04.19s-.01.13-.04.18ZM82.96,24.55l1.54.05c.55,0,1.02-.01,1.39-.04l-1.39-3.67-1.54,3.66Z"/>
      <path class="st1" d="M88.19,19.82s-.01-.08-.01-.13.02-.1.06-.17c.51.06,1.1.1,1.78.1s1.26-.01,1.76-.04c.02.05.02.11.02.18l-.02.19c-.46,0-.79,0-.98.01,0,.3.1.79.29,1.47.2.68.43,1.33.69,1.97l1.46,3.55,1.61-3.55c.32-.71.6-1.41.83-2.08.23-.68.35-1.12.35-1.33-.14-.03-.45-.05-.91-.05-.02-.06-.02-.12-.02-.19s0-.13.02-.18c.53.02,1,.04,1.42.04s.82-.03,1.22-.1c.05.05.07.12.07.2l-.02.1c-.31.1-.56.24-.74.42-.26.26-.57.77-.92,1.51-.18.38-.34.73-.48,1.05-.14.32-.24.53-.28.61l-2.42,5.32h-.2l-2.59-6.23c-.49-1.22-.87-1.98-1.15-2.3-.12-.14-.39-.26-.82-.37Z"/>
      <path class="st1" d="M103.02,28.3l-2.05-.05h-.64c-.93,0-1.6.03-2,.1-.04-.05-.06-.12-.06-.2v-.1c.43-.1.7-.24.83-.44.1-.16.17-.36.2-.6.1-.73.14-1.72.14-2.98,0-2.63-.07-3.97-.22-4.02-.15-.04-.42-.06-.79-.06-.02-.06-.02-.12-.02-.19s0-.13.02-.18l1.82.04h1.38l2.83-.08c.14,0,.2.04.2.13,0,0-.01.1-.04.29-.08.5-.14,1.05-.17,1.67-.1.05-.18.07-.26.07s-.15-.02-.21-.05c-.1-.73-.17-1.18-.22-1.36-.73-.17-1.38-.25-1.96-.25s-.98.02-1.21.05c-.1.51-.14,1.65-.14,3.42.13.03.47.05,1.02.05s.96-.02,1.24-.05c.27-.03.47-.1.59-.19.12-.1.22-.29.28-.59.17,0,.29.02.37.07-.08.46-.12.79-.12,1.01l.02,1.04c-.06.04-.13.06-.22.06l-.17-.02-.13-.79c-.43-.07-.94-.11-1.51-.11s-1.04.02-1.38.06v2.15c0,.75.02,1.28.07,1.58.25.03.53.05.85.05.82,0,1.64-.11,2.45-.32.12-.19.24-.44.35-.75s.18-.49.19-.55c.05,0,.11-.01.19-.01s.17.04.26.11c-.12.57-.21,1.16-.26,1.76,0,.1-.06.15-.16.16-.35.06-.82.08-1.4.08Z"/>
      <path class="st1" d="M110.97,28.3l-2.05-.05h-.79c-.9,0-1.57.03-2,.1-.04-.05-.06-.12-.06-.2v-.1c.43-.1.7-.24.83-.44.1-.16.19-.47.25-.92.06-.45.09-1.33.09-2.62v-2.42c0-1.1-.05-1.65-.16-1.66-.15-.02-.39-.04-.72-.04-.02-.06-.04-.12-.04-.19s.01-.13.04-.18l1.15.04c.74,0,1.3-.03,1.7-.1.05.06.07.13.07.19l-.02.11c-.33.09-.54.2-.65.33-.1.13-.17.32-.19.57-.1.98-.14,2.05-.14,3.2v2.27c0,.75.02,1.28.07,1.58.29.03.62.05,1.01.05.82,0,1.64-.11,2.45-.32.13-.18.25-.43.35-.74.11-.31.17-.49.2-.56.04,0,.1-.01.18-.01s.17.04.26.11c-.03.17-.08.52-.16,1.06-.07.54-.12.81-.13.83-.1.08-.62.12-1.54.12Z"/>
      <path class="st1" d="M117.96,28.3l-2.05-.05h-.64c-.93,0-1.6.03-2,.1-.04-.05-.06-.12-.06-.2v-.1c.43-.1.7-.24.83-.44.1-.16.17-.36.2-.6.1-.73.14-1.72.14-2.98,0-2.63-.07-3.97-.22-4.02-.15-.04-.42-.06-.79-.06-.02-.06-.02-.12-.02-.19s0-.13.02-.18l1.82.04h1.38l2.83-.08c.14,0,.2.04.2.13,0,0-.01.1-.04.29-.08.5-.14,1.05-.17,1.67-.1.05-.18.07-.26.07s-.15-.02-.21-.05c-.1-.73-.17-1.18-.22-1.36-.73-.17-1.38-.25-1.96-.25s-.98.02-1.21.05c-.1.51-.14,1.65-.14,3.42.13.03.47.05,1.02.05s.96-.02,1.24-.05c.27-.03.47-.1.59-.19.12-.1.22-.29.28-.59.17,0,.29.02.37.07-.08.46-.12.79-.12,1.01l.02,1.04c-.06.04-.13.06-.22.06l-.17-.02-.13-.79c-.43-.07-.94-.11-1.51-.11s-1.04.02-1.38.06v2.15c0,.75.02,1.28.07,1.58.25.03.53.05.85.05.82,0,1.64-.11,2.45-.32.12-.19.24-.44.35-.75.11-.31.18-.49.19-.55.05,0,.11-.01.19-.01s.17.04.26.11c-.12.57-.21,1.16-.26,1.76,0,.1-.06.15-.16.16-.35.06-.82.08-1.4.08Z"/>
      <path class="st1" d="M121.17,19.58l1.82.04h1.43c.9,0,1.62.19,2.14.58.52.39.78.99.78,1.81,0,.62-.16,1.12-.49,1.52-.32.4-.77.67-1.33.83.28.49.63,1.04,1.05,1.67s.76,1.08,1.02,1.37c.26.29.48.45.65.48.18.03.45.04.82.04.02.06.02.13.02.19s0,.12-.02.19c-.58.03-1.04.07-1.36.13-.32.05-.52.08-.58.08s-.18-.1-.36-.31c-.18-.2-.39-.49-.63-.85s-.46-.7-.65-1.01c-.2-.31-.42-.67-.66-1.07-.24-.4-.39-.65-.45-.74-.51,0-.91-.02-1.19-.05v1.79c0,.48.03,1.01.08,1.58.25.06.6.08,1.06.08.02.06.04.13.04.21s-.01.13-.04.16l-1.6-.04c-.61,0-1.16.03-1.67.1-.04-.05-.06-.12-.06-.2v-.1c.43-.1.7-.24.83-.44.1-.16.17-.36.2-.6.1-.73.14-1.71.14-2.95,0-2.65-.07-4-.22-4.04-.15-.04-.42-.06-.79-.06-.03-.06-.05-.11-.05-.16s.02-.12.05-.22ZM126.29,22.12c0-.59-.17-1.09-.5-1.51s-.77-.62-1.33-.62-.94.02-1.15.05c-.09.35-.13,1.68-.13,3.98.29.02.69.04,1.2.04s.96-.18,1.34-.53c.38-.35.57-.82.57-1.41Z"/>
      <path class="st1" d="M134.58,20.33c-.54-.34-1.05-.52-1.55-.52s-.9.14-1.2.41c-.3.27-.46.61-.46,1.03s.16.77.49,1.07c.33.3.86.63,1.58.98,1.17.57,1.91,1.18,2.22,1.82.14.3.22.63.22.97,0,.74-.31,1.33-.94,1.75-.63.42-1.37.64-2.21.64-.46,0-.93-.04-1.43-.13-.5-.09-.85-.18-1.07-.26-.08-.62-.22-1.34-.41-2.14.14-.07.25-.11.33-.11s.13,0,.17.01c.22.56.43.98.62,1.27.17.18.32.32.44.43.13.11.34.22.63.33.29.11.65.17,1.06.17s.79-.14,1.13-.43.5-.66.5-1.1c0-.36-.06-.62-.19-.78s-.22-.28-.28-.36c-.06-.08-.17-.17-.34-.28-.17-.11-.28-.18-.35-.22s-.2-.12-.41-.23c-.21-.11-.4-.21-.56-.31-.16-.09-.3-.17-.41-.23-.11-.06-.28-.17-.52-.31-.23-.14-.4-.25-.49-.34-.1-.08-.22-.2-.37-.34-.15-.14-.26-.28-.32-.4-.16-.34-.24-.67-.24-.97,0-.74.31-1.31.92-1.72s1.36-.62,2.23-.62c.36,0,.76.05,1.2.14.44.1.78.2,1.02.3-.07.28-.14.86-.2,1.75-.08.04-.16.06-.25.06s-.16-.02-.23-.05c0-.1-.06-.31-.14-.65-.09-.34-.15-.55-.19-.64Z"/>
      <path class="st1" d="M145.6,28.49c-1.38,0-2.46-.43-3.26-1.29s-1.19-1.94-1.19-3.25.43-2.39,1.3-3.25c.86-.86,1.97-1.28,3.31-1.28,1.06,0,2.01.13,2.83.4.04.02.06.05.06.09s-.01.16-.04.38c-.1.74-.16,1.29-.17,1.63-.12.02-.2.04-.25.04s-.12-.02-.22-.05c-.07-.55-.14-.96-.22-1.24-.21-.22-.5-.42-.88-.58s-.8-.24-1.28-.24c-.91,0-1.67.32-2.26.96-.6.64-.89,1.52-.89,2.63,0,.78.13,1.52.39,2.21.26.69.65,1.25,1.16,1.7.52.44,1.13.67,1.84.67s1.34-.19,1.9-.58c.15-.26.34-.68.56-1.28.19,0,.34.04.44.12-.11.58-.2,1.16-.25,1.74,0,.09-.06.14-.16.16-.77.22-1.68.32-2.74.32Z"/>
      <path class="st1" d="M156.94,24.03l-2.24-.06c-.67,0-1.53.02-2.57.06v2.21c0,1.09.05,1.64.14,1.64.14.02.42.04.82.04.02.06.02.12.02.19s0,.13-.02.18l-1.19-.04c-.78,0-1.42.03-1.92.1-.04-.05-.06-.12-.06-.2v-.1c.43-.1.7-.24.83-.44.1-.16.17-.36.2-.6.1-.73.14-1.85.14-3.37v-2c0-1.09-.05-1.64-.14-1.64-.14-.02-.42-.04-.82-.04-.02-.06-.02-.12-.02-.19s0-.13.02-.18l1.24.04c.74,0,1.32-.03,1.72-.1.03.06.05.16.05.3-.23.06-.41.15-.54.27-.13.12-.21.24-.24.34-.12.38-.2,1.41-.23,3.07.8.03,1.66.05,2.57.05l2.24-.05v-1.87c0-1.09-.05-1.64-.14-1.64-.15-.02-.42-.04-.82-.04-.02-.06-.04-.12-.04-.19s.01-.13.04-.18l1.24.04c.74,0,1.31-.03,1.7-.1.03.07.05.17.05.3-.23.06-.41.16-.54.28-.13.12-.21.23-.25.34-.04.11-.06.25-.08.43-.1.85-.14,1.79-.14,2.83v2.54c0,1.09.05,1.64.14,1.64.15.02.45.04.89.04.02.06.02.12.02.19s0,.13-.02.18l-1.25-.04c-.86,0-1.55.03-2.09.1-.04-.05-.06-.12-.06-.2v-.1c.49-.11.8-.24.94-.37.14-.14.23-.36.26-.67.09-.82.14-1.81.14-2.98Z"/>
      <path class="st1" d="M168.92,23.97c0,.56-.08,1.07-.23,1.54s-.35.85-.59,1.15c-.24.3-.51.57-.82.8-.31.24-.61.42-.89.54-.28.12-.57.23-.86.31-.42.12-.74.18-.96.18-1.17,0-2.16-.43-2.99-1.3-.82-.87-1.24-1.94-1.24-3.22,0-.56.08-1.07.23-1.54.16-.47.35-.85.59-1.16.24-.3.51-.57.82-.81.31-.24.61-.42.9-.55s.57-.23.85-.31c.42-.12.74-.18.97-.18,1.16,0,2.15.44,2.98,1.33s1.24,1.96,1.24,3.22ZM164.93,27.87c.9,0,1.59-.31,2.06-.92.47-.61.7-1.4.7-2.36,0-.74-.13-1.46-.4-2.15-.27-.69-.66-1.26-1.18-1.72-.52-.46-1.1-.69-1.75-.69-.9,0-1.6.31-2.08.94-.48.63-.73,1.41-.73,2.33,0,.74.14,1.46.41,2.15.28.69.68,1.27,1.21,1.72.53.46,1.12.68,1.76.68Z"/>
      <path class="st1" d="M170.27,19.58l1.56.04,1.54-.04s.02.11.02.18l-.02.19c-.35,0-.62.01-.8.04-.14.02-.2.92-.2,2.7v1.96c0,.76.02,1.49.05,2.18.04.7.08,1.05.14,1.06.21.02.56.04,1.06.04.02.06.02.12.02.19s0,.13-.02.18l-1.52-.04c-.84,0-1.53.03-2.06.1-.04-.04-.06-.11-.06-.2v-.1c.53-.11.85-.24.97-.4.07-.1.12-.18.14-.25.02-.07.04-.18.06-.34.1-.62.14-1.64.14-3.04v-1.34c0-1.78-.07-2.68-.2-2.7-.18-.02-.45-.04-.8-.04-.02-.06-.02-.12-.02-.19s0-.13.02-.18Z"/>
      <path class="st1" d="M179.51,20.33c-.54-.34-1.05-.52-1.55-.52s-.9.14-1.2.41c-.3.27-.46.61-.46,1.03s.16.77.49,1.07c.33.3.86.63,1.58.98,1.17.57,1.91,1.18,2.22,1.82.14.3.22.63.22.97,0,.74-.31,1.33-.94,1.75-.63.42-1.37.64-2.21.64-.46,0-.93-.04-1.43-.13-.5-.09-.85-.18-1.07-.26-.08-.62-.22-1.34-.41-2.14.14-.07.25-.11.33-.11s.13,0,.17.01c.22.56.43.98.62,1.27.17.18.32.32.44.43.13.11.34.22.63.33.29.11.65.17,1.06.17s.79-.14,1.13-.43.5-.66.5-1.1c0-.36-.06-.62-.19-.78s-.22-.28-.28-.36c-.06-.08-.17-.17-.34-.28-.17-.11-.28-.18-.35-.22s-.2-.12-.41-.23c-.21-.11-.4-.21-.56-.31-.16-.09-.3-.17-.41-.23-.11-.06-.28-.17-.52-.31-.23-.14-.4-.25-.49-.34-.1-.08-.22-.2-.37-.34-.15-.14-.26-.28-.32-.4-.16-.34-.24-.67-.24-.97,0-.74.31-1.31.92-1.72s1.36-.62,2.23-.62c.36,0,.76.05,1.2.14.44.1.78.2,1.02.3-.07.28-.14.86-.2,1.75-.08.04-.16.06-.25.06s-.16-.02-.23-.05c0-.1-.06-.31-.14-.65-.09-.34-.15-.55-.19-.64Z"/>
      <path class="st1" d="M186.79,28.3l-2.05-.05h-.64c-.93,0-1.6.03-2,.1-.04-.05-.06-.12-.06-.2v-.1c.43-.1.7-.24.83-.44.1-.16.17-.36.2-.6.1-.73.14-1.72.14-2.98,0-2.63-.07-3.97-.22-4.02-.15-.04-.42-.06-.79-.06-.02-.06-.02-.12-.02-.19s0-.13.02-.18l1.82.04h1.38l2.83-.08c.14,0,.2.04.2.13,0,0-.01.1-.04.29-.08.5-.14,1.05-.17,1.67-.1.05-.18.07-.26.07s-.15-.02-.21-.05c-.1-.73-.17-1.18-.22-1.36-.73-.17-1.38-.25-1.96-.25s-.98.02-1.21.05c-.1.51-.14,1.65-.14,3.42.13.03.47.05,1.02.05s.96-.02,1.24-.05c.27-.03.47-.1.59-.19.12-.1.22-.29.28-.59.17,0,.29.02.37.07-.08.46-.12.79-.12,1.01l.02,1.04c-.06.04-.13.06-.22.06l-.17-.02-.13-.79c-.43-.07-.94-.11-1.51-.11s-1.04.02-1.38.06v2.15c0,.75.02,1.28.07,1.58.25.03.53.05.85.05.82,0,1.64-.11,2.45-.32.12-.19.24-.44.35-.75s.18-.49.19-.55c.05,0,.11-.01.19-.01s.17.04.26.11c-.12.57-.21,1.16-.26,1.76,0,.1-.06.15-.16.16-.35.06-.82.08-1.4.08Z"/>
    </g>
    <g class="st0">
      <path class="st1" d="M95.07,45.51l-1.97-.04c-.86,0-1.58.03-2.15.1-.04-.05-.06-.12-.06-.2v-.1c.56-.09.93-.2,1.1-.34.18-.14.29-.37.35-.69.11-.59.17-1.58.17-2.98s-.02-2.36-.05-2.92c-.03-.55-.07-.9-.12-1.03-.2-.04-.44-.06-.73-.06-.67,0-1.2.09-1.57.26l-.53,1.32c-.18,0-.32-.03-.41-.1l.19-1.86c0-.09.07-.13.2-.13l2.11.08h2.94l2.3-.08c.14,0,.22.04.22.13-.13.7-.19,1.35-.19,1.93-.06.03-.14.05-.24.05s-.17-.02-.23-.05c-.14-.79-.22-1.22-.24-1.3-.4-.18-.95-.26-1.64-.26-.31,0-.56.02-.76.06-.02.07-.05.4-.09,1s-.05,1.35-.05,2.28v2.15c0,.89.06,1.66.19,2.32.37.06.78.08,1.25.08.02.06.04.13.04.21s-.01.13-.04.16Z"/>
      <path class="st1" d="M97.81,36.8l1.82.04h1.43c.9,0,1.62.19,2.14.58.52.39.78.99.78,1.81,0,.62-.16,1.12-.49,1.52-.32.4-.77.67-1.33.83.28.49.63,1.04,1.05,1.67s.76,1.08,1.02,1.37c.26.29.48.45.65.48.18.03.45.04.82.04.02.06.02.13.02.19s0,.12-.02.19c-.58.03-1.04.07-1.36.13-.32.05-.52.08-.58.08s-.18-.1-.36-.31c-.18-.2-.39-.49-.63-.85s-.46-.7-.65-1.01c-.2-.31-.42-.67-.66-1.07-.24-.4-.4-.65-.45-.74-.51,0-.91-.02-1.19-.05v1.79c0,.48.03,1.01.08,1.58.25.06.6.08,1.06.08.02.06.04.13.04.21s-.01.13-.04.16l-1.6-.04c-.61,0-1.16.03-1.67.1-.04-.05-.06-.12-.06-.2v-.1c.43-.1.7-.24.83-.44.1-.16.17-.36.2-.6.1-.73.14-1.71.14-2.95,0-2.65-.07-4-.22-4.04-.15-.04-.42-.06-.79-.06-.03-.06-.05-.11-.05-.16s.02-.12.05-.22ZM102.93,39.35c0-.59-.17-1.09-.5-1.51s-.77-.62-1.33-.62-.94.02-1.15.05c-.09.35-.13,1.68-.13,3.98.29.02.69.04,1.2.04s.96-.18,1.34-.53c.38-.35.57-.82.57-1.41Z"/>
      <path class="st1" d="M106.26,36.8l1.56.04,1.54-.04s.02.11.02.18l-.02.19c-.35,0-.62.01-.8.04-.14.02-.2.92-.2,2.7v1.96c0,.76.02,1.49.05,2.18.04.7.08,1.05.14,1.06.21.02.56.04,1.06.04.02.06.02.12.02.19s0,.13-.02.18l-1.52-.04c-.84,0-1.53.03-2.06.1-.04-.04-.06-.11-.06-.2v-.1c.53-.11.85-.24.97-.4.07-.1.12-.18.14-.25.02-.07.04-.18.06-.34.1-.62.14-1.64.14-3.04v-1.34c0-1.78-.07-2.68-.2-2.7-.18-.02-.45-.04-.8-.04-.02-.06-.02-.12-.02-.19s0-.13.02-.18Z"/>
      <path class="st1" d="M110.53,36.8l1.82.04h1.54c.98,0,1.74.21,2.3.62.56.42.84,1.07.84,1.95s-.3,1.55-.9,2c-.6.45-1.38.67-2.35.67-.3,0-.52,0-.67-.01-.04-.05-.06-.12-.06-.2l.06-.24c.1,0,.31.01.62.01.64,0,1.17-.19,1.6-.57.43-.38.64-.88.64-1.51s-.19-1.17-.57-1.62-.85-.68-1.41-.68-.99.02-1.28.05c-.05.14-.08.44-.11.9-.02.46-.04,1.71-.04,3.73v1.48c0,.66.02,1.2.06,1.62.38.05.89.07,1.54.07.03.08.05.16.05.23s-.02.13-.05.17l-2.08-.04c-.61,0-1.16.03-1.67.1-.04-.05-.06-.12-.06-.2v-.1c.43-.1.7-.24.83-.44.1-.16.17-.36.2-.6.1-.73.14-1.71.14-2.95,0-2.65-.07-4-.22-4.04-.15-.04-.42-.06-.79-.06-.02-.06-.02-.12-.02-.19s0-.13.02-.18Z"/>
      <path class="st1" d="M125.73,45.51l-1.4-.04c-.61,0-1.14.03-1.6.1-.05-.06-.07-.13-.07-.2l.02-.1c.31-.07.53-.15.65-.25.12-.09.19-.19.19-.31s-.06-.34-.17-.67l-.71-1.8c-.43-.02-.95-.04-1.55-.04l-1.72.04-.3.77c-.4.99-.6,1.7-.6,2.11.18,0,.46.01.84.01.02.06.02.12.02.19s0,.13-.02.18l-1.27-.04c-.5,0-.94.03-1.32.1-.05-.06-.07-.12-.07-.2l.02-.1c.41-.11.71-.29.89-.53.19-.24.47-.78.85-1.63l2.96-6.72h.19l2.76,7.06c.05.15.17.45.38.88.2.44.33.69.39.77.22.02.43.04.62.04.02.06.04.12.04.19s-.01.13-.04.18ZM119.57,41.77l1.54.05c.55,0,1.02-.01,1.39-.04l-1.39-3.67-1.54,3.66Z"/>
      <path class="st1" d="M130.22,45.52l-1.78-.05c-1.09,0-1.9.03-2.44.1-.04-.05-.06-.11-.06-.19v-.11c.57-.11.92-.27,1.06-.47.07-.11.12-.2.13-.27.02-.07.05-.34.09-.82.04-.48.07-1.3.08-2.46v-1.39c0-1.7-.07-2.58-.2-2.63-.23-.04-.51-.06-.83-.06-.02-.06-.04-.12-.04-.19s.01-.13.04-.18l1.34.04h1.15l1.45-.05c1.5,0,2.64.4,3.43,1.21.79.8,1.18,1.84,1.18,3.11s-.43,2.32-1.3,3.16-1.97,1.26-3.31,1.26ZM129.41,37.25c-.38,0-.68.02-.9.05-.1.35-.14,1.13-.14,2.33v3.78c0,.71.02,1.19.05,1.43.54.14,1.1.2,1.68.2,1.17,0,2.03-.32,2.6-.97.56-.64.85-1.57.85-2.77,0-1.09-.31-2.02-.94-2.8-.32-.38-.75-.69-1.3-.92-.55-.23-1.18-.34-1.89-.34Z"/>
      <path class="st1" d="M135.05,37.04s-.01-.08-.01-.13.02-.1.06-.17c.51.06,1.1.1,1.78.1s1.26-.01,1.76-.04c.02.05.02.11.02.18l-.02.19c-.46,0-.79,0-.98.01,0,.3.1.79.29,1.47.2.68.43,1.33.69,1.97l1.46,3.55,1.61-3.55c.32-.71.6-1.41.83-2.08s.35-1.12.35-1.33c-.14-.03-.45-.05-.91-.05-.02-.06-.02-.12-.02-.19s0-.13.02-.18c.53.02,1,.04,1.42.04s.82-.03,1.22-.1c.05.05.07.12.07.2l-.02.1c-.31.1-.56.24-.74.42-.26.26-.57.77-.92,1.51-.18.38-.34.73-.48,1.05-.14.32-.24.53-.28.61l-2.42,5.32h-.2l-2.59-6.23c-.49-1.22-.87-1.98-1.15-2.3-.12-.14-.39-.26-.82-.37Z"/>
      <path class="st1" d="M145.29,36.8l1.56.04,1.54-.04s.02.11.02.18l-.02.19c-.35,0-.62.01-.8.04-.14.02-.2.92-.2,2.7v1.96c0,.76.02,1.49.05,2.18.04.7.08,1.05.14,1.06.21.02.56.04,1.06.04.02.06.02.12.02.19s0,.13-.02.18l-1.52-.04c-.84,0-1.53.03-2.06.1-.04-.04-.06-.11-.06-.2v-.1c.53-.11.85-.24.97-.4.07-.1.12-.18.14-.25.02-.07.04-.18.06-.34.1-.62.14-1.64.14-3.04v-1.34c0-1.78-.07-2.68-.2-2.7-.18-.02-.45-.04-.8-.04-.02-.06-.02-.12-.02-.19s0-.13.02-.18Z"/>
      <path class="st1" d="M154.53,37.55c-.54-.34-1.05-.52-1.55-.52s-.9.14-1.2.41c-.3.27-.46.61-.46,1.03s.16.77.49,1.07c.33.3.86.63,1.58.98,1.17.57,1.91,1.18,2.22,1.82.14.3.22.63.22.97,0,.74-.31,1.33-.94,1.75-.63.42-1.37.64-2.21.64-.46,0-.93-.04-1.43-.13-.5-.09-.85-.18-1.07-.26-.08-.62-.22-1.34-.41-2.14.14-.07.25-.11.33-.11s.13,0,.17.01c.22.56.43.98.62,1.27.17.18.32.32.44.43.13.11.34.22.63.33.29.11.65.17,1.06.17s.79-.14,1.13-.43c.34-.29.5-.66.5-1.1,0-.36-.06-.62-.19-.78s-.22-.28-.28-.36c-.06-.08-.17-.17-.34-.28-.17-.11-.28-.18-.35-.22-.06-.04-.2-.12-.41-.23-.21-.11-.4-.21-.56-.31-.16-.09-.3-.17-.41-.23-.11-.06-.28-.17-.52-.31-.23-.14-.4-.25-.49-.34s-.22-.2-.37-.34-.26-.28-.32-.4c-.16-.34-.24-.67-.24-.97,0-.74.31-1.31.92-1.72.62-.41,1.36-.62,2.23-.62.36,0,.76.05,1.2.14.44.1.78.2,1.02.3-.07.28-.14.86-.2,1.75-.08.04-.16.06-.25.06s-.16-.02-.23-.05c0-.1-.06-.31-.14-.65-.09-.34-.15-.55-.19-.64Z"/>
      <path class="st1" d="M165.99,41.19c0,.56-.08,1.07-.23,1.54s-.35.85-.59,1.15c-.24.3-.51.57-.82.8-.31.24-.61.42-.89.54-.28.12-.57.23-.86.31-.42.12-.74.18-.96.18-1.17,0-2.16-.43-2.99-1.3-.82-.87-1.24-1.94-1.24-3.22,0-.56.08-1.07.23-1.54.16-.47.35-.85.59-1.16.24-.3.51-.57.82-.81.31-.24.61-.42.9-.55s.57-.23.85-.31c.42-.12.74-.18.97-.18,1.16,0,2.15.44,2.98,1.33s1.24,1.96,1.24,3.22ZM162.01,45.09c.9,0,1.59-.31,2.06-.92.47-.61.7-1.4.7-2.36,0-.74-.13-1.46-.4-2.15-.27-.69-.66-1.26-1.18-1.72-.52-.46-1.1-.69-1.75-.69-.9,0-1.6.31-2.08.94-.48.63-.73,1.41-.73,2.33,0,.74.14,1.46.41,2.15.28.69.68,1.27,1.21,1.72.53.46,1.12.68,1.76.68Z"/>
      <path class="st1" d="M167.35,36.8l1.82.04h1.43c.9,0,1.62.19,2.14.58.52.39.78.99.78,1.81,0,.62-.16,1.12-.49,1.52-.32.4-.77.67-1.33.83.28.49.63,1.04,1.05,1.67s.76,1.08,1.02,1.37c.26.29.48.45.65.48s.45.04.82.04c.02.06.02.13.02.19s0,.12-.02.19c-.58.03-1.04.07-1.36.13s-.52.08-.58.08-.18-.1-.36-.31c-.18-.2-.39-.49-.63-.85-.24-.36-.46-.7-.65-1.01-.2-.31-.42-.67-.66-1.07s-.39-.65-.45-.74c-.51,0-.91-.02-1.19-.05v1.79c0,.48.03,1.01.08,1.58.25.06.6.08,1.06.08.02.06.04.13.04.21s-.01.13-.04.16l-1.6-.04c-.61,0-1.16.03-1.67.1-.04-.05-.06-.12-.06-.2v-.1c.43-.1.7-.24.83-.44.1-.16.17-.36.2-.6.1-.73.14-1.71.14-2.95,0-2.65-.07-4-.22-4.04-.15-.04-.42-.06-.79-.06-.03-.06-.05-.11-.05-.16s.02-.12.05-.22ZM172.47,39.35c0-.59-.17-1.09-.5-1.51s-.77-.62-1.33-.62-.94.02-1.15.05c-.09.35-.13,1.68-.13,3.98.29.02.69.04,1.2.04s.96-.18,1.34-.53c.38-.35.57-.82.57-1.41Z"/>
    </g>
  </g>
  <g>
    <g>
      <path class="st1" d="M50.58,17.17c-.33,1.01-1.45,3.38-2.87,3.26-4.82,6.77-5.7,13.48-2.27,21.15,1.03,2.3,2.68,4.05,4.84,5.34,2.59,1.55,5.29,2.79,8.09,3.88l-.54.31h-.17c-2.01-1.24-4.15-2.26-6.31-3.31-3.94-1.92-5.78-4.61-7.1-8.69-.6-1.87-1.05-3.71-1.12-5.69-.17-4.72,1.64-9.35,4.36-13.14-.25-1.58,1.23-2.59,2.57-2.98.07-.02.21-.11.23-.14h.29Z"/>
      <path class="st1" d="M53.92,48.11c-1.63.7-2.65-2.22-2.62-3.53,1.19.74,2.61,1.86,2.62,3.53Z"/>
      <path class="st1" d="M45.31,39.79c-1.31-1.09-.2-3.42.8-4.51.27,1.29.53,3.66-.8,4.51Z"/>
      <path class="st1" d="M50.17,46.27c-1.78.04-2.01-3.02-1.59-4.13.89,1.03,2.14,2.68,1.59,4.13Z"/>
      <path class="st1" d="M44.29,35.64c-1.13-1.3.38-3.36,1.63-4.11,0,1.3-.22,3.52-1.63,4.11Z"/>
      <path class="st1" d="M50.08,21.72c-.83.98-2.47,2.52-3.64,1.71-.19-1.67,2.43-2.13,3.64-1.71Z"/>
      <path class="st1" d="M47.96,24.62c-.52,1.05-1.67,2.87-3.11,2.64-.64-1.54,1.63-2.71,3.11-2.64Z"/>
      <path class="st1" d="M46.55,27.93c-.31,1.22-1.02,3.27-2.44,3.44-.96-1.36,1.06-3.16,2.44-3.44Z"/>
      <path class="st1" d="M47.19,43.5c-1.8-.46-.81-3.37-.13-4.44.53,1.16.92,3.31.13,4.44Z"/>
      <path class="st1" d="M46.08,44.27c-1.77,1.29-3.47-1.54-4.02-2.93,1.26.32,3.74,1.45,4.02,2.93Z"/>
      <path class="st1" d="M53.25,49.16c-.68,1.9-3.57,1.18-4.8.31,1.37-.55,3.65-1.51,4.8-.31Z"/>
      <path class="st1" d="M49.24,47.15c-1.04,1.74-3.8.07-4.64-1.07,1.31-.09,4.04-.31,4.64,1.07Z"/>
      <path class="st1" d="M42.99,35.93c-1.84.25-2.55-2.97-2.43-4.38.99,1.02,2.94,2.83,2.43,4.38Z"/>
      <path class="st1" d="M43.5,27.13c-1.67-.78-1-3.76-.25-5.08.42,1.24,1.39,4.06.25,5.08Z"/>
      <path class="st1" d="M42.75,31.5c-1.82-.28-1.82-3.49-1.39-4.93.68,1.2,2.22,3.54,1.39,4.93Z"/>
      <path class="st1" d="M44.04,40.29c-1.76.49-2.94-2.27-3.16-3.68,1.19.65,3.52,2.11,3.16,3.68Z"/>
      <path class="st1" d="M45.2,23.17c-1.46-1.18-.18-3.93.76-4.98.17,1.3.57,4.22-.76,4.98Z"/>
    </g>
    <g>
      <path class="st1" d="M201.51,17.17c.33,1.01,1.46,3.38,2.88,3.26,4.84,6.77,5.72,13.48,2.28,21.15-1.03,2.3-2.69,4.05-4.86,5.34-2.6,1.55-5.31,2.79-8.13,3.88l.54.31h.17c2.02-1.24,4.17-2.26,6.34-3.31,3.96-1.92,5.8-4.61,7.13-8.69.61-1.87,1.05-3.71,1.12-5.69.17-4.72-1.64-9.35-4.38-13.14.25-1.58-1.23-2.59-2.58-2.98-.07-.02-.21-.11-.24-.14h-.27,0Z"/>
      <path class="st1" d="M198.17,48.11c1.64.7,2.66-2.22,2.63-3.53-1.19.74-2.62,1.86-2.63,3.53Z"/>
      <path class="st1" d="M206.8,39.79c1.32-1.09.2-3.42-.81-4.51-.27,1.29-.54,3.66.81,4.51Z"/>
      <path class="st1" d="M201.93,46.27c1.79.04,2.02-3.02,1.6-4.13-.9,1.03-2.15,2.68-1.6,4.13Z"/>
      <path class="st1" d="M207.83,35.64c1.13-1.3-.38-3.36-1.63-4.11,0,1.3.22,3.52,1.63,4.11Z"/>
      <path class="st1" d="M202.02,21.72c.84.98,2.48,2.52,3.65,1.71.19-1.67-2.44-2.13-3.65-1.71Z"/>
      <path class="st1" d="M204.15,24.62c.52,1.05,1.68,2.87,3.12,2.64.64-1.54-1.64-2.71-3.12-2.64Z"/>
      <path class="st1" d="M205.57,27.93c.31,1.22,1.03,3.27,2.45,3.44.96-1.36-1.06-3.16-2.45-3.44Z"/>
      <path class="st1" d="M204.92,43.5c1.81-.46.81-3.37.13-4.44-.53,1.16-.92,3.31-.13,4.44Z"/>
      <path class="st1" d="M206.03,44.27c1.78,1.29,3.48-1.54,4.03-2.93-1.26.32-3.75,1.45-4.03,2.93Z"/>
      <path class="st1" d="M198.84,49.16c.69,1.9,3.58,1.18,4.82.31-1.38-.55-3.67-1.51-4.82-.31Z"/>
      <path class="st1" d="M202.86,47.15c1.04,1.74,3.82.07,4.66-1.07-1.31-.09-4.06-.31-4.66,1.07Z"/>
      <path class="st1" d="M209.14,35.93c1.84.25,2.56-2.97,2.44-4.38-1,1.02-2.95,2.83-2.44,4.38Z"/>
      <path class="st1" d="M208.63,27.13c1.68-.78,1-3.76.26-5.08-.42,1.24-1.39,4.06-.26,5.08Z"/>
      <path class="st1" d="M209.38,31.5c1.83-.28,1.83-3.49,1.39-4.93-.68,1.2-2.22,3.54-1.39,4.93Z"/>
      <path class="st1" d="M208.08,40.29c1.77.49,2.95-2.27,3.18-3.68-1.19.65-3.53,2.11-3.18,3.68Z"/>
      <path class="st1" d="M206.91,23.17c1.46-1.18.18-3.93-.76-4.98-.17,1.3-.57,4.22.76,4.98Z"/>
    </g>
  </g>
</svg>