<?xml version="1.0" encoding="UTF-8"?>
<svg id="Capa_1" xmlns="http://www.w3.org/2000/svg" version="1.1" viewBox="0 0 256.59 68.27">
  <!-- Generator: Adobe Illustrator 30.3.0, SVG Export Plug-In . SVG Version: 2.1.3 Build 182)  -->
  <defs>
    <style>
      .st0 {
        isolation: isolate;
      }

      .st1 {
        fill: #066083;
      }
    </style>
  </defs>
  <g class="st0">
    <g class="st0">
      <path class="st1" d="M55.7,28.69h1.18c.4-.01.75-.03,1.06-.06.04.05.06.12.06.23v.07c-.2.06-.35.17-.44.31-.16.21-.71,1.18-1.66,2.9l1.57,3.88,1.4-3.55c.67-1.69,1.05-2.82,1.14-3.41-.15-.03-.46-.05-.91-.05-.02-.04-.04-.1-.04-.17s.01-.14.04-.2c.53.02.97.04,1.34.04s.75-.03,1.15-.1c.04.05.06.12.06.2v.1c-.23.08-.41.2-.57.36-.16.16-.35.46-.59.91-.24.45-.42.82-.55,1.12l-2.75,6.52h-.2l-1.82-4.45-2.15,4.45h-.2l-2.52-6.23c-.47-1.2-.85-1.96-1.13-2.29-.13-.14-.41-.27-.84-.38,0-.03-.01-.08-.01-.14s.02-.12.06-.16c.51.06,1.06.1,1.66.1s1.22-.01,1.87-.04c.02.03.02.09.02.17l-.02.2c-.46,0-.79,0-.98.01.05.69.38,1.84,1,3.44l1.39,3.55,1.62-3.26-.48-1.2c-.49-1.22-.84-1.99-1.06-2.32-.1-.14-.28-.24-.56-.31,0-.02-.01-.06-.01-.12s.02-.12.05-.18c.38.03.92.05,1.61.05h1.25ZM54.77,29.05c.03.5.32,1.38.85,2.64.66-1.49,1.02-2.37,1.07-2.64-.36-.02-.68-.04-.97-.04l-.95.04Z"/>
      <path class="st1" d="M70.38,33.03c0,.56-.08,1.07-.23,1.54-.16.47-.35.85-.59,1.15s-.51.57-.82.8c-.31.24-.61.42-.89.54-.28.12-.57.23-.86.31-.42.12-.74.18-.96.18-1.17,0-2.16-.43-2.99-1.3-.82-.87-1.24-1.94-1.24-3.22,0-.56.08-1.07.23-1.54.16-.47.35-.85.59-1.16.24-.3.51-.57.82-.81s.61-.42.9-.55.57-.23.85-.31c.42-.12.74-.18.97-.18,1.16,0,2.15.44,2.98,1.33.82.88,1.24,1.96,1.24,3.22ZM66.4,36.93c.9,0,1.59-.31,2.06-.92.47-.61.7-1.4.7-2.36,0-.74-.13-1.46-.4-2.15-.27-.69-.66-1.26-1.18-1.72s-1.1-.69-1.75-.69c-.9,0-1.6.31-2.08.94-.48.63-.73,1.41-.73,2.33,0,.74.14,1.46.41,2.15.28.69.68,1.27,1.21,1.72.53.46,1.12.68,1.76.68Z"/>
      <path class="st1" d="M71.74,28.64l1.82.04h1.43c.9,0,1.62.19,2.14.58.52.39.78.99.78,1.81,0,.62-.16,1.12-.49,1.52-.32.4-.77.67-1.33.83.28.49.63,1.04,1.05,1.67s.76,1.08,1.02,1.37c.26.29.48.45.65.48.18.03.45.04.82.04.02.06.02.13.02.19s0,.12-.02.19c-.58.03-1.04.07-1.36.13-.32.05-.52.08-.58.08s-.18-.1-.36-.31c-.18-.2-.39-.49-.63-.85-.24-.36-.46-.7-.65-1.01-.2-.31-.42-.67-.66-1.07-.24-.4-.39-.65-.45-.74-.51,0-.91-.02-1.19-.05v1.79c0,.48.03,1.01.08,1.58.25.06.6.08,1.06.08.02.06.04.13.04.21s-.01.13-.04.16l-1.6-.04c-.61,0-1.16.03-1.67.1-.04-.05-.06-.12-.06-.2v-.1c.43-.1.7-.24.83-.44.1-.16.17-.36.2-.6.1-.73.14-1.71.14-2.95,0-2.65-.07-4-.22-4.04-.15-.04-.42-.06-.79-.06-.03-.06-.05-.11-.05-.16s.02-.12.05-.22ZM76.86,31.19c0-.59-.17-1.09-.5-1.51s-.77-.62-1.33-.62-.94.02-1.15.05c-.09.35-.13,1.68-.13,3.98.29.02.69.04,1.2.04s.96-.18,1.34-.53c.38-.35.57-.82.57-1.41Z"/>
      <path class="st1" d="M84.93,37.36l-2.05-.05h-.79c-.9,0-1.57.03-2,.1-.04-.05-.06-.12-.06-.2v-.1c.43-.1.7-.24.83-.44.1-.16.19-.47.25-.92.06-.45.09-1.33.09-2.62v-2.42c0-1.1-.05-1.65-.16-1.66-.15-.02-.39-.04-.72-.04-.02-.06-.04-.12-.04-.19s.01-.13.04-.18l1.15.04c.74,0,1.3-.03,1.7-.1.05.06.07.13.07.19l-.02.11c-.33.09-.54.2-.65.33-.1.13-.17.32-.19.57-.1.98-.14,2.05-.14,3.2v2.27c0,.75.02,1.28.07,1.58.29.03.62.05,1.01.05.82,0,1.64-.11,2.45-.32.13-.18.25-.43.35-.74.11-.31.17-.49.2-.56.04,0,.1-.01.18-.01s.17.04.26.11c-.03.17-.08.52-.16,1.06-.07.54-.12.81-.13.83-.1.08-.62.12-1.54.12Z"/>
      <path class="st1" d="M91.26,37.36l-1.78-.05c-1.09,0-1.9.03-2.44.1-.04-.05-.06-.11-.06-.19v-.11c.57-.11.92-.27,1.06-.47.07-.11.12-.2.13-.27.02-.07.05-.34.09-.82.04-.48.07-1.3.08-2.46v-1.39c0-1.7-.07-2.58-.2-2.63-.23-.04-.51-.06-.83-.06-.02-.06-.04-.12-.04-.19s.01-.13.04-.18l1.34.04h1.15l1.45-.05c1.5,0,2.64.4,3.43,1.21.79.8,1.18,1.84,1.18,3.11s-.43,2.32-1.3,3.16c-.86.84-1.97,1.26-3.31,1.26ZM90.45,29.1c-.38,0-.68.02-.9.05-.1.35-.14,1.13-.14,2.33v3.78c0,.71.02,1.19.05,1.43.54.14,1.1.2,1.68.2,1.17,0,2.03-.32,2.6-.97.56-.64.85-1.57.85-2.77,0-1.09-.31-2.02-.94-2.8-.32-.38-.75-.69-1.3-.92-.55-.23-1.18-.34-1.89-.34Z"/>
      <path class="st1" d="M106.37,37.35l-1.97-.04c-.86,0-1.58.03-2.15.1-.04-.05-.06-.12-.06-.2v-.1c.56-.09.93-.2,1.1-.34.18-.14.29-.37.35-.69.11-.59.17-1.58.17-2.98s-.02-2.36-.05-2.92c-.03-.55-.07-.9-.12-1.03-.2-.04-.44-.06-.73-.06-.67,0-1.2.09-1.57.26l-.53,1.32c-.18,0-.32-.03-.41-.1l.19-1.86c0-.09.07-.13.2-.13l2.11.08h2.94l2.3-.08c.14,0,.22.04.22.13-.13.7-.19,1.35-.19,1.93-.06.03-.14.05-.24.05s-.17-.02-.23-.05c-.14-.79-.22-1.22-.24-1.3-.4-.18-.95-.26-1.64-.26-.31,0-.56.02-.76.06-.02.07-.05.4-.09,1s-.05,1.35-.05,2.28v2.15c0,.89.06,1.66.19,2.32.37.06.78.08,1.25.08.02.06.04.13.04.21s-.01.13-.04.16Z"/>
      <path class="st1" d="M109.11,28.64l1.82.04h1.43c.9,0,1.62.19,2.14.58.52.39.78.99.78,1.81,0,.62-.16,1.12-.49,1.52-.32.4-.77.67-1.33.83.28.49.63,1.04,1.05,1.67s.76,1.08,1.02,1.37c.26.29.48.45.65.48.18.03.45.04.82.04.02.06.02.13.02.19s0,.12-.02.19c-.58.03-1.04.07-1.36.13-.32.05-.52.08-.58.08s-.18-.1-.36-.31c-.18-.2-.39-.49-.63-.85-.24-.36-.46-.7-.65-1.01-.2-.31-.42-.67-.66-1.07-.24-.4-.39-.65-.45-.74-.51,0-.91-.02-1.19-.05v1.79c0,.48.03,1.01.08,1.58.25.06.6.08,1.06.08.02.06.04.13.04.21s-.01.13-.04.16l-1.6-.04c-.61,0-1.16.03-1.67.1-.04-.05-.06-.12-.06-.2v-.1c.43-.1.7-.24.83-.44.1-.16.17-.36.2-.6.1-.73.14-1.71.14-2.95,0-2.65-.07-4-.22-4.04-.15-.04-.42-.06-.79-.06-.03-.06-.05-.11-.05-.16s.02-.12.05-.22ZM114.23,31.19c0-.59-.17-1.09-.5-1.51s-.77-.62-1.33-.62-.94.02-1.15.05c-.09.35-.13,1.68-.13,3.98.29.02.69.04,1.2.04s.96-.18,1.34-.53c.38-.35.57-.82.57-1.41Z"/>
      <path class="st1" d="M125.96,37.35l-1.4-.04c-.61,0-1.14.03-1.6.1-.05-.06-.07-.13-.07-.2l.02-.1c.31-.07.53-.15.65-.25.12-.09.19-.19.19-.31s-.06-.34-.17-.67l-.71-1.8c-.43-.02-.95-.04-1.55-.04l-1.72.04-.3.77c-.4.99-.6,1.7-.6,2.11.18,0,.46.01.84.01.02.06.02.12.02.19s0,.13-.02.18l-1.27-.04c-.5,0-.94.03-1.32.1-.05-.06-.07-.12-.07-.2l.02-.1c.41-.11.71-.29.89-.53.19-.24.47-.78.85-1.63l2.96-6.72h.19l2.76,7.06c.05.15.17.45.38.88.2.44.33.69.39.77.22.02.43.04.62.04.02.06.04.12.04.19s-.01.13-.04.18ZM119.79,33.62l1.54.05c.55,0,1.02-.01,1.39-.04l-1.39-3.67-1.54,3.66Z"/>
      <path class="st1" d="M125.02,28.88s-.01-.08-.01-.13.02-.1.06-.17c.51.06,1.1.1,1.78.1s1.26-.01,1.76-.04c.02.05.02.11.02.18l-.02.19c-.46,0-.79,0-.98.01,0,.3.1.79.29,1.47.2.68.43,1.33.69,1.97l1.46,3.55,1.61-3.55c.32-.71.6-1.41.83-2.08.23-.68.35-1.12.35-1.33-.14-.03-.45-.05-.91-.05-.02-.06-.02-.12-.02-.19s0-.13.02-.18c.53.02,1,.04,1.42.04s.82-.03,1.22-.1c.05.05.07.12.07.2l-.02.1c-.31.1-.56.24-.74.42-.26.26-.57.77-.92,1.51-.18.38-.34.73-.48,1.05-.14.32-.24.53-.28.61l-2.42,5.32h-.2l-2.59-6.23c-.49-1.22-.87-1.98-1.15-2.3-.12-.14-.39-.26-.82-.37Z"/>
      <path class="st1" d="M139.85,37.36l-2.05-.05h-.64c-.93,0-1.6.03-2,.1-.04-.05-.06-.12-.06-.2v-.1c.43-.1.7-.24.83-.44.1-.16.17-.36.2-.6.1-.73.14-1.72.14-2.98,0-2.63-.07-3.97-.22-4.02-.15-.04-.42-.06-.79-.06-.02-.06-.02-.12-.02-.19s0-.13.02-.18l1.82.04h1.38l2.83-.08c.14,0,.2.04.2.13,0,0-.01.1-.04.29-.08.5-.14,1.05-.17,1.67-.1.05-.18.07-.26.07s-.15-.02-.21-.05c-.1-.73-.17-1.18-.22-1.36-.73-.17-1.38-.25-1.96-.25s-.98.02-1.21.05c-.1.51-.14,1.65-.14,3.42.13.03.47.05,1.02.05s.96-.02,1.24-.05.47-.1.59-.19c.12-.1.22-.29.28-.59.17,0,.29.02.37.07-.08.46-.12.79-.12,1.01l.02,1.04c-.06.04-.13.06-.22.06l-.17-.02-.13-.79c-.43-.07-.94-.11-1.51-.11s-1.04.02-1.38.06v2.15c0,.75.02,1.28.07,1.58.25.03.53.05.85.05.82,0,1.64-.11,2.45-.32.12-.19.24-.44.35-.75.11-.31.18-.49.19-.55.05,0,.11-.01.19-.01s.17.04.26.11c-.12.57-.21,1.16-.26,1.76,0,.1-.06.15-.16.16-.35.06-.82.08-1.4.08Z"/>
      <path class="st1" d="M147.8,37.36l-2.05-.05h-.79c-.9,0-1.57.03-2,.1-.04-.05-.06-.12-.06-.2v-.1c.43-.1.7-.24.83-.44.1-.16.19-.47.25-.92.06-.45.09-1.33.09-2.62v-2.42c0-1.1-.05-1.65-.16-1.66-.15-.02-.39-.04-.72-.04-.02-.06-.04-.12-.04-.19s.01-.13.04-.18l1.15.04c.74,0,1.3-.03,1.7-.1.05.06.07.13.07.19l-.02.11c-.33.09-.54.2-.65.33-.1.13-.17.32-.19.57-.1.98-.14,2.05-.14,3.2v2.27c0,.75.02,1.28.07,1.58.29.03.62.05,1.01.05.82,0,1.64-.11,2.45-.32.13-.18.25-.43.35-.74.11-.31.17-.49.2-.56.04,0,.1-.01.18-.01s.17.04.26.11c-.03.17-.08.52-.16,1.06-.07.54-.12.81-.13.83-.1.08-.62.12-1.54.12Z"/>
      <path class="st1" d="M162.29,37.35l-1.4-.04c-.61,0-1.14.03-1.6.1-.05-.06-.07-.13-.07-.2l.02-.1c.31-.07.53-.15.65-.25.12-.09.19-.19.19-.31s-.06-.34-.17-.67l-.71-1.8c-.43-.02-.95-.04-1.55-.04l-1.72.04-.3.77c-.4.99-.6,1.7-.6,2.11.18,0,.46.01.84.01.02.06.02.12.02.19s0,.13-.02.18l-1.27-.04c-.5,0-.94.03-1.32.1-.05-.06-.07-.12-.07-.2l.02-.1c.41-.11.71-.29.89-.53.19-.24.47-.78.85-1.63l2.96-6.72h.19l2.76,7.06c.05.15.17.45.38.88.2.44.33.69.39.77.22.02.43.04.62.04.02.06.04.12.04.19s-.01.13-.04.18ZM156.12,33.62l1.54.05c.55,0,1.02-.01,1.39-.04l-1.39-3.67-1.54,3.66Z"/>
      <path class="st1" d="M168.71,28.69h1.18c.4-.01.75-.03,1.06-.06.04.05.06.12.06.23v.07c-.2.06-.35.17-.44.31-.16.21-.71,1.18-1.66,2.9l1.57,3.88,1.4-3.55c.67-1.69,1.05-2.82,1.14-3.41-.15-.03-.46-.05-.91-.05-.02-.04-.04-.1-.04-.17s.01-.14.04-.2c.53.02.97.04,1.34.04s.75-.03,1.15-.1c.04.05.06.12.06.2v.1c-.23.08-.41.2-.57.36-.16.16-.35.46-.59.91-.24.45-.42.82-.55,1.12l-2.75,6.52h-.2l-1.82-4.45-2.15,4.45h-.2l-2.52-6.23c-.47-1.2-.85-1.96-1.13-2.29-.13-.14-.41-.27-.84-.38,0-.03-.01-.08-.01-.14s.02-.12.06-.16c.51.06,1.06.1,1.66.1s1.22-.01,1.87-.04c.02.03.02.09.02.17l-.02.2c-.46,0-.79,0-.98.01.05.69.38,1.84,1,3.44l1.39,3.55,1.62-3.26-.48-1.2c-.49-1.22-.84-1.99-1.06-2.32-.1-.14-.28-.24-.56-.31,0-.02-.01-.06-.01-.12s.02-.12.05-.18c.38.03.92.05,1.61.05h1.25ZM167.79,29.05c.03.5.32,1.38.85,2.64.66-1.49,1.02-2.37,1.07-2.64-.36-.02-.68-.04-.97-.04l-.95.04Z"/>
      <path class="st1" d="M182.32,37.35l-1.4-.04c-.61,0-1.14.03-1.6.1-.05-.06-.07-.13-.07-.2l.02-.1c.31-.07.53-.15.65-.25.12-.09.19-.19.19-.31s-.06-.34-.17-.67l-.71-1.8c-.43-.02-.95-.04-1.55-.04l-1.72.04-.3.77c-.4.99-.6,1.7-.6,2.11.18,0,.46.01.84.01.02.06.02.12.02.19s0,.13-.02.18l-1.27-.04c-.5,0-.94.03-1.32.1-.05-.06-.07-.12-.07-.2l.02-.1c.41-.11.71-.29.89-.53.19-.24.47-.78.85-1.63l2.96-6.72h.19l2.76,7.06c.05.15.17.45.38.88.2.44.33.69.39.77.22.02.43.04.62.04.02.06.04.12.04.19s-.01.13-.04.18ZM176.15,33.62l1.54.05c.55,0,1.02-.01,1.39-.04l-1.39-3.67-1.54,3.66Z"/>
      <path class="st1" d="M182.88,28.64l1.82.04h1.43c.9,0,1.62.19,2.14.58.52.39.78.99.78,1.81,0,.62-.16,1.12-.49,1.52-.32.4-.77.67-1.33.83.28.49.63,1.04,1.05,1.67s.76,1.08,1.02,1.37c.26.29.48.45.65.48.18.03.45.04.82.04.02.06.02.13.02.19s0,.12-.02.19c-.58.03-1.04.07-1.36.13-.32.05-.52.08-.58.08s-.18-.1-.36-.31c-.18-.2-.39-.49-.63-.85-.24-.36-.46-.7-.65-1.01-.2-.31-.42-.67-.66-1.07-.24-.4-.39-.65-.45-.74-.51,0-.91-.02-1.19-.05v1.79c0,.48.03,1.01.08,1.58.25.06.6.08,1.06.08.02.06.04.13.04.21s-.01.13-.04.16l-1.6-.04c-.61,0-1.16.03-1.67.1-.04-.05-.06-.12-.06-.2v-.1c.43-.1.7-.24.83-.44.1-.16.17-.36.2-.6.1-.73.14-1.71.14-2.95,0-2.65-.07-4-.22-4.04-.15-.04-.42-.06-.79-.06-.03-.06-.05-.11-.05-.16s.02-.12.05-.22ZM188.01,31.19c0-.59-.17-1.09-.5-1.51s-.77-.62-1.33-.62-.94.02-1.15.05c-.09.35-.13,1.68-.13,3.98.29.02.69.04,1.2.04s.96-.18,1.34-.53c.38-.35.57-.82.57-1.41Z"/>
      <path class="st1" d="M195.26,37.36l-1.78-.05c-1.09,0-1.9.03-2.44.1-.04-.05-.06-.11-.06-.19v-.11c.57-.11.92-.27,1.06-.47.07-.11.12-.2.13-.27.02-.07.05-.34.09-.82.04-.48.07-1.3.08-2.46v-1.39c0-1.7-.07-2.58-.2-2.63-.23-.04-.51-.06-.83-.06-.02-.06-.04-.12-.04-.19s.01-.13.04-.18l1.34.04h1.15l1.45-.05c1.5,0,2.64.4,3.43,1.21.79.8,1.18,1.84,1.18,3.11s-.43,2.32-1.3,3.16c-.86.84-1.97,1.26-3.31,1.26ZM194.44,29.1c-.38,0-.68.02-.9.05-.1.35-.14,1.13-.14,2.33v3.78c0,.71.02,1.19.05,1.43.54.14,1.1.2,1.68.2,1.17,0,2.03-.32,2.6-.97.56-.64.85-1.57.85-2.77,0-1.09-.31-2.02-.94-2.8-.32-.38-.75-.69-1.3-.92-.55-.23-1.18-.34-1.89-.34Z"/>
      <path class="st1" d="M206.19,29.4c-.54-.34-1.05-.52-1.55-.52s-.9.14-1.2.41c-.3.27-.46.61-.46,1.03s.16.77.49,1.07c.33.3.86.63,1.58.98,1.17.57,1.91,1.18,2.22,1.82.14.3.22.63.22.97,0,.74-.31,1.33-.94,1.75-.63.42-1.37.64-2.21.64-.46,0-.93-.04-1.43-.13-.5-.09-.85-.18-1.07-.26-.08-.62-.22-1.34-.41-2.14.14-.07.25-.11.33-.11s.13,0,.17.01c.22.56.43.98.62,1.27.17.18.32.32.44.43.13.11.34.22.63.33.29.11.65.17,1.06.17s.79-.14,1.13-.43c.34-.29.5-.66.5-1.1,0-.36-.06-.62-.19-.78s-.22-.28-.28-.36-.17-.17-.34-.28c-.17-.11-.28-.18-.35-.22-.06-.04-.2-.12-.41-.23-.21-.11-.4-.21-.56-.31-.16-.09-.3-.17-.41-.23-.11-.06-.28-.17-.52-.31-.23-.14-.4-.25-.49-.34-.1-.08-.22-.2-.37-.34-.15-.14-.26-.28-.32-.4-.16-.34-.24-.67-.24-.97,0-.74.31-1.31.92-1.72.62-.41,1.36-.62,2.23-.62.36,0,.76.05,1.2.14.44.1.78.2,1.02.3-.07.28-.14.86-.2,1.75-.08.04-.16.06-.25.06s-.16-.02-.23-.05c0-.1-.06-.31-.14-.65-.09-.34-.15-.55-.19-.64Z"/>
    </g>
  </g>
  <g>
    <g>
      <path class="st1" d="M35.8,17.17c-.33,1.01-1.45,3.38-2.87,3.26-4.82,6.77-5.7,13.48-2.27,21.15,1.03,2.3,2.68,4.05,4.84,5.34,2.59,1.55,5.29,2.79,8.09,3.88l-.54.31h-.17c-2.01-1.24-4.15-2.26-6.31-3.31-3.94-1.92-5.78-4.61-7.1-8.69-.6-1.87-1.05-3.71-1.12-5.69-.17-4.72,1.64-9.35,4.36-13.14-.25-1.58,1.23-2.59,2.57-2.98.07-.02.21-.11.23-.14h.29Z"/>
      <path class="st1" d="M39.14,48.11c-1.63.7-2.65-2.22-2.62-3.53,1.19.74,2.61,1.86,2.62,3.53Z"/>
      <path class="st1" d="M30.53,39.79c-1.31-1.09-.2-3.42.8-4.51.27,1.29.53,3.66-.8,4.51Z"/>
      <path class="st1" d="M35.39,46.27c-1.78.04-2.01-3.02-1.59-4.13.89,1.03,2.14,2.68,1.59,4.13Z"/>
      <path class="st1" d="M29.51,35.64c-1.13-1.3.38-3.36,1.63-4.11,0,1.3-.22,3.52-1.63,4.11Z"/>
      <path class="st1" d="M35.3,21.72c-.83.98-2.47,2.52-3.64,1.71-.19-1.67,2.43-2.13,3.64-1.71Z"/>
      <path class="st1" d="M33.18,24.62c-.52,1.05-1.67,2.87-3.11,2.64-.64-1.54,1.63-2.71,3.11-2.64Z"/>
      <path class="st1" d="M31.77,27.93c-.31,1.22-1.02,3.27-2.44,3.44-.96-1.36,1.06-3.16,2.44-3.44Z"/>
      <path class="st1" d="M32.41,43.5c-1.8-.46-.81-3.37-.13-4.44.53,1.16.92,3.31.13,4.44Z"/>
      <path class="st1" d="M31.3,44.27c-1.77,1.29-3.47-1.54-4.02-2.93,1.26.32,3.74,1.45,4.02,2.93Z"/>
      <path class="st1" d="M38.47,49.16c-.68,1.9-3.57,1.18-4.8.31,1.37-.55,3.65-1.51,4.8-.31Z"/>
      <path class="st1" d="M34.46,47.15c-1.04,1.74-3.8.07-4.64-1.07,1.31-.09,4.04-.31,4.64,1.07Z"/>
      <path class="st1" d="M28.21,35.93c-1.84.25-2.55-2.97-2.43-4.38.99,1.02,2.94,2.83,2.43,4.38Z"/>
      <path class="st1" d="M28.72,27.13c-1.67-.78-1-3.76-.25-5.08.42,1.24,1.39,4.06.25,5.08Z"/>
      <path class="st1" d="M27.97,31.5c-1.82-.28-1.82-3.49-1.39-4.93.68,1.2,2.22,3.54,1.39,4.93Z"/>
      <path class="st1" d="M29.26,40.29c-1.76.49-2.94-2.27-3.16-3.68,1.19.65,3.52,2.11,3.16,3.68Z"/>
      <path class="st1" d="M30.42,23.17c-1.46-1.18-.18-3.93.76-4.98.17,1.3.57,4.22-.76,4.98Z"/>
    </g>
    <g>
      <path class="st1" d="M220.28,17.17c.33,1.01,1.46,3.38,2.88,3.26,4.84,6.77,5.72,13.48,2.28,21.15-1.03,2.3-2.69,4.05-4.86,5.34-2.6,1.55-5.31,2.79-8.13,3.88l.54.31h.17c2.02-1.24,4.17-2.26,6.34-3.31,3.96-1.92,5.8-4.61,7.13-8.69.61-1.87,1.05-3.71,1.12-5.69.17-4.72-1.64-9.35-4.38-13.14.25-1.58-1.23-2.59-2.58-2.98-.07-.02-.21-.11-.24-.14h-.27,0Z"/>
      <path class="st1" d="M216.94,48.11c1.64.7,2.66-2.22,2.63-3.53-1.19.74-2.62,1.86-2.63,3.53Z"/>
      <path class="st1" d="M225.57,39.79c1.32-1.09.2-3.42-.81-4.51-.27,1.29-.54,3.66.81,4.51Z"/>
      <path class="st1" d="M220.7,46.27c1.79.04,2.02-3.02,1.6-4.13-.9,1.03-2.15,2.68-1.6,4.13Z"/>
      <path class="st1" d="M226.6,35.64c1.13-1.3-.38-3.36-1.63-4.11,0,1.3.22,3.52,1.63,4.11Z"/>
      <path class="st1" d="M220.79,21.72c.84.98,2.48,2.52,3.65,1.71.19-1.67-2.44-2.13-3.65-1.71Z"/>
      <path class="st1" d="M222.92,24.62c.52,1.05,1.68,2.87,3.12,2.64.64-1.54-1.64-2.71-3.12-2.64Z"/>
      <path class="st1" d="M224.34,27.93c.31,1.22,1.03,3.27,2.45,3.44.96-1.36-1.06-3.16-2.45-3.44Z"/>
      <path class="st1" d="M223.69,43.5c1.81-.46.81-3.37.13-4.44-.53,1.16-.92,3.31-.13,4.44Z"/>
      <path class="st1" d="M224.8,44.27c1.78,1.29,3.48-1.54,4.03-2.93-1.26.32-3.75,1.45-4.03,2.93Z"/>
      <path class="st1" d="M217.61,49.16c.69,1.9,3.58,1.18,4.82.31-1.38-.55-3.67-1.51-4.82-.31Z"/>
      <path class="st1" d="M221.63,47.15c1.04,1.74,3.82.07,4.66-1.07-1.31-.09-4.06-.31-4.66,1.07Z"/>
      <path class="st1" d="M227.91,35.93c1.84.25,2.56-2.97,2.44-4.38-1,1.02-2.95,2.83-2.44,4.38Z"/>
      <path class="st1" d="M227.4,27.13c1.68-.78,1-3.76.26-5.08-.42,1.24-1.39,4.06-.26,5.08Z"/>
      <path class="st1" d="M228.15,31.5c1.83-.28,1.83-3.49,1.39-4.93-.68,1.2-2.22,3.54-1.39,4.93Z"/>
      <path class="st1" d="M226.85,40.29c1.77.49,2.95-2.27,3.18-3.68-1.19.65-3.53,2.11-3.18,3.68Z"/>
      <path class="st1" d="M225.68,23.17c1.46-1.18.18-3.93-.76-4.98-.17,1.3-.57,4.22.76,4.98Z"/>
    </g>
  </g>
</svg>