<?xml version="1.0" encoding="UTF-8"?>
<svg id="Capa_1" xmlns="http://www.w3.org/2000/svg" version="1.1" viewBox="0 0 271 247">
  <!-- Generator: Adobe Illustrator 30.3.0, SVG Export Plug-In . SVG Version: 2.1.3 Build 182)  -->
  <defs>
    <style>
      .st-iconCA0 {
        fill: #00496d;
      }
    </style>
  </defs>
  <path class="st-iconCA0" d="M248.9,84.83c1.23,1.99,1.23,4.91,0,6.91-.61,1.23-1.99,1.38-3.07,1.99-.15,0,0,.61-.15,1.07h1.07c.77-.31,1.53-1.69,2.15-1.38,1.99,1.23,1.07,4.6,0,6.6-.77,1.53-2.61,2.15-2.46,4.14.46,0,1.07-.31,1.23-.61.31-.31.46-1.69,1.23-1.53,3.84,1.38,0,8.13,0,12.12-1.07-.77-1.99-1.69-3.07-2.3s-1.23-.31-1.38.15c1.53,1.69,3.53,2.76,4.3,4.91,3.38,8.29,3.07,14.88,0,27.01-.31,1.23-1.99,1.69-1.69,3.22.31,1.99-.15,3.38-1.53,4.6-.46.46-1.07,1.38-1.07,1.99.15,2.15-.61,3.68-2.15,5.06-.77.61-1.23,1.53-1.07,2.46.31,1.53-.15,2.46-1.53,3.53-.61.61-1.53,1.53-1.69,2.3-.31,1.53-1.23,2.46-2.3,3.38-.77.61-1.69,1.53-1.99,2.46-1.07,2.46-2.46,4.3-4.6,5.83-.77.61-1.84,1.53-2.15,2.3-.77,2.15-2.3,3.68-4.3,4.6s-2.76,1.99-3.38,3.84-1.84,2.76-3.68,3.07c-2.15.31-3.84,1.53-4.91,3.38-1.23,1.99-2.76,3.07-5.22,3.07s-3.38,1.23-4.3,2.46c-.31.46-.61,1.23-1.23,1.69-1.07,1.23-2.15,1.99-3.68,1.69-2.15-.46-3.68.31-5.06,1.84-.46.46-1.07,1.07-1.53,1.69-1.23,1.23-2.46,1.69-3.99,1.38-2.15-.46-3.99.31-5.37,1.99-1.07,1.23-2.46,1.69-3.99,1.38-1.69-.31-3.07,0-3.99,1.23-1.69,1.53-3.53,1.99-5.68,1.23-1.84-.61-3.38-.15-4.91,1.07-1.53,1.53-3.38,1.69-5.37,1.07-1.69-.61-3.38-.46-4.6.61-1.53,1.23-3.07,1.38-4.6.61-1.23-.31-2.15-.31-3.38.15-1.23.61-2.61,1.07-3.99.15-1.53-.61-2.76-.46-4.14.31s-2.61,1.07-3.99,0c-1.23-.77-2.15-1.07-3.38-.31-1.38.46-2.61.46-3.99-.15-1.07-.61-2.15-.61-3.38-.15-1.53.61-2.76.31-3.99-.77-1.38-1.23-2.76-1.53-4.3-.61-1.84.61-3.53.61-5.22-1.07s-2.15-1.38-3.68-.77c-2.61,1.07-4.91.46-6.6-1.84-.61-1.07-1.53-1.23-2.61-.77-2.15.77-3.99.15-5.52-1.53-1.23-1.38-2.46-1.69-4.14-1.38-1.84.46-3.38-.15-4.45-1.69-1.69-2.15-3.84-3.53-7.06-2.76-2.15.61-3.99-.15-4.91-2.3-1.23-3.07-3.38-3.99-6.44-4.14-1.07,0-2.15-.31-2.61-1.07-1.23-1.69-2.76-3.07-4.3-4.3-.61-.46-1.07-.77-1.84-.61-2.15.31-3.53-.61-3.84-2.76-.15-1.69-1.07-2.46-2.15-3.38-.77-.46-1.69-1.23-2.46-1.53-1.23-.61-2.15-1.53-2.46-2.76-.31-1.69-1.38-2.46-2.76-3.22-1.99-.77-3.38-2.3-3.84-4.45-.31-1.53-1.23-2.3-2.46-2.76s-2.15-1.53-2.61-2.76c-.31-1.07-.46-1.84-.61-2.76-.15-1.53-.77-2.46-1.99-3.53-1.23-.77-1.84-1.99-1.99-3.53,0-1.23-.61-1.99-1.53-2.61-1.07-.61-1.69-1.69-1.53-2.76,0-1.38-.31-2.46-1.38-3.38-1.23-1.23-1.69-2.46-1.23-4.14.31-1.23,0-2.15-1.07-3.07-1.07-1.07-1.53-2.15-1.23-3.53.46-1.53,0-2.76-1.07-3.84s-1.53-2.61-.77-4.3c.61-1.53,0-2.61-1.53-3.38-.31,0-.46-.61-.77-1.07.31-.31.77-.61,1.23-.77.31,0,.77.15,1.23.31,1.07.15,1.99.31,3.07.61,0,0,0-.15.15-.31-.46-.31-1.07-.77-1.53-1.23-1.38-.77-2.76-1.53-3.99-2.15-.31-.15-.31-.77-.61-1.23.31-.15,1.07-.46,1.38-.61.31,0,.61.15,1.07.31,1.69,1.07,3.22,1.99,4.91,3.07.61.31,1.38,1.07,2.15,1.69,0-.46,0-.77-.15-1.07-1.07-1.69-2.15-3.07-3.99-3.53-.31,0-1.07-.15-1.23-.46-.77-1.07-1.53-1.99-2.15-3.07-.31-.46-.61-1.23,0-1.69.61-.61,1.23-.15,1.69.31.61.61,1.23,1.53,1.84,2.15.61-.61.77-.61.31-1.69-.46-1.23-1.23-2.15-1.69-3.53-.15-.46-.15-1.38,0-1.69.46-.61,1.23,0,1.53.31.77,1.23,1.53,2.46,2.15,3.84.15.31.31.77.61,1.23h.31c0-.31,0-.61.15-1.23,0-1.07.15-1.84.46-2.61,0-.31.61-.46,1.07-.77.31.31.61.61.77,1.07v3.07c0,.31.15.61.31,1.07.15-.15.46-.31.61-.61.31-.77.61-1.69,1.07-2.46.31-.31,1.07-.61,1.53-1.07,0,.46.46,1.23.31,1.69,0,.61-.46,1.53-.61,2.15v1.23c.31-.15.77-.31,1.07-.61.77-1.07,1.53-1.99,2.3-2.61.61-.61.77-1.07,0-1.53-1.38-.77-2.61-1.69-3.99-2.61l-.31.31c-2.76,1.69-5.37,1.53-7.67-.31-1.07-.61-1.23-2.15-1.99-2.76-1.07-.61-2.3-.46-3.38-1.23-3.07-1.69-4.14-4.6-3.99-7.98,0-3.22,1.38-5.83,4.3-7.52.31-.15.77-.46,1.07-1.07,1.07-3.38,3.07-5.06,6.44-5.22.31,0,.77-.31,1.07-.61.61-1.53.46-3.07-.61-3.99-.77-.77-1.69-1.53-2.46-2.15-.46-.46-1.69-.46-1.38-1.69s1.53-.61,2.15-.61h.15c1.84.46,3.07,1.69,3.99,3.22.15.31.61.31,1.07.61,0-.31.31-.77.31-1.23,0-.61-.31-1.23-.61-1.69-1.07-1.23-2.15-2.15-3.38-3.22-.46-.31-1.07-.77-.46-1.53.31-.61,1.07-.46,1.69-.15.31.15,1.07.31,1.53.61,0-2.15-1.53-2.46-2.76-3.38.46-1.23,1.07-1.53,2.15-1.07,1.53.61,2.61,1.69,3.38,3.38,0,.15.31.31.61.61.15-.31.61-.46.61-.77s0-.77-.15-1.23c-.61-1.99-1.99-3.22-3.99-3.99-.61-.31-1.53-.61-2.46-1.07.46-1.07.77-1.99,1.53-2.76,1.38-1.84,2.76-3.68,5.37-3.99.15,0,.31-.31.61-.61l-.61-.61c-.31-.15-1.07-.31-1.38-.61s-.61-1.07-.46-1.38c.15-.61.77-1.07,1.53-.46.31.15.77.46,1.23.61h.77v-1.07c-.31-.46-1.07-1.07-1.38-1.53-.15-.31-.31-.77,0-1.23.15-.31.61-.46,1.07-.31.46,0,.77.46,1.38.77s1.38.61,1.99,1.23c0,0,.15-.15.15-.31-.31-1.07-1.07-1.99-1.38-3.07,0-.31.15-1.07.31-1.53.46.15,1.07.15,1.53.46.31.15.46.61.61,1.07.31.46.61,1.07,1.23,1.53h.46v-3.38c0-.46.61-1.23,1.07-1.23.61-.15,1.07.46,1.23,1.23,0,.61,0,1.38.15,1.99,0,.31.31.61.31,1.07.15-.15.46-.31.61-.61.31-.61.61-1.53,1.38-2.15.15-.31,1.07-.31,1.23-.15.31,0,.46.61.31,1.23,0,.46-.31,1.07-.46,1.53s-.31,1.23-.46,1.69c0,0,.15,0,.31.15l2.15-2.15c.61-.61,1.07-.77,1.69-.15.46.61.31,1.23,0,1.84-.31.46-.77,1.07-1.53,1.84.46,0,.61,0,.77-.15,3.22-1.07,6.14,0,7.83,2.46.31.61.77.77,1.53.46s.61-.77.46-1.53c-.61-2.15-2.61-3.68-5.22-3.84-1.07,0-1.69-.31-1.99-1.53-.15-.61-.61-1.38-1.07-1.99-1.53-2.15-3.84-3.22-6.44-3.53.31-.61.61-1.23.77-1.69,1.53-2.76,3.68-4.14,6.9-3.99,1.69,0,3.38.61,4.6,1.84.31.15.77.15,1.23.31v-1.23c-.15-.46-.61-.77-1.23-1.23-1.53-1.38-3.38-1.84-5.37-1.99-.31,0-1.07-.31-1.07-.46,0-.31,0-1.07.31-1.23.31-.31,1.07-.31,1.38-.46h1.53v-.31c-.31-.31-.77-.61-1.38-1.07-.61-.31-1.23-1.07-.61-1.69s1.38-.61,1.99-.31c.46.31,1.07.61,1.53,1.07.15-1.23-1.23-2.46.31-3.38,1.23-.61,1.53.77,2.15,1.53.31-.31.61-.61,1.23-1.07.31-.31,1.07-.77,1.23-.61,1.38,1.07,1.99-.46,3.07-.61.77-.15,1.69-.31,2.61,0,.61.15,1.53.61,1.99,1.23,1.23-.31,2.3-.61,3.38-1.07.31,0,.61-.31,1.07-.46-.31-.15-.61-.61-1.07-.61-1.53-.61-3.22-1.23-4.6-1.99-.61-.31-1.07-1.23-1.38-1.69.61-.15,1.53-.46,2.15-.46,1.53.15,2.76.61,4.3,1.07-.31-.46-.77-1.07-1.23-1.53-1.07-1.23-1.84-2.46-2.76-3.68-.31-.31-.15-1.07-.31-1.69.46,0,1.23,0,1.69.15,2.15,1.07,3.84,2.76,5.22,4.6.31.31.46.61.77,1.07.15-.31,0-.61,0-1.07-.61-2.15-1.53-4.45-2.15-6.6-.15-.46,0-1.23.15-1.84.61.15,1.38.31,1.69.77,1.07,1.53,1.69,3.07,2.46,4.6.31.46.31,1.07.61,1.84.61-.77,1.07-1.53,1.53-1.99,1.23-1.23,2.15-2.46,3.38-3.53.31-.31,1.07-.15,1.38-.31,0,.46.15,1.07,0,1.53-.61,1.53-1.53,2.76-2.15,4.3-.15.31-.31.61-.31.77,1.53-.61,2.76-1.38,4.3-1.99.31,0,1.07,0,1.53.15,0,.31,0,1.07-.31,1.38-.61.61-1.53,1.53-2.15,1.99,3.07-1.23,5.98-1.69,8.9.77,0-1.53.31-2.46,1.69-2.15,0-.61,0-1.69.46-1.99.31-.31,1.38-.31,1.99-.31-.46-1.23-.31-1.99.61-1.99s1.99,0,3.07.15c0-.61,0-1.69,1.23-1.84,1.53-.31,1.53,1.07,1.99,1.99.31-.61.61-1.07,1.07-1.53.31-.61,1.07-.77,1.69-.46s.61.61.46,1.38v1.53c.61-.61,1.07-1.38,1.53-1.69.31-.15,1.23-.15,1.69,0,.61.15.31.61.31,1.23s-.31.77-.31,1.23c.61-.15,1.23-.61,1.84-.77.31,0,1.07,0,1.53.15s0,.77,0,1.23-.31.77-.31,1.23c1.23-.31,2.15-.46,3.38-.77l.31.31c-.31.77-.61,1.69-1.07,2.76.46-.15,1.23-.31,1.69-.61.46-.31,1.07-.61,1.69-1.07.31,0,1.07,0,1.23.15s.15.77,0,1.23c-.31.77-.61,1.69-1.23,2.46l.31.31c1.23-.31,2.15-.77,3.38-1.23.61-.31,1.07,0,1.38.61s0,1.07-.46,1.23c-.31,0-.46.31-1.23,1.07,1.23.15,1.99.31,2.76.46,0,.61-.31,1.53-.46,2.61.77-.31,1.69-.61,2.46-.77.46,0,1.23.15,1.69.31-.31.31-.46,1.07-.77,1.38-.31.31-.61.61-1.07.77h2.15c.61,0,1.07.15,1.23.31,0,.31,0,.77-.31,1.23,0,.31-.31.46-.61.61,1.07,0,1.69-.31,2.3-.61.77-.15,1.53.31,1.23,1.23-.15.46-.46,1.07-.77,1.69.61-.31,1.23-.61,1.69-.61.61-.15,1.69-.46,2.15-.15.61.46.15,1.38-.15,1.99v.31c.61-.15,1.23-.31,1.69-.31h1.69c.61,0,1.38.31,2.15.61-.15-.46-.31-.61-.31-.77v-1.84h1.84c.31,0,.46.15.77.31,0-.31-.31-.46-.31-.61,0-.31-.31-1.07,0-1.38.15-.31.77-.31,1.23-.31s.61.15,1.07.15h1.38c-.61-.77-1.23-1.53-1.69-2.15,0,0,.15-.31.31-.31,1.38.15,2.76.31,3.99.46,0-.15.31-.31.31-.46-.61-.31-1.23-.61-1.69-1.23-.31-.15-.61-1.07-.46-1.07.31-.31.77-.61,1.38-.61s1.07.31,1.38.31c.46.15,1.23.31,1.69.61-.31-.61-.46-1.23-1.07-1.69-.31-.61-.61-1.38,0-1.69.31-.31,1.23,0,1.69,0,.61.15,1.07.61,1.53,1.23,0-.61-.15-1.23-.31-1.69-.31-.61-.61-1.53,0-1.69.46-.15,1.23,0,1.99,0s.61.31,1.07.61c0-1.07-.31-1.99,0-2.3.31-.46,1.53-.61,1.99-.77,0-.46-.15-1.38.15-1.69,1.07-1.07,1.84,0,2.46.46.15-.61,0-1.69.46-1.99.31-.31,1.38,0,1.99,0-.31-1.38,0-2.15,1.23-1.99,1.07,0,1.99.31,3.07.61.31-.77-.15-2.15,1.38-2.3,1.69,0,1.53,1.53,2.15,2.46.61-.61.46-2.46,2.15-2.15,1.53.15,1.23,1.53,1.23,2.46,1.38-1.53,1.99-1.99,2.61-1.53.46.31.61,1.23.77,1.84.46,0,1.53-.15,1.99.15.31.31.31,1.38.46,1.84.46,0,1.53,0,1.69.31.31.46.15,1.53.31,1.99.31.31,1.23.46,1.53,1.07.31.46,0,1.38,0,1.99,1.53-1.23,3.38-2.15,5.22-.61,1.84-2.15,5.98-1.38,7.21,1.53,0,.31.15.61.46.61,1.07.46,1.99,1.07,3.07,1.38.61-1.07,1.99,0,2.76-.31,0-.31-.15-.46-.31-.77,0-.31-.15-.46-.15-.61.31-.31.61-.46.77-.77.31-.61,1.07-1.07,1.69-.46.31.31.77.61,1.23,1.07.15-.31.31-.61.31-1.07,1.53,0,2.3.31,2.76,1.38,0-.15.31-.31.31-.46.31-.77,1.23-1.07,1.69-.61.31.15.31,1.07.46,1.69v1.53c1.07-.46,1.69-1.69,2.76-.77.31.31.31,1.38.46,1.99.46-.46,1.53-.31,1.99.15.31.46.31,1.53.31,2.15,1.69,0,1.99.31,1.69,2.15.61.31,1.07,0,1.53-.46.61-.61,1.53-1.23,2.3-1.69,1.07-.31,1.53.15,1.53,1.23.15,1.38.61,2.46,1.23,3.84h.31c.31-.31.61-1.07,1.07-1.38,1.07-1.53,2.46-1.99,3.99-1.69.31,0,.77.46,1.23.61-.15.31-.31.61-.61,1.07-.61.77-1.38,1.53-2.15,2.46,2.76.31,3.22.61,3.68,1.84-1.07.31-1.99.61-3.07,1.23-1.38-1.99-3.07-2.76-5.22-1.69-1.23-1.99-2.76-2.3-4.91-1.38-2.15-1.84-3.07-1.69-4.3.77,0,.15-.46.31-.77.31-1.84,0-2.61.61-3.22,2.3,0,.31-.46.61-.77,1.07l-1.07.46c-1.23.46-2.15,1.23-3.38,1.53-1.23.15-2.15.61-2.61,1.69-.31.77-.77,1.07-1.69.61-1.07-.31-1.69,0-2.15.61-1.07,1.38-.31,3.84,1.23,4.6.77.31,1.23,0,1.23-1.07v-1.53c0-.46.46-.77.77-1.07.31,0,.61.15,1.07.31.15,0,.15.31.31.46.31.15.61.31,1.07.61.15-.31.31-.61.46-1.23,0-.46,0-1.23.15-1.53.31-.46.77-1.07,1.23-1.23.31,0,1.07.61,1.07,1.23.15.46,0,1.23,0,1.69s.46.61.77.61.61-.31.61-.61c0-1.23.46-1.99,1.23-1.99.15-1.07.15-1.69.46-2.3,0-.15,1.23.15,1.84.31.46,0,1.23,0,1.53-.15.15,0,0-.77,0-1.23s0-1.23.31-1.53c.31-.61,1.07-.31,1.53,0,.31.31.61.61,1.07.77,1.07.61,1.53.31,1.69-.77,0-.31,0-1.07.15-1.23.31-.31.77-.61,1.23-.61s.61.61,1.07,1.07c.15.31,0,.61,0,1.07.15,1.23.61,1.53,1.69.77.61-.31,1.23-.77,1.69-1.23.61-.61,1.38-.15,1.69.31s-.15.61-.31,1.07c-.15.15-.46.31-.61.61,0,.31-.31,1.07,0,1.07.31.15.77.31,1.23.31s.31-.31.46-.31c.31-.15,1.07-.46,1.23-.31.31.15.61.61.77,1.23v1.23h1.99v-1.69c0-.77.15-1.69,1.38-1.53,1.07,0,1.23.77,1.23,1.69v1.69l.31.31c.61-.46,1.23-1.07,1.84-1.53.31-.15,1.07-.31,1.23-.15.31.15.61.77.61,1.23s-.15.77-.31,1.07c.61.31,1.38.61,1.99.77-.31.31-.77.77-1.38,1.07-3.07,1.69-4.3,5.22-3.22,7.98,1.23,0,1.99-.46,1.84-1.99v-1.53c.15-1.69,1.38-3.07,2.46-3.38,0,.31.15.77.15,1.23v3.38c0,.31.31.77.31,1.23l1.07-1.07c.61-1.53,1.69-2.76,3.22-3.53.31-.15,1.07,0,1.53-.15v1.38c-.31,1.07-1.07,1.99-1.53,3.07s-1.23,1.69-1.69,2.46c-3.84-1.69-7.06-1.23-8.9,1.69-.61,1.07-1.84,1.23-2.3.15-1.23-1.69-2.61-3.53-2.76-5.83,0-1.07.31-1.99.31-3.22s0-.61-.15-1.07c-.31,0-.61,0-1.07.15-.15,0-.31.31-.61.61-1.53,2.15-1.23,5.22.31,7.21.46.61,1.23,1.38,1.69,1.99-1.07.31-1.69.77-2.46,1.23-1.07-.61-1.84-1.53-2.76-2.15-1.69-1.07-3.53-1.23-5.37-.15-.31.15-.31.61-.61,1.07.31,0,.77.46,1.23.31,1.99-.46,3.84.15,5.37,1.53.31.31,1.23.61.61,1.53-.31.31-1.07.31-1.53.31-3.53-.31-6.29,1.99-6.14,5.68v.61c-1.07.61-1.69,1.07-2.46,1.69-1.07,1.07-.77,2.3.15,3.38s2.15.77,3.07-.15c.31-.31.77-.46,1.38-.61,1.99,0,3.99,0,5.98-.15.31,0,.77-.31,1.23-.61-.31-.31-.77-.61-1.23-.77-1.53-.15-3.07,0-4.6-.31-.61,0-1.84,0-1.69-1.23,0-.61,1.53-1.07,2.46-.61,0,0,.15,0,.31.15.61,0,1.23.15,1.84.15s1.53-.15,2.15-.15h4.14c.15,0,.61-.31.61-.46s-.15-.61-.31-.61c-.31-.15-.77-.31-1.23-.31h-2.46c-.61-.15-1.38-.61-1.99-1.07,0,0,0-.61.15-.61h4.45c.61-.31,1.38-.31,1.99.15s1.38.31,1.84-.15.46-.46,1.07-.77c.31.15.46.31.61.46,1.23,1.23,1.69,1.07,2.46-.31.46-1.07,1.07-1.07,1.53,0,1.07,1.23,1.53,1.53,2.61.46.61-.31,1.23-.31,1.69,0,1.07.46,1.99.61,3.22,0,.46-.15,1.38-.15,1.99,0s.77.61,0,1.07c-1.07.31-1.84.61-2.76,1.07-.61.15-1.53,0-2.3.15-1.07,0-1.23.61-.77,1.53,1.53,0,2.76-.15,4.14,0,1.53.15,2.46,0,3.53-1.07v2.46c-1.23.15-2.3.15-3.53.46-.31,0-.61.46-1.07.77.31.15.61.46.77.46h3.53c0,1.99,1.53,4.6,0,5.83-.77.61-1.99-.61-3.22-.77-.15,0-.46.31-.77.61l.61.61c1.07.46,2.61.46,3.38,1.53h.77v-.31l1.99,1.69-2.15-1.38h0ZM64.16,79.15c1.99-1.53,3.99-2.76,5.68-4.14,1.23-1.23,2.46-1.84,4.3-1.99,3.07,0,5.37-1.53,7.37-3.68.61-.77,1.53-1.23,2.46-1.23,2.15-.15,4.3-.61,5.83-2.15.31-.31,1.07-.46,1.53-.46,1.38,0,2.46,0,3.84-.31,1.07-.15,2.15-.31,3.07-1.07,1.84-1.53,3.84-1.99,6.14-1.84,1.53,0,2.76-.15,3.84-1.23,1.69-1.53,3.84-1.84,5.83-1.69,1.69,0,3.38-.15,4.91-1.38,1.84-1.69,3.99-2.15,6.44-1.99h.46c2.61,0,2.3-.46,2.3,2.3v82.25c0,.31-.31.61-.61,1.07-.31-.31-.61-.61-.61-1.07-.15-.46,0-1.07-.15-1.99-.61.31-1.23.77-1.84,1.23-.31,0-.46.15-.77.31,0-.31-.31-1.07,0-1.07.31-.31,1.07-.77,1.53-1.23,1.53-.61,1.69-1.23.77-2.76-1.23.46-2.46,1.07-3.68,1.53-1.23.61-2.15,1.53-2.3,2.76,0,.31-.61.46-1.07.77-.31-.31-1.07-1.07-.77-1.23.31-1.07.77-1.99,1.69-2.46,1.53-1.07,3.38-1.69,5.22-2.3,1.33-.41,1.84-1.27,1.53-2.61v-.31c-.46,0-1.23,0-1.69.15-3.22,1.07-6.14,1.99-9.36,3.07-.31,0-.77.31-1.23.31s-.61-.15-.77-.31c0-.15,0-.61.31-1.07s.61-.31,1.07-.46c3.53-1.69,7.06-3.07,10.74-3.68,1.07-.15,1.23-.46.61-1.53-5.22.61-10.28,1.84-14.88,4.6-1.38.77-2.46,1.84-3.84,2.61-.31.15-1.07,0-1.38,0,0-.31,0-1.07.15-1.38,0-.15.31-.31.61-.46,3.84-3.22,8.13-5.22,12.89-6.29,1.84-.46,3.84-1.07,5.68-1.38.15,0,.31-.31.61-.61-.31-.15-.46-.31-.77-.31h-1.38c-4.14.46-8.13,1.69-11.97,3.38-3.38,1.53-6.29,3.38-8.9,5.83s-3.07,3.84-3.38,6.14c0,.61-.31,1.53-1.23,1.23-.77,0-1.07-.77-.77-1.53.31-1.38.61-2.76,1.23-3.99,1.38-2.76,3.53-4.91,5.98-6.44,4.91-3.38,10.28-5.37,16.11-6.6,1.38-.31,2.76-.46,4.14-.77.15,0,.31-.31.46-.46-.15,0-.31-.31-.61-.31h-1.07c-2.46.46-5.22.77-7.67,1.53-6.44,1.69-12.74,4.45-17.49,9.36-3.07,3.07-5.22,6.44-4.6,10.89v.77h-.31c-.31-.61-.77-1.38-1.38-1.84s-.77-1.53-.61-2.46c.31-2.15,1.07-3.99,2.3-5.83,1.53-1.69,3.07-3.53,4.45-5.37,0-.15-.15-.46-.46-1.07-4.14,3.22-7.83,6.6-8.75,12.12-.31,0-.46-.15-.77-.15s-.31,0-.61-.15c0,.31.15.77.46,1.07,3.22,1.69,4.6,4.45,5.22,7.98,0,.61.31,1.23,1.07,1.38,2.46.61,3.68,2.3,3.84,4.91,0,.61.31,1.23.77,1.69,1.07,1.07,1.38,2.15,1.38,3.53,0,1.99.61,3.84,1.84,5.52,1.69,2.3,3.68,3.99,6.29,5.37,1.07.46,1.99.61,3.22.61,2.76-.15,5.37.61,7.67,2.15,1.69,1.23,3.53,2.46,5.22,3.99.31.31.61.77.61,1.23.31,1.23.46,2.3.77,3.53.61,1.99,1.53,3.84,2.15,5.83-.61.15-1.23.31-1.69.61-1.69.46-3.53,1.23-5.22,1.69-.61.15-1.07.31-.61,1.23.31,1.23.61,2.46,1.07,3.84.31,1.69,1.07,3.38,1.53,5.06-1.84,1.07-3.53,1.84-5.37,2.76,1.23,1.07,2.15,1.99,3.22,2.76.61.61.61,1.23-.31,1.53s-2.15,1.07-3.22,1.23c-.31,0-.77,0-1.07-.15-1.23-.61-2.61-.46-3.68.77,1.69,1.07,3.38,1.99,4.91,3.07.15,0,.61,0,.77-.15,1.07-1.69,2.46-2.76,4.3-3.38.31,0,.46-.31.77-.46,3.07-2.46,6.44-3.38,10.13-.46.46-.31,1.07-.61,1.53-.61,1.07-.15,1.69-.61,2.15-1.53.61-1.23,1.99-1.07,2.76,0,.31.46.61,1.23,1.23,1.69.31-.15.77-.31,1.23-.61,2.3-1.38,4.6-1.53,7.06,0,.15.15.61.31.77.15,1.84-.46,3.53,0,4.91,1.23,1.53-1.23,1.99-1.23,3.53-.31.77.46,1.69,1.07,2.76,1.53,0-.61-.15-1.07-.15-1.38,0-1.07-.15-1.84,0-2.61,0-.46,1.07-.77,1.53-1.23.31.31.61.77.77,1.23.46,1.53,1.07,3.07,1.53,4.3,0,.31.46.46.77.61l.46-1.07v-.77c-.15-1.23-.61-2.3-.61-3.53-.15-1.84.61-2.46,2.61-2.15,0,1.53-.31,3.07,1.07,4.3v-1.38c0-.61,0-1.23.77-1.23,1.53,0,2.76-.15,4.3-.31h1.07v-.31c-.61-.31-1.23-.77-1.69-1.07-1.07-.31-2.15-.61-3.22-1.23-2.76-1.53-5.68-2.15-8.44,0-.61.46-1.23,0-1.07-.61.15-.77.61-1.53,1.07-2.3.31-.61.61-1.07,1.38-1.84-5.83-3.07-11.51-5.98-17.19-9.05,0-.31.31-1.07.46-1.53.77-2.46,2.3-4.91,2.3-7.67s0-.31.31-.46c2.46-1.99,4.91-4.14,8.13-4.6,1.53-.31,3.38,0,4.6-.31,1.53-.31,3.07-1.23,4.45-1.84h.61c2.46-.15,4.14-1.69,5.22-3.99.31-.61.61-1.23.61-1.69.61-2.15,1.99-3.68,4.14-4.45.46-.15,1.07-.46,1.53-.61,3.38-1.84,5.68-4.45,6.6-8.29.61-2.3.31-4.45.15-6.6-.15-2.61-1.23-5.06-2.76-7.06.15,1.07.61,1.69,1.07,2.61,1.23,3.53,1.07,7.06-1.23,10.28-.31.61-1.07,1.07-1.53.31-.15-.15-.15-1.07,0-1.23,2.3-5.22,1.69-9.97-1.69-14.27-1.38-1.69-3.07-3.38-4.91-4.6-5.37-3.99-11.66-6.29-18.11-7.67-3.53-.61-7.06-1.07-10.28-1.53-.61,0-1.23-.15-1.53.61.15,0,.15.15.31.15h1.23c7.06.61,13.5,2.15,19.95,4.91,4.45,1.99,8.29,4.6,11.35,8.44,3.22,4.3,3.38,9.51,0,13.66-1.38,1.69-3.07,3.38-4.91,4.45-1.99,1.53-4.14,2.46-6.29,3.53-.31,0-.77-.15-1.23-.15.15-.31.31-.61.61-1.07s.46-.15.61-.31c3.07-1.53,5.83-3.38,8.13-5.98,3.53-4.3,3.84-9.21.31-13.5-1.07-1.23-1.84-2.15-3.07-3.07-7.83-5.83-17.03-7.98-26.55-8.75-.31,0-.61.46-1.23.61.31.15.61.46,1.23.61,5.22.61,10.13,1.69,15.19,3.53,4.3,1.69,8.29,3.68,11.2,7.21,3.07,3.84,3.07,8.13-.31,11.66-3.53,3.84-7.98,5.83-12.89,7.52-.31,0-.77-.31-1.23-.46.15-.31.31-.77.61-1.07s.77-.31,1.23-.46c3.53-1.38,6.6-3.07,9.51-5.68,3.53-3.38,3.84-7.37.61-10.89-1.23-1.38-2.61-2.46-4.14-3.53-6.14-3.84-13.04-5.22-20.25-5.83-1.07,0-1.23.31-1.07,1.38.31,0,.61.15,1.07.15,3.38.61,6.6,1.38,10.13,2.15,3.84,1.07,7.37,2.46,10.13,5.37,3.07,2.76,3.22,6.14.46,9.36-.15.31-.46.61-.77.77-3.53,3.38-7.83,4.91-12.58,5.98h-.31l-1.23-.61c.15-.31.31-.77.77-1.07.61-.31,1.38-.31,1.99-.61,3.38-1.07,6.6-2.46,9.36-4.91,3.07-3.07,2.76-6.14-.46-8.44-2.46-1.84-5.22-3.22-8.29-3.84-3.22-.77-6.29-1.53-9.51-2.15-.61-.15-1.38,0-1.53,1.07,0,.77-.31,1.69,1.07,1.84,1.23,0,2.15.46,3.22,1.07,1.53.46,3.07,1.23,3.68,2.46.31.61.31,1.53.31,2.15s-.46.46-1.07.61c-.15,0-.61-.31-.61-.61-.77-2.46-3.68-4.45-6.44-4.3-.2,1.12.2,1.95,1.23,2.46.31.15.77.31,1.23.61.61.46.61,1.07,0,1.53-.77-.46-1.69-1.07-2.46-1.53,0,1.07,0,1.53-.15,1.99,0,.31-.46.46-.61.77-.15-.31-.46-.46-.61-.77V57.21c0-.77.31-1.23,1.23-1.23h7.21c.46,0,1.07,0,1.53.31,1.69,1.23,3.68,1.53,5.68,1.07,1.23-.15,1.99,0,2.76.61,1.69,1.53,3.68,2.15,5.83,2.3,2.3,0,4.3.61,6.14,2.46s4.6,3.22,7.67,2.76c1.53-.15,2.76.31,3.99,1.38,1.53,1.53,3.38,2.15,5.52,2.15s1.07.46,1.53.77c.31.31.31.61.46,1.07l1.69-1.69c.61,2.76,1.23,3.38,3.22,3.53-.31-.46-.61-.77-1.07-1.38-.15-.31-.31-1.07,0-1.23.15-.31.77-.61,1.23-.46.61,0,1.23.31,1.69.61.31.31.61.77,1.07,1.23.15.15.61.31,1.07.61,0-.31.31-.77.31-1.07-.31-.77-1.07-1.69-1.69-2.3s-1.07-.61-1.53-1.07c1.38-1.38,2.46-1.53,3.99-.61.31.15.61,0,1.23,0,0-.31,0-.77-.15-1.23s-.61-.61-1.07-1.07c-.46-.31-1.07-.46-1.53-.61,1.23-1.53,2.46-1.23,5.06,1.07-.15-.61-.61-1.23-1.07-1.69-.15-.31-.31-.77-.46-1.23h1.69c.31,0,.61.46,1.07.77.46.77,1.07,1.69,1.53,2.61,1.84-1.07,3.53-.77,5.37.46.15,0,.61.15.77,0,.15-.31.31-.61.31-1.07-.31-1.23-1.07-2.15-2.15-2.46-1.07-.15-1.99,0-2.76-.15-.31-.61-.46-1.53-1.07-2.15-1.53-1.84-3.68-2.46-5.83-1.84-1.99.61-3.38,2.15-3.53,4.6,0,.31-.31,1.07-.61,1.23-1.38.31-2.15,1.07-3.07,1.99-.15.15-.61.31-.77.31s-.61-.61-.46-.77c.15-.61.31-1.69,1.07-1.99.61-.61,1.69-1.07,2.61-1.38v-1.53c-1.53,0-2.61.31-3.68,1.38-.31.31-.61.61-1.07.61-1.99.46-3.99,1.07-5.83,1.38-.31,0-1.07-.31-1.23-.61-.15-1.07-.77-1.07-1.53-1.07-1.23.15-2.46.31-3.84.46-.31,0-.77-.31-1.23-.31.31-.31.46-1.07,1.07-1.07.61-.31,1.53-.31,2.15-.46.31,0,.77-.31.77-.61v-5.22c-1.84.31-3.53.46-5.06.77-2.15.31-4.14,1.07-6.29,1.38-.31,0-.61-.31-1.07-.31.31-.31.46-.77.77-1.07s1.07-.31,1.38-.31c0-1.38-.77-1.69-1.99-1.53-1.99.15-3.84.31-5.68.61-.46,0-1.23.31-1.38,0-.77-1.07-1.69-.31-2.46-.31-1.53,0-3.07.15-4.45.15s-1.38-.31-1.38-.61c-.15-.77.46-.77,1.23-1.07.77,0,1.69-.15,2.46-.31v-1.23c-.77-.15-2.15-.31-2.15-.61,0-1.38,1.23-1.23,1.99-1.53v-1.23h-45.73c-2.76,0-2.3-.31-2.3,2.3v1.23c-.15,1.69-.15,3.38,2.15,3.53.31,0,.46.61.77,1.07-.31.15-.77.61-1.23.46-1.69-.31-3.38-.61-4.91-1.23-1.69-.61-3.38-1.53-5.22-2.15-.15,0-.31-.15-.46-.31-.46-1.38-1.84-1.07-2.76-1.53v2.15c.46,0,1.07.15,1.38.31.46.31,1.07.77,1.53,1.23l3.38,1.69c.15,0,.15.61.31,1.07-.61,0-1.53.46-1.99.15-1.99-.61-3.84-1.69-5.83-2.46-.61-.31-1.23-.31-1.53.31-.15.61-.31,1.38.61,1.53.31,0,.61.15,1.07.46s.77,1.07,1.23,1.53c-.61,0-1.23.15-1.84.15-1.53,0-3.22-1.53-4.6.31h-.61c-.61,0-1.23,0-1.84-.31-1.53-.31-3.07-.77-4.6-1.38v4.6c0,1.69-.31,2.15-2.15,1.84-.77-.15-1.69-.46-2.15.46,0,.15-.61.15-1.23.31h-1.99c1.07,1.07.61,1.53-.15,1.69-.61.15-1.38.15-2.15.31,0,1.23-.61,1.38-1.53,1.23-1.07,0-1.69-.46-2.46-.61-.31,0-1.07-.31-1.38-.15-1.23.31-2.15.61-3.38,1.23-.31,0-.61.46-1.38,1.07.77.15,1.38.31,1.69.46s.61.61.61,1.07-.46.61-.77.61h-3.99c-.77,0-1.53.31-2.3.61-.31,0-.61.15-1.07.15v.31c2.15.61,2.76,2.46,3.84,4.3h.31v.46h-1.53l.61.92h0ZM102.98,116.59c3.07-.61,5.68-1.53,8.29-1.99,4.14-.77,8.29-1.53,12.74-2.15.61,0,1.23,0,1.07-1.07v-3.99c0-1.07-.31-1.23-1.23-1.07-7.98.46-15.65,2.15-23.32,4.3-1.53.46-1.69.31-2.15-1.53,1.84-.46,3.84-1.07,5.68-1.53s2.76-1.69,3.07-3.53h0c.31-.31.61-.77,1.07-1.23.31.31.61.61.77,1.07.15.61.15,1.53.15,2.3.77-.15,1.53-.31,2.15-.31,1.07-.15,1.53-.61,1.69-1.69,0-.61,0-1.53.77-1.53s.31,1.07.61,1.53c.15.31.61,1.07.77,1.07.46-.15,1.07-.46,1.23-1.07.15-.31,0-1.07,0-1.53v-7.83c0-.15.31-.46.61-.46s.46.31.61.46v8.13c0,.61,0,1.53,1.07,1.53s1.23-.61,1.53-1.38v-10.89c0-.61-.31-1.53.61-1.53s.61,1.07.61,1.53v7.21c0,.61.15,1.23.31,1.69.31.77,1.23,1.23,2.15,1.07,1.07-.31,1.07-1.07,1.07-1.84v-17.49c0-2.61-1.23-4.91-1.99-7.06-.31-1.07-1.23-1.07-1.69-.15-.46.61-.77,1.53-1.07,2.15-.15,1.23,0,2.15-.31,3.38,0,.31-.31,1.07-.61,1.23-.77,0-.61-.61-.61-1.23v-1.69c0-.61,0-1.38-.15-1.99,0-.31-.31-1.07-.61-1.07s-.77.31-1.07.61c-.31.61-.61,1.53-1.07,2.15-.46,2.46-1.07,5.22-1.53,7.67-.15,1.23-.61,1.99-1.69,2.46-1.84.77-3.68,1.69-5.52,2.15-1.07.31-1.53,1.07-1.53,1.99,0,1.84-.31,3.53-.46,5.37-.15,1.69-1.07,2.76-2.76,3.38-.61.15-1.53.46-1.99,1.07-.77,1.23-1.99,1.53-3.22,1.84-1.53.46-3.07,1.23-4.6,1.84-.61.15-1.23.46-1.99.61-1.23,0-1.84-1.07-1.23-1.84.15-.31.61-.46,1.23-.61,2.3-.46,3.22-1.53,3.22-3.84v-7.06c0-.15.31-.61.61-.61s.61.31.61.61v6.29c0,.31.46.77.77,1.23.31-.31.61-.61,1.07-1.23v-5.83c0-.61-.46-1.99.61-1.99s.61,1.38.61,1.99v5.22c0,.31.31,1.07.61,1.07,1.53.31,3.53-1.23,3.68-2.61.31-2.15.61-4.3.77-6.44,0-1.23.61-1.69,1.69-1.99,1.38-.31,2.46-1.07,2.76-2.46,0-.61.61-.61,1.07-.15,1.23,1.07,1.99,1.07,2.46-.46,1.53-3.53,1.53-7.21,1.23-10.89h0c-.31-1.07-1.07-1.23-1.53-.46-.61.61-1.23,1.69-1.53,2.46-.31,1.07-.31,1.99-.61,3.07,0,.31-.46.61-.61,1.07-.31-.31-.61-.61-.77-1.07-.15-.77-.15-1.84-.46-2.61-.15-.61-.77-1.53-1.38-1.53s-1.38.46-1.69,1.07c-.46.77-1.07,1.84-1.23,2.76-.31,1.99-.61,3.99-1.23,5.98,0,.31-.31.77-.46,1.23h-.31c0-.46-.15-1.07-.15-1.53v-3.99c0-.61-.61-1.23-1.07-1.69-.46.31-1.23.61-1.53,1.23-.61,1.23-1.23,2.46-1.69,3.84-.61,1.53-1.38,2.76-1.23,4.45,0,.31,0,.61-.15.77h-.31c0-.46-.15-1.23-.15-1.69,0-.77,0-1.53-.31-2.3,0-.46-.61-1.07-1.07-1.38-.46.31-1.23.61-1.38,1.07-.46,1.23-1.07,2.3-1.23,3.53-.31,2.15-.61,4.6-1.07,6.9,0,.31-.31.61-.61,1.07-.15-.31-.31-.61-.31-1.07v-6.29c0-.61,0-1.38-.15-1.99,0-.31-.46-.61-.77-.61s-.61.31-.77.46c-.15.61-.31,1.23-.31,1.84v8.29c0,.61,0,1.53-.77,1.53s-.61-.77-.77-1.38c-.31-2.46-.61-4.91-1.23-7.21,0-.61-.61-1.53-1.07-1.99s-1.07-.61-1.53,0c-2.15,2.15-3.84,4.6-3.53,7.98v1.53c0,.61,0,1.53-1.07,1.38-.31,0-.61-1.07-.77-1.53v-4.14c-.15-.31-.46-1.07-.77-1.07s-1.07.31-1.23.61c-.31.31-.61,1.07-.61,1.53-1.07,2.76-1.84,5.68-2.76,8.44,0,.31-.15.77-.31,1.07-.31.31-1.07.61-1.53.46-.15,0-.61-.61-.61-1.07v-18.72c0-3.38-1.84-5.37-5.22-5.83-.77,0-1.23-.31-1.38-1.23-.31-2.15-2.46-3.68-4.91-3.84-2.15-.15-4.3,1.23-5.22,3.07-.15.31-.61.61-1.07.77-1.07.31-1.84.61-2.61,1.23-1.38.77-1.69,2.15-1.69,3.68s1.07,1.69,1.69,1.53c1.23-.61,2.15-.31,3.07.61.31.31.61.77,1.23,1.23.61-1.23-.31-1.38-.61-1.69s-.31-.61-.61-1.23c.31-.15,1.07-.61,1.38-.46.61,0,1.38.61,1.99,1.07h1.53c1.07-.46,1.84-1.23,2.76-1.69.61-.46,1.53-1.07,1.99.15,0,.15.61.15,1.07,0,1.53-.15,2.46.61,3.38,1.69.15.15,0,.77.15,1.53-.77-.31-1.23-.61-1.69-1.07-2.15-1.07-5.37,0-6.14,1.99v1.23c.31,0,.61,0,1.07-.15,1.99-1.53,3.38-1.53,5.37,0,.31.15.77,0,1.23,0s1.07-.15,1.38-.31c0,.46.15,1.07,0,1.53,0,.61-.31,1.53-.31,2.15v1.69c0,.15-.31.31-.61.61-.15-.15-.31-.31-.46-.61,0-.31,0-1.07-.15-1.69-.77,1.07-1.53,1.69-2.15,2.15-.31.31-.61.77-1.23.77-1.53,0-1.53,1.07-1.53,2.15v5.37c0,1.38-.31,2.61-.46,3.99v10.28c0,.61,0,1.53,1.23,1.38.61-3.99,1.53-7.98,3.53-11.51h.31v7.06c.46-.31.61-.77,1.07-1.23,1.53-2.46,3.07-4.91,5.68-6.44,1.07-.61,1.23-.46,1.38.61v2.46c0,1.07.15,1.53,1.07,1.84,1.69,1.07,1.99,1.53,1.69,3.53,0,.46,0,1.07-.15,1.69.77,0,1.53-.15,2.15-.15,1.99,0,2.3.31,1.53,2.15-.46,1.23-1.23,2.15-1.84,3.38.77-.31,1.53-.77,2.15-1.23s1.38-.31,1.69.31-.31,1.07-.77,1.38c-1.69,1.23-3.53,2.15-5.37,3.38-.31.15-.61.61-1.07,1.07,0,0,.15.15.15.31,5.06-2.15,10.74-4.91,15.8-7.06-1.23-1.99-1.99-3.22-2.15-3.53-.46-.77-1.23-1.53-1.53-2.3,0-.31.15-1.07.31-1.38.31,0,.77.15,1.23.31.15,0,.31.31.46.61,1.99,2.76,3.84,5.68,5.68,8.29.31.46.77,1.07,1.23,1.53,0,0,.15,0,.31-.15,0-.46-.31-1.07-.31-1.53,2.15-1.07,4.3-1.84,6.44-2.61,0-1.07-.31-1.07-1.23-.61-1.99.77-3.84,1.53-5.83,2.3-.31-.46-.61-1.07-1.07-1.53,2.15-1.07,4.3-1.69,6.44-2.61-.15-1.07-.61-1.23-1.53-.77-1.53.61-3.07,1.23-4.6,1.84-1.07.31-1.69,0-1.99-1.23,2.15-.77,4.14-1.69,6.14-2.3,0-1.07-.61-1.23-1.53-.77-1.69.61-3.38,1.23-4.91,1.84-.61.15-1.07.15-1.23-.61,1.99-.77,3.99-1.69,6.14-2.46-.15-.31-.31-.61-.46-.77-.46-.61-1.23-1.53-.15-1.99,1.07-.61,1.38.31,1.69,1.07,2.15,3.07,4.14,5.98,6.14,9.05.15.15.46.31.77.46v-1.07c-.31-.61-.77-1.53-1.53-2.3l.61-.31h0l.31.46.15-.15h0ZM162.82,71.33v-8.44c0-.31-.15-1.07-.31-1.23-.77-.61-1.69-1.38-2.46-1.84-1.53-.77-2.61,0-2.61,1.69v11.05c0,2.61,1.53,4.3,3.22,5.83,1.38,1.23,2.3.77,2.76-1.38v-3.53c0-.15.31-.31.46-.61.15.15.46.31.46.61v8.9c0,.46,0,1.23.31,1.69,1.07,1.38,1.84,2.61,1.84,4.3s.31,1.23,1.23,1.23.61-.77.61-1.23v-9.67c0-.31.31-1.23.61-1.23.77,0,.61.61.61,1.23v10.13c0,.46,0,1.23.15,1.69.31.77,1.07,1.53,1.84,1.38,1.07,0,1.07-.77,1.07-1.69v-8.75c0-.31.31-.77.61-1.38.15.31.61.77.61,1.23,0,2.61.15,5.37,0,7.98-.15,2.46,1.53,3.99,3.53,4.6,1.53.46,2.15,1.53,2.15,3.07v.61c0,.31-.31.61-.46,1.23-.31-.31-.77-.77-.77-1.23,0-1.38-.61-1.99-1.84-1.99s-.61,0-1.07-.15c-3.07-1.07-6.14-1.69-9.36-2.61-3.07-1.07-5.68-2.15-6.6-5.52,0-.46-.61-1.23-1.23-1.38-2.15-1.07-3.22-2.46-3.68-4.6-.15-1.23-.61-2.46-1.23-3.68-.31-.46-1.07-.77-1.69-1.38-.31.61-.77,1.23-1.07,1.69-.15,1.38,0,2.61-.15,3.99,0,.31-.31.61-.61,1.07-.15-.31-.61-.61-.61-1.07,0-1.38,0-2.61-.15-3.99,0-.46-.46-1.07-.77-1.53-.31.31-1.07.61-1.23,1.07-.46,1.69-1.23,3.53-1.23,5.37v18.57c0,6.14.31,1.07.61,1.53.46-.31,1.23-.61,1.53-1.23.15-.31.15-1.07.15-1.38v-3.38c0-.31.31-.61.61-1.07.15.31.61.61.61,1.07v3.38c0,.61,0,1.69,1.07,1.69s1.07-1.07,1.23-1.69v-9.05c0-.31.31-.31.61-.61.15.15.61.31.61.61v10.74c0,.61,0,1.23.15,1.84.46,1.69,3.38,2.76,4.6,1.69,1.07-.61,1.53-.46,1.99.31s1.38.77,1.99.61c.31,0,.31-.77.61-1.38.15-.31.46-.61.61-1.07.15.31.46.61.61,1.07v.61c0,1.07.31,1.53,1.23,1.53s.61-1.07.61-1.53c0-2.46,0-5.22.15-7.83,0-.31.31-.61.61-1.07.15.31.61.61.61,1.07v8.75c0,.31.61.77,1.07,1.38.31-.31,1.07-.61,1.38-1.23.15-.46,0-1.23,0-1.69v-2.61c0-.31.46-.77.61-1.23.15.31.61.77.61,1.23v4.91c0,.31,0,1.07.31,1.38.15.31.77.46,1.23.46s.46-.61.61-1.07v-6.9c0-.31.31-.61.61-1.07.15.31.46.61.61,1.07v6.9c0,.61,0,1.69,1.07,1.69s1.23-.77,1.38-1.69v-5.22c0-.61-.15-1.53.77-1.53s.61,1.07.61,1.53v7.83c.31.46.61,1.23,1.23,1.23.77,0,.61-.61.61-1.23v-6.14c0-.61-.15-1.69.61-1.69s.61,1.07.61,1.69v7.21c0,.46.31,1.07.61,1.53.31-.31,1.07-.46,1.23-1.07.77-1.23,1.53-2.46,2.15-3.84,1.53-2.61,1.69-2.61,4.6-1.99,1.38.31,2.61.46,3.53-1.07h.31c0,.31.31.61.46,1.23.46,1.69,1.53,2.76,3.38,3.22,1.53.15,2.15,1.23,2.3,2.46.15,2.76,2.46,3.53,4.3,5.22,0-.46.15-.61.15-1.07v-11.51c0-.31,0-.61-.31-1.07-1.23-1.99-2.15-4.14-3.38-6.14-.15-.31-.61-.77-1.23-1.07-2.15-.31-3.68-1.69-4.91-3.53,0-.15-.31-.31-.31-.46-.31,1.23-.15,2.46-.31,3.53,0,.31-.61.61-1.07,1.23-.31-.31-.77-.61-1.07-1.07-.31-.61-.31-1.23-.46-1.99-.31-1.69-.77-3.53-1.53-5.37-.15-.46-.46-1.38-1.38-1.07-.31.15-1.07,1.07-1.07,1.53-.15,1.38,0,2.46-.15,3.84,0,.31-.46.77-.61,1.23-.15-.31-.61-.77-.61-1.23v-4.6c0-1.53-.61-2.46-1.53-2.46s-1.38.77-1.53,2.46c0,.61-.15,1.38-.31,1.99h-.46c-.15-.46-.31-1.07-.46-1.53-.31-1.23-.46-2.46-.77-3.84-.31-1.84-.61-1.99-2.61-2.15-2.15,0-3.07-1.07-3.07-3.22v-10.89c0-1.69-.46-2.15-2.46-2.3v6.44c0,.31-.31.46-.61.77-.15-.31-.46-.46-.61-.77s0-.61,0-1.07v-5.52c0-.46,0-1.07-.31-1.53-2.15-2.61-5.37-3.38-8.9-3.22v7.83c0,.61,0,1.23-1.07,1.07h1.23l1.07.61h0ZM192.74,157.56c0-3.53,1.07-6.44,3.68-9.05,2.46,1.99,3.84,4.6,3.53,7.98,1.23-.46,2.15-1.07,3.22-1.53-.31-.31-.61-.61-.77-1.07-.15-.31-.31-.61-.46-1.07.31,0,.61-.31,1.07-.31h3.99c-.31-.46-.31-.61-.46-1.07-2.46-3.07-2.76-6.44-2.46-10.13,0-1.23.46-1.53,1.69-1.23,1.38.31,2.76.77,4.14,1.23.31-3.38,1.99-5.83,4.3-8.29.46-.46,1.07-.61,1.53,0,.77.77,1.53,1.69,2.15,2.3.31-.31.77-.77,1.23-.61.31,0,.61.61,1.07,1.23.15.31.31.61.46,1.07s.61.61.77.61c.46-.15,1.07-.46,1.38-.77s0-.61,0-1.07v-14.73c0-.46,0-1.07-.15-1.53-1.84.61-3.53,1.07-5.22,1.69-.31,0-1.07.31-1.23.61-.61,1.07-1.84,1.53-3.07,1.84-1.99.61-3.53,1.99-4.3,3.99-.15.46-.46,1.23-.61,1.69-1.38,3.07-3.53,5.22-6.6,5.83-.61.15-1.53.46-2.15.61-2.76.61-3.99,2.76-4.3,5.37-.15,2.76-1.53,5.06-3.38,6.9s-1.84,2.3-2.15,3.84c-.31,1.23-1.07,2.46-1.69,3.53-1.84,2.61-4.14,4.91-7.21,6.29-1.99,1.07-3.22,2.3-3.84,4.3-.31.77-.61,1.69-1.23,2.46-1.38,1.99-3.38,3.07-5.52,3.68-1.53.31-3.07,1.07-4.3,1.69-1.07.31-1.69.61-2.61.46-3.84-.61-6.6,1.23-9.82,3.53,1.69.77,3.07,1.69,4.6,2.15.61.31.77.61.77,1.53-.15,1.53-.15,3.22-.31,4.6,0,.31.15.61.31,1.07h.46v-1.69c.15-1.23.31-2.15.61-3.38,0-.15.31-.31.61-.46,0,.31.31.46.15.77,0,.31-.31.77-.31,1.23,1.69,1.38.31,3.53,1.23,5.06.31-.46.61-1.07,1.07-1.38.31.46.77,1.07,1.23,1.53.61,1.07,1.38,1.84,2.15,3.07.31-.77.61-1.38,1.07-1.99s.31-1.07-.31-1.38c-.46-.15-1.07-.46-1.53-1.07-.15-.15-.31-.61-.31-1.07.31,0,.61-.31,1.07-.31.77.15,1.69.61,2.46.77.31,0,.77.15,1.07,0,2.15-1.07,4.45-2.15,6.6-3.22l-.31-.31c-1.69-.77-3.22-1.69-4.91-2.46-.31-.15-.61-.61-1.23-1.23.31-.31.77-1.07,1.38-1.07,2.3-1.07,4.91-1.23,7.21-.77,1.23.15,2.15.31,3.53.61-1.07-2.76-2.61-4.6-4.91-6.14-.46-.31-1.07-.77-1.53-1.23,2.15-1.99,5.68-3.53,9.82-1.23,1.38-1.69,2.76-3.53,4.14-5.22,0-.15-.46-.46-.61-.77-1.07-1.53-1.84-3.07-2.61-4.45-.31-.61,0-1.07.46-1.53,1.53-.77,3.22-1.07,5.06-.15-.31-2.76-.46-5.52,1.84-7.52,0,2.15-1.23,4.3,0,6.44h0c0-.15-.31.31-.31.31l-.46.61h0ZM71.98,155.42c1.07-.77,1.69-1.69,2.61-2.15.31-.31,1.07,0,1.69,0,0,.46,0,1.07-.31,1.53-.46.77-1.23,1.53-1.84,2.3,1.07.15,1.69.31,2.46.61,1.07.31,1.38,0,1.69-.61,2.3-4.3,6.14-6.9,11.05-7.52.61,0,1.23,0,1.99-.15v-1.23c-.31-2.76-1.99-4.91-4.45-5.98-2.46-1.23-4.14-2.76-5.37-5.37-.31-.61-.61-1.23-1.07-1.69-1.07-1.69-2.15-3.07-3.99-3.53-1.99-.61-3.84-1.53-5.68-1.99-2.76-.61-4.91-2.3-6.44-4.6-1.07-1.23-1.99-2.15-3.53-2.3-2.76-.31-4.6-1.99-6.6-3.68-1.23-.77-1.69-1.99-1.99-3.38-.15-1.23-.31-2.46-.46-3.84-2.46,1.84-4.91,2.3-7.52.61-.31,3.99,1.07,8.29-3.38,11.35,1.69,0,1.53,1.07,1.53,1.69s-.15,1.53-.31,2.3c-.15,1.23-.31,2.46-.46,3.84h.31c.15-.31.31-.77.46-1.23.61-1.84,1.53-3.84,2.15-5.68,0-.31.61-.31,1.07-.61.15.31.46.61.46,1.23s-.15,1.07-.31,1.53c-.61,2.15-1.53,4.45-2.15,6.6,0,.31-.15.61-.31,1.23.31-.15.61-.31.77-.61l3.07-6.14c.61-1.23,1.23-2.46,1.84-3.53.15-.31.77-.46,1.07-.31s.46.61.46,1.23-.31,1.07-.46,1.53c-1.53,3.07-2.76,5.98-4.14,9.05-.15.31-.31.77-.31,1.23,0,0,.15,0,.31.15.15-.31.46-.61.61-1.07,1.07-1.53,1.99-3.07,3.07-4.3.46-.61,1.07-1.99,1.99-1.38,1.23.61,0,1.69-.31,2.46-1.07,1.69-1.99,3.22-3.22,5.06,1.07,0,1.69-.15,2.3-.31,1.23-.31,2.3-.61,3.07-1.38.46-.31.15-1.69.15-2.46v-.46c.15-1.53.46-1.69,1.99-1.23,2.46,1.07,4.6,2.46,5.98,4.45,1.38-.61,2.61-1.23,3.84-1.69.61-.31,1.23,0,1.53.61.15,1.23.46,2.15.61,3.38.15,2.3-.61,4.45-2.3,6.44,2.76-.61,5.22-1.23,7.83-1.84-.61,5.37-3.84,7.83-7.98,9.21.77,2.15,1.53,4.3,2.3,6.29.77-.15,1.23-.61.61-1.53-.31-.61-.61-1.38-.77-1.99-.31-1.07-.31-1.99.77-3.07.77,1.38,1.53,2.46,2.15,3.84.15-1.53.31-2.61.61-3.84,0-.31.61-.61,1.07-1.07.15.31.46.77.46,1.23v3.38h0v-.61h-.31ZM111.57,196.08c.31,1.07.46,1.99.77,2.76,0,.31.46.61.77,1.07,0-.31.31-1.07.31-1.38,0-1.23,0-2.46-.31-3.84,0-1.23.15-1.69,1.38-2.15,1.38-.46,2.61-1.23,3.99-1.99-.31-.61-.61-1.23-1.07-1.38-2.61-1.69-5.22-3.84-8.44-4.3-.77,0-1.53-.77-2.3-1.23-1.07-.46-1.84-1.23-2.76-1.69-1.07-.31-1.99-.31-2.76-.61-2.46-.31-4.45-1.38-5.83-3.68-2.3-3.68-8.13-4.14-11.35-1.38-.15.15-.31.46-.61.77,2.61-1.07,5.22-1.23,7.83-.31,0,0,0,.31.15.31l-1.07.31c.61.31,1.07.61,1.53.61,2.76,1.07,4.6,3.38,4.91,5.83,0,1.07-.15,1.38-1.23,1.38h-4.3c-1.23,0-2.61.31-3.53,0-1.07-.46-1.53-1.99-2.15-3.07-.77-1.23-1.99-2.15-3.38-2.3-1.53-.15-2.15-.77-2.76-2.3-.61-1.84-2.46-2.46-3.99-1.99,2.15,1.07,2.76,1.69,2.3,3.38-1.69-1.23-3.68-1.53-5.68-.61-1.84.61-3.53,1.53-4.45,3.38,1.38.77,2.46,1.69,3.84,2.46v-.61c-.61-1.53,0-2.76,1.69-2.46,1.23.15,2.46.77,3.53,1.53s1.07,1.53.77,2.61c-.31,1.38-.31,2.76-.31,4.14s.31.61.61,1.23c0,0,.15,0,.31-.15,0-.61,0-1.53.15-2.15,0-.61.15-1.53.31-2.15,0-.31.46-.61.61-.61.31,0,.61.31.77.61.31.46.31,1.23.61,1.69.15.61.31,1.38.46,1.99,1.07,0,1.23-.31,1.23-1.23s-.31-1.99-.46-3.22v-1.23c.31,0,1.07,0,1.23.15.61,1.07,1.69,1.84,1.99,3.07.46,1.99,1.69,2.76,3.53,3.07.31,0,.77,0,1.23.15,4.3.61,6.6,3.53,7.06,7.83.15,3.07-.77,5.83-2.15,8.29v1.07c.31,0,.77-.15,1.07-.31,2.15-2.76,3.38-5.98,2.46-9.51-.31-1.99-1.38-3.99-1.99-5.98,0-.31,0-1.07.15-1.38.31,0,1.07,0,1.23.31.31.31.61.77.77,1.23.31.61.61,1.53,1.23,2.46.15-1.23.31-2.15.61-3.22.15-.46.61-1.23,1.23-1.23,1.07,0,.61.77.61,1.53,0,1.23-.31,2.46-.46,3.53,1.38-.77,2.61-1.69,3.99-2.3,1.69-.61,3.38-.61,5.06.31.46.31,1.07.77.31,1.38-.31.46-1.07,1.07-1.69.31-.61-.61-1.38-.61-1.99-.31-1.84,1.07-3.22,2.15-3.99,4.14-.15.31,0,1.07-.15,1.38h.31c1.23-1.07,2.15-2.15,3.53-2.76,1.38-.61,3.07-1.07,4.6-1.53l.31.31h-.15ZM54.03,36.8s.15,0,.31.15c.46-.61,1.07-1.23,1.69-1.69s1.38-1.07,2.15-1.23c1.23-.31,1.69-.15,2.15.31-3.38,2.15-4.45,3.84-3.68,5.22.61-.61,1.23-1.38,1.69-1.84.46-.31,1.38-1.07,1.84-.77.61.15,1.23,0,1.69-.15,1.38-.61,3.38,0,4.14,1.07.61,1.07.46,1.53-.61,1.69-1.23.31-2.46.46-3.68,1.07-4.91,2.61-4.91,5.83-4.45,11.05,1.23.15,1.53-.31,1.38-1.23,0-.61,0-1.38.31-1.69,1.53-1.84,3.22-3.84,5.68-4.3,1.99-.46,3.84-.77,5.22,1.23,0,.15.31.31.61.31h1.53c-.15-.31-.31-.61-.46-1.23,0-.15-.31-.31-.31-.31-.31-.31-1.23-.77-.46-1.53.31-.15,1.07,0,1.53,0s.31.15.61.31c1.07.61,1.99.61,3.22,0-.46-.31-.77-.77-1.23-1.23s-1.07-.46-1.23-.77c-.15-.15-.31-.61-.31-1.07.31,0,.77-.31,1.23-.31.61.15,1.38.61,1.99.77s1.53.31,2.15.46c.31,0,.61-.15,1.23-.31-.15-.31-.31-.61-.61-1.07-.31-.31-.77-.46-1.23-.61-.46-.31-1.53-.61-1.23-1.53.31-1.07,1.38-.31,1.99,0,.61.15,1.23.46,1.84.77s1.23.61,1.69.61h1.38c-.15-.31-.31-1.07-.61-1.23-1.07-.61-1.99-1.23-2.76-1.84-.31-.15-.31-.61-.61-1.23.46,0,1.07-.46,1.53-.31.61,0,1.23.61,1.69.77h1.23v-1.38c-.31-.46-1.07-.77-1.38-1.23-.15-.15-.31-.61-.15-1.07.15-.15.61-.31,1.07-.31s.61.31.77.46c.77,1.07,1.53,1.07,2.3,0,0,0,.31-.31.46-.31h1.38c0,.31-.15,1.07-.31,1.23-.31.46-1.07,1.07-1.38,1.53v1.07h1.07c.61-.31,1.23-.77,1.69-1.07.46,0,1.53,0,1.69.31.46.61-.31,1.07-.77,1.23-1.07.61-1.99,1.23-3.07,1.84-.31.15-.31.61-.46,1.07.31,0,.77.31,1.23.31.61,0,1.23-.31,1.69-.61,1.07-.31,1.84-1.07,2.76-1.23.31,0,.77.15,1.23.31-.15.31-.15.77-.46,1.07-.61.31-1.38.61-1.84,1.23-.31.15-.46.61-.61,1.07,0,.15.15.31.31.46,1.23-.31,2.46-.61,3.84-1.07s1.23-.61,1.84-.61.77.31,1.23.31c-.15.31-.31.61-.46,1.07-.31.31-1.07.61-1.53,1.07-.61.46-.46,1.07.15,1.23s1.69,0,2.3,0c1.23-.31,1.53-.15,1.53,1.07v3.99c0,.61.31,1.23.61,1.84.15-.61.61-1.23.61-1.84v-10.74c0-1.38.31-2.15,1.69-2.76,1.69-.61,2.46-1.99,2.15-3.84,0-.31-.31-.61-.46-1.07-.15.31-.61.61-.61,1.07.15,1.99-1.23,2.46-2.61,3.07v-3.07c0-.31-.31-.61-.61-1.07-.15.31-.61.61-.61,1.07v6.6c-1.23-1.53-2.46-1.99-4.3-1.99v-1.69c.15-3.53-1.53-5.22-5.06-4.91-.31,0-.77-.15-1.07-.31-2.46-3.53-6.14-3.53-8.9,0-.15.15-.61.31-1.07.31-3.07-.31-5.22,1.69-4.91,4.91,0,.61,0,1.23.15,1.84-2.46-.15-3.99,1.23-5.22,3.22-.15-1.07-.31-1.69-.31-2.46-.31-2.76-1.69-3.84-4.3-3.07-.77.15-1.38.15-1.84-.61-.31-.46-.77-.77-1.38-1.07-3.38-1.53-6.6,1.38-7.52,3.84v1.07h-.46l.31.31h-.61,0ZM81.49,85.91c1.69-.61,3.53-1.23,4.91-2.15,2.15-1.69,4.3-1.84,6.6-1.53.61,0,1.53-.15,1.84-.61,1.23-1.07,2.15-2.15,3.22-3.53.31-.61.61-1.53.61-2.15v-7.21c0-.46.31-1.53.61-1.53,1.07,0,.61.77.77,1.53v6.29c0,.31.31,1.07.46,1.07.31,0,.77-.15,1.23-.46s.31-.61.31-1.23v-4.14c0-.31.46-.61.61-1.07.15.31.46.61.61,1.07s0,.77,0,1.38v3.53c.61-.31,1.53-.46,1.53-.61.31-1.07,1.23-1.38,1.99-1.69,1.53-.46,2.15-1.53,2.15-3.07v-1.69c0-.31.31-.61.61-1.07.15.31.61.61.61,1.07v3.22c0,.46.46,1.23,1.07,1.23.61.15,1.07-.46,1.07-1.23v-7.52c0-.31.31-.46.61-.77.15.15.61.46.61.77v7.06c0,.77.15,1.53,1.23,1.53s1.23-.61,1.23-1.53v-9.82h-4.3c-1.99,0-3.53,1.38-4.91,2.46-.46.31-.31,1.84-.31,2.76v.77c0,.31-.31.61-.61.77-.15-.31-.46-.46-.46-.77,0-1.23,0-2.15-.15-3.53-1.84.31-3.68,0-5.06,1.07-2.46,1.53-5.06,2.46-7.98,2.3h-.61c-1.99.15-2.46.61-2.46,2.61v5.68c0,.31-.31.61-.46,1.07h-.61c-.15-.31-.31-.61-.31-1.23v-5.83c-1.23,0-1.99.15-3.07.15h-1.07c-1.38.31-2.61,1.99-2.61,3.38v12.89h.31v.31h.15,0ZM52.65,104.32h.15c.61.15,1.53-.31,1.99-.15,1.07.15,1.69-.15,1.99-1.07,1.99-2.76.77-7.83-3.22-8.29-.15,0-.31,0-.46-.15v-.46c0-3.38-2.15-5.22-5.52-4.91-.77,0-1.23-.31-1.53-1.07-1.23-2.15-2.76-2.76-5.37-2.15-.61,0-1.07,0-1.23-.46-1.38-1.99-3.53-2.76-5.83-2.15-1.53.31-2.61,1.53-3.38,2.76-2.76-.77-5.06-.15-6.14,1.84-.46.77-1.07,1.07-1.84.61-2.76-.46-5.06,1.38-5.22,3.99v1.53c-1.23.46-2.76,0-3.22,1.69h1.23c2.15,0,4.3,0,5.98,1.84,0,.15.77.15,1.07,0s.31-.77.31-1.07c-.46-.61-1.23-1.53-1.69-1.99-.31-.31-.46-.77-.77-1.23.61,0,1.23-.31,1.69-.31s1.07.46,1.38,1.07c.46.31.77,1.07,1.38,1.38.46.15,1.23,0,1.84,0v-1.69c0-.31-.46-.61-1.07-1.07-.46-.31-1.07-.61-1.69-1.23v-.46c.61,0,1.23-.31,1.69-.31,1.69.46,2.76,1.69,3.38,3.53,0,.31.15.77.46,1.23.61.61,1.53,1.23,2.3,1.69.31.15,1.07,0,1.23,0,.15-.15.15-.77,0-1.23-.31-.61-1.07-1.23-1.53-1.69s-.61-.77-.15-1.38,1.07-.31,1.53.15,1.23,1.23,1.69,1.69c1.53,1.23,3.07,1.23,4.45,0,.31-.15.46-.61,1.07-.61s1.23-.15,1.53,0c.61.31.15,1.07-.15,1.38-.46.46-1.07,1.07-1.53,1.69,0,.15-.15.61,0,.77,0,.15.46.31.77.31s.61-.31,1.23-.61c.77-.46,1.53-1.38,2.46-1.69,1.53-.31,2.76-1.07,3.53-2.15.31-.61,1.23-.61,1.69-.15.61.61,0,1.07-.31,1.53-.46.61-1.07,1.53-1.38,2.3,0,.31,0,1.07.31,1.23s.61,0,1.23-.31,1.07-.77,1.53-1.23c1.23-.61,1.84-.31,2.46.61-1.07.77-1.99,1.53-2.76,2.46-.31.31-.31,1.23-.46,1.69.61,0,1.23.31,1.84.15.31,0,.77-.46,1.23-.77s.77-.77,1.38-1.07c.31,0,1.07,0,1.23.15s0,1.07,0,1.23c-.31.46-1.07.77-1.38,1.38-.31.31-.31.61-.61,1.23h-.77ZM222.82,171.07c-1.07-1.07-1.53-1.38-2.76-.61-3.84,1.84-7.83,2.15-11.66,1.07-1.53-.46-1.53-.77-.46-1.99,3.53,1.69,7.21,1.38,10.89-.31-1.23-1.23-2.46-1.23-3.68-.77-1.99.61-3.84.31-5.68-.15-2.46-.61-2.61-1.99-1.07-3.99.31-.31,1.07-.61,1.53-1.07,1.99-.61,4.3,0,5.68,1.69.15.15.31.46.61.61,1.53.31,3.22.77,4.91,1.23,0-1.69-1.99-2.3-2.76-3.84,2.61-1.53,3.38,1.23,4.91,1.99,0-.61-.31-1.38-.46-1.99,0-.31,0-.61-.15-1.23.31,0,1.07,0,1.23.15.61.61,1.23,1.53,1.69,2.46s.61,1.07,1.69.46c-.31-.61-.31-1.53-.77-2.15-1.69-2.61-3.84-4.6-6.9-5.68-5.37-1.99-10.28-.15-13.2,4.6-.46.77-1.23,1.69-1.99,2.15-1.23,1.23-2.61,2.15-3.84,3.53-1.84,1.99-1.99,1.99-4.3.31-1.84-1.53-3.84-1.38-5.68-.31-1.07.46-1.84,1.38-1.99,2.46,1.38-.61,2.46-1.38,3.84-1.69,2.15-.61,3.84.31,4.14,2.76,0,.31,0,.61.15,1.07,1.38,3.07,3.68,5.06,6.6,6.14h1.07v-.31c-.31-.31-1.07-.61-1.38-1.07-1.53-1.38-3.07-2.46-4.14-3.99-1.07-1.38-.61-1.99.77-3.07v.31c.15,2.46,1.84,3.84,3.84,4.91,6.14,3.38,12.74,3.22,19.33,1.07,1.53-.46,2.61-1.23,4.3-1.99-.61-.46-1.07-1.07-1.38-1.23-.15,0-.61-.15-.77,0-3.07,2.46-6.6,3.07-10.28,3.22-3.53,0-7.06-.46-10.13-2.46-1.07-.61-1.69-1.53-2.46-2.15-.46-.46-.31-1.23.31-1.69.15,0,.61.31,1.07.46.61.61,1.38,1.53,2.15,1.99,4.91,2.61,9.82,2.76,14.88,1.23,1.23-.31,2.15-1.07,3.38-1.69h-.31v-.46h-.77,0ZM180.93,42.48s0-.31.15-.31c-.46-.31-1.07-.61-1.53-1.07-.61-.31-1.53-.46-2.3-1.07-.46-.15-1.38-.46-.77-1.38.31-.61,1.23-.46,1.69,0,.31.15.61.46,1.23.61,1.23.31,2.15.61,3.53,1.07.31,0,.77,0,1.07-.31s0-.77,0-1.07c-.31-.31-.77-.46-1.23-.61-1.07-.31-1.84-.61-2.76-1.23-.31-.15-.46-.61-.61-1.07.31,0,1.07-.31,1.38-.31.61.15,1.53.46,2.15.77,1.53.77,2.76.61,4.3,0,.61-.31,1.53-.61,2.3-.77.31,0,.61.31,1.07.46-.15.31-.31.61-.46,1.07-.46.31-1.07.46-1.69.61-.61.31-1.53.46-2.15,1.07-.31.15-.31.77-.31,1.38,0,0,.46.31.61.15,1.69-.61,3.53-1.38,5.22-1.99.31,0,1.07.15,1.38.31-.15.31-.15,1.07-.46,1.23-1.07.46-1.84.77-2.76,1.23-.31.15-.77.61-1.23,1.07,0,0,0,.15.15.31,1.84,0,3.53,0,5.22-.77s1.38-1.07,1.84,0c.46.77-.31,1.23-.77,1.69s-.46.61-.77,1.23c3.53.31,5.22-2.15,5.37-3.99.15-2.15-1.07-3.53-3.38-3.68-.31-2.3-.61-2.46-3.07-3.22-.61-2.46-1.69-3.07-4.3-1.99-.61-.46-1.53-1.38-1.99-1.38-1.53,0-2.76.31-4.3,0-.46,0-1.38.77-1.99,1.23-1.99-1.07-3.22-.31-3.99,1.69,0,.15-.15.46-.31.46-1.84.15-2.3,1.53-2.61,3.07-1.07,0-1.99.15-3.07.31v-7.06c0-.31-.46-.61-.61-1.23-.15.31-.61.61-.61,1.23v4.3c-1.99-.31-2.46-1.07-2.76-2.76,0-.31,0-.46-.15-.77,0-.15-.31-.31-.46-.31s-.31.31-.31.31c-.31,1.38.15,3.38,1.53,3.99.46.31,1.07.61,1.69,1.07s.77.61.77,1.38v11.97c1.84-1.84.77-3.99,1.53-6.14.31.31.61.61,1.07.61,1.07.31,1.99.61,3.07,1.07.15,0,.61-.15,1.07-.31-.15-.31-.31-.61-.46-.77-.46-.46-1.69-.61-1.23-1.69.61-1.07,1.53,0,2.15,0,1.69.61,3.22.77,4.91.61h.15l-1.23-.31h0ZM208.39,122.12c.15,0,.31,0,.46.15.31-.77,1.23-1.69,1.23-2.46v-22.25c0-.46,0-1.23-.31-1.53-2.15-2.46-3.99-5.68-8.13-5.37h-.31c-.15,0-.46-.31-.46-.46s0-.46.31-.61.61-.31,1.07-.31c2.15-.31,4.14,0,5.83,1.38.46.31,1.07.61,1.53,1.07.61-.46,1.23-1.07,1.69-1.53,1.53-1.23,3.38-1.53,5.22-1.07.46,0,.77.77,1.23,1.23-.31,0-1.07.15-1.38.15-2.3-.15-4.14,1.07-4.6,2.76,0,.31.15,1.07.15,1.38.31-.31.61-.46,1.23-.77.61-.46,1.38-1.53,1.69-1.53,1.38.31,2.46.15,3.84.15s1.99,0,2.61-1.07c1.23-1.84.61-3.99-1.07-5.52-.15-.15-.31-.46-.31-.61-.61-.61-1.23-1.38-1.99-1.69-.61-.31-1.53-.15-2.3-.31,0,0,0-.15-.15-.31-.77-2.15-2.46-3.53-4.6-3.53s-3.84,1.07-4.91,3.07c0,.31-.61.61-1.23.61-2.61.31-4.45,1.69-5.68,3.99-1.23,2.3-.61,4.91,1.53,6.44.77.61,1.53.61,1.99-.15,0-.15.46-.31.61-.31.61.15,1.53.31,1.99.61,1.07.77,1.99,1.69,2.76,2.61.31.31.61,1.23.61,1.69v23.78h.15-.15l-.15.31h0ZM183.07,115.37c-.61-.15-1.07-.46-1.53-.61-7.83-2.76-15.65-5.22-23.78-6.44-3.38-.61-6.6-1.07-9.97-1.53-1.23-.15-1.53.31-1.53,1.53v3.38c0,1.07.31,1.23,1.23,1.38,6.44.61,13.04,1.99,19.33,3.84,5.83,1.84,11.66,4.14,17.19,7.06,5.52,2.76,1.23.61,1.69-.31-1.69-1.23-3.53-2.3-5.37-3.68,1.07-1.53,1.84-2.76,2.76-4.3h0v-.31h0ZM122.16,184.88c1.53-.15,1.99-1.07,1.69-2.3-.15-1.07-.31-1.84-.46-2.76,0-.77-.31-1.38-1.23-1.69s-1.69-1.07-2.15-1.69c-2.15-2.76-5.22-3.53-8.44-3.38-.77,0-1.84,0-2.46-.31-1.07-.31-1.84-1.07-2.76-1.53-4.3-2.76-7.21-6.44-7.52-11.66v-.61c-.61,2.46-1.23,5.06-2.15,7.52-1.07,2.61-3.38,3.99-5.37,5.83.31,0,.46.15.61.31,1.07.61,1.69.31,2.46-.31,1.23-1.23,2.61-1.84,3.99-2.61.31-.15.77.15,1.38.31-.15.31-.31.61-.61,1.07s-.61.31-1.07.46c-1.07.61-1.99,1.53-2.61,2.76.46,0,.77,0,1.23-.15s1.23-.46,1.69-.61h1.99c-.31.46-.61,1.23-1.07,1.69l-1.23,1.23c1.69,1.23,3.07,1.23,4.3.15.31-.15.61-.46,1.07-.46h1.53c-.15.31-.15,1.07-.46,1.23-.31.61-1.07,1.07-1.53,1.69,1.38.31,2.3.46,3.38-.31.46-.31,1.23-.61,1.99-.77.61-.15,1.07,0,.77.77,0,.31-.15.61-.31,1.07-.31.61-.15,1.23.61,1.38,1.53.31,3.07.61,4.6,1.07.41,1.12,1.33,1.64,2.76,1.53.31,0,.61.31.61.46.15.31.31.77.31,1.23.15,1.23,1.07,1.23,1.99,1.07,1.23-.15,1.53-.77,1.23-1.84-.31-1.23-.46-2.15-.61-3.38h.31c.31.15.61.31.77.61.31,1.23.61,2.46,1.07,3.84h0l-.31-.31v-.61h0ZM234.48,85.14h-.31v-2.46c0-1.07-.31-1.69-1.23-2.15-1.53-1.07-2.46-2.3-3.07-3.99,0-.31-.61-.46-1.07-.61-.15.31-.61.61-.61,1.07,0,1.53.61,3.07,1.69,3.84,2.15,1.53,2.15,3.53,1.99,5.83v44.04c1.38,0,1.69-.31,1.69-1.38v-23.48c0-1.23.31-1.99,1.53-2.46,1.69-.61,5.22,1.69,5.22,3.53v11.51c0,.46,0,1.07.15,1.53,1.38,0,1.69-.61,1.69-1.99v-40.36c0-.46.31-1.38-.77-1.38s-1.07.61-1.07,1.38c0,1.07-.31,1.84-1.23,2.46-.61.61-1.23,1.38-1.69,1.99-1.23,1.23-2.15,2.46-3.38,3.68h0l.31-.31.15-.31h0ZM219.29,106.47c-2.46,1.07-3.22,1.99-2.76,3.99,0,.77.46,1.69,1.53,1.53,1.07,0,.31-1.07.61-1.53,0-.31.31-1.07.61-1.23.31,0,1.07,0,1.38.31.61,1.07,1.23,1.07,1.84,0,0-.15.61-.61.77-.46.31.15.46.46.61.77s0,.61,0,1.07c0,8.9.15,17.65.15,26.55v1.53h.31c.15-.31.46-.61.61-1.07v-3.07c0-7.98,0-15.8.15-23.78v-1.53c0-.31.31-.61.46-.77,0,0,.46.15.61.31.31.31.46.61.77,1.23.61-.61,1.53-1.23,1.69-1.69,0-1.99,0-3.99-.15-6.14,0-.31-.61-.77-1.23-1.07-.15,0-.61.31-1.07.61-.31.15-.61.46-1.07.77,0-.31-.31-.77-.31-1.23v-22.25c0-.31-.46-.61-.77-.77-.31.31-.61.61-.77,1.07v23.17c0,.31-.31.46-.46.77-.15-.15-.46-.31-.61-.61-.77-1.38-1.23-1.38-1.99,0-.15.15-.46.31-.61.61-.31.31-.61.77-.61,1.38v1.38h.15l.15.15ZM189.21,71.48v5.22c0,.31-.31.46-.61.77-.15-.31-.61-.46-.61-.77,0-1.53-.15-2.76,0-4.14,0-1.23-.46-1.69-1.69-1.69v11.66c0,1.07.61,1.23,1.84,1.07v-3.07c0-.31.31-.61.61-1.07.15.31.61.61.61,1.23v3.07c0,1.07.61,1.53,1.99,1.23v-3.99c0-.31.46-.61.61-1.07.15.31.61.61.61,1.07v3.07c-.15,1.99,1.07,3.53,2.15,4.91.61.77,1.23.61,1.53-.31,1.07-3.38,3.07-5.37,6.29-6.14,1.38-.31,1.69-1.23,2.15-2.15.31-.77,0-1.84-1.07-1.99-1.69-.15-3.38-.31-5.22-.46,0,.77,0,1.53-.15,2.15,0,.31-.31.46-.61.61-.15-.15-.31-.31-.46-.61v-1.53c0-1.07-.31-1.69-1.38-2.15-1.99-.77-3.38-2.15-4.6-3.84-.46-.61-1.23-1.07-2.15-.61h.15-.15l.15-.46ZM38.53,120.28c.15-4.3.31-8.29.61-12.58,0-1.38.46-2.46.61-3.84,0-.31-.31-.61-.31-1.23-.31.15-.77.31-1.07.61s-.31.77-.31,1.23c-.15,1.23-.31,2.46-.61,3.53-.15.46-.61,1.23-1.23,1.23s-1.23-.31-1.53-.77c-.31-.61-.61-1.53-.77-2.15-.15-1.07-.31-1.84-.46-2.76,0-.31-.61-.61-1.07-1.07-.15.31-.61,1.07-.61,1.38.31,3.07,1.23,5.98,3.38,8.44.31.31.46,1.07.46,1.38v12.58c0,.31,0,1.07.31,1.23,1.23,1.23,1.23,1.69-.31,2.3v5.68c1.07-.31,1.23,0,1.07.77,0,1.07-.15,1.99,0,3.07.31,1.07.15,1.69-1.07,1.99v1.69c.31,0,.61.15,1.07.31,1.99.61,2.15.61,2.15-1.53v-17.49c0-1.23.31-1.99,1.23-2.76s1.99-1.99,2.15-3.22c.31-1.99,0-3.99,0-5.83-1.23-.15-1.53.15-1.53,1.23v3.99c0,1.23-.61,1.84-2.15,2.15h0v.61s0-.15,0-.15ZM67.68,175.52c.15-.61.31-1.23.31-1.69,0-2.76-1.07-5.22-3.38-6.9-.46-.31-1.07-1.07-1.38-1.53-1.84-3.22-4.91-4.6-8.29-4.45-3.68,0-6.29,1.99-8.13,5.22-.15.31,0,1.07,0,1.38.31,0,1.07-.15,1.23-.46,1.07-.46,1.69-1.38,2.61-1.69,1.23-.31,1.53,0,1.23,1.38s-.31,1.69-.15,1.84c1.07.46,1.38-.46,1.69-1.07.46-.61,1.07-.46,1.53,0s.15.61.15,1.23-.31,1.07-.46,1.69c1.23-.31,2.15-.61,3.22-1.07.31-.15.46-.61.77-1.23s.77-1.07,1.53-.46c.61.31.46,1.07.15,1.53-.46,1.07-1.07,1.84-1.69,2.76-.46.77-.31,1.38.15,1.84,1.07-1.07,1.99-1.84,3.07-2.46.31-.15,1.07,0,1.53.15-.15.31-.15,1.07-.46,1.38-.61,1.07-1.69,1.84-2.3,2.76-.15.31-.15.61-.31,1.23,2.46-1.53,4.3-4.3,7.52-.77h0v-.46s-.15-.15-.15-.15ZM46.51,150.05h.31c.31-.31.46-.77,1.07-1.38.46-.61,1.07-1.53,1.53-1.99.15-.15.77,0,1.23-.15v1.23c-.46,1.53-1.23,3.07-1.53,4.6-.15,1.07-.15,1.84-.15,2.76h.31c.15-.61.46-1.53.77-2.15.31-1.07.77-1.69,1.38-2.46.15-.15.61-.15,1.23-.31,0,.31.15.61.15,1.07,0,.61-.31,1.38-.46,1.99-.15,1.53-.31,2.76-.61,4.14h.46c.15-.61.46-1.23.61-1.84.31-.77.61-1.69,1.23-2.46,0-.31.61-.31,1.07-.46,0,.31.31.61.31,1.07,0,.61-.15,1.23-.15,1.69,0,1.23-.15,2.15-.15,3.53h.46c.61-1.99,1.23-3.84,1.69-5.83-.31,0-.61,0-.77-.31-.31-.31-.31-.61-.61-1.07.31-.15.61-.46,1.07-.46s1.07.15,1.38.31c1.69.31,3.22.61,5.22,1.07-.46-1.23-.77-1.99-1.23-2.61,0-.15-.46-.31-.77-.31-2.15,0-4.45.15-6.6.15s-1.23-.61-1.38-1.23c0-1.07.61-1.07,1.53-1.07h1.53c1.69.15,3.38.31,5.37.61-1.53-1.69-2.76-3.53-4.3-4.91-2.76-2.76-6.29-3.84-10.13-3.22-1.84.31-3.22,1.23-3.84,2.76,1.99-.31,3.99-.61,6.14-.77.31,0,1.38.61,1.53,1.07,0,.61-.61.77-1.38.77-1.84,0-3.53.46-5.22,1.53l-1.23,1.23s0,.15.15.31c1.53-.31,2.76-.61,4.45-1.07-.31,1.69-.61,3.07-1.07,4.3h-.15c0,.15,0-.15,0-.15h-.46,0ZM70.29,92.81c1.23.31,1.99,0,2.46-1.07,0-.31.46-.61.77-.61,2.3-.61,2.46-.61,2.46-3.22v-9.82c0-.61-.15-1.69.77-1.69s.61,1.07.61,1.69v9.36c0,.31.31,1.07.46,1.07.31,0,1.07-.15,1.07-.46.31-.46.46-1.23.46-1.69v-12.58c-2.3.31-4.45.77-6.6,1.38-1.53.31-2.76,2.15-2.76,3.68v13.96s.31,0,.31,0ZM198.88,196.85h.31c.15-.46.61-1.07.61-1.69,0-2.61-2.46-5.06-5.22-4.91h-1.07c-.77,0-1.69-.31-2.46,0-1.38.46-2.46,1.38-3.84,1.99-.31.15-.61,0-1.07.15,0-.31-.15-.77,0-1.07.31-.46.61-1.07,1.23-1.38,1.23-.61,2.15-1.38,3.38-1.99-1.07,0-1.99,0-2.76.15-2.46.77-3.84,2.76-4.6,5.22-.31,1.07-1.07,1.69-1.99,1.99-1.53.31-2.61,1.23-3.38,2.61-.15.31,0,1.07,0,1.53,1.07-.61,1.69-1.23,2.46-1.84.31-.15,1.07-.15,1.23,0s.31.77.15,1.23c-.15.46-.61,1.07-1.07,1.38-1.07,1.23-1.69,2.15-1.23,3.99.31-.31.61-.46,1.07-.77,1.07-1.07,1.99-1.84,3.07-2.76.61-.46.61-1.23.61-1.99s0-2.15.31-3.22c.15-.77,1.07-1.23,1.69-.61v3.99c0,.31.31.46.31.77.15-.31.46-.46.61-.77s0-.61,0-1.07c.15-1.69,1.07-3.38,2.46-4.14.31-.15,1.07-.15,1.38-.31v1.38c-.61,1.38-1.23,2.61-.61,4.14,0,.31.46.61.61,1.07.15-.31.31-.61.46-1.07v-1.07c.31-.77.61-1.69,1.23-2.3s1.07-.31,1.23.31c0,.61,0,1.53.15,2.15,0,.31.31.61.61,1.07.31-.31.61-.61.77-1.23v-2.3c0-.77,0-1.53,1.07-1.69s1.23.46,1.53,1.23c.15.46.31,1.23.46,1.69h.15l.15.15h0ZM41.91,163.55c.31-.31.61-.46.77-.61,1.07-1.23,1.99-2.15,3.38-3.38.77-.61,1.07-1.53.77-2.46-.46-2.46-1.53-4.6-3.22-6.44-1.23-1.38-2.61-2.61-4.14-3.53-3.53-1.84-9.21.61-10.28,4.3v.61c1.07-.61,1.69-1.23,2.46-1.84v3.53h.31c0-.46.15-1.07.31-1.53.31-.77.46-1.69,1.07-2.3.15-.31.77-.46,1.23-.61,0,.31.31.77.31,1.23,0,1.07-.31,2.15-.31,3.22s.31,1.07.46,1.53c.31-.31,1.07-.61,1.23-1.07.31-1.07.31-1.99.61-3.07,0-.46,0-1.38.77-1.38s1.23.46,1.38,1.23v4.45h.31c.31-.31.61-1.07,1.07-1.23.46-.46,1.23-1.23,1.69-1.53.15,0,1.07,0,1.23.31.15.15,0,.77,0,1.23s-.31.31-.61.61c-.61,1.07-1.38,1.99-1.99,3.07l.31.31c.31-.15.61-.46,1.07-.61.61-.31,1.38-.61,1.99-.61s1.07.31,1.07.61-.31.77-.46,1.07c-.61.61-1.53,1.38-2.15,2.15-.61.61-.61,1.69,0,2.61h-.31s-.31.15-.31.15ZM26.87,66.42v.31c.61.31,1.23.77,1.69.61,1.99-.31,3.84-.15,5.22,1.53,0,0,.46.15.61,0,.15,0,.31-.46.15-.61-.15-.31-.31-.61-.61-1.07-.46-.46-1.07-1.07-1.69-1.53,0,0,0-.15-.15-.31,1.69.15,1.84-1.07,2.46-1.84s1.38-1.07,1.99,0c1.99-1.69,3.38-1.84,3.99-.15-.31,0-.77.15-1.23.31-1.38.61-2.3,1.53-2.46,3.07,0,.15,0,.61.15.61h.61c1.07-1.23,1.99-1.84,3.84-1.99,1.07,0,1.53.15,1.99.77s.46.61,1.07.77c1.23.31,2.15.61,3.38.61s.77-.15,1.07-.31c0-.15,0-.77-.31-1.07-.61-.46-1.53-1.07-2.3-1.38-1.07-.31-1.38-.61-1.53-1.69-.31-3.07-3.07-5.22-6.14-5.22s-5.83,1.99-6.29,5.06c-.31,1.38-1.23,2.15-2.46,2.15h-1.07c-.61.15-1.38.46-1.99.77h.15s-.15.61-.15.61ZM86.71,161.86h.31l.31-.31c1.84-1.69,3.68-3.22,5.68-4.6.31-.15.77,0,1.23,0-.15.31-.15,1.07-.46,1.23-.31.31-.77.61-1.69,1.38,1.53.15,2.61.31,3.99.61v-1.84c-.61-.61-.31-1.23-.15-1.69.61-2.15-.46-4.3-2.76-4.91-3.99-.77-9.36.31-12.28,5.22-1.23,1.99-1.23,2.15.61,3.84h.15c.46-1.53-.15-3.53,1.99-4.6v7.37c0,.31.31.61.61,1.23.15-.31.46-.77.61-1.23s0-.77,0-1.23v-4.6c0-.61.31-1.53.46-2.15,0-.31.46-.31.61-.61.15.31.31.61.31.77v6.44h.31l.15-.31h0ZM124.92,69.03h.46c.15-.46.46-1.23.46-1.69v-9.21h-1.69c-2.3-.31-3.84,1.23-5.52,2.46-.15,0-.31.31-.31.61v9.67c0,.61.46,1.23,1.38,1.07,1.53-.31,3.53-2.76,3.53-4.45v-5.22c0-.31.46-.61.61-1.07.15.31.61.61.61,1.07v5.52c0,.46.31,1.07.46,1.53v-.31h0ZM86.4,203.44c1.99-2.15,1.99-4.6,0-7.06-.31-.31-.31-.77-.31-1.38.31,0,1.07-.31,1.38-.31,1.69.31,2.46,1.53,3.07,3.22.46,1.99,0,3.84-.61,5.68-.15.46-.15,1.07-.31,1.53,1.38-1.38,2.15-2.76,2.15-4.6s0-3.53-.15-5.37c1.38.31,1.69,1.38,1.99,2.46.46,2.15.46,4.3-.31,6.44-.15.61-.31,1.23-.46,1.84h.31c1.69-2.46,2.46-5.22,2.15-8.13-.31-3.07-2.15-4.91-5.22-5.37-3.99-.46-7.06,1.23-9.67,3.84-.31.46-.61,1.23-1.07,1.69,0,0,.15.15.15.31,1.69-1.38,3.53-2.61,5.68-.77,1.99,1.53,1.99,3.53,1.53,5.83h-.15l-.15.15h0ZM68.15,57.21c0-2.15-1.69-2.76-3.07-3.99.31-.15.31-.31.61-.31,1.53-.31,2.46.61,3.38,1.69s1.69,1.99.61,3.53v.77c.31,0,.61,0,.77-.15.15,0,.31-.31.61-.31,1.23-1.23,2.46-1.69,4.14-1.53.61,0,1.53,0,2.46-.31-.61-1.07-1.23-1.69-1.84-2.3-1.23-1.07-2.61-.77-3.99-.46-1.23-3.53-3.53-5.06-6.44-4.14-2.46.61-4.3,3.22-3.84,5.22,2.46-.15,4.6.46,6.44,2.46h-.15l.31-.15ZM154.69,117.06v.31c.31,0,.61.15,1.07.31,2.15.46,4.6,1.07,6.9,1.69,5.37,1.53,10.74,3.38,15.65,6.14,1.23.61,2.46,1.23,2.76,2.61,0,.15.77.31,1.07.31.61-.77,1.38-.15,1.84.15l6.44,6.44c1.07,1.07,1.69,2.15,2.46,3.38.15-.31.15-.46.31-.61,1.07-1.07.77-1.69,0-2.46-2.76-2.46-5.22-5.68-8.29-7.83-8.75-6.14-18.72-8.9-29-10.74h-1.23v.31h0ZM233.4,149.59c.77-.77.15-1.53,0-2.15-.15-.31-.15-1.07,0-1.38,0-.31.61-.46,1.07-.31.31,0,1.07.46,1.23,1.07s0,1.23.15,1.69c0,.31.31.77.46.77.31,0,.61-.15,1.07-.31.61-.46,1.23-1.07,1.99-1.69-1.69-1.99-4.14-2.76-6.9-2.3-4.45.77-6.9,3.99-7.83,7.98-.61,2.15.31,4.3,1.69,6.44.15-.61.31-1.07.31-1.38.31-1.69,1.23-3.38-.61-4.45-.15,0-.15-1.07,0-1.23.31-.15,1.07-.31,1.23-.15.61.31,1.23.77,1.69,1.23,1.23-.61.46-1.23,0-1.84-.46-.46-.61-1.23,0-1.53.31-.15,1.07,0,1.53.15.31,0,.46.46.77,1.07.77-.61.31-1.23,0-1.99-.15-.31,0-1.07,0-1.38h1.53c.46.31.77,1.07,1.38,1.69h-.77ZM147.94,58.29v11.2c0,.77,1.07,1.84,1.69,2.46,1.38,1.07,2.3.15,2.3-1.38v-8.9c0-3.84.77-3.53-3.84-3.53h-.31.15v.15h0ZM178.93,67.95v11.51c0,.61,0,1.53,1.07,1.53s1.07-.61,1.23-1.53v-4.14c0-.61,0-1.38.61-1.38s.61.77.61,1.23v4.91c0,.31.61.61,1.07,1.23.15-.31.61-.77.61-1.23v-9.97c0-.31-.31-.77-.61-1.23-1.23-1.53-2.76-1.07-4.6-.77h.15l-.15-.15h0ZM65.23,162.94l.31.31c1.53-.31,2.76-1.07,4.3-1.23,3.84-.61,7.21,0,9.51,3.38,1.23,1.84,1.53,3.84,1.69,5.98,0,.31.15.77.31,1.23h.31c0-.46.31-1.07.31-1.53.31-2.76-.31-5.52-1.84-7.83-3.07-4.91-9.21-5.98-13.5-2.46-.61.46-1.23,1.38-1.69,1.99h.15l.15.15h0ZM195.35,129.33c.46.31,1.07.46,1.23.61,1.69,0,3.38.15,4.91,0,.61,0,1.53-.61,2.15-1.07-.61-.46-1.23-1.23-1.84-1.69-.61-.31-1.23-.77-1.99-1.23v-.31c1.84,0,3.68.15,5.37.31v-.31c-.61-.31-1.23-.77-1.84-1.23-.31-.31-1.07-.61-1.23-1.07-1.07-2.15-2.76-3.22-4.6-4.3-.31-.15-.77,0-1.23,0,0,.31.15.61.31,1.07.61.61,1.23,1.38,1.84,1.99s1.38,1.07,1.99,1.69c0,0-.15.31-.31.31-.31,0-.61,0-1.23-.15-1.23-.15-2.46-.31-3.68-.46-.31,0-.77.31-1.23.31l1.07,1.07c.46.31,1.23.61,1.69,1.07,1.07.61,1.99,1.53,3.38,2.46-1.84.46-3.53-.15-5.22,1.07h.46v-.15h0ZM92.08,54.6c.61-.61,1.38-1.38,1.99-1.84.31-.15,1.07,0,1.38,0,0,.31,0,1.07-.15,1.38s-.61.46-.77.77c-.15.15-.15.61-.31,1.07h1.07c.46-.15,1.07-.46,1.53-1.07,1.07-.61,1.53-1.84,1.07-3.38-.31-1.38-1.23-2.15-2.46-2.15s-.77-.15-1.23-.61c-.61-1.23-2.15-1.38-3.07-.31-.31.31-.46.61-.61,1.23-2.15,0-3.07,1.07-3.38,2.76,0,1.69,1.07,3.07,3.22,3.53-.31-.61-.61-1.23-1.07-1.53-.46-.46-1.23-1.07-.31-1.69.61-.61,1.38-.15,1.84.31.31.31.77,1.07,1.38,1.53h.15s-.31,0-.31,0ZM62.31,187.33c.61-1.07,1.69-1.23,2.61-1.07,2.3.46,3.99,1.69,4.6,3.99.15.61.46,1.23,1.38.77.31-2.15-1.23-5.22-3.22-6.44s-4.6-1.23-6.6.46c-1.53,1.23-2.76,2.61-2.46,5.06.46-.15.77-.15,1.23-.31,1.84-1.38,3.22-1.23,4.91.31.61.61,1.23.46,1.84,0-.61-1.99-2.46-2.3-3.99-3.07h-.15l-.15.31h0ZM229.72,117.98c-1.84,0-2.61.46-2.61,2.15v15.96h.31c.31-1.07.46-1.99,1.23-2.76,1.53-1.69,1.23-3.53,1.23-5.52v-9.97h0l-.15.15ZM211.46,120.89c1.53-.15,1.99-.77,1.99-1.99v-15.8c0-.31,0-.61-.15-1.07,0-.31-.46-.61-.61-.61-.31,0-.61.31-.77.61s0,.61,0,1.23v17.8h-.31l-.15-.15ZM188.29,180.58c.61-3.68-3.38-8.9-6.9-9.21-1.07,0-1.99,0-2.76.15v.31c3.84,2.3,6.14,5.83,8.13,9.51.15.31.46.77.77,1.23.15,0,.31-.31.46-.31-.61-3.84-3.22-6.44-5.37-9.36,1.23,1.07,2.15,2.15,3.22,3.38s1.69,2.61,2.61,4.14h-.31l.15.15h0ZM45.13,72.56c1.53.15,2.15,1.23,2.76,2.46,0,.31.61.77,1.07.61.61,0,1.23-.46,1.07-1.23v-.46c-.61-2.46-3.07-4.14-5.52-3.99-2.76,0-4.91,1.99-5.22,4.6,0,.31.15,1.23.46,1.38.77.31.77-.46,1.07-1.07.31-1.07.61-2.15,1.99-2.15s1.53,1.07,1.99,1.99c0,.31.46.31.77.61.15-.31.46-.61.31-1.07,0-.61-.31-1.23-.46-1.99h-.31s0,.31,0,.31ZM216.22,146.06c3.07-1.99,1.69-7.98-1.23-10.28-3.22,1.99-3.84,8.29-1.23,10.13,0-2.46-.31-4.91,1.07-7.21,1.23,2.46,1.23,5.06,1.38,7.52h0v-.15h0ZM161.13,41.41h.15v10.74c0,.31.31.61.31,1.07.15-.31.31-.61.61-1.23v-20.87c0-.31-.31-.77-.61-1.23-.15.31-.46.61-.61,1.23v10.43h.15v-.15h0ZM109.42,54.6v-1.23c0-6.9,0-13.66.15-20.56v-1.07c0-.31-.31-.46-.61-.61-.15.15-.46.31-.61.61s0,.61,0,1.07v20.71c0,.61,0,1.38,1.07,1.23h.15s-.15-.15-.15-.15ZM185.38,47.24c-1.23-.31-1.53-1.38-1.99-2.15-.15-.15-.46-.31-.77-.46,0,.31-.31.61-.31,1.07.31.77.61,1.69,1.38,2.15,1.53,1.07,1.69,2.15,1.53,3.84v8.75c0,.31.31.61.46,1.07.15-.31.46-.61.61-1.07v-.77c.31-4.6-.77-9.36,1.07-13.81,0-.15-.31-.61-.46-1.07-.31.15-.61.31-.77.46-.31.61-.61,1.53-1.07,2.15h.46l-.15-.15h0ZM176.94,53.22c2.3-.46,3.07-2.76,1.53-4.45-1.69-1.84-5.22-1.69-6.6.31-1.07,1.53-.61,2.76.77,3.84,0-.61,0-1.23.15-1.69,0-.31.31-.46.61-.61,0,0,.46.31.61.46.15.46.31,1.07.61,1.69.31-.61.61-1.38,1.07-1.84s.46-1.07,1.23-.61c.61.31.61,1.07.31,1.53,0,.31-.15.61-.31,1.23h0v.31-.15h0ZM218.37,152.19c3.53.15,7.06-5.22,5.68-10.43-2.61,1.23-4.45,3.07-5.37,5.83,1.69,0,1.84-2.15,3.68-1.99-.31,2.76-2.46,4.45-3.84,6.6h-.15,0ZM75.36,64.58s.15.15.31.31c.46-.15,1.07-.31,1.53-.46,1.23-.31,1.84-1.53,1.99-2.61.15-1.38-.31-2.3-1.53-3.07-1.53-.77-3.07-.61-4.3.31-1.53,1.07-2.15,2.15-2.15,3.84s.31.46.46.61c0,0,.46-.15.61-.31.31-.31.46-1.07.77-1.53.77-1.23,2.3-1.38,3.38-.31s.61,1.07,0,1.53c-.31.31-.61,1.07-1.23,1.53h0s.15.15.15.15ZM173.25,180.89c2.15,1.07,4.3,1.69,6.44,2.76,1.99,1.07,3.84,2.46,5.83,3.68l.31-.31c-1.23-1.23-2.46-2.15-3.84-3.53,1.69,1.07,3.07,1.69,4.45,2.46-1.53-3.84-9.82-6.6-13.2-5.06h-.15.15ZM82.11,132.25c2.76-3.38,6.44-5.68,10.28-7.83-.31-1.23-1.07-1.38-1.99-.77-1.53.77-3.07,1.53-4.3,2.46-1.99,1.38-3.99,2.76-6.14,4.3.77.61,1.53,1.23,2.15,1.69h0s0,.15,0,.15ZM82.72,54.14h0v8.44c0,.31.31.61.61,1.07.15-.31.46-.61.61-1.07v-16.57c0-.31-.31-1.23-.61-1.23-.77,0-.61.61-.61,1.23v7.98h0v.15ZM212.23,152.19c-1.23-1.53-2.46-2.76-3.53-4.3-.31-.46-.31-1.23-.61-1.84.61.15,1.38.31,1.99.61s1.07.77,1.69,1.38c-.31-2.46-3.53-5.22-5.68-5.37-1.07,5.37,3.07,10.13,6.14,9.51h0ZM153.61,59.67v11.97c0,.31.61,1.07,1.07,1.38.31-.46.61-1.07.61-1.53v-10.74c0-1.38-.15-1.53-1.69-1.23h0v.15h0ZM192.28,178.74c1.53-1.53,1.38-3.38,1.23-5.06v-2.76c0-1.38-.15-1.69-1.53-1.38-.46,0-1.07.31-1.38.61-1.69,1.53-1.99,5.22-.46,7.06.61-1.69,0-3.84,1.53-5.37.31,1.23.46,2.15.46,3.38v3.53h.15,0ZM201.49,160.02l.31.31c-.46,1.07-1.23,2.15-1.69,3.22l.46.31c1.84-2.3,3.68-4.6,5.68-7.06-3.99-.31-8.75,3.68-8.13,6.9,1.23-1.23,2.15-2.46,3.38-3.53h0v-.15h0ZM181.23,192.7c-.61-1.53-2.3-2.46-4.3-2.46s-4.91.61-6.6,3.07c1.23,0,2.15.31,3.38-.15,1.69-.77,3.68-1.07,5.68-.61.61,0,1.23.15,1.99.31h0l-.15-.15h0ZM146.4,57.98c-.77.15-1.69-.31-1.69,1.07v9.36c0,.31.46.77.77,1.23.31-.31,1.07-.77,1.07-1.38v-10.28h-.15,0ZM57.56,106.93c-1.38,1.07-1.99,2.15-1.99,3.53v3.99c0,1.84,0,1.99,1.99,2.61v-10.28h0v.15ZM117.4,119.82s0-.31-.15-.31c-6.9,1.23-13.04,3.84-18.72,7.98.61.46,1.23.46,1.84,0,4.3-3.07,9.21-5.37,14.27-6.9,1.07-.31,1.84-.61,2.76-.77h-.15.15ZM65.08,120.12c3.68-4.14,5.83-8.9,5.37-10.74-2.76,2.15-5.22,6.9-5.37,10.74ZM114.18,39.57h0v5.98c0,.31.31.46.61.77.15-.15.46-.46.61-.61v-11.66c0-.31-.46-.77-.61-1.23-.15.31-.61.77-.61,1.23v5.52h0ZM156.99,39.72h0v-5.52c0-.31-.31-.77-.61-1.38-.15.31-.46.77-.61,1.23v11.66c0,.15.31.31.46.61.15-.15.46-.31.61-.61s0-.77,0-1.23v-5.22h0v.31l.15.15h0ZM69.99,123.35c2.46-1.38,5.22-2.15,6.44-5.22-3.84.31-7.98,3.38-8.9,5.83,1.07-.61,1.84-1.07,2.76-1.53h0c-.15.31-.31.46-.46.77h0s.15.15.15.15ZM67.68,165.39c1.84,0,3.84-.31,5.52,0s3.38,1.53,5.06,2.15c.15-1.38-1.69-3.22-3.99-3.84s-5.68,0-6.44,1.69h-.15ZM155.92,186.41c0-1.38,0-2.46.15-3.84,0-.15,0-.61-.31-.61-1.23-.61-2.46-1.23-3.84-1.84,0,.31,0,.46-.15.61,0,.61-.15,1.23-.31,1.69-.15,1.69,0,1.99,1.69,2.15.15-.61.31-1.23.46-1.84h.31c0,.77.15,1.69.15,2.46s.31,1.38,1.53,1.23h.31,0ZM191.21,142.22c.77-.61,1.07-1.38,0-1.99-.31-.31-.46-.61-.61-1.07-1.69-2.76-3.84-5.22-6.29-7.37-.15-.15-.61,0-1.07-.15,0,.31,0,.77.31,1.07,1.53,1.69,3.07,3.38,4.45,5.22,1.23,1.53,1.99,3.07,3.22,4.45h0v-.15ZM205.17,71.48c2.46-2.76,5.37-3.38,8.13-.31.46-1.07.15-1.84-1.07-2.76-1.69-1.53-4.3-1.38-6.14.31-1.23,1.07-1.53,1.99-1.07,3.07h0l.15-.31h0ZM63.85,181.96c-1.07-.31-1.69-.31-2.61,0-.61.31-1.38.31-1.99.31-1.38,0-2.46,0-3.84.15-1.23.15-2.15.61-2.61,1.99h1.07c1.69,0,3.38,0,5.22-.15h.61c1.53-.77,3.07-1.69,4.6-2.46h-.31s-.15.15-.15.15ZM66.76,61.05c1.07-.61.61-1.69-.46-3.07-1.69-1.84-4.91-2.3-6.29-1.07.61.77,1.53,1.53,1.99,2.15,2.15-1.23,2.46-1.07,4.91,1.69h0l-.15.31ZM237.85,156.18c-1.69-1.38-5.06-.46-6.9,1.23-1.38,1.23-2.3,2.46-1.99,4.6,2.15-3.07,5.22-4.91,8.9-5.68h0v-.15ZM208.55,182.42c3.38-1.53,6.9-1.53,10.74-1.07-.61-1.69-1.99-1.99-3.38-1.99-2.76,0-5.68,0-7.37,2.76h0v.31ZM68.91,168.61c1.07.31,1.53.46,2.15.61,1.99.61,3.99,1.53,5.22,3.53.15.31.77.31,1.38.46,0-3.84-4.91-6.6-8.44-4.6,0,0-.31,0-.31,0ZM196.58,151.12c-1.53,2.15-1.84,4.45-1.07,7.06.31-1.07.61-2.15,1.07-3.22h.31v3.99c1.84-1.99,1.69-5.68-.31-7.83h0ZM104.36,50v-4.6c0-.31-.31-.77-.61-1.23-.15.31-.61.77-.61,1.23v5.37c0,.31,0,.77.31,1.07,1.07.46,1.99,1.07,3.07,1.53.2-1.64-.46-2.65-1.99-3.07h0s-.15-.31-.15-.31ZM38.22,163.24h.31c0-.31.15-.61.15-1.07-.31-1.99-1.53-3.53-3.53-3.99-1.23-.31-2.15-.46-3.22-1.53s-1.99-.77-2.46-.31c1.07,1.07,2.15,1.84,3.22,2.76h.77c1.84-.15,3.07.61,3.84,2.15.31.46.61,1.23.77,1.69h0s.15.31.15.31ZM217.6,183.65c-2.61-1.53-7.83-.46-9.51,1.53-.15.15-.15.61-.31,1.07,0,0,.15,0,.31.15,2.15-1.53,4.6-1.99,7.37-1.99s1.23-.31,1.99-.61h.15v-.15h0ZM179.55,186.87c-1.99-1.23-3.99-1.07-5.83-.31-1.69.61-2.61,1.69-2.61,2.76,2.76-.77,5.52-1.53,8.44-2.46ZM59.86,140.38c.77-2.46-1.69-5.98-4.6-6.9,0,4.3,3.84,5.52,4.6,6.9ZM118.32,196.69c1.53-.61,1.69-1.53.61-3.84-1.23.46-2.3,1.07-3.53,1.69-.15,0-.31.31-.31.61,0,1.53.31,2.76.31,3.99h.31c.15-.31.46-.61.46-1.07v-2.15c0-1.23.31-1.53,1.53-1.53,0,.61.15,1.23.31,1.84h0v.31l.31.15h0ZM64.77,136.24c-.77.61-1.53,1.38-2.15,1.99,1.84,1.84,0,3.53,0,5.22,2.46-1.23,3.53-4.45,2.15-7.21h0ZM230.8,154.96c2.61-2.15,5.52-2.46,8.44-2.76-1.99-1.38-3.99-1.53-6.14-.31-1.23.61-2.15,1.38-2.3,3.07h0ZM32.09,136.85c.31-1.07,0-2.15-1.23-3.22-1.53-1.38-3.84-1.99-5.06-1.38,1.99,1.53,3.99,3.07,6.14,4.45h0s.15.15.15.15ZM193.51,164.32c0-1.84-2.76-4.3-5.22-4.3s-.61.61-.61.61c.46,1.38,1.38,2.3,2.76,2.76-.31-.61-.61-1.23-1.07-1.69h0c1.23.77,2.46,1.69,3.68,2.46h.31l.15.15h0ZM175.25,200.38c-1.07-2.15-5.22-3.99-7.21-3.53-.15,0-.31.31-.31.31,0,.15.15.31.31.46,2.3.77,4.6,1.69,7.21,2.46h0v.31ZM93.77,183.5c-.61-1.99-1.99-2.76-3.84-3.38-1.07-.15-1.99-.31-2.76.77.61.15,1.23.31,1.69.61,1.07.46,2.15,1.07,3.07,1.69.61.61,1.23.61,1.99.15h0l-.15.15ZM59.55,59.36c-1.07,1.07-1.23,7.52,0,8.75,1.07-1.23,1.23-7.52,0-8.75ZM147.17,42.79h0v2.46c0,.31.31.77.61,1.23.15-.31.61-.61.61-1.23v-5.52c0-.31-.31-.61-.61-1.07-.31.31-.61.61-.61,1.07v3.07h0ZM22.42,135.01v.31c1.99.77,3.84,1.69,5.68,2.3.15,0,.61,0,.61-.15,0-.31,0-.61-.15-1.07-1.53-1.38-3.07-2.15-5.06-2.15s-.61.31-1.23.46h0s.15.31.15.31ZM76.43,128.41v.31c.61.15,1.53.61,1.69.46,1.53-.77,2.76-1.84,4.3-2.76.15,0,.15-.61,0-1.07,0,0-.61-.31-.77-.15-1.84,1.07-3.68,1.99-5.37,3.07h.15v.15ZM63.23,153.42c-.77,0-1.38.15-1.84.15-.77,0-1.53-.15-2.3-.15s-.61.31-1.07.46c.15.31.31.61.61.77,1.69.46,3.38,1.07,5.06,1.38l.31-.31c-.31-.77-.61-1.69-.77-2.3h0ZM192.43,56.91c-.15-1.23-1.07-1.69-2.15-1.53-1.69.31-2.15,1.53-1.69,3.53h3.53c-.31-1.38-1.53-.77-2.15-1.38.31-1.53,1.69-.61,2.46-.77h0v.15h0ZM56.94,68.41c0-.31.15-.46.15-.61,0-1.84-3.68-4.6-5.52-4.14-.15,0-.31.31-.61.46.15.15.31.31.46.46,1.23.77,2.3,1.69,3.53,2.46.61.31,1.23,1.07,1.69,1.53h.31s0-.15,0-.15ZM71.67,113.37c-.61,1.99-1.53,3.84-2.15,5.68,1.69-1.07,3.84-1.53,3.53-3.99,0-.61,0-1.53-1.23-1.69h-.15ZM68.45,64.12c-2.15-.61-3.53.15-4.91,1.23-1.07.61-1.69,1.69-1.69,3.07,2.15-1.53,4.14-2.76,6.44-4.3h.15ZM28.4,139.61h-.31c-1.53.46-2.76,1.07-3.99,1.53-.15,0-.31.61-.31,1.07.31,0,.61.31,1.07.15,1.69-.31,3.38-.77,4.91-1.38.31,0,.46-.46.61-.61-.31-.15-.61-.31-1.07-.46h-.77s-.15-.31-.15-.31ZM27.48,146.67c1.23-.31,4.3-4.45,3.99-5.52-1.99.31-3.99,3.22-3.99,5.52ZM30.86,124.88c-.77-.61-1.23-.61-2.15-.15-1.84,1.07-3.38,3.07-3.22,4.14,1.69-1.38,3.53-2.61,5.37-3.84h0v-.15ZM214.22,166.62c-.61-1.53-2.76-2.3-3.99-1.53-.61.31-.77,1.07,0,1.23,1.38.61,2.76,1.07,4.14.31h-.15,0ZM87.63,129.94s-.15-.31-.31-.31c-1.84,1.07-3.22,2.46-4.91,3.84.31.46.46,1.07.77,1.53,1.53-1.69,3.07-3.38,4.3-4.91h0s.15-.15.15-.15ZM69.99,145.6c-1.99,0-4.45,1.23-4.91,2.76.61-.31,3.99.61,4.91-2.76ZM88.25,164.16v.46c1.69.31,3.53.77,5.37,1.23.15,0,.46-.31,1.07-.77-1.99-.46-3.53-1.07-5.22-1.38-.31,0-.77.31-1.23.61h0s0-.15,0-.15ZM34.08,75.17c-.15,0-.46-.31-.77-.31-1.38,0-3.53,2.3-3.38,3.53,0,.15.15.46.31.46s.46,0,.61-.15c1.07-1.23,1.99-2.3,3.22-3.53ZM236.01,140.38l.31.31c1.53-.61,3.07-1.53,4.6-2.15.15,0,.15-.61.31-1.07-.31,0-.61-.15-1.07,0-1.23.61-2.3,1.53-3.53,2.15-.31.15-.46.61-.61,1.07h0v-.31h0ZM231.56,134.7c-.61.61-1.23,1.38-1.69,1.99,1.53.61,2.76,1.38,4.3,1.99l.31-.31c-1.07-1.23-1.69-2.3-2.76-3.84h-.15v.15h0ZM47.58,180.58h3.53c-.31-1.53-1.07-2.15-1.99-2.15s-1.69,1.07-1.69,2.15h.15ZM27.94,129.48l.31.31c1.53-.61,2.76-1.23,4.14-1.84.31,0,.31-.46.61-.77-.31-.15-.77-.61-1.07-.46-1.07.31-1.84.77-2.61,1.53-.46.31-1.07,1.07-1.38,1.53h-.15l.15-.31ZM50.96,173.98h5.68c-1.23-1.38-2.46-1.53-3.84-1.38-.77,0-1.69.15-1.99,1.38h.15ZM90.24,161.4v.61c1.53.31,3.07.61,4.45,1.07.15,0,.46-.31.77-.46-.15-.15-.31-.46-.61-.61-1.23-.31-2.15-.46-3.38-.61-.31,0-1.07.15-1.38.31h0s.15-.31.15-.31ZM239.85,135.47c-1.38-1.38-1.53-1.38-2.46,0-.31.46-.77,1.07-1.23,1.53-.15.31-.31.77-.31,1.23,0,0,.15,0,.31.15,1.23-1.07,2.46-1.69,3.84-2.61h-.15v-.31h0ZM74.74,183.65c-.31-.31-.46-.77-1.07-1.07-.15,0-.61.31-1.07.77-.15.61-.31,1.38-.31,1.99s.31.61.61,1.07c0,0,.61-.31.77-.46.31-.61.46-1.53.77-2.15h0s.31-.15.31-.15ZM45.74,170.45c-.61-1.23-1.69-1.38-2.76-1.23-.77,0-1.53.46-1.84,1.53,1.69,0,3.22.61,4.6-.31ZM234.17,141.15c0-.15,0-.31.15-.46-1.23-1.07-2.76-1.53-4.3-1.99,0,0-.46.31-.46.46,0,.31.15.77.31.77,1.53.31,2.76.61,4.3,1.23h0ZM165.28,49.39s.15,0,.31.15c.31-.31,1.07-.61,1.07-1.07v-3.07c0-1.07-.31-.46-.61-.61-.15.31-.61.46-.61.77v3.84s-.15,0-.15,0ZM169.26,51.07c-1.23,0-2.3,0-3.38.31-.15,0-.31.46-.61.77.15.15.46.46.61.46,1.23,0,2.15,0,3.38-.15v-1.53h0v.15ZM53.11,178.13h5.37c-.46-1.07-1.38-1.23-2.15-1.23s-2.15,0-3.22,1.23ZM91.78,168.15v-.46c-1.53-.31-3.22-.77-4.6-1.23-.15,0-.46.15-.61.31,0,.15.15.46.31.61,1.38.31,2.61.77,3.99,1.23.31,0,.61-.15,1.07-.31h0s-.15-.15-.15-.15ZM62.16,178.74c1.99.61,3.38,0,3.38-1.69s0-.61-.31-.77h-.61l-2.3,2.3h0l-.15.15ZM243.07,141.15v-.46c-.31-.15-.77-.61-1.07-.46-1.69.61-3.38,1.53-5.06,2.15v.31c1.99-.46,3.84-1.07,5.68-1.53,0,0,.46,0,.46,0ZM182.31,205.59l.31.31c1.23-.77,2.3-1.69,3.53-2.46v-.61c0-.15-.46-.31-.61-.15-1.38.61-2.61,1.69-3.38,3.22h.15v-.31h0ZM60.78,158.79c1.38.15,2.46.31,3.84.46.15-1.23,0-1.69-1.23-1.69h-2.3c0,.31-.15.61-.31,1.23h0ZM238.01,127.18v1.53c1.38.61,2.61,1.23,3.99,1.84,0-.15.15-.31.31-.46-1.07-1.38-2.76-1.69-4.3-2.76h0s0-.15,0-.15ZM42.06,107.54c.77,0,3.53-1.84,3.53-2.46s-.61-.61-.77-.61c-1.23.61-2.15,1.53-2.61,3.07h-.15ZM29.63,107.7c0-.31,0-.46-.15-.61-.77-.77-1.53-1.69-2.3-2.46s-.61,0-.61.15-.15.61,0,.77c.61.61,1.53,1.53,2.3,2.15h1.07-.31ZM16.89,99.56c-.15-1.23-.46-1.53-2.76-1.23-.61,0-1.53,0-1.23,1.23h3.99ZM21.5,121.04c1.07,1.07,1.69,1.99,2.46,2.76,0-1.07.15-1.99.31-3.07-1.07,0-1.84,0-3.07.15h.15s.15.15.15.15ZM243.23,123.81c-.46-.46-1.07-1.07-1.38-1.53-1.07.61-.61,1.23,1.23,2.61,1.69-1.38,1.99-1.69,1.53-2.46-.31.46-.77,1.07-1.38,1.53h0v-.15h0ZM242.46,127.95c0-1.23-1.84-3.22-2.46-3.22s-.46.15-.61.31c0,.15,0,.61.15.77,1.07.61,1.84,1.23,3.07,1.99h0l-.15.15ZM236.63,133.47s-.31-.15-.31-.31c-.15.15-.46.31-.61.61-.61.77-1.23.77-1.69,0-.15-.31-.61-.31-1.07-.61l-.31.31c.61.77,1.23,1.69,1.99,2.46.61-1.07,1.38-1.84,1.99-2.61h0v.15h0ZM25.95,121.2c0,1.38-.15,2.3-.31,3.53.77-1.07,1.53-1.69,2.15-2.46-.31-.15-1.07-.61-1.84-1.23h0s0,.15,0,.15ZM244.3,130.4c2.15-.15,3.99-1.53,3.53-2.61-1.23.77-2.61,1.23-3.53,2.61ZM244.15,127.8c.77-.61,1.69-1.23,2.46-1.69,0,0,.15-.46,0-.77,0-.15-.31-.31-.61-.31-.61,0-1.99,1.84-1.84,2.76h0ZM39.14,174.29c.77.15,1.69.31,2.3.31s.61-.15.61-.31,0-.61-.15-.77c-1.07-1.07-2.15-.61-2.76.61h0v.15ZM50.96,60.43c-1.53-.61-2.76-.46-3.38.31v.61s.31.15.61.15c1.07-.31,1.69-.77,2.76-1.38h-.15s.15.31.15.31ZM49.27,57.98c-.77-.77-2.46-.77-3.07,0v.61c.15,0,.46.31.61.15.61-.15,1.53-.31,2.3-.61h0l.15-.15ZM237.39,130.71v.31c.61,1.07,2.76,1.69,3.99,1.23-1.53-.61-2.76-1.23-3.99-1.69h0v.15ZM232.02,142.68h0c-1.07-.31-1.99-.61-3.07-.77v1.69c1.07-.31,1.99-.61,3.07-1.07h0v.15ZM44.36,176.44c.61,0,1.38,0,1.99-.15.15,0,.46-.31.46-.61s-.31-.46-.61-.46c-.77-.15-1.69.31-1.84,1.53h0s0-.31,0-.31ZM243.23,144.83c-.46-1.69-1.07-1.69-3.53-.77,1.38.31,2.3.46,3.53.77ZM241.08,150.35c-.31-.61-.61-1.53-1.23-2.46-.61,1.38-.15,2.15,1.23,2.46ZM57.56,159.1c.61-.31,1.07-.31,1.23-.61.15-.46.15-1.23.31-1.69-.31,0-1.07,0-1.07.15-.15.46-.31,1.23-.46,2.15h0ZM14.9,102.48v-.31c-.31-.15-.77-.31-1.23-.31s-.46.31-.61.61c.31.15.61.61,1.23.61s.46-.31.77-.46h-.15v-.15ZM124.92,118.44v-.31c-1.38.15-2.76,0-3.99.61v.31c1.38-.15,2.61-.31,3.99-.61ZM87.33,170.45v-.31c-.61-.31-1.23-.46-1.84-.61-.15,0-.31,0-.61.15,0,.15.15.61.31.61.61.15,1.38.15,1.99.31h.15v-.15ZM66.46,79.61c.61.46,1.23,1.07,1.69,1.53v-1.84c-.46.15-1.07.31-1.69.46h0v-.15ZM53.87,137.16c-.31.31-.61.46-1.38,1.07.61.31,1.23.46,1.99.77-.31-.61-.46-1.23-.61-1.69h0v-.15ZM145.94,117.98v.31h2.46c0,.15,0-.15,0-.15-.77,0-1.69,0-2.46-.15h0Z"/>
  <path class="st-iconCA0" d="M248.9,65.19c-.15,0-.61-.15-.61-.31-1.07-1.99-2.46-2.3-4.3-2.46h-1.07c1.53-2.46,3.99-5.98,6.14-4.14,1.69,1.53,1.99,5.83,0,7.06h-.15v-.15Z"/>
  <path class="st-iconCA0" d="M186.3,20.39c.46-1.53,1.84-2.15,3.22-1.69.61.31,1.23.15,1.69-.31,1.07-.77,2.15-1.07,3.07-.31.15,0,.31.31.31.46s-.31.31-.46.31c-1.38,0-2.46.15-3.07,1.69,0,0-.61.15-.61,0-1.07-1.23-2.15-1.07-3.53-.31h-.61.15l-.15.15h0Z"/>
  <path class="st-iconCA0" d="M207.47,20.54c-.61.15-1.07.31-1.38.31-1.07.15-1.69.61-1.99,1.69,0,.15-.61.61-.61.61-1.23-.77-2.46-.61-3.84,0,0-1.23.77-1.99,2.15-1.84,1.07,0,1.53,0,2.15-.61,1.07-1.07,2.46-1.07,3.53,0h0v-.15Z"/>
  <path class="st-iconCA0" d="M18.28,86.21c-1.23,0-1.99-.61-1.99-1.53s.61-1.53,1.69-1.53,2.3,1.07,2.15,1.84c-.15,1.23-1.38,1.07-1.99,1.23h.15Z"/>
  <path class="st-iconCA0" d="M140.26,115.52v25.47c0,.31-.15,1.07-.31,1.23-.61.31-1.23,0-1.23-1.07v-51.25c.31-.31.46-1.23.77-1.23.77,0,.77.61.77,1.23v25.47h-.15l.15.15Z"/>
  <path class="st-iconCA0" d="M131.98,117.21v24.4c0,.31-.46.61-.77.61s-.61-.31-.61-.61v-48.95c0-.31.46-.61.77-.61s.46.31.61.61v24.4h0v.15Z"/>
  <path class="st-iconCA0" d="M154.84,199.61c.46-1.38,1.07-2.46,1.38-3.53,0-.15.46-.31.61-.61.15.31.46.61.46,1.07-.15,1.53-.31,3.07-.61,4.6,1.23-.61,1.69-2.46,3.53-2.46-.31,1.23-.46,1.99-.61,3.07.31,0,.61.15,1.07.31-.61,1.23-1.38,2.15-1.99,3.38-.31.61-1.07,1.07-1.69.31-2.15-1.38-4.3-1.99-6.9-1.23-.31,0-.61,0-1.07-.31s-1.23-.61-1.53-1.23c-.31-.31-.31-1.07-.61-1.38.46,0,1.07-.31,1.53-.15.61.15,1.53.61,2.46,1.23-.15-.61-.31-1.07-.46-1.23-.31-.46-.61-1.07-1.07-1.53s-1.07-1.23,0-1.69c.31-.15,1.23.31,1.53.61s.61.77,1.07,1.23.46.61,1.07.77c-.15-1.07-.46-2.15-.61-3.22,0-.61-.31-1.23-.31-1.69s.31-.61.46-1.07c.31.15.77.31,1.07.61.46,1.23.77,2.15,1.23,3.38,0,.15,0,.31.31.61h0c0,.15,0-.15,0-.15l-.31.31h0Z"/>
  <path class="st-iconCA0" d="M134.43,118.44v-18.11c0-.31.46-.61.61-1.07.15.31.46.46.61.77v36.52c0,.31-.46.61-.61.61-.31,0-.61-.31-.61-.61v-18.11h0Z"/>
  <path class="st-iconCA0" d="M135.2,151.12c-3.07-.31-6.6-.61-10.13-1.23h-.31c-.31-.31-1.23-.61-1.23-1.07,0-1.07.77-.61,1.53-.61,3.99.31,7.98.61,12.12,1.07,1.99,0,3.84-.15,5.68-.15s.77.31,1.38.61c-.31.31-.61,1.07-1.23,1.07-2.3.31-4.6.31-7.67.61h0v-.31h-.15,0Z"/>
  <path class="st-iconCA0" d="M119.7,153.88c-3.84-1.23-5.68-1.99-8.29-3.38-1.99-1.07-3.68-2.3-5.37-3.68-.61-.46-1.53-1.38-.61-2.15.77-.61,1.53.15,1.99.61,3.07,3.07,6.9,4.6,10.89,5.83.61.15,1.53.31,2.15.61.31,0,.61.61.46,1.07,0,.31-.46,1.07-1.07.77h-.15v.31Z"/>
  <path class="st-iconCA0" d="M160.52,141.76c0,1.38-1.07,2.61-1.99,3.84-1.69,1.69-3.99,2.61-6.14,3.38-.31,0-1.07-.31-1.53-.46.31-.31.46-1.07,1.07-1.23,1.38-.61,2.76-1.23,3.99-1.99,2.61-1.69,3.07-3.84,1.53-6.44-.15-.31,0-.61,0-1.07h1.23c1.23.46,2.15,2.46,2.15,4.14h-.15l-.15-.15h0Z"/>
  <path class="st-iconCA0" d="M139.5,196.85c-1.07-.15-1.99-.31-3.07-.61-1.53-.46-1.69-1.99-.31-3.07,1.69-1.38,5.22-1.23,6.6.15,1.07,1.07,1.07,2.15-.31,2.76-1.07.31-1.99.46-2.76.61h-.15v.15h0Z"/>
  <path class="st-iconCA0" d="M150.39,156.8c.15,0,.46-.15.61,0,.31,0,.61.31.77.46-.15.31-.31.61-.61.61-1.23.31-2.15.46-3.38.61-4.6.77-9.36,1.07-13.81.61-.31,0-1.23-.15-1.23-.61s.77-.61,1.38-.61h4.6s7.83-.61,11.51-1.23l.15.15Z"/>
  <path class="st-iconCA0" d="M125.69,158.79c-4.91-.77-9.51-1.84-13.81-3.53-1.53-.61-2.76-1.23-4.14-1.99-.31-.15-1.07-.61-.61-1.23s1.07-.15,1.38,0c5.22,2.76,10.74,4.14,16.42,5.22.31,0,.61,0,1.07.15s1.07.31,1.07.61-.61.31-.77.46h-.15l-.46.31h0Z"/>
  <path class="st-iconCA0" d="M136.12,81v5.37c0,.31-.31.77-.61,1.23-.31-.31-.77-.77-.77-1.23v-10.89c0-.31.46-.61.61-1.23.15.31.61.61.61,1.23v5.52h.15Z"/>
  <path class="st-iconCA0" d="M131.98,77.31v3.38c0,.31-.46.61-.61,1.07-.31-.31-.77-.61-.77-1.07v-6.6c0-.31.46-.61.61-1.07.31.31.61.61.77,1.23v3.22h0v-.15Z"/>
  <path class="st-iconCA0" d="M110.34,140.84c.31-1.07.61-1.99,1.23-2.76.15-.31,1.07-.61,1.53-.31.77.31.31.77,0,1.38-.61,1.23-.61,2.3-.15,3.53.15.61.31,1.23-.31,1.53-.31,0-1.07-.31-1.23-.61-.31-.61-.46-1.53-.77-2.46h-.15s-.15-.31-.15-.31Z"/>
  <path class="st-iconCA0" d="M119.09,148.82c-1.69-.77-3.22-1.69-4.6-2.46-.31-.15-.15-.77-.31-1.38.31,0,1.07-.31,1.23-.15,1.53.61,2.76,1.53,4.3,2.15.15,0,.46.61.31,1.07,0,.31-.46.46-1.07.77h.15,0Z"/>
  <path class="st-iconCA0" d="M138.58,80.69v-2.46c0-.31.46-.61.77-1.07.15.31.61.61.61,1.07v5.06c0,.31-.46.61-.61,1.23-.31-.31-.61-.61-.77-1.23v-2.61Z"/>
  <path class="st-iconCA0" d="M140.11,65.19v2.46c0,.31-.31.61-.61,1.07-.31-.31-.77-.61-.77-1.07v-5.06c0-.31.46-.61.77-1.07.15.31.61.61.61,1.07v2.46h0v.15Z"/>
  <path class="st-iconCA0" d="M131.98,67.8v1.69c0,.31-.31.61-.61.61s-.61-.31-.61-.46v-3.68c0-.15.46-.46.77-.46s.46.31.61.61v1.69h-.15Z"/>
  <path class="st-iconCA0" d="M135.97,61.36c-.77.31-1.38.15-1.38-.61v-3.38c0-.31.46-.61.61-1.07.15.31.61.61.61,1.07v3.84h0s.15.15.15.15Z"/>
  <path class="st-iconCA0" d="M131.98,58.13v1.07c0,.31-.46.61-.61.77-.31-.31-.61-.46-.61-.77v-2.15c0-.31.46-.61.77-.77.15.31.46.61.61,1.07v1.07h-.15v-.31Z"/>
  <path class="st-iconCA0" d="M140.26,58.29c-.31.46-.61,1.53-1.07,1.53-1.23,0-.77-1.07-.61-1.69,0-.61.31-1.53.61-1.53,1.23,0,.61,1.07,1.07,1.84h0v-.15Z"/>
  <path class="st-iconCA0" d="M136.27,142.37c-1.07,0-1.84.31-1.69-.77,0-.61-.46-1.84.61-1.69,1.53.15.31,1.53,1.07,2.46h0Z"/>
  <path class="st-iconCA0" d="M76.12,109.84c.46.31.77.46,1.07.61,1.38,1.23,2.15,1.07,3.68,0,1.23-.77,2.46-1.38,3.99-1.99.31-.15,1.07-.31,1.53,0,.61.15,1.23.61,1.69,1.23-.46.31-1.07.61-1.53.77-1.99.46-3.84,1.23-5.68,2.46-.77.61-2.15.77-3.38,1.23-.15,0-.61,0-.61-.15-.61-1.23-1.07-2.46-.77-4.14h.15s-.15,0-.15,0Z"/>
  <path class="st-iconCA0" d="M65.38,108.31c0-.61-.31-1.53-.31-2.15v-8.44c.15-.15.46-.46.77-.46s.31.31.61.46v9.21c0,.46-.31,1.23-.46,1.69h-.61v-.31Z"/>
  <path class="st-iconCA0" d="M66.15,41.71c-2.61,1.07-5.22,2.15-7.06,4.91,0-3.07,4.6-6.14,7.06-4.91Z"/>
  <path class="st-iconCA0" d="M203.79,87.13c2.3-1.07,4.45-.31,6.29,1.69-.31.77-.77,1.07-1.53.31-1.38-1.23-3.07-1.69-4.6-1.99h-.15Z"/>
  <path class="st-iconCA0" d="M208.85,84.99c1.53-.61,3.07,0,4.3,1.69-.46.61-1.07.61-1.69.15-.77-.61-1.69-1.23-2.61-1.99h0v.15Z"/>
  <path class="st-iconCA0" d="M240.62,81.61v20.41c-2.15-1.23-3.99-2.3-6.44-1.99v-10.74c0-.15,0-.46.31-.61,1.99-2.15,3.99-4.6,6.14-7.06h0Z"/>
  <path class="st-iconCA0" d="M57.86,144.52c-1.99.15-3.99.61-5.98.61s-1.07-.61-1.53-1.23c.31-.31.77-1.07,1.23-1.07,2.15-.15,4.3-.61,6.14,1.23,0,0,.15.15.15.31h0v.15Z"/>
  <path class="st-iconCA0" d="M88.55,158.49c-1.07-1.99-.46-4.45,1.23-5.37v4.3c0,.31-.61.61-1.07,1.07h-.15Z"/>
</svg>