<?xml version="1.0" encoding="UTF-8"?>
<svg id="Capa_1" xmlns="http://www.w3.org/2000/svg" version="1.1" viewBox="0 0 243 99">
  <!-- Generator: Adobe Illustrator 30.3.0, SVG Export Plug-In . SVG Version: 2.1.3 Build 182)  -->
  <defs>
    <style>
      .stContainer {
        fill: #996822;
      }

      .st1H {
        fill: #00496d;
      }
    </style>
  </defs>
  <g>
    <path class="st1H" d="M94.1,37.9c.43.7.43,1.73,0,2.44-.22.43-.7.49-1.08.7-.05,0,0,.22-.05.38h.38c.27-.11.54-.6.76-.49.7.43.38,1.62,0,2.33-.27.54-.92.76-.87,1.46.16,0,.38-.11.43-.22.11-.11.16-.6.43-.54,1.35.49,0,2.87,0,4.28-.38-.27-.7-.6-1.08-.81s-.43-.11-.49.05c.54.6,1.25.97,1.52,1.73,1.19,2.92,1.08,5.25,0,9.53-.11.43-.7.6-.6,1.14.11.7-.05,1.19-.54,1.62-.16.16-.38.49-.38.7.05.76-.22,1.3-.76,1.79-.27.22-.43.54-.38.87.11.54-.05.87-.54,1.25-.22.22-.54.54-.6.81-.11.54-.43.87-.81,1.19-.27.22-.6.54-.7.87-.38.87-.87,1.52-1.62,2.06-.27.22-.65.54-.76.81-.27.76-.81,1.3-1.52,1.62s-.97.7-1.19,1.35-.65.97-1.3,1.08c-.76.11-1.35.54-1.73,1.19-.43.7-.97,1.08-1.84,1.08s-1.19.43-1.52.87c-.11.16-.22.43-.43.6-.38.43-.76.7-1.3.6-.76-.16-1.3.11-1.79.65-.16.16-.38.38-.54.6-.43.43-.87.6-1.41.49-.76-.16-1.41.11-1.9.7-.38.43-.87.6-1.41.49-.6-.11-1.08,0-1.41.43-.6.54-1.25.7-2,.43-.65-.22-1.19-.05-1.73.38-.54.54-1.19.6-1.9.38-.6-.22-1.19-.16-1.62.22-.54.43-1.08.49-1.62.22-.43-.11-.76-.11-1.19.05-.43.22-.92.38-1.41.05-.54-.22-.97-.16-1.46.11s-.92.38-1.41,0c-.43-.27-.76-.38-1.19-.11-.49.16-.92.16-1.41-.05-.38-.22-.76-.22-1.19-.05-.54.22-.97.11-1.41-.27-.49-.43-.97-.54-1.52-.22-.65.22-1.25.22-1.84-.38s-.76-.49-1.3-.27c-.92.38-1.73.16-2.33-.65-.22-.38-.54-.43-.92-.27-.76.27-1.41.05-1.95-.54-.43-.49-.87-.6-1.46-.49-.65.16-1.19-.05-1.57-.6-.6-.76-1.35-1.25-2.49-.97-.76.22-1.41-.05-1.73-.81-.43-1.08-1.19-1.41-2.27-1.46-.38,0-.76-.11-.92-.38-.43-.6-.97-1.08-1.52-1.52-.22-.16-.38-.27-.65-.22-.76.11-1.25-.22-1.35-.97-.05-.6-.38-.87-.76-1.19-.27-.16-.6-.43-.87-.54-.43-.22-.76-.54-.87-.97-.11-.6-.49-.87-.97-1.14-.7-.27-1.19-.81-1.35-1.57-.11-.54-.43-.81-.87-.97s-.76-.54-.92-.97c-.11-.38-.16-.65-.22-.97-.05-.54-.27-.87-.7-1.25-.43-.27-.65-.7-.7-1.25,0-.43-.22-.7-.54-.92-.38-.22-.6-.6-.54-.97,0-.49-.11-.87-.49-1.19-.43-.43-.6-.87-.43-1.46.11-.43,0-.76-.38-1.08-.38-.38-.54-.76-.43-1.25.16-.54,0-.97-.38-1.35s-.54-.92-.27-1.52c.22-.54,0-.92-.54-1.19-.11,0-.16-.22-.27-.38.11-.11.27-.22.43-.27.11,0,.27.05.43.11.38.05.7.11,1.08.22,0,0,0-.05.05-.11-.16-.11-.38-.27-.54-.43-.49-.27-.97-.54-1.41-.76-.11-.05-.11-.27-.22-.43.11-.05.38-.16.49-.22.11,0,.22.05.38.11.6.38,1.14.7,1.73,1.08.22.11.49.38.76.6,0-.16,0-.27-.05-.38-.38-.6-.76-1.08-1.41-1.25-.11,0-.38-.05-.43-.16-.27-.38-.54-.7-.76-1.08-.11-.16-.22-.43,0-.6.22-.22.43-.05.6.11.22.22.43.54.65.76.22-.22.27-.22.11-.6-.16-.43-.43-.76-.6-1.25-.05-.16-.05-.49,0-.6.16-.22.43,0,.54.11.27.43.54.87.76,1.35.05.11.11.27.22.43h.11c0-.11,0-.22.05-.43,0-.38.05-.65.16-.92,0-.11.22-.16.38-.27.11.11.22.22.27.38v1.08c0,.11.05.22.11.38.05-.05.16-.11.22-.22.11-.27.22-.6.38-.87.11-.11.38-.22.54-.38,0,.16.16.43.11.6,0,.22-.16.54-.22.76v.43c.11-.05.27-.11.38-.22.27-.38.54-.7.81-.92.22-.22.27-.38,0-.54-.49-.27-.92-.6-1.41-.92l-.11.11c-.97.6-1.9.54-2.71-.11-.38-.22-.43-.76-.7-.97-.38-.22-.81-.16-1.19-.43-1.08-.6-1.46-1.62-1.41-2.82,0-1.14.49-2.06,1.52-2.65.11-.05.27-.16.38-.38.38-1.19,1.08-1.79,2.27-1.84.11,0,.27-.11.38-.22.22-.54.16-1.08-.22-1.41-.27-.27-.6-.54-.87-.76-.16-.16-.6-.16-.49-.6s.54-.22.76-.22h.05c.65.16,1.08.6,1.41,1.14.05.11.22.11.38.22,0-.11.11-.27.11-.43,0-.22-.11-.43-.22-.6-.38-.43-.76-.76-1.19-1.14-.16-.11-.38-.27-.16-.54.11-.22.38-.16.6-.05.11.05.38.11.54.22,0-.76-.54-.87-.97-1.19.16-.43.38-.54.76-.38.54.22.92.6,1.19,1.19,0,.05.11.11.22.22.05-.11.22-.16.22-.27s0-.27-.05-.43c-.22-.7-.7-1.14-1.41-1.41-.22-.11-.54-.22-.87-.38.16-.38.27-.7.54-.97.49-.65.97-1.3,1.9-1.41.05,0,.11-.11.22-.22l-.22-.22c-.11-.05-.38-.11-.49-.22s-.22-.38-.16-.49c.05-.22.27-.38.54-.16.11.05.27.16.43.22h.27v-.38c-.11-.16-.38-.38-.49-.54-.05-.11-.11-.27,0-.43.05-.11.22-.16.38-.11.16,0,.27.16.49.27s.49.22.7.43c0,0,.05-.05.05-.11-.11-.38-.38-.7-.49-1.08,0-.11.05-.38.11-.54.16.05.38.05.54.16.11.05.16.22.22.38.11.16.22.38.43.54h.16v-1.19c0-.16.22-.43.38-.43.22-.05.38.16.43.43,0,.22,0,.49.05.7,0,.11.11.22.11.38.05-.05.16-.11.22-.22.11-.22.22-.54.49-.76.05-.11.38-.11.43-.05.11,0,.16.22.11.43,0,.16-.11.38-.16.54s-.11.43-.16.6c0,0,.05,0,.11.05l.76-.76c.22-.22.38-.27.6-.05.16.22.11.43,0,.65-.11.16-.27.38-.54.65.16,0,.22,0,.27-.05,1.14-.38,2.17,0,2.76.87.11.22.27.27.54.16s.22-.27.16-.54c-.22-.76-.92-1.3-1.84-1.35-.38,0-.6-.11-.7-.54-.05-.22-.22-.49-.38-.7-.54-.76-1.35-1.14-2.27-1.25.11-.22.22-.43.27-.6.54-.97,1.3-1.46,2.44-1.41.6,0,1.19.22,1.62.65.11.05.27.05.43.11v-.43c-.05-.16-.22-.27-.43-.43-.54-.49-1.19-.65-1.9-.7-.11,0-.38-.11-.38-.16,0-.11,0-.38.11-.43.11-.11.38-.11.49-.16h.54v-.11c-.11-.11-.27-.22-.49-.38-.22-.11-.43-.38-.22-.6s.49-.22.7-.11c.16.11.38.22.54.38.05-.43-.43-.87.11-1.19.43-.22.54.27.76.54.11-.11.22-.22.43-.38.11-.11.38-.27.43-.22.49.38.7-.16,1.08-.22.27-.05.6-.11.92,0,.22.05.54.22.7.43.43-.11.81-.22,1.19-.38.11,0,.22-.11.38-.16-.11-.05-.22-.22-.38-.22-.54-.22-1.14-.43-1.62-.7-.22-.11-.38-.43-.49-.6.22-.05.54-.16.76-.16.54.05.97.22,1.52.38-.11-.16-.27-.38-.43-.54-.38-.43-.65-.87-.97-1.3-.11-.11-.05-.38-.11-.6.16,0,.43,0,.6.05.76.38,1.35.97,1.84,1.62.11.11.16.22.27.38.05-.11,0-.22,0-.38-.22-.76-.54-1.57-.76-2.33-.05-.16,0-.43.05-.65.22.05.49.11.6.27.38.54.6,1.08.87,1.62.11.16.11.38.22.65.22-.27.38-.54.54-.7.43-.43.76-.87,1.19-1.25.11-.11.38-.05.49-.11,0,.16.05.38,0,.54-.22.54-.54.97-.76,1.52-.05.11-.11.22-.11.27.54-.22.97-.49,1.52-.7.11,0,.38,0,.54.05,0,.11,0,.38-.11.49-.22.22-.54.54-.76.7,1.08-.43,2.11-.6,3.14.27,0-.54.11-.87.6-.76,0-.22,0-.6.16-.7.11-.11.49-.11.7-.11-.16-.43-.11-.7.22-.7s.7,0,1.08.05c0-.22,0-.6.43-.65.54-.11.54.38.7.7.11-.22.22-.38.38-.54.11-.22.38-.27.6-.16s.22.22.16.49v.54c.22-.22.38-.49.54-.6.11-.05.43-.05.6,0,.22.05.11.22.11.43s-.11.27-.11.43c.22-.05.43-.22.65-.27.11,0,.38,0,.54.05s0,.27,0,.43-.11.27-.11.43c.43-.11.76-.16,1.19-.27l.11.11c-.11.27-.22.6-.38.97.16-.05.43-.11.6-.22.16-.11.38-.22.6-.38.11,0,.38,0,.43.05s.05.27,0,.43c-.11.27-.22.6-.43.87l.11.11c.43-.11.76-.27,1.19-.43.22-.11.38,0,.49.22s0,.38-.16.43c-.11,0-.16.11-.43.38.43.05.7.11.97.16,0,.22-.11.54-.16.92.27-.11.6-.22.87-.27.16,0,.43.05.6.11-.11.11-.16.38-.27.49-.11.11-.22.22-.38.27h.76c.22,0,.38.05.43.11,0,.11,0,.27-.11.43,0,.11-.11.16-.22.22.38,0,.6-.11.81-.22.27-.05.54.11.43.43-.05.16-.16.38-.27.6.22-.11.43-.22.6-.22.22-.05.6-.16.76-.05.22.16.05.49-.05.7v.11c.22-.05.43-.11.6-.11h.6c.22,0,.49.11.76.22-.05-.16-.11-.22-.11-.27v-.65h.65c.11,0,.16.05.27.11,0-.11-.11-.16-.11-.22,0-.11-.11-.38,0-.49.05-.11.27-.11.43-.11s.22.05.38.05h.49c-.22-.27-.43-.54-.6-.76,0,0,.05-.11.11-.11.49.05.97.11,1.41.16,0-.05.11-.11.11-.16-.22-.11-.43-.22-.6-.43-.11-.05-.22-.38-.16-.38.11-.11.27-.22.49-.22s.38.11.49.11c.16.05.43.11.6.22-.11-.22-.16-.43-.38-.6-.11-.22-.22-.49,0-.6.11-.11.43,0,.6,0,.22.05.38.22.54.43,0-.22-.05-.43-.11-.6-.11-.22-.22-.54,0-.6.16-.05.43,0,.7,0s.22.11.38.22c0-.38-.11-.7,0-.81.11-.16.54-.22.7-.27,0-.16-.05-.49.05-.6.38-.38.65,0,.87.16.05-.22,0-.6.16-.7.11-.11.49,0,.7,0-.11-.49,0-.76.43-.7.38,0,.7.11,1.08.22.11-.27-.05-.76.49-.81.6,0,.54.54.76.87.22-.22.16-.87.76-.76.54.05.43.54.43.87.49-.54.7-.7.92-.54.16.11.22.43.27.65.16,0,.54-.05.7.05.11.11.11.49.16.65.16,0,.54,0,.6.11.11.16.05.54.11.7.11.11.43.16.54.38.11.16,0,.49,0,.7.54-.43,1.19-.76,1.84-.22.65-.76,2.11-.49,2.55.54,0,.11.05.22.16.22.38.16.7.38,1.08.49.22-.38.7,0,.97-.11,0-.11-.05-.16-.11-.27,0-.11-.05-.16-.05-.22.11-.11.22-.16.27-.27.11-.22.38-.38.6-.16.11.11.27.22.43.38.05-.11.11-.22.11-.38.54,0,.81.11.97.49,0-.05.11-.11.11-.16.11-.27.43-.38.6-.22.11.05.11.38.16.6v.54c.38-.16.6-.6.97-.27.11.11.11.49.16.7.16-.16.54-.11.7.05.11.16.11.54.11.76.6,0,.7.11.6.76.22.11.38,0,.54-.16.22-.22.54-.43.81-.6.38-.11.54.05.54.43.05.49.22.87.43,1.35h.11c.11-.11.22-.38.38-.49.38-.54.87-.7,1.41-.6.11,0,.27.16.43.22-.05.11-.11.22-.22.38-.22.27-.49.54-.76.87.97.11,1.14.22,1.3.65-.38.11-.7.22-1.08.43-.49-.7-1.08-.97-1.84-.6-.43-.7-.97-.81-1.73-.49-.76-.65-1.08-.6-1.52.27,0,.05-.16.11-.27.11-.65,0-.92.22-1.14.81,0,.11-.16.22-.27.38l-.38.16c-.43.16-.76.43-1.19.54-.43.05-.76.22-.92.6-.11.27-.27.38-.6.22-.38-.11-.6,0-.76.22-.38.49-.11,1.35.43,1.62.27.11.43,0,.43-.38v-.54c0-.16.16-.27.27-.38.11,0,.22.05.38.11.05,0,.05.11.11.16.11.05.22.11.38.22.05-.11.11-.22.16-.43,0-.16,0-.43.05-.54.11-.16.27-.38.43-.43.11,0,.38.22.38.43.05.16,0,.43,0,.6s.16.22.27.22.22-.11.22-.22c0-.43.16-.7.43-.7.05-.38.05-.6.16-.81,0-.05.43.05.65.11.16,0,.43,0,.54-.05.05,0,0-.27,0-.43s0-.43.11-.54c.11-.22.38-.11.54,0,.11.11.22.22.38.27.38.22.54.11.6-.27,0-.11,0-.38.05-.43.11-.11.27-.22.43-.22s.22.22.38.38c.05.11,0,.22,0,.38.05.43.22.54.6.27.22-.11.43-.27.6-.43.22-.22.49-.05.6.11s-.05.22-.11.38c-.05.05-.16.11-.22.22,0,.11-.11.38,0,.38.11.05.27.11.43.11s.11-.11.16-.11c.11-.05.38-.16.43-.11.11.05.22.22.27.43v.43h.7v-.6c0-.27.05-.6.49-.54.38,0,.43.27.43.6v.6l.11.11c.22-.16.43-.38.65-.54.11-.05.38-.11.43-.05.11.05.22.27.22.43s-.05.27-.11.38c.22.11.49.22.7.27-.11.11-.27.27-.49.38-1.08.6-1.52,1.84-1.14,2.82.43,0,.7-.16.65-.7v-.54c.05-.6.49-1.08.87-1.19,0,.11.05.27.05.43v1.19c0,.11.11.27.11.43l.38-.38c.22-.54.6-.97,1.14-1.25.11-.05.38,0,.54-.05v.49c-.11.38-.38.7-.54,1.08s-.43.6-.6.87c-1.35-.6-2.49-.43-3.14.6-.22.38-.65.43-.81.05-.43-.6-.92-1.25-.97-2.06,0-.38.11-.7.11-1.14s0-.22-.05-.38c-.11,0-.22,0-.38.05-.05,0-.11.11-.22.22-.54.76-.43,1.84.11,2.55.16.22.43.49.6.7-.38.11-.6.27-.87.43-.38-.22-.65-.54-.97-.76-.6-.38-1.25-.43-1.9-.05-.11.05-.11.22-.22.38.11,0,.27.16.43.11.7-.16,1.35.05,1.9.54.11.11.43.22.22.54-.11.11-.38.11-.54.11-1.25-.11-2.22.7-2.17,2v.22c-.38.22-.6.38-.87.6-.38.38-.27.81.05,1.19s.76.27,1.08-.05c.11-.11.27-.16.49-.22.7,0,1.41,0,2.11-.05.11,0,.27-.11.43-.22-.11-.11-.27-.22-.43-.27-.54-.05-1.08,0-1.62-.11-.22,0-.65,0-.6-.43,0-.22.54-.38.87-.22,0,0,.05,0,.11.05.22,0,.43.05.65.05s.54-.05.76-.05h1.46c.05,0,.22-.11.22-.16s-.05-.22-.11-.22c-.11-.05-.27-.11-.43-.11h-.87c-.22-.05-.49-.22-.7-.38,0,0,0-.22.05-.22h1.57c.22-.11.49-.11.7.05s.49.11.65-.05.16-.16.38-.27c.11.05.16.11.22.16.43.43.6.38.87-.11.16-.38.38-.38.54,0,.38.43.54.54.92.16.22-.11.43-.11.6,0,.38.16.7.22,1.14,0,.16-.05.49-.05.7,0s.27.22,0,.38c-.38.11-.65.22-.97.38-.22.05-.54,0-.81.05-.38,0-.43.22-.27.54.54,0,.97-.05,1.46,0,.54.05.87,0,1.25-.38v.87c-.43.05-.81.05-1.25.16-.11,0-.22.16-.38.27.11.05.22.16.27.16h1.25c0,.7.54,1.62,0,2.06-.27.22-.7-.22-1.14-.27-.05,0-.16.11-.27.22l.22.22c.38.16.92.16,1.19.54h.27v-.11l.7.6-.76-.49h0ZM28.9,35.89c.7-.54,1.41-.97,2-1.46.43-.43.87-.65,1.52-.7,1.08,0,1.9-.54,2.6-1.3.22-.27.54-.43.87-.43.76-.05,1.52-.22,2.06-.76.11-.11.38-.16.54-.16.49,0,.87,0,1.35-.11.38-.05.76-.11,1.08-.38.65-.54,1.35-.7,2.17-.65.54,0,.97-.05,1.35-.43.6-.54,1.35-.65,2.06-.6.6,0,1.19-.05,1.73-.49.65-.6,1.41-.76,2.27-.7h.16c.92,0,.81-.16.81.81v29.03c0,.11-.11.22-.22.38-.11-.11-.22-.22-.22-.38-.05-.16,0-.38-.05-.7-.22.11-.43.27-.65.43-.11,0-.16.05-.27.11,0-.11-.11-.38,0-.38.11-.11.38-.27.54-.43.54-.22.6-.43.27-.97-.43.16-.87.38-1.3.54-.43.22-.76.54-.81.97,0,.11-.22.16-.38.27-.11-.11-.38-.38-.27-.43.11-.38.27-.7.6-.87.54-.38,1.19-.6,1.84-.81.47-.15.65-.45.54-.92v-.11c-.16,0-.43,0-.6.05-1.14.38-2.17.7-3.3,1.08-.11,0-.27.11-.43.11s-.22-.05-.27-.11c0-.05,0-.22.11-.38s.22-.11.38-.16c1.25-.6,2.49-1.08,3.79-1.3.38-.05.43-.16.22-.54-1.84.22-3.63.65-5.25,1.62-.49.27-.87.65-1.35.92-.11.05-.38,0-.49,0,0-.11,0-.38.05-.49,0-.05.11-.11.22-.16,1.35-1.14,2.87-1.84,4.55-2.22.65-.16,1.35-.38,2-.49.05,0,.11-.11.22-.22-.11-.05-.16-.11-.27-.11h-.49c-1.46.16-2.87.6-4.22,1.19-1.19.54-2.22,1.19-3.14,2.06s-1.08,1.35-1.19,2.17c0,.22-.11.54-.43.43-.27,0-.38-.27-.27-.54.11-.49.22-.97.43-1.41.49-.97,1.25-1.73,2.11-2.27,1.73-1.19,3.63-1.9,5.69-2.33.49-.11.97-.16,1.46-.27.05,0,.11-.11.16-.16-.05,0-.11-.11-.22-.11h-.38c-.87.16-1.84.27-2.71.54-2.27.6-4.5,1.57-6.17,3.3-1.08,1.08-1.84,2.27-1.62,3.85v.27h-.11c-.11-.22-.27-.49-.49-.65s-.27-.54-.22-.87c.11-.76.38-1.41.81-2.06.54-.6,1.08-1.25,1.57-1.9,0-.05-.05-.16-.16-.38-1.46,1.14-2.76,2.33-3.09,4.28-.11,0-.16-.05-.27-.05s-.11,0-.22-.05c0,.11.05.27.16.38,1.14.6,1.62,1.57,1.84,2.82,0,.22.11.43.38.49.87.22,1.3.81,1.35,1.73,0,.22.11.43.27.6.38.38.49.76.49,1.25,0,.7.22,1.35.65,1.95.6.81,1.3,1.41,2.22,1.9.38.16.7.22,1.14.22.97-.05,1.9.22,2.71.76.6.43,1.25.87,1.84,1.41.11.11.22.27.22.43.11.43.16.81.27,1.25.22.7.54,1.35.76,2.06-.22.05-.43.11-.6.22-.6.16-1.25.43-1.84.6-.22.05-.38.11-.22.43.11.43.22.87.38,1.35.11.6.38,1.19.54,1.79-.65.38-1.25.65-1.9.97.43.38.76.7,1.14.97.22.22.22.43-.11.54s-.76.38-1.14.43c-.11,0-.27,0-.38-.05-.43-.22-.92-.16-1.3.27.6.38,1.19.7,1.73,1.08.05,0,.22,0,.27-.05.38-.6.87-.97,1.52-1.19.11,0,.16-.11.27-.16,1.08-.87,2.27-1.19,3.57-.16.16-.11.38-.22.54-.22.38-.05.6-.22.76-.54.22-.43.7-.38.97,0,.11.16.22.43.43.6.11-.05.27-.11.43-.22.81-.49,1.62-.54,2.49,0,.05.05.22.11.27.05.65-.16,1.25,0,1.73.43.54-.43.7-.43,1.25-.11.27.16.6.38.97.54,0-.22-.05-.38-.05-.49,0-.38-.05-.65,0-.92,0-.16.38-.27.54-.43.11.11.22.27.27.43.16.54.38,1.08.54,1.52,0,.11.16.16.27.22l.16-.38v-.27c-.05-.43-.22-.81-.22-1.25-.05-.65.22-.87.92-.76,0,.54-.11,1.08.38,1.52v-.49c0-.22,0-.43.27-.43.54,0,.97-.05,1.52-.11h.38v-.11c-.22-.11-.43-.27-.6-.38-.38-.11-.76-.22-1.14-.43-.97-.54-2-.76-2.98,0-.22.16-.43,0-.38-.22.05-.27.22-.54.38-.81.11-.22.22-.38.49-.65-2.06-1.08-4.06-2.11-6.07-3.2,0-.11.11-.38.16-.54.27-.87.81-1.73.81-2.71s0-.11.11-.16c.87-.7,1.73-1.46,2.87-1.62.54-.11,1.19,0,1.62-.11.54-.11,1.08-.43,1.57-.65h.22c.87-.05,1.46-.6,1.84-1.41.11-.22.22-.43.22-.6.22-.76.7-1.3,1.46-1.57.16-.05.38-.16.54-.22,1.19-.65,2-1.57,2.33-2.92.22-.81.11-1.57.05-2.33-.05-.92-.43-1.79-.97-2.49.05.38.22.6.38.92.43,1.25.38,2.49-.43,3.63-.11.22-.38.38-.54.11-.05-.05-.05-.38,0-.43.81-1.84.6-3.52-.6-5.04-.49-.6-1.08-1.19-1.73-1.62-1.9-1.41-4.12-2.22-6.39-2.71-1.25-.22-2.49-.38-3.63-.54-.22,0-.43-.05-.54.22.05,0,.05.05.11.05h.43c2.49.22,4.77.76,7.04,1.73,1.57.7,2.92,1.62,4.01,2.98,1.14,1.52,1.19,3.36,0,4.82-.49.6-1.08,1.19-1.73,1.57-.7.54-1.46.87-2.22,1.25-.11,0-.27-.05-.43-.05.05-.11.11-.22.22-.38s.16-.05.22-.11c1.08-.54,2.06-1.19,2.87-2.11,1.25-1.52,1.35-3.25.11-4.77-.38-.43-.65-.76-1.08-1.08-2.76-2.06-6.01-2.82-9.37-3.09-.11,0-.22.16-.43.22.11.05.22.16.43.22,1.84.22,3.57.6,5.36,1.25,1.52.6,2.92,1.3,3.95,2.55,1.08,1.35,1.08,2.87-.11,4.12-1.25,1.35-2.82,2.06-4.55,2.65-.11,0-.27-.11-.43-.16.05-.11.11-.27.22-.38s.27-.11.43-.16c1.25-.49,2.33-1.08,3.36-2,1.25-1.19,1.35-2.6.22-3.85-.43-.49-.92-.87-1.46-1.25-2.17-1.35-4.6-1.84-7.15-2.06-.38,0-.43.11-.38.49.11,0,.22.05.38.05,1.19.22,2.33.49,3.57.76,1.35.38,2.6.87,3.57,1.9,1.08.97,1.14,2.17.16,3.3-.05.11-.16.22-.27.27-1.25,1.19-2.76,1.73-4.44,2.11h-.11l-.43-.22c.05-.11.11-.27.27-.38.22-.11.49-.11.7-.22,1.19-.38,2.33-.87,3.3-1.73,1.08-1.08.97-2.17-.16-2.98-.87-.65-1.84-1.14-2.92-1.35-1.14-.27-2.22-.54-3.36-.76-.22-.05-.49,0-.54.38,0,.27-.11.6.38.65.43,0,.76.16,1.14.38.54.16,1.08.43,1.3.87.11.22.11.54.11.76s-.16.16-.38.22c-.05,0-.22-.11-.22-.22-.27-.87-1.3-1.57-2.27-1.52-.07.4.07.69.43.87.11.05.27.11.43.22.22.16.22.38,0,.54-.27-.16-.6-.38-.87-.54,0,.38,0,.54-.05.7,0,.11-.16.16-.22.27-.05-.11-.16-.16-.22-.27v-29.62c0-.27.11-.43.43-.43h2.55c.16,0,.38,0,.54.11.6.43,1.3.54,2,.38.43-.05.7,0,.97.22.6.54,1.3.76,2.06.81.81,0,1.52.22,2.17.87s1.62,1.14,2.71.97c.54-.05.97.11,1.41.49.54.54,1.19.76,1.95.76s.38.16.54.27c.11.11.11.22.16.38l.6-.6c.22.97.43,1.19,1.14,1.25-.11-.16-.22-.27-.38-.49-.05-.11-.11-.38,0-.43.05-.11.27-.22.43-.16.22,0,.43.11.6.22.11.11.22.27.38.43.05.05.22.11.38.22,0-.11.11-.27.11-.38-.11-.27-.38-.6-.6-.81s-.38-.22-.54-.38c.49-.49.87-.54,1.41-.22.11.05.22,0,.43,0,0-.11,0-.27-.05-.43s-.22-.22-.38-.38c-.16-.11-.38-.16-.54-.22.43-.54.87-.43,1.79.38-.05-.22-.22-.43-.38-.6-.05-.11-.11-.27-.16-.43h.6c.11,0,.22.16.38.27.16.27.38.6.54.92.65-.38,1.25-.27,1.9.16.05,0,.22.05.27,0,.05-.11.11-.22.11-.38-.11-.43-.38-.76-.76-.87-.38-.05-.7,0-.97-.05-.11-.22-.16-.54-.38-.76-.54-.65-1.3-.87-2.06-.65-.7.22-1.19.76-1.25,1.62,0,.11-.11.38-.22.43-.49.11-.76.38-1.08.7-.05.05-.22.11-.27.11s-.22-.22-.16-.27c.05-.22.11-.6.38-.7.22-.22.6-.38.92-.49v-.54c-.54,0-.92.11-1.3.49-.11.11-.22.22-.38.22-.7.16-1.41.38-2.06.49-.11,0-.38-.11-.43-.22-.05-.38-.27-.38-.54-.38-.43.05-.87.11-1.35.16-.11,0-.27-.11-.43-.11.11-.11.16-.38.38-.38.22-.11.54-.11.76-.16.11,0,.27-.11.27-.22v-1.84c-.65.11-1.25.16-1.79.27-.76.11-1.46.38-2.22.49-.11,0-.22-.11-.38-.11.11-.11.16-.27.27-.38s.38-.11.49-.11c0-.49-.27-.6-.7-.54-.7.05-1.35.11-2,.22-.16,0-.43.11-.49,0-.27-.38-.6-.11-.87-.11-.54,0-1.08.05-1.57.05s-.49-.11-.49-.22c-.05-.27.16-.27.43-.38.27,0,.6-.05.87-.11v-.43c-.27-.05-.76-.11-.76-.22,0-.49.43-.43.7-.54v-.43h-16.14c-.97,0-.81-.11-.81.81v.43c-.05.6-.05,1.19.76,1.25.11,0,.16.22.27.38-.11.05-.27.22-.43.16-.6-.11-1.19-.22-1.73-.43-.6-.22-1.19-.54-1.84-.76-.05,0-.11-.05-.16-.11-.16-.49-.65-.38-.97-.54v.76c.16,0,.38.05.49.11.16.11.38.27.54.43l1.19.6c.05,0,.05.22.11.38-.22,0-.54.16-.7.05-.7-.22-1.35-.6-2.06-.87-.22-.11-.43-.11-.54.11-.05.22-.11.49.22.54.11,0,.22.05.38.16s.27.38.43.54c-.22,0-.43.05-.65.05-.54,0-1.14-.54-1.62.11h-.22c-.22,0-.43,0-.65-.11-.54-.11-1.08-.27-1.62-.49v1.62c0,.6-.11.76-.76.65-.27-.05-.6-.16-.76.16,0,.05-.22.05-.43.11h-.7c.38.38.22.54-.05.6-.22.05-.49.05-.76.11,0,.43-.22.49-.54.43-.38,0-.6-.16-.87-.22-.11,0-.38-.11-.49-.05-.43.11-.76.22-1.19.43-.11,0-.22.16-.49.38.27.05.49.11.6.16s.22.22.22.38-.16.22-.27.22h-1.41c-.27,0-.54.11-.81.22-.11,0-.22.05-.38.05v.11c.76.22.97.87,1.35,1.52h.11v.16h-.54l.22.32h0ZM42.6,49.11c1.08-.22,2-.54,2.92-.7,1.46-.27,2.92-.54,4.5-.76.22,0,.43,0,.38-.38v-1.41c0-.38-.11-.43-.43-.38-2.82.16-5.52.76-8.23,1.52-.54.16-.6.11-.76-.54.65-.16,1.35-.38,2-.54s.97-.6,1.08-1.25h0c.11-.11.22-.27.38-.43.11.11.22.22.27.38.05.22.05.54.05.81.27-.05.54-.11.76-.11.38-.05.54-.22.6-.6,0-.22,0-.54.27-.54s.11.38.22.54c.05.11.22.38.27.38.16-.05.38-.16.43-.38.05-.11,0-.38,0-.54v-2.76c0-.05.11-.16.22-.16s.16.11.22.16v2.87c0,.22,0,.54.38.54s.43-.22.54-.49v-3.85c0-.22-.11-.54.22-.54s.22.38.22.54v2.55c0,.22.05.43.11.6.11.27.43.43.76.38.38-.11.38-.38.38-.65v-6.17c0-.92-.43-1.73-.7-2.49-.11-.38-.43-.38-.6-.05-.16.22-.27.54-.38.76-.05.43,0,.76-.11,1.19,0,.11-.11.38-.22.43-.27,0-.22-.22-.22-.43v-.6c0-.22,0-.49-.05-.7,0-.11-.11-.38-.22-.38s-.27.11-.38.22c-.11.22-.22.54-.38.76-.16.87-.38,1.84-.54,2.71-.05.43-.22.7-.6.87-.65.27-1.3.6-1.95.76-.38.11-.54.38-.54.7,0,.65-.11,1.25-.16,1.9-.05.6-.38.97-.97,1.19-.22.05-.54.16-.7.38-.27.43-.7.54-1.14.65-.54.16-1.08.43-1.62.65-.22.05-.43.16-.7.22-.43,0-.65-.38-.43-.65.05-.11.22-.16.43-.22.81-.16,1.14-.54,1.14-1.35v-2.49c0-.05.11-.22.22-.22s.22.11.22.22v2.22c0,.11.16.27.27.43.11-.11.22-.22.38-.43v-2.06c0-.22-.16-.7.22-.7s.22.49.22.7v1.84c0,.11.11.38.22.38.54.11,1.25-.43,1.3-.92.11-.76.22-1.52.27-2.27,0-.43.22-.6.6-.7.49-.11.87-.38.97-.87,0-.22.22-.22.38-.05.43.38.7.38.87-.16.54-1.25.54-2.55.43-3.85h0c-.11-.38-.38-.43-.54-.16-.22.22-.43.6-.54.87-.11.38-.11.7-.22,1.08,0,.11-.16.22-.22.38-.11-.11-.22-.22-.27-.38-.05-.27-.05-.65-.16-.92-.05-.22-.27-.54-.49-.54s-.49.16-.6.38c-.16.27-.38.65-.43.97-.11.7-.22,1.41-.43,2.11,0,.11-.11.27-.16.43h-.11c0-.16-.05-.38-.05-.54v-1.41c0-.22-.22-.43-.38-.6-.16.11-.43.22-.54.43-.22.43-.43.87-.6,1.35-.22.54-.49.97-.43,1.57,0,.11,0,.22-.05.27h-.11c0-.16-.05-.43-.05-.6,0-.27,0-.54-.11-.81,0-.16-.22-.38-.38-.49-.16.11-.43.22-.49.38-.16.43-.38.81-.43,1.25-.11.76-.22,1.62-.38,2.44,0,.11-.11.22-.22.38-.05-.11-.11-.22-.11-.38v-2.22c0-.22,0-.49-.05-.7,0-.11-.16-.22-.27-.22s-.22.11-.27.16c-.05.22-.11.43-.11.65v2.92c0,.22,0,.54-.27.54s-.22-.27-.27-.49c-.11-.87-.22-1.73-.43-2.55,0-.22-.22-.54-.38-.7s-.38-.22-.54,0c-.76.76-1.35,1.62-1.25,2.82v.54c0,.22,0,.54-.38.49-.11,0-.22-.38-.27-.54v-1.46c-.05-.11-.16-.38-.27-.38s-.38.11-.43.22c-.11.11-.22.38-.22.54-.38.97-.65,2-.97,2.98,0,.11-.05.27-.11.38-.11.11-.38.22-.54.16-.05,0-.22-.22-.22-.38v-6.61c0-1.19-.65-1.9-1.84-2.06-.27,0-.43-.11-.49-.43-.11-.76-.87-1.3-1.73-1.35-.76-.05-1.52.43-1.84,1.08-.05.11-.22.22-.38.27-.38.11-.65.22-.92.43-.49.27-.6.76-.6,1.3s.38.6.6.54c.43-.22.76-.11,1.08.22.11.11.22.27.43.43.22-.43-.11-.49-.22-.6s-.11-.22-.22-.43c.11-.05.38-.22.49-.16.22,0,.49.22.7.38h.54c.38-.16.65-.43.97-.6.22-.16.54-.38.7.05,0,.05.22.05.38,0,.54-.05.87.22,1.19.6.05.05,0,.27.05.54-.27-.11-.43-.22-.6-.38-.76-.38-1.9,0-2.17.7v.43c.11,0,.22,0,.38-.05.7-.54,1.19-.54,1.9,0,.11.05.27,0,.43,0s.38-.05.49-.11c0,.16.05.38,0,.54,0,.22-.11.54-.11.76v.6c0,.05-.11.11-.22.22-.05-.05-.11-.11-.16-.22,0-.11,0-.38-.05-.6-.27.38-.54.6-.76.76-.11.11-.22.27-.43.27-.54,0-.54.38-.54.76v1.9c0,.49-.11.92-.16,1.41v3.63c0,.22,0,.54.43.49.22-1.41.54-2.82,1.25-4.06h.11v2.49c.16-.11.22-.27.38-.43.54-.87,1.08-1.73,2-2.27.38-.22.43-.16.49.22v.87c0,.38.05.54.38.65.6.38.7.54.6,1.25,0,.16,0,.38-.05.6.27,0,.54-.05.76-.05.7,0,.81.11.54.76-.16.43-.43.76-.65,1.19.27-.11.54-.27.76-.43s.49-.11.6.11-.11.38-.27.49c-.6.43-1.25.76-1.9,1.19-.11.05-.22.22-.38.38,0,0,.05.05.05.11,1.79-.76,3.79-1.73,5.58-2.49-.43-.7-.7-1.14-.76-1.25-.16-.27-.43-.54-.54-.81,0-.11.05-.38.11-.49.11,0,.27.05.43.11.05,0,.11.11.16.22.7.97,1.35,2,2,2.92.11.16.27.38.43.54,0,0,.05,0,.11-.05,0-.16-.11-.38-.11-.54.76-.38,1.52-.65,2.27-.92,0-.38-.11-.38-.43-.22-.7.27-1.35.54-2.06.81-.11-.16-.22-.38-.38-.54.76-.38,1.52-.6,2.27-.92-.05-.38-.22-.43-.54-.27-.54.22-1.08.43-1.62.65-.38.11-.6,0-.7-.43.76-.27,1.46-.6,2.17-.81,0-.38-.22-.43-.54-.27-.6.22-1.19.43-1.73.65-.22.05-.38.05-.43-.22.7-.27,1.41-.6,2.17-.87-.05-.11-.11-.22-.16-.27-.16-.22-.43-.54-.05-.7.38-.22.49.11.6.38.76,1.08,1.46,2.11,2.17,3.2.05.05.16.11.27.16v-.38c-.11-.22-.27-.54-.54-.81l.22-.11h0l.11.16.05-.05h0ZM63.72,33.13v-2.98c0-.11-.05-.38-.11-.43-.27-.22-.6-.49-.87-.65-.54-.27-.92,0-.92.6v3.9c0,.92.54,1.52,1.14,2.06.49.43.81.27.97-.49v-1.25c0-.05.11-.11.16-.22.05.05.16.11.16.22v3.14c0,.16,0,.43.11.6.38.49.65.92.65,1.52s.11.43.43.43.22-.27.22-.43v-3.41c0-.11.11-.43.22-.43.27,0,.22.22.22.43v3.57c0,.16,0,.43.05.6.11.27.38.54.65.49.38,0,.38-.27.38-.6v-3.09c0-.11.11-.27.22-.49.05.11.22.27.22.43,0,.92.05,1.9,0,2.82-.05.87.54,1.41,1.25,1.62.54.16.76.54.76,1.08v.22c0,.11-.11.22-.16.43-.11-.11-.27-.27-.27-.43,0-.49-.22-.7-.65-.7s-.22,0-.38-.05c-1.08-.38-2.17-.6-3.3-.92-1.08-.38-2-.76-2.33-1.95,0-.16-.22-.43-.43-.49-.76-.38-1.14-.87-1.3-1.62-.05-.43-.22-.87-.43-1.3-.11-.16-.38-.27-.6-.49-.11.22-.27.43-.38.6-.05.49,0,.92-.05,1.41,0,.11-.11.22-.22.38-.05-.11-.22-.22-.22-.38,0-.49,0-.92-.05-1.41,0-.16-.16-.38-.27-.54-.11.11-.38.22-.43.38-.16.6-.43,1.25-.43,1.9v6.55c0,2.17.11.38.22.54.16-.11.43-.22.54-.43.05-.11.05-.38.05-.49v-1.19c0-.11.11-.22.22-.38.05.11.22.22.22.38v1.19c0,.22,0,.6.38.6s.38-.38.43-.6v-3.2c0-.11.11-.11.22-.22.05.05.22.11.22.22v3.79c0,.22,0,.43.05.65.16.6,1.19.97,1.62.6.38-.22.54-.16.7.11s.49.27.7.22c.11,0,.11-.27.22-.49.05-.11.16-.22.22-.38.05.11.16.22.22.38v.22c0,.38.11.54.43.54s.22-.38.22-.54c0-.87,0-1.84.05-2.76,0-.11.11-.22.22-.38.05.11.22.22.22.38v3.09c0,.11.22.27.38.49.11-.11.38-.22.49-.43.05-.16,0-.43,0-.6v-.92c0-.11.16-.27.22-.43.05.11.22.27.22.43v1.73c0,.11,0,.38.11.49.05.11.27.16.43.16s.16-.22.22-.38v-2.44c0-.11.11-.22.22-.38.05.11.16.22.22.38v2.44c0,.22,0,.6.38.6s.43-.27.49-.6v-1.84c0-.22-.05-.54.27-.54s.22.38.22.54v2.76c.11.16.22.43.43.43.27,0,.22-.22.22-.43v-2.17c0-.22-.05-.6.22-.6s.22.38.22.6v2.55c0,.16.11.38.22.54.11-.11.38-.16.43-.38.27-.43.54-.87.76-1.35.54-.92.6-.92,1.62-.7.49.11.92.16,1.25-.38h.11c0,.11.11.22.16.43.16.6.54.97,1.19,1.14.54.05.76.43.81.87.05.97.87,1.25,1.52,1.84,0-.16.05-.22.05-.38v-4.06c0-.11,0-.22-.11-.38-.43-.7-.76-1.46-1.19-2.17-.05-.11-.22-.27-.43-.38-.76-.11-1.3-.6-1.73-1.25,0-.05-.11-.11-.11-.16-.11.43-.05.87-.11,1.25,0,.11-.22.22-.38.43-.11-.11-.27-.22-.38-.38-.11-.22-.11-.43-.16-.7-.11-.6-.27-1.25-.54-1.9-.05-.16-.16-.49-.49-.38-.11.05-.38.38-.38.54-.05.49,0,.87-.05,1.35,0,.11-.16.27-.22.43-.05-.11-.22-.27-.22-.43v-1.62c0-.54-.22-.87-.54-.87s-.49.27-.54.87c0,.22-.05.49-.11.7h-.16c-.05-.16-.11-.38-.16-.54-.11-.43-.16-.87-.27-1.35-.11-.65-.22-.7-.92-.76-.76,0-1.08-.38-1.08-1.14v-3.85c0-.6-.16-.76-.87-.81v2.27c0,.11-.11.16-.22.27-.05-.11-.16-.16-.22-.27s0-.22,0-.38v-1.95c0-.16,0-.38-.11-.54-.76-.92-1.9-1.19-3.14-1.14v2.76c0,.22,0,.43-.38.38h.43l.38.22h0ZM74.28,63.57c0-1.25.38-2.27,1.3-3.2.87.7,1.35,1.62,1.25,2.82.43-.16.76-.38,1.14-.54-.11-.11-.22-.22-.27-.38-.05-.11-.11-.22-.16-.38.11,0,.22-.11.38-.11h1.41c-.11-.16-.11-.22-.16-.38-.87-1.08-.97-2.27-.87-3.57,0-.43.16-.54.6-.43.49.11.97.27,1.46.43.11-1.19.7-2.06,1.52-2.92.16-.16.38-.22.54,0,.27.27.54.6.76.81.11-.11.27-.27.43-.22.11,0,.22.22.38.43.05.11.11.22.16.38s.22.22.27.22c.16-.05.38-.16.49-.27s0-.22,0-.38v-5.2c0-.16,0-.38-.05-.54-.65.22-1.25.38-1.84.6-.11,0-.38.11-.43.22-.22.38-.65.54-1.08.65-.7.22-1.25.7-1.52,1.41-.05.16-.16.43-.22.6-.49,1.08-1.25,1.84-2.33,2.06-.22.05-.54.16-.76.22-.97.22-1.41.97-1.52,1.9-.05.97-.54,1.79-1.19,2.44s-.65.81-.76,1.35c-.11.43-.38.87-.6,1.25-.65.92-1.46,1.73-2.55,2.22-.7.38-1.14.81-1.35,1.52-.11.27-.22.6-.43.87-.49.7-1.19,1.08-1.95,1.3-.54.11-1.08.38-1.52.6-.38.11-.6.22-.92.16-1.35-.22-2.33.43-3.47,1.25.6.27,1.08.6,1.62.76.22.11.27.22.27.54-.05.54-.05,1.14-.11,1.62,0,.11.05.22.11.38h.16v-.6c.05-.43.11-.76.22-1.19,0-.05.11-.11.22-.16,0,.11.11.16.05.27,0,.11-.11.27-.11.43.6.49.11,1.25.43,1.79.11-.16.22-.38.38-.49.11.16.27.38.43.54.22.38.49.65.76,1.08.11-.27.22-.49.38-.7s.11-.38-.11-.49c-.16-.05-.38-.16-.54-.38-.05-.05-.11-.22-.11-.38.11,0,.22-.11.38-.11.27.05.6.22.87.27.11,0,.27.05.38,0,.76-.38,1.57-.76,2.33-1.14l-.11-.11c-.6-.27-1.14-.6-1.73-.87-.11-.05-.22-.22-.43-.43.11-.11.27-.38.49-.38.81-.38,1.73-.43,2.55-.27.43.05.76.11,1.25.22-.38-.97-.92-1.62-1.73-2.17-.16-.11-.38-.27-.54-.43.76-.7,2-1.25,3.47-.43.49-.6.97-1.25,1.46-1.84,0-.05-.16-.16-.22-.27-.38-.54-.65-1.08-.92-1.57-.11-.22,0-.38.16-.54.54-.27,1.14-.38,1.79-.05-.11-.97-.16-1.95.65-2.65,0,.76-.43,1.52,0,2.27h0c0-.05-.11.11-.11.11l-.16.22h0ZM31.66,62.81c.38-.27.6-.6.92-.76.11-.11.38,0,.6,0,0,.16,0,.38-.11.54-.16.27-.43.54-.65.81.38.05.6.11.87.22.38.11.49,0,.6-.22.81-1.52,2.17-2.44,3.9-2.65.22,0,.43,0,.7-.05v-.43c-.11-.97-.7-1.73-1.57-2.11-.87-.43-1.46-.97-1.9-1.9-.11-.22-.22-.43-.38-.6-.38-.6-.76-1.08-1.41-1.25-.7-.22-1.35-.54-2-.7-.97-.22-1.73-.81-2.27-1.62-.38-.43-.7-.76-1.25-.81-.97-.11-1.62-.7-2.33-1.3-.43-.27-.6-.7-.7-1.19-.05-.43-.11-.87-.16-1.35-.87.65-1.73.81-2.65.22-.11,1.41.38,2.92-1.19,4.01.6,0,.54.38.54.6s-.05.54-.11.81c-.05.43-.11.87-.16,1.35h.11c.05-.11.11-.27.16-.43.22-.65.54-1.35.76-2,0-.11.22-.11.38-.22.05.11.16.22.16.43s-.05.38-.11.54c-.22.76-.54,1.57-.76,2.33,0,.11-.05.22-.11.43.11-.05.22-.11.27-.22l1.08-2.17c.22-.43.43-.87.65-1.25.05-.11.27-.16.38-.11s.16.22.16.43-.11.38-.16.54c-.54,1.08-.97,2.11-1.46,3.2-.05.11-.11.27-.11.43,0,0,.05,0,.11.05.05-.11.16-.22.22-.38.38-.54.7-1.08,1.08-1.52.16-.22.38-.7.7-.49.43.22,0,.6-.11.87-.38.6-.7,1.14-1.14,1.79.38,0,.6-.05.81-.11.43-.11.81-.22,1.08-.49.16-.11.05-.6.05-.87v-.16c.05-.54.16-.6.7-.43.87.38,1.62.87,2.11,1.57.49-.22.92-.43,1.35-.6.22-.11.43,0,.54.22.05.43.16.76.22,1.19.05.81-.22,1.57-.81,2.27.97-.22,1.84-.43,2.76-.65-.22,1.9-1.35,2.76-2.82,3.25.27.76.54,1.52.81,2.22.27-.05.43-.22.22-.54-.11-.22-.22-.49-.27-.7-.11-.38-.11-.7.27-1.08.27.49.54.87.76,1.35.05-.54.11-.92.22-1.35,0-.11.22-.22.38-.38.05.11.16.27.16.43v1.19h0v-.22h-.11ZM45.63,77.16c.11.38.16.7.27.97,0,.11.16.22.27.38,0-.11.11-.38.11-.49,0-.43,0-.87-.11-1.35,0-.43.05-.6.49-.76.49-.16.92-.43,1.41-.7-.11-.22-.22-.43-.38-.49-.92-.6-1.84-1.35-2.98-1.52-.27,0-.54-.27-.81-.43-.38-.16-.65-.43-.97-.6-.38-.11-.7-.11-.97-.22-.87-.11-1.57-.49-2.06-1.3-.81-1.3-2.87-1.46-4.01-.49-.05.05-.11.16-.22.27.92-.38,1.84-.43,2.76-.11,0,0,0,.11.05.11l-.38.11c.22.11.38.22.54.22.97.38,1.62,1.19,1.73,2.06,0,.38-.05.49-.43.49h-1.52c-.43,0-.92.11-1.25,0-.38-.16-.54-.7-.76-1.08-.27-.43-.7-.76-1.19-.81-.54-.05-.76-.27-.97-.81-.22-.65-.87-.87-1.41-.7.76.38.97.6.81,1.19-.6-.43-1.3-.54-2-.22-.65.22-1.25.54-1.57,1.19.49.27.87.6,1.35.87v-.22c-.22-.54,0-.97.6-.87.43.05.87.27,1.25.54s.38.54.27.92c-.11.49-.11.97-.11,1.46s.11.22.22.43c0,0,.05,0,.11-.05,0-.22,0-.54.05-.76,0-.22.05-.54.11-.76,0-.11.16-.22.22-.22.11,0,.22.11.27.22.11.16.11.43.22.6.05.22.11.49.16.7.38,0,.43-.11.43-.43s-.11-.7-.16-1.14v-.43c.11,0,.38,0,.43.05.22.38.6.65.7,1.08.16.7.6.97,1.25,1.08.11,0,.27,0,.43.05,1.52.22,2.33,1.25,2.49,2.76.05,1.08-.27,2.06-.76,2.92v.38c.11,0,.27-.05.38-.11.76-.97,1.19-2.11.87-3.36-.11-.7-.49-1.41-.7-2.11,0-.11,0-.38.05-.49.11,0,.38,0,.43.11.11.11.22.27.27.43.11.22.22.54.43.87.05-.43.11-.76.22-1.14.05-.16.22-.43.43-.43.38,0,.22.27.22.54,0,.43-.11.87-.16,1.25.49-.27.92-.6,1.41-.81.6-.22,1.19-.22,1.79.11.16.11.38.27.11.49-.11.16-.38.38-.6.11-.22-.22-.49-.22-.7-.11-.65.38-1.14.76-1.41,1.46-.05.11,0,.38-.05.49h.11c.43-.38.76-.76,1.25-.97.49-.22,1.08-.38,1.62-.54l.11.11h-.05ZM25.32,20.94s.05,0,.11.05c.16-.22.38-.43.6-.6s.49-.38.76-.43c.43-.11.6-.05.76.11-1.19.76-1.57,1.35-1.3,1.84.22-.22.43-.49.6-.65.16-.11.49-.38.65-.27.22.05.43,0,.6-.05.49-.22,1.19,0,1.46.38.22.38.16.54-.22.6-.43.11-.87.16-1.3.38-1.73.92-1.73,2.06-1.57,3.9.43.05.54-.11.49-.43,0-.22,0-.49.11-.6.54-.65,1.14-1.35,2-1.52.7-.16,1.35-.27,1.84.43,0,.05.11.11.22.11h.54c-.05-.11-.11-.22-.16-.43,0-.05-.11-.11-.11-.11-.11-.11-.43-.27-.16-.54.11-.05.38,0,.54,0s.11.05.22.11c.38.22.7.22,1.14,0-.16-.11-.27-.27-.43-.43s-.38-.16-.43-.27c-.05-.05-.11-.22-.11-.38.11,0,.27-.11.43-.11.22.05.49.22.7.27s.54.11.76.16c.11,0,.22-.05.43-.11-.05-.11-.11-.22-.22-.38-.11-.11-.27-.16-.43-.22-.16-.11-.54-.22-.43-.54.11-.38.49-.11.7,0,.22.05.43.16.65.27s.43.22.6.22h.49c-.05-.11-.11-.38-.22-.43-.38-.22-.7-.43-.97-.65-.11-.05-.11-.22-.22-.43.16,0,.38-.16.54-.11.22,0,.43.22.6.27h.43v-.49c-.11-.16-.38-.27-.49-.43-.05-.05-.11-.22-.05-.38.05-.05.22-.11.38-.11s.22.11.27.16c.27.38.54.38.81,0,0,0,.11-.11.16-.11h.49c0,.11-.05.38-.11.43-.11.16-.38.38-.49.54v.38h.38c.22-.11.43-.27.6-.38.16,0,.54,0,.6.11.16.22-.11.38-.27.43-.38.22-.7.43-1.08.65-.11.05-.11.22-.16.38.11,0,.27.11.43.11.22,0,.43-.11.6-.22.38-.11.65-.38.97-.43.11,0,.27.05.43.11-.05.11-.05.27-.16.38-.22.11-.49.22-.65.43-.11.05-.16.22-.22.38,0,.05.05.11.11.16.43-.11.87-.22,1.35-.38s.43-.22.65-.22.27.11.43.11c-.05.11-.11.22-.16.38-.11.11-.38.22-.54.38-.22.16-.16.38.05.43s.6,0,.81,0c.43-.11.54-.05.54.38v1.41c0,.22.11.43.22.65.05-.22.22-.43.22-.65v-3.79c0-.49.11-.76.6-.97.6-.22.87-.7.76-1.35,0-.11-.11-.22-.16-.38-.05.11-.22.22-.22.38.05.7-.43.87-.92,1.08v-1.08c0-.11-.11-.22-.22-.38-.05.11-.22.22-.22.38v2.33c-.43-.54-.87-.7-1.52-.7v-.6c.05-1.25-.54-1.84-1.79-1.73-.11,0-.27-.05-.38-.11-.87-1.25-2.17-1.25-3.14,0-.05.05-.22.11-.38.11-1.08-.11-1.84.6-1.73,1.73,0,.22,0,.43.05.65-.87-.05-1.41.43-1.84,1.14-.05-.38-.11-.6-.11-.87-.11-.97-.6-1.35-1.52-1.08-.27.05-.49.05-.65-.22-.11-.16-.27-.27-.49-.38-1.19-.54-2.33.49-2.65,1.35v.38h-.16l.11.11h-.22,0ZM35.02,38.27c.6-.22,1.25-.43,1.73-.76.76-.6,1.52-.65,2.33-.54.22,0,.54-.05.65-.22.43-.38.76-.76,1.14-1.25.11-.22.22-.54.22-.76v-2.55c0-.16.11-.54.22-.54.38,0,.22.27.27.54v2.22c0,.11.11.38.16.38.11,0,.27-.05.43-.16s.11-.22.11-.43v-1.46c0-.11.16-.22.22-.38.05.11.16.22.22.38s0,.27,0,.49v1.25c.22-.11.54-.16.54-.22.11-.38.43-.49.7-.6.54-.16.76-.54.76-1.08v-.6c0-.11.11-.22.22-.38.05.11.22.22.22.38v1.14c0,.16.16.43.38.43.22.05.38-.16.38-.43v-2.65c0-.11.11-.16.22-.27.05.05.22.16.22.27v2.49c0,.27.05.54.43.54s.43-.22.43-.54v-3.47h-1.52c-.7,0-1.25.49-1.73.87-.16.11-.11.65-.11.97v.27c0,.11-.11.22-.22.27-.05-.11-.16-.16-.16-.27,0-.43,0-.76-.05-1.25-.65.11-1.3,0-1.79.38-.87.54-1.79.87-2.82.81h-.22c-.7.05-.87.22-.87.92v2c0,.11-.11.22-.16.38h-.22c-.05-.11-.11-.22-.11-.43v-2.06c-.43,0-.7.05-1.08.05h-.38c-.49.11-.92.7-.92,1.19v4.55h.11v.11h.05,0ZM24.83,44.77h.05c.22.05.54-.11.7-.05.38.05.6-.05.7-.38.7-.97.27-2.76-1.14-2.92-.05,0-.11,0-.16-.05v-.16c0-1.19-.76-1.84-1.95-1.73-.27,0-.43-.11-.54-.38-.43-.76-.97-.97-1.9-.76-.22,0-.38,0-.43-.16-.49-.7-1.25-.97-2.06-.76-.54.11-.92.54-1.19.97-.97-.27-1.79-.05-2.17.65-.16.27-.38.38-.65.22-.97-.16-1.79.49-1.84,1.41v.54c-.43.16-.97,0-1.14.6h.43c.76,0,1.52,0,2.11.65,0,.05.27.05.38,0s.11-.27.11-.38c-.16-.22-.43-.54-.6-.7-.11-.11-.16-.27-.27-.43.22,0,.43-.11.6-.11s.38.16.49.38c.16.11.27.38.49.49.16.05.43,0,.65,0v-.6c0-.11-.16-.22-.38-.38-.16-.11-.38-.22-.6-.43v-.16c.22,0,.43-.11.6-.11.6.16.97.6,1.19,1.25,0,.11.05.27.16.43.22.22.54.43.81.6.11.05.38,0,.43,0,.05-.05.05-.27,0-.43-.11-.22-.38-.43-.54-.6s-.22-.27-.05-.49.38-.11.54.05.43.43.6.6c.54.43,1.08.43,1.57,0,.11-.05.16-.22.38-.22s.43-.05.54,0c.22.11.05.38-.05.49-.16.16-.38.38-.54.6,0,.05-.05.22,0,.27,0,.05.16.11.27.11s.22-.11.43-.22c.27-.16.54-.49.87-.6.54-.11.97-.38,1.25-.76.11-.22.43-.22.6-.05.22.22,0,.38-.11.54-.16.22-.38.54-.49.81,0,.11,0,.38.11.43s.22,0,.43-.11.38-.27.54-.43c.43-.22.65-.11.87.22-.38.27-.7.54-.97.87-.11.11-.11.43-.16.6.22,0,.43.11.65.05.11,0,.27-.16.43-.27s.27-.27.49-.38c.11,0,.38,0,.43.05s0,.38,0,.43c-.11.16-.38.27-.49.49-.11.11-.11.22-.22.43h-.27ZM84.9,68.33c-.38-.38-.54-.49-.97-.22-1.35.65-2.76.76-4.12.38-.54-.16-.54-.27-.16-.7,1.25.6,2.55.49,3.85-.11-.43-.43-.87-.43-1.3-.27-.7.22-1.35.11-2-.05-.87-.22-.92-.7-.38-1.41.11-.11.38-.22.54-.38.7-.22,1.52,0,2,.6.05.05.11.16.22.22.54.11,1.14.27,1.73.43,0-.6-.7-.81-.97-1.35.92-.54,1.19.43,1.73.7,0-.22-.11-.49-.16-.7,0-.11,0-.22-.05-.43.11,0,.38,0,.43.05.22.22.43.54.6.87s.22.38.6.16c-.11-.22-.11-.54-.27-.76-.6-.92-1.35-1.62-2.44-2-1.9-.7-3.63-.05-4.66,1.62-.16.27-.43.6-.7.76-.43.43-.92.76-1.35,1.25-.65.7-.7.7-1.52.11-.65-.54-1.35-.49-2-.11-.38.16-.65.49-.7.87.49-.22.87-.49,1.35-.6.76-.22,1.35.11,1.46.97,0,.11,0,.22.05.38.49,1.08,1.3,1.79,2.33,2.17h.38v-.11c-.11-.11-.38-.22-.49-.38-.54-.49-1.08-.87-1.46-1.41-.38-.49-.22-.7.27-1.08v.11c.05.87.65,1.35,1.35,1.73,2.17,1.19,4.5,1.14,6.82.38.54-.16.92-.43,1.52-.7-.22-.16-.38-.38-.49-.43-.05,0-.22-.05-.27,0-1.08.87-2.33,1.08-3.63,1.14-1.25,0-2.49-.16-3.57-.87-.38-.22-.6-.54-.87-.76-.16-.16-.11-.43.11-.6.05,0,.22.11.38.16.22.22.49.54.76.7,1.73.92,3.47.97,5.25.43.43-.11.76-.38,1.19-.6h-.11v-.16h-.27,0ZM70.11,22.95s0-.11.05-.11c-.16-.11-.38-.22-.54-.38-.22-.11-.54-.16-.81-.38-.16-.05-.49-.16-.27-.49.11-.22.43-.16.6,0,.11.05.22.16.43.22.43.11.76.22,1.25.38.11,0,.27,0,.38-.11s0-.27,0-.38c-.11-.11-.27-.16-.43-.22-.38-.11-.65-.22-.97-.43-.11-.05-.16-.22-.22-.38.11,0,.38-.11.49-.11.22.05.54.16.76.27.54.27.97.22,1.52,0,.22-.11.54-.22.81-.27.11,0,.22.11.38.16-.05.11-.11.22-.16.38-.16.11-.38.16-.6.22-.22.11-.54.16-.76.38-.11.05-.11.27-.11.49,0,0,.16.11.22.05.6-.22,1.25-.49,1.84-.7.11,0,.38.05.49.11-.05.11-.05.38-.16.43-.38.16-.65.27-.97.43-.11.05-.27.22-.43.38,0,0,0,.05.05.11.65,0,1.25,0,1.84-.27s.49-.38.65,0c.16.27-.11.43-.27.6s-.16.22-.27.43c1.25.11,1.84-.76,1.9-1.41.05-.76-.38-1.25-1.19-1.3-.11-.81-.22-.87-1.08-1.14-.22-.87-.6-1.08-1.52-.7-.22-.16-.54-.49-.7-.49-.54,0-.97.11-1.52,0-.16,0-.49.27-.7.43-.7-.38-1.14-.11-1.41.6,0,.05-.05.16-.11.16-.65.05-.81.54-.92,1.08-.38,0-.7.05-1.08.11v-2.49c0-.11-.16-.22-.22-.43-.05.11-.22.22-.22.43v1.52c-.7-.11-.87-.38-.97-.97,0-.11,0-.16-.05-.27,0-.05-.11-.11-.16-.11s-.11.11-.11.11c-.11.49.05,1.19.54,1.41.16.11.38.22.6.38s.27.22.27.49v4.22c.65-.65.27-1.41.54-2.17.11.11.22.22.38.22.38.11.7.22,1.08.38.05,0,.22-.05.38-.11-.05-.11-.11-.22-.16-.27-.16-.16-.6-.22-.43-.6.22-.38.54,0,.76,0,.6.22,1.14.27,1.73.22h.05l-.43-.11h0ZM79.81,51.06c.05,0,.11,0,.16.05.11-.27.43-.6.43-.87v-7.85c0-.16,0-.43-.11-.54-.76-.87-1.41-2-2.87-1.9h-.11c-.05,0-.16-.11-.16-.16s0-.16.11-.22.22-.11.38-.11c.76-.11,1.46,0,2.06.49.16.11.38.22.54.38.22-.16.43-.38.6-.54.54-.43,1.19-.54,1.84-.38.16,0,.27.27.43.43-.11,0-.38.05-.49.05-.81-.05-1.46.38-1.62.97,0,.11.05.38.05.49.11-.11.22-.16.43-.27.22-.16.49-.54.6-.54.49.11.87.05,1.35.05s.7,0,.92-.38c.43-.65.22-1.41-.38-1.95-.05-.05-.11-.16-.11-.22-.22-.22-.43-.49-.7-.6-.22-.11-.54-.05-.81-.11,0,0,0-.05-.05-.11-.27-.76-.87-1.25-1.62-1.25s-1.35.38-1.73,1.08c0,.11-.22.22-.43.22-.92.11-1.57.6-2,1.41-.43.81-.22,1.73.54,2.27.27.22.54.22.7-.05,0-.05.16-.11.22-.11.22.05.54.11.7.22.38.27.7.6.97.92.11.11.22.43.22.6v8.39h.05-.05l-.05.11h0ZM70.87,48.67c-.22-.05-.38-.16-.54-.22-2.76-.97-5.52-1.84-8.39-2.27-1.19-.22-2.33-.38-3.52-.54-.43-.05-.54.11-.54.54v1.19c0,.38.11.43.43.49,2.27.22,4.6.7,6.82,1.35,2.06.65,4.12,1.46,6.07,2.49,1.95.97.43.22.6-.11-.6-.43-1.25-.81-1.9-1.3.38-.54.65-.97.97-1.52h0v-.11h0ZM49.37,73.21c.54-.05.7-.38.6-.81-.05-.38-.11-.65-.16-.97,0-.27-.11-.49-.43-.6s-.6-.38-.76-.6c-.76-.97-1.84-1.25-2.98-1.19-.27,0-.65,0-.87-.11-.38-.11-.65-.38-.97-.54-1.52-.97-2.55-2.27-2.65-4.12v-.22c-.22.87-.43,1.79-.76,2.65-.38.92-1.19,1.41-1.9,2.06.11,0,.16.05.22.11.38.22.6.11.87-.11.43-.43.92-.65,1.41-.92.11-.05.27.05.49.11-.05.11-.11.22-.22.38s-.22.11-.38.16c-.38.22-.7.54-.92.97.16,0,.27,0,.43-.05s.43-.16.6-.22h.7c-.11.16-.22.43-.38.6l-.43.43c.6.43,1.08.43,1.52.05.11-.05.22-.16.38-.16h.54c-.05.11-.05.38-.16.43-.11.22-.38.38-.54.6.49.11.81.16,1.19-.11.16-.11.43-.22.7-.27.22-.05.38,0,.27.27,0,.11-.05.22-.11.38-.11.22-.05.43.22.49.54.11,1.08.22,1.62.38.15.4.47.58.97.54.11,0,.22.11.22.16.05.11.11.27.11.43.05.43.38.43.7.38.43-.05.54-.27.43-.65-.11-.43-.16-.76-.22-1.19h.11c.11.05.22.11.27.22.11.43.22.87.38,1.35h0l-.11-.11v-.22h0ZM89.01,38h-.11v-.87c0-.38-.11-.6-.43-.76-.54-.38-.87-.81-1.08-1.41,0-.11-.22-.16-.38-.22-.05.11-.22.22-.22.38,0,.54.22,1.08.6,1.35.76.54.76,1.25.7,2.06v15.54c.49,0,.6-.11.6-.49v-8.29c0-.43.11-.7.54-.87.6-.22,1.84.6,1.84,1.25v4.06c0,.16,0,.38.05.54.49,0,.6-.22.6-.7v-14.24c0-.16.11-.49-.27-.49s-.38.22-.38.49c0,.38-.11.65-.43.87-.22.22-.43.49-.6.7-.43.43-.76.87-1.19,1.3h0l.11-.11.05-.11h0ZM83.65,45.53c-.87.38-1.14.7-.97,1.41,0,.27.16.6.54.54.38,0,.11-.38.22-.54,0-.11.11-.38.22-.43.11,0,.38,0,.49.11.22.38.43.38.65,0,0-.05.22-.22.27-.16.11.05.16.16.22.27s0,.22,0,.38c0,3.14.05,6.23.05,9.37v.54h.11c.05-.11.16-.22.22-.38v-1.08c0-2.82,0-5.58.05-8.39v-.54c0-.11.11-.22.16-.27,0,0,.16.05.22.11.11.11.16.22.27.43.22-.22.54-.43.6-.6,0-.7,0-1.41-.05-2.17,0-.11-.22-.27-.43-.38-.05,0-.22.11-.38.22-.11.05-.22.16-.38.27,0-.11-.11-.27-.11-.43v-7.85c0-.11-.16-.22-.27-.27-.11.11-.22.22-.27.38v8.18c0,.11-.11.16-.16.27-.05-.05-.16-.11-.22-.22-.27-.49-.43-.49-.7,0-.05.05-.16.11-.22.22-.11.11-.22.27-.22.49v.49h.05l.05.05ZM73.04,33.18v1.84c0,.11-.11.16-.22.27-.05-.11-.22-.16-.22-.27,0-.54-.05-.97,0-1.46,0-.43-.16-.6-.6-.6v4.12c0,.38.22.43.65.38v-1.08c0-.11.11-.22.22-.38.05.11.22.22.22.43v1.08c0,.38.22.54.7.43v-1.41c0-.11.16-.22.22-.38.05.11.22.22.22.38v1.08c-.05.7.38,1.25.76,1.73.22.27.43.22.54-.11.38-1.19,1.08-1.9,2.22-2.17.49-.11.6-.43.76-.76.11-.27,0-.65-.38-.7-.6-.05-1.19-.11-1.84-.16,0,.27,0,.54-.05.76,0,.11-.11.16-.22.22-.05-.05-.11-.11-.16-.22v-.54c0-.38-.11-.6-.49-.76-.7-.27-1.19-.76-1.62-1.35-.16-.22-.43-.38-.76-.22h.05-.05l.05-.16ZM19.85,50.41c.05-1.52.11-2.92.22-4.44,0-.49.16-.87.22-1.35,0-.11-.11-.22-.11-.43-.11.05-.27.11-.38.22s-.11.27-.11.43c-.05.43-.11.87-.22,1.25-.05.16-.22.43-.43.43s-.43-.11-.54-.27c-.11-.22-.22-.54-.27-.76-.05-.38-.11-.65-.16-.97,0-.11-.22-.22-.38-.38-.05.11-.22.38-.22.49.11,1.08.43,2.11,1.19,2.98.11.11.16.38.16.49v4.44c0,.11,0,.38.11.43.43.43.43.6-.11.81v2c.38-.11.43,0,.38.27,0,.38-.05.7,0,1.08.11.38.05.6-.38.7v.6c.11,0,.22.05.38.11.7.22.76.22.76-.54v-6.17c0-.43.11-.7.43-.97s.7-.7.76-1.14c.11-.7,0-1.41,0-2.06-.43-.05-.54.05-.54.43v1.41c0,.43-.22.65-.76.76h0v.22s0-.05,0-.05ZM30.14,69.9c.05-.22.11-.43.11-.6,0-.97-.38-1.84-1.19-2.44-.16-.11-.38-.38-.49-.54-.65-1.14-1.73-1.62-2.92-1.57-1.3,0-2.22.7-2.87,1.84-.05.11,0,.38,0,.49.11,0,.38-.05.43-.16.38-.16.6-.49.92-.6.43-.11.54,0,.43.49s-.11.6-.05.65c.38.16.49-.16.6-.38.16-.22.38-.16.54,0s.05.22.05.43-.11.38-.16.6c.43-.11.76-.22,1.14-.38.11-.05.16-.22.27-.43s.27-.38.54-.16c.22.11.16.38.05.54-.16.38-.38.65-.6.97-.16.27-.11.49.05.65.38-.38.7-.65,1.08-.87.11-.05.38,0,.54.05-.05.11-.05.38-.16.49-.22.38-.6.65-.81.97-.05.11-.05.22-.11.43.87-.54,1.52-1.52,2.65-.27h0v-.16s-.05-.05-.05-.05ZM22.67,60.91h.11c.11-.11.16-.27.38-.49.16-.22.38-.54.54-.7.05-.05.27,0,.43-.05v.43c-.16.54-.43,1.08-.54,1.62-.05.38-.05.65-.05.97h.11c.05-.22.16-.54.27-.76.11-.38.27-.6.49-.87.05-.05.22-.05.43-.11,0,.11.05.22.05.38,0,.22-.11.49-.16.7-.05.54-.11.97-.22,1.46h.16c.05-.22.16-.43.22-.65.11-.27.22-.6.43-.87,0-.11.22-.11.38-.16,0,.11.11.22.11.38,0,.22-.05.43-.05.6,0,.43-.05.76-.05,1.25h.16c.22-.7.43-1.35.6-2.06-.11,0-.22,0-.27-.11-.11-.11-.11-.22-.22-.38.11-.05.22-.16.38-.16s.38.05.49.11c.6.11,1.14.22,1.84.38-.16-.43-.27-.7-.43-.92,0-.05-.16-.11-.27-.11-.76,0-1.57.05-2.33.05s-.43-.22-.49-.43c0-.38.22-.38.54-.38h.54c.6.05,1.19.11,1.9.22-.54-.6-.97-1.25-1.52-1.73-.97-.97-2.22-1.35-3.57-1.14-.65.11-1.14.43-1.35.97.7-.11,1.41-.22,2.17-.27.11,0,.49.22.54.38,0,.22-.22.27-.49.27-.65,0-1.25.16-1.84.54l-.43.43s0,.05.05.11c.54-.11.97-.22,1.57-.38-.11.6-.22,1.08-.38,1.52h-.05c0,.05,0-.05,0-.05h-.16,0ZM31.06,40.71c.43.11.7,0,.87-.38,0-.11.16-.22.27-.22.81-.22.87-.22.87-1.14v-3.47c0-.22-.05-.6.27-.6s.22.38.22.6v3.3c0,.11.11.38.16.38.11,0,.38-.05.38-.16.11-.16.16-.43.16-.6v-4.44c-.81.11-1.57.27-2.33.49-.54.11-.97.76-.97,1.3v4.93s.11,0,.11,0ZM76.45,77.43h.11c.05-.16.22-.38.22-.6,0-.92-.87-1.79-1.84-1.73h-.38c-.27,0-.6-.11-.87,0-.49.16-.87.49-1.35.7-.11.05-.22,0-.38.05,0-.11-.05-.27,0-.38.11-.16.22-.38.43-.49.43-.22.76-.49,1.19-.7-.38,0-.7,0-.97.05-.87.27-1.35.97-1.62,1.84-.11.38-.38.6-.7.7-.54.11-.92.43-1.19.92-.05.11,0,.38,0,.54.38-.22.6-.43.87-.65.11-.05.38-.05.43,0s.11.27.05.43c-.05.16-.22.38-.38.49-.38.43-.6.76-.43,1.41.11-.11.22-.16.38-.27.38-.38.7-.65,1.08-.97.22-.16.22-.43.22-.7s0-.76.11-1.14c.05-.27.38-.43.6-.22v1.41c0,.11.11.16.11.27.05-.11.16-.16.22-.27s0-.22,0-.38c.05-.6.38-1.19.87-1.46.11-.05.38-.05.49-.11v.49c-.22.49-.43.92-.22,1.46,0,.11.16.22.22.38.05-.11.11-.22.16-.38v-.38c.11-.27.22-.6.43-.81s.38-.11.43.11c0,.22,0,.54.05.76,0,.11.11.22.22.38.11-.11.22-.22.27-.43v-.81c0-.27,0-.54.38-.6s.43.16.54.43c.05.16.11.43.16.6h.05l.05.05h0ZM21.04,65.68c.11-.11.22-.16.27-.22.38-.43.7-.76,1.19-1.19.27-.22.38-.54.27-.87-.16-.87-.54-1.62-1.14-2.27-.43-.49-.92-.92-1.46-1.25-1.25-.65-3.25.22-3.63,1.52v.22c.38-.22.6-.43.87-.65v1.25h.11c0-.16.05-.38.11-.54.11-.27.16-.6.38-.81.05-.11.27-.16.43-.22,0,.11.11.27.11.43,0,.38-.11.76-.11,1.14s.11.38.16.54c.11-.11.38-.22.43-.38.11-.38.11-.7.22-1.08,0-.16,0-.49.27-.49s.43.16.49.43v1.57h.11c.11-.11.22-.38.38-.43.16-.16.43-.43.6-.54.05,0,.38,0,.43.11.05.05,0,.27,0,.43s-.11.11-.22.22c-.22.38-.49.7-.7,1.08l.11.11c.11-.05.22-.16.38-.22.22-.11.49-.22.7-.22s.38.11.38.22-.11.27-.16.38c-.22.22-.54.49-.76.76-.22.22-.22.6,0,.92h-.11s-.11.05-.11.05ZM15.74,31.4v.11c.22.11.43.27.6.22.7-.11,1.35-.05,1.84.54,0,0,.16.05.22,0,.05,0,.11-.16.05-.22-.05-.11-.11-.22-.22-.38-.16-.16-.38-.38-.6-.54,0,0,0-.05-.05-.11.6.05.65-.38.87-.65s.49-.38.7,0c.7-.6,1.19-.65,1.41-.05-.11,0-.27.05-.43.11-.49.22-.81.54-.87,1.08,0,.05,0,.22.05.22h.22c.38-.43.7-.65,1.35-.7.38,0,.54.05.7.27s.16.22.38.27c.43.11.76.22,1.19.22s.27-.05.38-.11c0-.05,0-.27-.11-.38-.22-.16-.54-.38-.81-.49-.38-.11-.49-.22-.54-.6-.11-1.08-1.08-1.84-2.17-1.84s-2.06.7-2.22,1.79c-.11.49-.43.76-.87.76h-.38c-.22.05-.49.16-.7.27h.05s-.05.22-.05.22ZM36.86,65.08h.11l.11-.11c.65-.6,1.3-1.14,2-1.62.11-.05.27,0,.43,0-.05.11-.05.38-.16.43-.11.11-.27.22-.6.49.54.05.92.11,1.41.22v-.65c-.22-.22-.11-.43-.05-.6.22-.76-.16-1.52-.97-1.73-1.41-.27-3.3.11-4.33,1.84-.43.7-.43.76.22,1.35h.05c.16-.54-.05-1.25.7-1.62v2.6c0,.11.11.22.22.43.05-.11.16-.27.22-.43s0-.27,0-.43v-1.62c0-.22.11-.54.16-.76,0-.11.16-.11.22-.22.05.11.11.22.11.27v2.27h.11l.05-.11h0ZM50.34,32.32h.16c.05-.16.16-.43.16-.6v-3.25h-.6c-.81-.11-1.35.43-1.95.87-.05,0-.11.11-.11.22v3.41c0,.22.16.43.49.38.54-.11,1.25-.97,1.25-1.57v-1.84c0-.11.16-.22.22-.38.05.11.22.22.22.38v1.95c0,.16.11.38.16.54v-.11h0ZM36.75,79.76c.7-.76.7-1.62,0-2.49-.11-.11-.11-.27-.11-.49.11,0,.38-.11.49-.11.6.11.87.54,1.08,1.14.16.7,0,1.35-.22,2-.05.16-.05.38-.11.54.49-.49.76-.97.76-1.62s0-1.25-.05-1.9c.49.11.6.49.7.87.16.76.16,1.52-.11,2.27-.05.22-.11.43-.16.65h.11c.6-.87.87-1.84.76-2.87-.11-1.08-.76-1.73-1.84-1.9-1.41-.16-2.49.43-3.41,1.35-.11.16-.22.43-.38.6,0,0,.05.05.05.11.6-.49,1.25-.92,2-.27.7.54.7,1.25.54,2.06h-.05l-.05.05h0ZM30.3,28.15c0-.76-.6-.97-1.08-1.41.11-.05.11-.11.22-.11.54-.11.87.22,1.19.6s.6.7.22,1.25v.27c.11,0,.22,0,.27-.05.05,0,.11-.11.22-.11.43-.43.87-.6,1.46-.54.22,0,.54,0,.87-.11-.22-.38-.43-.6-.65-.81-.43-.38-.92-.27-1.41-.16-.43-1.25-1.25-1.79-2.27-1.46-.87.22-1.52,1.14-1.35,1.84.87-.05,1.62.16,2.27.87h-.05l.11-.05ZM60.85,49.27v.11c.11,0,.22.05.38.11.76.16,1.62.38,2.44.6,1.9.54,3.79,1.19,5.52,2.17.43.22.87.43.97.92,0,.05.27.11.38.11.22-.27.49-.05.65.05l2.27,2.27c.38.38.6.76.87,1.19.05-.11.05-.16.11-.22.38-.38.27-.6,0-.87-.97-.87-1.84-2-2.92-2.76-3.09-2.17-6.61-3.14-10.24-3.79h-.43v.11h0ZM88.63,60.75c.27-.27.05-.54,0-.76-.05-.11-.05-.38,0-.49,0-.11.22-.16.38-.11.11,0,.38.16.43.38s0,.43.05.6c0,.11.11.27.16.27.11,0,.22-.05.38-.11.22-.16.43-.38.7-.6-.6-.7-1.46-.97-2.44-.81-1.57.27-2.44,1.41-2.76,2.82-.22.76.11,1.52.6,2.27.05-.22.11-.38.11-.49.11-.6.43-1.19-.22-1.57-.05,0-.05-.38,0-.43.11-.05.38-.11.43-.05.22.11.43.27.6.43.43-.22.16-.43,0-.65-.16-.16-.22-.43,0-.54.11-.05.38,0,.54.05.11,0,.16.16.27.38.27-.22.11-.43,0-.7-.05-.11,0-.38,0-.49h.54c.16.11.27.38.49.6h-.27ZM58.47,28.53v3.95c0,.27.38.65.6.87.49.38.81.05.81-.49v-3.14c0-1.35.27-1.25-1.35-1.25h-.11.05v.05h0ZM69.41,31.94v4.06c0,.22,0,.54.38.54s.38-.22.43-.54v-1.46c0-.22,0-.49.22-.49s.22.27.22.43v1.73c0,.11.22.22.38.43.05-.11.22-.27.22-.43v-3.52c0-.11-.11-.27-.22-.43-.43-.54-.97-.38-1.62-.27h.05l-.05-.05h0ZM29.28,65.46l.11.11c.54-.11.97-.38,1.52-.43,1.35-.22,2.55,0,3.36,1.19.43.65.54,1.35.6,2.11,0,.11.05.27.11.43h.11c0-.16.11-.38.11-.54.11-.97-.11-1.95-.65-2.76-1.08-1.73-3.25-2.11-4.77-.87-.22.16-.43.49-.6.7h.05l.05.05h0ZM75.2,53.6c.16.11.38.16.43.22.6,0,1.19.05,1.73,0,.22,0,.54-.22.76-.38-.22-.16-.43-.43-.65-.6-.22-.11-.43-.27-.7-.43v-.11c.65,0,1.3.05,1.9.11v-.11c-.22-.11-.43-.27-.65-.43-.11-.11-.38-.22-.43-.38-.38-.76-.97-1.14-1.62-1.52-.11-.05-.27,0-.43,0,0,.11.05.22.11.38.22.22.43.49.65.7s.49.38.7.6c0,0-.05.11-.11.11-.11,0-.22,0-.43-.05-.43-.05-.87-.11-1.3-.16-.11,0-.27.11-.43.11l.38.38c.16.11.43.22.6.38.38.22.7.54,1.19.87-.65.16-1.25-.05-1.84.38h.16v-.05h0ZM38.75,27.23c.22-.22.49-.49.7-.65.11-.05.38,0,.49,0,0,.11,0,.38-.05.49s-.22.16-.27.27c-.05.05-.05.22-.11.38h.38c.16-.05.38-.16.54-.38.38-.22.54-.65.38-1.19-.11-.49-.43-.76-.87-.76s-.27-.05-.43-.22c-.22-.43-.76-.49-1.08-.11-.11.11-.16.22-.22.43-.76,0-1.08.38-1.19.97,0,.6.38,1.08,1.14,1.25-.11-.22-.22-.43-.38-.54-.16-.16-.43-.38-.11-.6.22-.22.49-.05.65.11.11.11.27.38.49.54h.05s-.11,0-.11,0ZM28.25,74.07c.22-.38.6-.43.92-.38.81.16,1.41.6,1.62,1.41.05.22.16.43.49.27.11-.76-.43-1.84-1.14-2.27s-1.62-.43-2.33.16c-.54.43-.97.92-.87,1.79.16-.05.27-.05.43-.11.65-.49,1.14-.43,1.73.11.22.22.43.16.65,0-.22-.7-.87-.81-1.41-1.08h-.05l-.05.11h0ZM87.33,49.59c-.65,0-.92.16-.92.76v5.63h.11c.11-.38.16-.7.43-.97.54-.6.43-1.25.43-1.95v-3.52h0l-.05.05ZM80.89,50.62c.54-.05.7-.27.7-.7v-5.58c0-.11,0-.22-.05-.38,0-.11-.16-.22-.22-.22-.11,0-.22.11-.27.22s0,.22,0,.43v6.28h-.11l-.05-.05ZM72.71,71.69c.22-1.3-1.19-3.14-2.44-3.25-.38,0-.7,0-.97.05v.11c1.35.81,2.17,2.06,2.87,3.36.05.11.16.27.27.43.05,0,.11-.11.16-.11-.22-1.35-1.14-2.27-1.9-3.3.43.38.76.76,1.14,1.19s.6.92.92,1.46h-.11l.05.05h0ZM22.18,33.56c.54.05.76.43.97.87,0,.11.22.27.38.22.22,0,.43-.16.38-.43v-.16c-.22-.87-1.08-1.46-1.95-1.41-.97,0-1.73.7-1.84,1.62,0,.11.05.43.16.49.27.11.27-.16.38-.38.11-.38.22-.76.7-.76s.54.38.7.7c0,.11.16.11.27.22.05-.11.16-.22.11-.38,0-.22-.11-.43-.16-.7h-.11s0,.11,0,.11ZM82.57,59.51c1.08-.7.6-2.82-.43-3.63-1.14.7-1.35,2.92-.43,3.57,0-.87-.11-1.73.38-2.55.43.87.43,1.79.49,2.65h0v-.05h0ZM63.12,22.57h.05v3.79c0,.11.11.22.11.38.05-.11.11-.22.22-.43v-7.37c0-.11-.11-.27-.22-.43-.05.11-.16.22-.22.43v3.68h.05v-.05h0ZM44.87,27.23v-.43c0-2.44,0-4.82.05-7.26v-.38c0-.11-.11-.16-.22-.22-.05.05-.16.11-.22.22s0,.22,0,.38v7.31c0,.22,0,.49.38.43h.05s-.05-.05-.05-.05ZM71.68,24.63c-.43-.11-.54-.49-.7-.76-.05-.05-.16-.11-.27-.16,0,.11-.11.22-.11.38.11.27.22.6.49.76.54.38.6.76.54,1.35v3.09c0,.11.11.22.16.38.05-.11.16-.22.22-.38v-.27c.11-1.62-.27-3.3.38-4.87,0-.05-.11-.22-.16-.38-.11.05-.22.11-.27.16-.11.22-.22.54-.38.76h.16l-.05-.05h0ZM68.7,26.74c.81-.16,1.08-.97.54-1.57-.6-.65-1.84-.6-2.33.11-.38.54-.22.97.27,1.35,0-.22,0-.43.05-.6,0-.11.11-.16.22-.22,0,0,.16.11.22.16.05.16.11.38.22.6.11-.22.22-.49.38-.65s.16-.38.43-.22c.22.11.22.38.11.54,0,.11-.05.22-.11.43h0v.11-.05h0ZM83.33,61.67c1.25.05,2.49-1.84,2-3.68-.92.43-1.57,1.08-1.9,2.06.6,0,.65-.76,1.3-.7-.11.97-.87,1.57-1.35,2.33h-.05,0ZM32.85,30.75s.05.05.11.11c.16-.05.38-.11.54-.16.43-.11.65-.54.7-.92.05-.49-.11-.81-.54-1.08-.54-.27-1.08-.22-1.52.11-.54.38-.76.76-.76,1.35s.11.16.16.22c0,0,.16-.05.22-.11.11-.11.16-.38.27-.54.27-.43.81-.49,1.19-.11s.22.38,0,.54c-.11.11-.22.38-.43.54h0s.05.05.05.05ZM67.4,71.8c.76.38,1.52.6,2.27.97.7.38,1.35.87,2.06,1.3l.11-.11c-.43-.43-.87-.76-1.35-1.25.6.38,1.08.6,1.57.87-.54-1.35-3.47-2.33-4.66-1.79h-.05.05ZM35.23,54.63c.97-1.19,2.27-2,3.63-2.76-.11-.43-.38-.49-.7-.27-.54.27-1.08.54-1.52.87-.7.49-1.41.97-2.17,1.52.27.22.54.43.76.6h0s0,.05,0,.05ZM35.45,27.06h0v2.98c0,.11.11.22.22.38.05-.11.16-.22.22-.38v-5.85c0-.11-.11-.43-.22-.43-.27,0-.22.22-.22.43v2.82h0v.05ZM81.16,61.67c-.43-.54-.87-.97-1.25-1.52-.11-.16-.11-.43-.22-.65.22.05.49.11.7.22s.38.27.6.49c-.11-.87-1.25-1.84-2-1.9-.38,1.9,1.08,3.57,2.17,3.36h0ZM60.47,29.01v4.22c0,.11.22.38.38.49.11-.16.22-.38.22-.54v-3.79c0-.49-.05-.54-.6-.43h0v.05h0ZM74.12,71.04c.54-.54.49-1.19.43-1.79v-.97c0-.49-.05-.6-.54-.49-.16,0-.38.11-.49.22-.6.54-.7,1.84-.16,2.49.22-.6,0-1.35.54-1.9.11.43.16.76.16,1.19v1.25h.05,0ZM77.37,64.43l.11.11c-.16.38-.43.76-.6,1.14l.16.11c.65-.81,1.3-1.62,2-2.49-1.41-.11-3.09,1.3-2.87,2.44.43-.43.76-.87,1.19-1.25h0v-.05h0ZM70.22,75.97c-.22-.54-.81-.87-1.52-.87s-1.73.22-2.33,1.08c.43,0,.76.11,1.19-.05.6-.27,1.3-.38,2-.22.22,0,.43.05.7.11h0l-.05-.05h0ZM57.93,28.42c-.27.05-.6-.11-.6.38v3.3c0,.11.16.27.27.43.11-.11.38-.27.38-.49v-3.63h-.05,0ZM26.57,45.69c-.49.38-.7.76-.7,1.25v1.41c0,.65,0,.7.7.92v-3.63h0v.05ZM47.69,50.24s0-.11-.05-.11c-2.44.43-4.6,1.35-6.61,2.82.22.16.43.16.65,0,1.52-1.08,3.25-1.9,5.04-2.44.38-.11.65-.22.97-.27h-.05.05ZM29.22,50.35c1.3-1.46,2.06-3.14,1.9-3.79-.97.76-1.84,2.44-1.9,3.79ZM46.55,21.92h0v2.11c0,.11.11.16.22.27.05-.05.16-.16.22-.22v-4.12c0-.11-.16-.27-.22-.43-.05.11-.22.27-.22.43v1.95h0ZM61.66,21.97h0v-1.95c0-.11-.11-.27-.22-.49-.05.11-.16.27-.22.43v4.12c0,.05.11.11.16.22.05-.05.16-.11.22-.22s0-.27,0-.43v-1.84h0v.11l.05.05h0ZM30.95,51.49c.87-.49,1.84-.76,2.27-1.84-1.35.11-2.82,1.19-3.14,2.06.38-.22.65-.38.97-.54h0c-.05.11-.11.16-.16.27h0s.05.05.05.05ZM30.14,66.33c.65,0,1.35-.11,1.95,0s1.19.54,1.79.76c.05-.49-.6-1.14-1.41-1.35s-2,0-2.27.6h-.05ZM61.28,73.75c0-.49,0-.87.05-1.35,0-.05,0-.22-.11-.22-.43-.22-.87-.43-1.35-.65,0,.11,0,.16-.05.22,0,.22-.05.43-.11.6-.05.6,0,.7.6.76.05-.22.11-.43.16-.65h.11c0,.27.05.6.05.87s.11.49.54.43h.11,0ZM73.74,58.15c.27-.22.38-.49,0-.7-.11-.11-.16-.22-.22-.38-.6-.97-1.35-1.84-2.22-2.6-.05-.05-.22,0-.38-.05,0,.11,0,.27.11.38.54.6,1.08,1.19,1.57,1.84.43.54.7,1.08,1.14,1.57h0v-.05ZM78.67,33.18c.87-.97,1.9-1.19,2.87-.11.16-.38.05-.65-.38-.97-.6-.54-1.52-.49-2.17.11-.43.38-.54.7-.38,1.08h0l.05-.11h0ZM28.79,72.18c-.38-.11-.6-.11-.92,0-.22.11-.49.11-.7.11-.49,0-.87,0-1.35.05-.43.05-.76.22-.92.7h.38c.6,0,1.19,0,1.84-.05h.22c.54-.27,1.08-.6,1.62-.87h-.11s-.05.05-.05.05ZM29.82,29.5c.38-.22.22-.6-.16-1.08-.6-.65-1.73-.81-2.22-.38.22.27.54.54.7.76.76-.43.87-.38,1.73.6h0l-.05.11ZM90.2,63.08c-.6-.49-1.79-.16-2.44.43-.49.43-.81.87-.7,1.62.76-1.08,1.84-1.73,3.14-2h0v-.05ZM79.86,72.34c1.19-.54,2.44-.54,3.79-.38-.22-.6-.7-.7-1.19-.7-.97,0-2,0-2.6.97h0v.11ZM30.58,67.47c.38.11.54.16.76.22.7.22,1.41.54,1.84,1.25.05.11.27.11.49.16,0-1.35-1.73-2.33-2.98-1.62,0,0-.11,0-.11,0ZM75.64,61.29c-.54.76-.65,1.57-.38,2.49.11-.38.22-.76.38-1.14h.11v1.41c.65-.7.6-2-.11-2.76h0ZM43.09,25.6v-1.62c0-.11-.11-.27-.22-.43-.05.11-.22.27-.22.43v1.9c0,.11,0,.27.11.38.38.16.7.38,1.08.54.07-.58-.16-.94-.7-1.08h0s-.05-.11-.05-.11ZM19.74,65.57h.11c0-.11.05-.22.05-.38-.11-.7-.54-1.25-1.25-1.41-.43-.11-.76-.16-1.14-.54s-.7-.27-.87-.11c.38.38.76.65,1.14.97h.27c.65-.05,1.08.22,1.35.76.11.16.22.43.27.6h0s.05.11.05.11ZM83.06,72.77c-.92-.54-2.76-.16-3.36.54-.05.05-.05.22-.11.38,0,0,.05,0,.11.05.76-.54,1.62-.7,2.6-.7s.43-.11.7-.22h.05v-.05h0ZM69.62,73.91c-.7-.43-1.41-.38-2.06-.11-.6.22-.92.6-.92.97.97-.27,1.95-.54,2.98-.87ZM27.38,57.5c.27-.87-.6-2.11-1.62-2.44,0,1.52,1.35,1.95,1.62,2.44ZM48.01,77.38c.54-.22.6-.54.22-1.35-.43.16-.81.38-1.25.6-.05,0-.11.11-.11.22,0,.54.11.97.11,1.41h.11c.05-.11.16-.22.16-.38v-.76c0-.43.11-.54.54-.54,0,.22.05.43.11.65h0v.11l.11.05h0ZM29.11,56.04c-.27.22-.54.49-.76.7.65.65,0,1.25,0,1.84.87-.43,1.25-1.57.76-2.55h0ZM87.71,62.65c.92-.76,1.95-.87,2.98-.97-.7-.49-1.41-.54-2.17-.11-.43.22-.76.49-.81,1.08h0ZM17.58,56.26c.11-.38,0-.76-.43-1.14-.54-.49-1.35-.7-1.79-.49.7.54,1.41,1.08,2.17,1.57h0s.05.05.05.05ZM74.55,65.95c0-.65-.97-1.52-1.84-1.52s-.22.22-.22.22c.16.49.49.81.97.97-.11-.22-.22-.43-.38-.6h0c.43.27.87.6,1.3.87h.11l.05.05h0ZM68.11,78.68c-.38-.76-1.84-1.41-2.55-1.25-.05,0-.11.11-.11.11,0,.05.05.11.11.16.81.27,1.62.6,2.55.87h0v.11ZM39.35,72.72c-.22-.7-.7-.97-1.35-1.19-.38-.05-.7-.11-.97.27.22.05.43.11.6.22.38.16.76.38,1.08.6.22.22.43.22.7.05h0l-.05.05ZM27.27,28.91c-.38.38-.43,2.65,0,3.09.38-.43.43-2.65,0-3.09ZM58.2,23.06h0v.87c0,.11.11.27.22.43.05-.11.22-.22.22-.43v-1.95c0-.11-.11-.22-.22-.38-.11.11-.22.22-.22.38v1.08h0ZM14.16,55.61v.11c.7.27,1.35.6,2,.81.05,0,.22,0,.22-.05,0-.11,0-.22-.05-.38-.54-.49-1.08-.76-1.79-.76s-.22.11-.43.16h0s.05.11.05.11ZM33.23,53.28v.11c.22.05.54.22.6.16.54-.27.97-.65,1.52-.97.05,0,.05-.22,0-.38,0,0-.22-.11-.27-.05-.65.38-1.3.7-1.9,1.08h.05v.05ZM28.57,62.1c-.27,0-.49.05-.65.05-.27,0-.54-.05-.81-.05s-.22.11-.38.16c.05.11.11.22.22.27.6.16,1.19.38,1.79.49l.11-.11c-.11-.27-.22-.6-.27-.81h0ZM74.17,28.04c-.05-.43-.38-.6-.76-.54-.6.11-.76.54-.6,1.25h1.25c-.11-.49-.54-.27-.76-.49.11-.54.6-.22.87-.27h0v.05h0ZM26.35,32.1c0-.11.05-.16.05-.22,0-.65-1.3-1.62-1.95-1.46-.05,0-.11.11-.22.16.05.05.11.11.16.16.43.27.81.6,1.25.87.22.11.43.38.6.54h.11s0-.05,0-.05ZM31.55,47.97c-.22.7-.54,1.35-.76,2,.6-.38,1.35-.54,1.25-1.41,0-.22,0-.54-.43-.6h-.05ZM30.41,30.58c-.76-.22-1.25.05-1.73.43-.38.22-.6.6-.6,1.08.76-.54,1.46-.97,2.27-1.52h.05ZM16.28,57.23h-.11c-.54.16-.97.38-1.41.54-.05,0-.11.22-.11.38.11,0,.22.11.38.05.6-.11,1.19-.27,1.73-.49.11,0,.16-.16.22-.22-.11-.05-.22-.11-.38-.16h-.27s-.05-.11-.05-.11ZM15.95,59.72c.43-.11,1.52-1.57,1.41-1.95-.7.11-1.41,1.14-1.41,1.95ZM17.14,52.03c-.27-.22-.43-.22-.76-.05-.65.38-1.19,1.08-1.14,1.46.6-.49,1.25-.92,1.9-1.35h0v-.05ZM81.86,66.76c-.22-.54-.97-.81-1.41-.54-.22.11-.27.38,0,.43.49.22.97.38,1.46.11h-.05,0ZM37.18,53.82s-.05-.11-.11-.11c-.65.38-1.14.87-1.73,1.35.11.16.16.38.27.54.54-.6,1.08-1.19,1.52-1.73h0s.05-.05.05-.05ZM30.95,59.34c-.7,0-1.57.43-1.73.97.22-.11,1.41.22,1.73-.97ZM37.4,65.9v.16c.6.11,1.25.27,1.9.43.05,0,.16-.11.38-.27-.7-.16-1.25-.38-1.84-.49-.11,0-.27.11-.43.22h0s0-.05,0-.05ZM18.28,34.48c-.05,0-.16-.11-.27-.11-.49,0-1.25.81-1.19,1.25,0,.05.05.16.11.16s.16,0,.22-.05c.38-.43.7-.81,1.14-1.25ZM89.55,57.5l.11.11c.54-.22,1.08-.54,1.62-.76.05,0,.05-.22.11-.38-.11,0-.22-.05-.38,0-.43.22-.81.54-1.25.76-.11.05-.16.22-.22.38h0v-.11h0ZM87.98,55.5c-.22.22-.43.49-.6.7.54.22.97.49,1.52.7l.11-.11c-.38-.43-.6-.81-.97-1.35h-.05v.05h0ZM23.05,71.69h1.25c-.11-.54-.38-.76-.7-.76s-.6.38-.6.76h.05ZM16.11,53.66l.11.11c.54-.22.97-.43,1.46-.65.11,0,.11-.16.22-.27-.11-.05-.27-.22-.38-.16-.38.11-.65.27-.92.54-.16.11-.38.38-.49.54h-.05l.05-.11ZM24.24,69.36h2c-.43-.49-.87-.54-1.35-.49-.27,0-.6.05-.7.49h.05ZM38.1,64.92v.22c.54.11,1.08.22,1.57.38.05,0,.16-.11.27-.16-.05-.05-.11-.16-.22-.22-.43-.11-.76-.16-1.19-.22-.11,0-.38.05-.49.11h0s.05-.11.05-.11ZM90.91,55.77c-.49-.49-.54-.49-.87,0-.11.16-.27.38-.43.54-.05.11-.11.27-.11.43,0,0,.05,0,.11.05.43-.38.87-.6,1.35-.92h-.05v-.11h0ZM32.63,72.77c-.11-.11-.16-.27-.38-.38-.05,0-.22.11-.38.27-.05.22-.11.49-.11.7s.11.22.22.38c0,0,.22-.11.27-.16.11-.22.16-.54.27-.76h0s.11-.05.11-.05ZM22.4,68.12c-.22-.43-.6-.49-.97-.43-.27,0-.54.16-.65.54.6,0,1.14.22,1.62-.11ZM88.9,57.77c0-.05,0-.11.05-.16-.43-.38-.97-.54-1.52-.7,0,0-.16.11-.16.16,0,.11.05.27.11.27.54.11.97.22,1.52.43h0ZM64.59,25.38s.05,0,.11.05c.11-.11.38-.22.38-.38v-1.08c0-.38-.11-.16-.22-.22-.05.11-.22.16-.22.27v1.35s-.05,0-.05,0ZM66,25.98c-.43,0-.81,0-1.19.11-.05,0-.11.16-.22.27.05.05.16.16.22.16.43,0,.76,0,1.19-.05v-.54h0v.05ZM25,70.82h1.9c-.16-.38-.49-.43-.76-.43s-.76,0-1.14.43ZM38.64,67.3v-.16c-.54-.11-1.14-.27-1.62-.43-.05,0-.16.05-.22.11,0,.05.05.16.11.22.49.11.92.27,1.41.43.11,0,.22-.05.38-.11h0s-.05-.05-.05-.05ZM28.19,71.04c.7.22,1.19,0,1.19-.6s0-.22-.11-.27h-.22l-.81.81h0l-.05.05ZM92.05,57.77v-.16c-.11-.05-.27-.22-.38-.16-.6.22-1.19.54-1.79.76v.11c.7-.16,1.35-.38,2-.54,0,0,.16,0,.16,0ZM70.6,80.52l.11.11c.43-.27.81-.6,1.25-.87v-.22c0-.05-.16-.11-.22-.05-.49.22-.92.6-1.19,1.14h.05v-.11h0ZM27.7,64c.49.05.87.11,1.35.16.05-.43,0-.6-.43-.6h-.81c0,.11-.05.22-.11.43h0ZM90.26,52.84v.54c.49.22.92.43,1.41.65,0-.05.05-.11.11-.16-.38-.49-.97-.6-1.52-.97h0s0-.05,0-.05ZM21.1,45.91c.27,0,1.25-.65,1.25-.87s-.22-.22-.27-.22c-.43.22-.76.54-.92,1.08h-.05ZM16.71,45.97c0-.11,0-.16-.05-.22-.27-.27-.54-.6-.81-.87s-.22,0-.22.05-.05.22,0,.27c.22.22.54.54.81.76h.38-.11ZM12.22,43.09c-.05-.43-.16-.54-.97-.43-.22,0-.54,0-.43.43h1.41ZM13.84,50.68c.38.38.6.7.87.97,0-.38.05-.7.11-1.08-.38,0-.65,0-1.08.05h.05s.05.05.05.05ZM92.1,51.65c-.16-.16-.38-.38-.49-.54-.38.22-.22.43.43.92.6-.49.7-.6.54-.87-.11.16-.27.38-.49.54h0v-.05h0ZM91.83,53.11c0-.43-.65-1.14-.87-1.14s-.16.05-.22.11c0,.05,0,.22.05.27.38.22.65.43,1.08.7h0l-.05.05ZM89.77,55.06s-.11-.05-.11-.11c-.05.05-.16.11-.22.22-.22.27-.43.27-.6,0-.05-.11-.22-.11-.38-.22l-.11.11c.22.27.43.6.7.87.22-.38.49-.65.7-.92h0v.05h0ZM15.41,50.73c0,.49-.05.81-.11,1.25.27-.38.54-.6.76-.87-.11-.05-.38-.22-.65-.43h0s0,.05,0,.05ZM92.48,53.98c.76-.05,1.41-.54,1.25-.92-.43.27-.92.43-1.25.92ZM92.42,53.06c.27-.22.6-.43.87-.6,0,0,.05-.16,0-.27,0-.05-.11-.11-.22-.11-.22,0-.7.65-.65.97h0ZM20.07,69.47c.27.05.6.11.81.11s.22-.05.22-.11,0-.22-.05-.27c-.38-.38-.76-.22-.97.22h0v.05ZM24.24,29.28c-.54-.22-.97-.16-1.19.11v.22s.11.05.22.05c.38-.11.6-.27.97-.49h-.05s.05.11.05.11ZM23.64,28.42c-.27-.27-.87-.27-1.08,0v.22c.05,0,.16.11.22.05.22-.05.54-.11.81-.22h0l.05-.05ZM90.04,54.09v.11c.22.38.97.6,1.41.43-.54-.22-.97-.43-1.41-.6h0v.05ZM88.15,58.31h0c-.38-.11-.7-.22-1.08-.27v.6c.38-.11.7-.22,1.08-.38h0v.05ZM21.91,70.23c.22,0,.49,0,.7-.05.05,0,.16-.11.16-.22s-.11-.16-.22-.16c-.27-.05-.6.11-.65.54h0s0-.11,0-.11ZM92.1,59.07c-.16-.6-.38-.6-1.25-.27.49.11.81.16,1.25.27ZM91.34,61.02c-.11-.22-.22-.54-.43-.87-.22.49-.05.76.43.87ZM26.57,64.11c.22-.11.38-.11.43-.22.05-.16.05-.43.11-.6-.11,0-.38,0-.38.05-.05.16-.11.43-.16.76h0ZM11.51,44.12v-.11c-.11-.05-.27-.11-.43-.11s-.16.11-.22.22c.11.05.22.22.43.22s.16-.11.27-.16h-.05v-.05ZM50.34,49.76v-.11c-.49.05-.97,0-1.41.22v.11c.49-.05.92-.11,1.41-.22ZM37.07,68.12v-.11c-.22-.11-.43-.16-.65-.22-.05,0-.11,0-.22.05,0,.05.05.22.11.22.22.05.49.05.7.11h.05v-.05ZM29.71,36.05c.22.16.43.38.6.54v-.65c-.16.05-.38.11-.6.16h0v-.05ZM25.27,56.36c-.11.11-.22.16-.49.38.22.11.43.16.7.27-.11-.22-.16-.43-.22-.6h0v-.05ZM57.76,49.59v.11h.87c0,.05,0-.05,0-.05-.27,0-.6,0-.87-.05h0Z"/>
    <path class="st1H" d="M94.1,30.96c-.05,0-.22-.05-.22-.11-.38-.7-.87-.81-1.52-.87h-.38c.54-.87,1.41-2.11,2.17-1.46.6.54.7,2.06,0,2.49h-.05v-.05Z"/>
    <path class="st1H" d="M72.01,15.15c.16-.54.65-.76,1.14-.6.22.11.43.05.6-.11.38-.27.76-.38,1.08-.11.05,0,.11.11.11.16s-.11.11-.16.11c-.49,0-.87.05-1.08.6,0,0-.22.05-.22,0-.38-.43-.76-.38-1.25-.11h-.22.05l-.05.05h0Z"/>
    <path class="st1H" d="M79.48,15.2c-.22.05-.38.11-.49.11-.38.05-.6.22-.7.6,0,.05-.22.22-.22.22-.43-.27-.87-.22-1.35,0,0-.43.27-.7.76-.65.38,0,.54,0,.76-.22.38-.38.87-.38,1.25,0h0v-.05Z"/>
    <path class="st1H" d="M12.7,38.38c-.43,0-.7-.22-.7-.54s.22-.54.6-.54.81.38.76.65c-.05.43-.49.38-.7.43h.05Z"/>
    <path class="st1H" d="M55.76,48.73v8.99c0,.11-.05.38-.11.43-.22.11-.43,0-.43-.38v-18.09c.11-.11.16-.43.27-.43.27,0,.27.22.27.43v8.99h-.05l.05.05Z"/>
    <path class="st1H" d="M52.83,49.32v8.61c0,.11-.16.22-.27.22s-.22-.11-.22-.22v-17.28c0-.11.16-.22.27-.22s.16.11.22.22v8.61h0v.05Z"/>
    <path class="st1H" d="M60.9,78.41c.16-.49.38-.87.49-1.25,0-.05.16-.11.22-.22.05.11.16.22.16.38-.05.54-.11,1.08-.22,1.62.43-.22.6-.87,1.25-.87-.11.43-.16.7-.22,1.08.11,0,.22.05.38.11-.22.43-.49.76-.7,1.19-.11.22-.38.38-.6.11-.76-.49-1.52-.7-2.44-.43-.11,0-.22,0-.38-.11s-.43-.22-.54-.43c-.11-.11-.11-.38-.22-.49.16,0,.38-.11.54-.05.22.05.54.22.87.43-.05-.22-.11-.38-.16-.43-.11-.16-.22-.38-.38-.54s-.38-.43,0-.6c.11-.05.43.11.54.22s.22.27.38.43.16.22.38.27c-.05-.38-.16-.76-.22-1.14,0-.22-.11-.43-.11-.6s.11-.22.16-.38c.11.05.27.11.38.22.16.43.27.76.43,1.19,0,.05,0,.11.11.22h0c0,.05,0-.05,0-.05l-.11.11h0Z"/>
    <path class="st1H" d="M53.7,49.76v-6.39c0-.11.16-.22.22-.38.05.11.16.16.22.27v12.89c0,.11-.16.22-.22.22-.11,0-.22-.11-.22-.22v-6.39h0Z"/>
    <path class="st1H" d="M53.97,61.29c-1.08-.11-2.33-.22-3.57-.43h-.11c-.11-.11-.43-.22-.43-.38,0-.38.27-.22.54-.22,1.41.11,2.82.22,4.28.38.7,0,1.35-.05,2-.05s.27.11.49.22c-.11.11-.22.38-.43.38-.81.11-1.62.11-2.71.22h0v-.11h-.05,0Z"/>
    <path class="st1H" d="M48.5,62.27c-1.35-.43-2-.7-2.92-1.19-.7-.38-1.3-.81-1.9-1.3-.22-.16-.54-.49-.22-.76.27-.22.54.05.7.22,1.08,1.08,2.44,1.62,3.85,2.06.22.05.54.11.76.22.11,0,.22.22.16.38,0,.11-.16.38-.38.27h-.05v.11Z"/>
    <path class="st1H" d="M62.91,57.99c0,.49-.38.92-.7,1.35-.6.6-1.41.92-2.17,1.19-.11,0-.38-.11-.54-.16.11-.11.16-.38.38-.43.49-.22.97-.43,1.41-.7.92-.6,1.08-1.35.54-2.27-.05-.11,0-.22,0-.38h.43c.43.16.76.87.76,1.46h-.05l-.05-.05h0Z"/>
    <path class="st1H" d="M55.49,77.43c-.38-.05-.7-.11-1.08-.22-.54-.16-.6-.7-.11-1.08.6-.49,1.84-.43,2.33.05.38.38.38.76-.11.97-.38.11-.7.16-.97.22h-.05v.05h0Z"/>
    <path class="st1H" d="M59.33,63.3c.05,0,.16-.05.22,0,.11,0,.22.11.27.16-.05.11-.11.22-.22.22-.43.11-.76.16-1.19.22-1.62.27-3.3.38-4.87.22-.11,0-.43-.05-.43-.22s.27-.22.49-.22h1.62s2.76-.22,4.06-.43l.05.05Z"/>
    <path class="st1H" d="M50.61,64c-1.73-.27-3.36-.65-4.87-1.25-.54-.22-.97-.43-1.46-.7-.11-.05-.38-.22-.22-.43s.38-.05.49,0c1.84.97,3.79,1.46,5.8,1.84.11,0,.22,0,.38.05s.38.11.38.22-.22.11-.27.16h-.05l-.16.11h0Z"/>
    <path class="st1H" d="M54.3,36.54v1.9c0,.11-.11.27-.22.43-.11-.11-.27-.27-.27-.43v-3.85c0-.11.16-.22.22-.43.05.11.22.22.22.43v1.95h.05Z"/>
    <path class="st1H" d="M52.83,35.24v1.19c0,.11-.16.22-.22.38-.11-.11-.27-.22-.27-.38v-2.33c0-.11.16-.22.22-.38.11.11.22.22.27.43v1.14h0v-.05Z"/>
    <path class="st1H" d="M45.2,57.66c.11-.38.22-.7.43-.97.05-.11.38-.22.54-.11.27.11.11.27,0,.49-.22.43-.22.81-.05,1.25.05.22.11.43-.11.54-.11,0-.38-.11-.43-.22-.11-.22-.16-.54-.27-.87h-.05s-.05-.11-.05-.11Z"/>
    <path class="st1H" d="M48.29,60.48c-.6-.27-1.14-.6-1.62-.87-.11-.05-.05-.27-.11-.49.11,0,.38-.11.43-.05.54.22.97.54,1.52.76.05,0,.16.22.11.38,0,.11-.16.16-.38.27h.05,0Z"/>
    <path class="st1H" d="M55.16,36.43v-.87c0-.11.16-.22.27-.38.05.11.22.22.22.38v1.79c0,.11-.16.22-.22.43-.11-.11-.22-.22-.27-.43v-.92Z"/>
    <path class="st1H" d="M55.7,30.96v.87c0,.11-.11.22-.22.38-.11-.11-.27-.22-.27-.38v-1.79c0-.11.16-.22.27-.38.05.11.22.22.22.38v.87h0v.05Z"/>
    <path class="st1H" d="M52.83,31.88v.6c0,.11-.11.22-.22.22s-.22-.11-.22-.16v-1.3c0-.05.16-.16.27-.16s.16.11.22.22v.6h-.05Z"/>
    <path class="st1H" d="M54.24,29.61c-.27.11-.49.05-.49-.22v-1.19c0-.11.16-.22.22-.38.05.11.22.22.22.38v1.35h0s.05.05.05.05Z"/>
    <path class="st1H" d="M52.83,28.47v.38c0,.11-.16.22-.22.27-.11-.11-.22-.16-.22-.27v-.76c0-.11.16-.22.27-.27.05.11.16.22.22.38v.38h-.05v-.11Z"/>
    <path class="st1H" d="M55.76,28.53c-.11.16-.22.54-.38.54-.43,0-.27-.38-.22-.6,0-.22.11-.54.22-.54.43,0,.22.38.38.65h0v-.05Z"/>
    <path class="st1H" d="M54.35,58.21c-.38,0-.65.11-.6-.27,0-.22-.16-.65.22-.6.54.05.11.54.38.87h0Z"/>
    <path class="st1H" d="M33.12,46.72c.16.11.27.16.38.22.49.43.76.38,1.3,0,.43-.27.87-.49,1.41-.7.11-.05.38-.11.54,0,.22.05.43.22.6.43-.16.11-.38.22-.54.27-.7.16-1.35.43-2,.87-.27.22-.76.27-1.19.43-.05,0-.22,0-.22-.05-.22-.43-.38-.87-.27-1.46h.05s-.05,0-.05,0Z"/>
    <path class="st1H" d="M29.33,46.18c0-.22-.11-.54-.11-.76v-2.98c.05-.05.16-.16.27-.16s.11.11.22.16v3.25c0,.16-.11.43-.16.6h-.22v-.11Z"/>
    <path class="st1H" d="M29.6,22.68c-.92.38-1.84.76-2.49,1.73,0-1.08,1.62-2.17,2.49-1.73Z"/>
    <path class="st1H" d="M78.18,38.71c.81-.38,1.57-.11,2.22.6-.11.27-.27.38-.54.11-.49-.43-1.08-.6-1.62-.7h-.05Z"/>
    <path class="st1H" d="M79.97,37.95c.54-.22,1.08,0,1.52.6-.16.22-.38.22-.6.05-.27-.22-.6-.43-.92-.7h0v.05Z"/>
    <path class="st1H" d="M91.18,36.76v7.2c-.76-.43-1.41-.81-2.27-.7v-3.79c0-.05,0-.16.11-.22.7-.76,1.41-1.62,2.17-2.49h0Z"/>
    <path class="st1H" d="M26.68,58.96c-.7.05-1.41.22-2.11.22s-.38-.22-.54-.43c.11-.11.27-.38.43-.38.76-.05,1.52-.22,2.17.43,0,0,.05.05.05.11h0v.05Z"/>
    <path class="st1H" d="M37.51,63.89c-.38-.7-.16-1.57.43-1.9v1.52c0,.11-.22.22-.38.38h-.05Z"/>
  </g>
  <g>
    <path class="stContainer" d="M157.4,47.75h-.22c-.11,0-.43.38-.87.92s-1.08.97-1.9,1.19h-.05c0,.05-.87.05-.87.05-.92,0-1.52-.11-1.79-.27s-.38-.76-.38-1.73v-.43c0-.11,0-.22-.05-.54-.05-.22-.05-.43-.05-.54s0-.16.05-.38.05-.38.05-.38c.11-.11.27-.11.49-.11h1.57c.38,0,.7.11.97.38h.22c.11.22.22.49.38.76,0,0,.05.11.16.22s.22.22.27.22c.22,0,.38-.22.38-.6v-2.22c0-.43.05-.76.16-.97-.16-.22-.43-.38-.6-.38h-.16c-.11.22-.22.43-.22.54-.22.22-.38.43-.49.6-.27.16-.76.27-1.35.22h-1.62v-.22h0c-.43.16-.92.43-1.25.49-.16,0-.54.22-.97.43v.6c0,.16,0,.38-.05.65s-.05.54-.05.7,0,.6.05,1.08c0,.54.05.87.05,1.14v.11c-.05.27-.11.43-.22.49-.49.22-.87.38-1.19.49-.11.16-.22.38-.38.54.11.38.38.54.65.54h7.58c.22,0,.6-.11,1.08-.38.54-1.3.81-2.17.81-2.55s-.11-.38-.43-.54h0l.16-.11h.05ZM135.04,36.97v-3.47c-.22.22-.49.43-.65.54-.38.43-.6.7-.76.87.6.81,1.41,2.11,1.41,2h0v.05h0ZM139.1,48.88c-.38-.22-.6-.43-.76-.54-.22-.16-.43-.38-.54-.49-.54-.43-.92-.76-1.19-1.08-.38-.43-.6-.76-.87-1.19h-.11c-.43.11-.81.16-1.08.22.11,0,.27-.05.43-.11h0c.05,0,.11,0,.22-.05h0c.05,0,.11,0,.22-.05,0,0,.11,0,.16-.05-.27-.49-.54-.92-.65-1.41-.22-.81-.43-1.84-.43-3.14s.11-1.62.27-2.22c0-.11.05-.22.11-.38h0c-.11-.43-.81-2-1.35-3.09-.05-.11-.11-.22-.16-.38-.11.11-.22.27-.38.38-.54.7-.87,1.41-1.19,2.27-.43,1.19-.65,2.11-.7,2.82v2.22c0,.22.05.7.22,1.14.22.6.38.87.38,1.08.43.87.76,1.52,1.08,1.9.16.38.38.65.6.97.38.22,1.41.92,1.84,1.19.49.38.16.38.11.76.22.16.54.38.7.43.87.7,2,1.08,3.2,1.25.05,0,.11-.11.22-.11s.11-.05.11-.11c.6-.43.54-.92.65-1.95-.6-.05-.97-.11-1.19-.27h.05-.05.11,0ZM146.68,47.04s-.11.05-.27.38c-.16.22-.22.38-.27.38-.11,0-.22.11-.43.38-.11.22-.27.38-.43.38h-.22c0,.05-.16.11-.38.16-.22,0-.38.11-.38.22-.11.11-.27.16-.43.22h0c-.11.16-.16.38-.22.43t0,0c0,.11-.05.16-.05.22,0,.38.97.38.97.38,0,0,.76.11,1.46.22.16-.11.38-.22.49-.43.38-.27.6-.6.7-.76.38-.22.54-.54.54-.81-.22-.92-.6-1.35-1.08-1.25h0c0,.05-.05-.05-.05-.05l.05-.05h0ZM140.94,51.21h0c.22-.27,1.08-1.19,1.73-1.9h-.43c.11,0-.16,0-.76-.05h-.22v.54c-.11.27-.6.97-.97,1.62,1.95,0,3.47-.16,4.6-.6-.49-.22-.92-.43-1.35-.43-1.08-.11-2.49.76-2.55.76h0l-.05.05h0ZM133.41,47.75c.38.49.7.92,1.19,1.41.11.05.22.11.38.22-.16-.65-1.19-1.41-1.46-1.62h-.11ZM147.76,40.43c0,.11.22.38.7.54.49.22.7.54.7.92v1.46c0,.16,0,.38-.05.6,0,.38-.05.54-.05.65h0c.38-.16.65-.38.87-.43.76-.38.76-.65.97-.97.05-.11.22-.38.43-.6v-.43c0-.38-.05-.7-.11-.87,0-.11.22-.22.6-.22.05-.05.81-.11,2.33-.11s.54.11.81.38h1.9v-.97c0-.43-.11-.16-.43-.38-.27-.11-.49-.22-.54-.22h-7.26c-.6,0-1.08.22-1.08.7h.11l.11-.05h0ZM160.82,39.73h-.38.38ZM164.34,43.79h0s0-.22.11-.49c0-.05.05-.11.11-.11h.11c-.38-.43-.6-.7-.7-.87-.27-.22-.54-.43-.65-.6-.6-.7-.97-1.19-1.19-1.41-.05,0-.22-.11-.49-.38-.22-.16-.49-.27-.6-.27h-.11c0,.05,2.65,2.71,2.87,3.2.16.43.43.76.43.87h0c0,.05.05.05.05.05h.05ZM155.51,41.68c.49.43.7.7.81.7.11-.05.22-.11.38-.22.05-.05.11-.11.11-.22s.11-.11.11-.27h-1.41,0ZM135.63,36.59c.43-.54.76-.87,1.08-1.14.43-.43.65-.76.87-.97.22-.11.43-.22.49-.27.43-.27.76-.6,1.19-.87.22-.11.7-.27,1.57-.43.54-.11.87-.11,1.08-.11,1.19,0,2,.22,2.55.65.11.05.6.43,1.3,1.19.65.6,1.08,1.08,1.25,1.3.11.11.11.38.16.6,0,.22.11.38.22.38h.7c0-.65,0-1.19-.05-1.57,0,0,0-.11-.05-.38s-.05-.22-.05-.27c0-.11,0-.22-.05-.38,0-.22-.11-.43-.38-.7v-.76c0-.49,0-.76-.22-.97-.16-.22-.65-.38-1.35-.49-.43-.11-.7-.22-.87-.27-.22,0-.54,0-.76.05-.22,0-.54.05-.7.05-1.73,0-3.2.16-4.5.54-1.52.43-2.6.87-3.2,1.3-.16.11-.38.22-.54.43.05.97.16,2.76.22,4.06.05-.38.11-.65.16-.87h0c0,.05-.11.05-.11.05v-.16h0ZM151.45,43.41c-.16.38-.27.65-.27.65h.27v-.65h0ZM163.69,45.2c.11.05.87.6.87.49s-.38-1.35-.87-2.17c-.6-.76-2.17-2.55-2.65-2.98s-.49-.7-.6-.7-.11,0-.22-.05c-1.19.05-1.73.38-1.79.7.22.22.43.43.6.49.22.11.38.22.54.38h.54-.43c.27.16.43.38.49.43.11.11.11.6.11,1.41v4.66c0,.38-.05.7-.22,1.14-.11.43-.22.6-.22.65,0,.11,0,.22-.05.22-.76.05-1.19.27-1.19.7s.16.27.54.43c.11.11.54.11,1.3.11s.27,0,.54,0h.54c.38,0,.65,0,.92.05.43-.11.6-.27.6-.54s-.22-.43-.7-.54-.7-.38-.7-.6,0-.16.05-.38c0-.11.05-.27.05-.43s0-.43-.05-.76c0-.38-.05-.6-.05-.7,0-.43,0-.92.05-1.73,0-.76.05-1.3.05-1.62v-.76c.97,1.14,1.79,1.95,2.27,2.49.16.22.6.6,1.25,1.19.54.49.87.87,1.19,1.19.05.11.22.22.38.43-.43-.6-.97-1.14-1.25-1.35-.43-.43-1.73-1.62-1.84-1.73h0l-.05-.11h0ZM202.3,46.28c0,.11.11.22.11.43,0,0,.05.11.16.22s.22.22.27.22c.22,0,.38-.16.38-.6-.16-.11-.38-.22-.54-.27-.11-.05-.22-.05-.43,0h.05ZM196.56,46.99c0,.22,0,.6.05,1.08v.27c.87-.38,1.9-.81,2.17-1.08v-.22c-.38-.16-1.41-.27-2.22-.43v.38h0ZM195.64,40.81c.05,0,.11.05.22.11.49.22.7.54.7.92v1.46c0,.16,0,.38-.05.6,0,.38-.05.54-.05.65.05.38.11.7.11,1.08s0,.38-.05.65h0c.6.22,1.41.38,2.11.49v-.22c0-.05,0-.16.05-.38s.05-.38.05-.38c.11-.11.27-.11.49-.11h1.57c.38,0,.7.11.97.38h.22c0,.05,0,.11.05.11.16-.05.43,0,.54,0,.22.05.43.11.54.16v-1.9c0-.43.05-.76.16-.97h-.05c-.27-.05-.54-.11-.87-.16-.05.11-.11.22-.11.38-.22.22-.38.43-.49.6-.27.16-.76.27-1.35.22h-1.62v-2.17c0-.38-.05-.7-.11-.87,0-.11.22-.22.6-.22.05-.05.81-.11,2.33-.11s.81.22,1.3.7c.49.43.7.7.81.7.11-.05.22-.11.38-.22.05-.05.11-.11.11-.22.11-.11.22-.6.22-1.35-.38-.22-.7-.54-1.08-.81h-7.15c-.6,0-.7.05-.87.22h0s-.05,0-.05-.11-.05-.11-.11-.11c-.38,0-.87,0-1.57.05-.7,0-1.19.05-1.52.05s-.54,0-.97-.05c-.43,0-.76-.05-1.08-.05h-3.57c-.43,0-.7.11-.81.27s-.22.54-.43,1.08-.22.87-.22,1.08,0,.43.11.81c.6,0,.97-.11,1.14-.43.22-.38.43-.7.65-1.08.54-.11.81-.22.97-.22h1.19c.11,0,.22.11.22.43v.54s0,.16.11.49c.05.27.11.49.11.6s0,.27-.11.54c-.05.22-.11.43-.11.6s0,.22.05.38c0,.16.05.38.05.43s0,.27-.05.54c0,.22-.05.43-.05.49s0,.16.05.38c0,.11.05.22.05.38v1.9c.38.11.6.11,1.14.27.16,0,.6.05,1.14,0v-4.5c0-.22,0-.6.05-.97,0-.43.05-.76.05-.97s0-.22-.05-.43c0-.16-.05-.27-.05-.38v-.11h.22v-.43h1.46c.43,0,.6.11.6.27v.38c0,.54.22.76.6.76h.11c0-.05.16-.05.16-.05.43-.22.65-.7.7-1.41v-.22h0l.11-.22.05-.32h0ZM204.79,47.75h-.22c-.11,0-.43.38-.87.92s-1.08.97-1.9,1.19h-.05c0,.05-1.41.05-1.41.05.11.43.22.7.27.97v.11s0,.05.05.11h2.55c.22,0,.6-.11,1.08-.38.54-1.3.81-2.17.81-2.55s-.11-.38-.43-.54h.11v.11h0ZM199.16,49.64c-.22-.16-.38-.76-.38-1.73v-.38c-.38,0-1.35.49-2.17.97v.7c-.05.27-.11.43-.22.49-.54.22-.92.43-1.25.54l-.22.38c.11.43.38.6.7.6h4.6c-.11-.43-.27-.87-.43-1.25-.38,0-.54-.11-.65-.22h0v-.11h0ZM168.51,50.24l.22.22c.43.49.7.7.87.7s.38,0,.54-.11v-.11c.05,0,.05-.38.05-.38-.54-.11-.92-.16-1.08-.16-.22,0-.43-.11-.6-.05h0v-.11ZM177.01,50.83c-.11,0-.38,0-.54.05h0c-.05,0-.11,0-.22.05.7.27,1.46.43,2.27.43s.81-.11,2.06-.38c-.6-.22-1.35-.54-1.62-.54s-1.46.38-1.95.38h0c0-.05,0,0,0,0h0ZM192.72,50.24c-.16,0-.38-.11-.54-.16-.11.11-.27.22-.43.38-.38.22-.76.38-.76.38v.43h1.14c.81,0,1.25-.22,1.25-.6s-.22-.27-.6-.38h-.05v-.05h0ZM170.84,39.73c-1.41,0-2.49,0-3.2.05-.11,0-.22,0-.38.11s-.16.22-.16.38.11.38.49.54c.22.05.49.11.7.22.43,0,.6.43.6,1.19v4.22c0,.43-.05.7-.16.76-.05-.05-.38-.27-.76-.65-.38-.27-.6-.54-.7-.76-.43-.54-.76-.97-1.08-1.25h0c-.6-.65-1.08-1.14-1.35-1.41,0,.38-.16,1.25,0,1.84.22.7.87,1.46,2.06,2.55s1.19,1.35,1.62,1.62c.22.11.97.38,1.73.6v-2.65c0-.16,0-.6.05-.97s.05-.76.05-.97v-2.27c0-1.25.16-1.9.54-1.95,0,0,.22-.05.6-.22.22-.11.43-.22.43-.49,0-.43-.38-.6-.97-.6h.11l-.16.16-.05-.05h0ZM183.02,41.79c-.27-.6-.43-.87-.43-.87.43.49,1.19,2.65,1.41,2.98s.54.7.81.92h.05c0-.11,0-.22-.05-.43-.05-.27-.11-.54-.11-.7s-.11-.54-.38-.92c-.22-.49-.38-.76-.54-.92-.54-.7-1.25-1.3-2.11-1.73s-1.73-.65-2.6-.65c-1.41,0-2.55.22-3.41.65s-1.73,1.25-2.49,2.33c-.11.22-.22.49-.38.65-.49.27-.7,1.08-.7,2.27s.6,2.98,1.84,4.17c.43.38.76.65,1.25.87.87-.11,1.52-.43,2.06-.87-.6-.22-1.14-.65-1.62-1.25-.43-.54-.7-.87-.76-1.25-.16-.65-.22-1.41-.22-2.27s.38-2.11,1.08-2.92,1.62-1.19,2.76-1.19.87.11,1.35.27.97.65,1.52,1.35.81,1.35.81,1.9v1.25s.05,0,.05.05h-.05v.97c0,.11-.11.43-.43.97-.22.49-.38.81-.49,1.08-.6.76-1.35,1.25-2.44,1.3.05.11.16.16.27.16s.38.11.6.22c.38.11.7.38,1.19.54h.11c.6-.43,1.14-.7,1.41-.92.43-.43.7-.7.87-.92.22-.27.49-.54.6-.7.54-.92.76-2,.76-3.09-.43-.27-.7-.54-.87-.65-.54-.38-.76-2.17-1.08-2.82h.22l.16.16h0ZM191.8,50.13c.11-.05.16-.11.27-.16-.11-.05-.16-.11-.22-.22h-.22c-.43-.11-1.57-.22-2.44-.22-.05.16-.11.38-.27.49-.43,0-.76.11-1.19.22h-.05c0,.11,0,.22.05.27,0,.27,0,.54.05.6s.27.11.6.11c-.11-.05.05-.05.7-.05s.16,0,.38.05h1.3c0-.22,0-.43-.05-.43-.11-.11-.22-.6-.22-.6l.38.38s.49,0,.87-.38h.11l-.05-.05h0Z"/>
    <path class="stContainer" d="M151.61,65.51h-.16c-.11,0-.43.27-.81.87s-1.08.97-1.84,1.14h-.05c0,.05-.81.05-.81.05-.92,0-1.46-.11-1.73-.27s-.38-.7-.38-1.62v-.43c0-.11,0-.22-.05-.49-.05-.22-.05-.43-.05-.49s0-.16.05-.38.05-.27.05-.38c.11-.11.27-.11.43-.11h1.52c.38,0,.65.11.92.27h.22l.38.76s.05.11.16.22c.11.11.22.22.27.22.22,0,.27-.16.27-.6v-2.11c0-.43.05-.76.16-.97-.16-.22-.43-.38-.6-.38h-.16c-.11.22-.22.43-.22.54-.22.22-.38.43-.43.54-.27.16-.7.22-1.35.22h-1.57v-2.06c0-.38,0-.65-.11-.87,0-.11.16-.16.6-.16.05-.05.76-.11,2.27-.11s.76.22,1.25.65c.43.43.7.65.76.65.11-.05.22-.11.27-.16-.27-.27-.7-.6-1.08-.92-.54-.49-.97-.87-1.25-1.08-.11-.05-.22-.11-.38-.22h-1.57c-.05,0-.16.05-.27.11-.27.11-.65.22-.97.27-.6.11-1.62,1.46-1.79,1.41v1.62c0,.16,0,.38-.05.6,0,.38-.05.54-.05.6.05.38.11.65.11.97s0,.38-.05.6c0,.27-.05.54-.05.65,0,.22,0,.6.05,1.08,0,.49.05.81.05,1.08v.11c-.05.27-.11.43-.22.43-.54.22-.87.43-1.19.49l-.22.38c.11.43.38.6.65.6h7.37c.22,0,.6-.11,1.08-.38.54-1.25.76-2.06.76-2.49s-.11-.38-.43-.54h.22-.05l.11.11h0ZM130.92,60.26c-.38-.54-.65-.81-.76-.92-.38-.22-.6-.43-.81-.54-.76-.54-1.41-.76-1.9-.87-.49-.05-1.35-.05-2.6-.05s-.65,0-1.19.05c-.54,0-.87.05-1.19.05h-.49c-.22.6-.43,1.19-.6,1.62v1.08c0,.11,0,.43.05.7,0,.38.05.6.05.76v1.19c-.11.11-.11.54-.11,1.25s0,.22.05.43c0,.16.05.38.05.43,0,1.08-.05,1.73-.22,2v.11c-.11,0-.22,0-.49.11-.16.05-.38.11-.43.11h0c-.05,0-.11-.05-.22-.11-.43-.22-.76-.54-.97-.76-.27-.38-.81-1.73-1.57-4.17-.22-.65-.49-1.14-.65-1.41-.11-.54-.22-.97-.22-1.25-.43-.97-.7-1.62-.92-2.17-.38-.97-.65-1.73-.76-2.22l-.7-1.52c-.05-.38-.11-.6-.11-.76-.11-.38-.22-.6-.27-.76,0-.11-.11-.38-.27-.6-.11-.22-.22-.43-.22-.6v-1.79c0-.16-.11-.38-.49-.38s-.92.27-1.9.97c-.05.11-.11.22-.11.38v.16c-.38.7-.6,1.41-.76,2.06-.05.16-.22.54-.54,1.08-.22.43-.43.76-.49,1.08-.43,1.46-.97,3.2-1.73,5.04-.43,1.08-.76,1.84-.97,2.33-.87,2.55-1.35,3.95-1.52,4.22-.27.54-.7.81-1.25.97-.11.11-.38.27-.65.54-.05.11-.11.22-.11.38,0,.22.11.38.27.38s.54,0,1.08.05h.97c.22,0,.38,0,.65-.05.27,0,.49-.05.6-.05.22,0,.6,0,1.08.05.49,0,.76.05.97.05.38,0,.54-.11.54-.49s-.22-.49-.7-.7c-.38-.11-.7-.22-1.08-.38-.27-.43-.43-.76-.43-1.08s0-.22.05-.43l.11-.43c.38-1.84.7-2.92,1.25-3.36h1.73c-.11-.6-.27-1.19-.43-1.57h-.76c.16-.49.38-1.08.65-1.79.05-.22.16-.54.27-.76h0c.11-.43.22-.81.38-1.25.11-.6.16-.81.16-.87v.27c0-.11.05-.22.11-.38.38-1.14.6-1.73.76-1.84,0,0,0,.05.05.11.22.11.43.54.65,1.25.11.54.22.97.43,1.52.38.7.6,1.3.76,1.62.22.7.49,1.35.7,1.9-.22.11-.7.16-1.25.16h-2.65c.05.27.22.87.43,1.57h2.98s.38.11,1.08.27h.05v.16c.38.76.54,1.41.7,1.84.11.43.38.76.49,1.19.22.54.38.92.38,1.19s0,.05,0,.11,0,.11-.05.11c0,.16-.11.38-.27.54,0,.05-.38.16-.87.38-.38.11-.6.22-.7.43.38.22.7.49,1.08.7h3.57l-.76-.76c-.43-.49.11-3.36.11-3.52,0,.11,0,2.44.05,2.98,0,.27.43.76.87,1.25h5.69c-.92-.87-1.84-1.79-1.9-1.9.11.11.81.7,1.73,1.46.11.11.38.27.54.43h.05c1.3,0,2.33-.16,3.2-.54-.11-.49-.27-.97-.43-1.52-.22.16-.49.38-.7.54-1.35.22-2.11.38-2.22.38-.87,0-1.35-.54-1.35-1.46s0-.22,0-.49v-3.41c0-.22,0-.6.05-.97,0-.49.05-.76.05-1.08,0-.54,0-.76.11-.87s.43-.16.87-.16c1.14,0,1.9.11,2.22.27.49.22.76.43.92.54s.43.43.7.81c.16.22.38.38.43.49.11.38.22.87.38,1.62,0,.05,0,.11.05.22s.05.22.05.27l-.22.97c-.11.54-.22.97-.27,1.25-.11.27-.43.54-.65.81.16.76.38,1.41.54,1.57h.05c.11-.05.22-.11.27-.22.22-.49.54-1.41.7-2.06-.11.6-.38,1.3-.49,1.95.05,0,.22-.11.38-.11.22-.05.38-.11.49-.22.22-.27.38-.49.43-.6.54-.7.76-1.35.92-1.9.11-.65.22-1.08.22-1.25,0-.87-.11-1.62-.38-2.27-.05-.11-.27-.43-.65-.92l.11-.22h0v-.16l-.05.05h0ZM156.38,67.79c-.11.27-.16.54-.22.7h0v.22h.22c.43-.11.6-.27.6-.54s-.22-.38-.6-.54h0v.16ZM133.85,57.87c-1.08.05-1.62.11-1.73.11-.16.11-.22.22-.22.43s.11.16.43.38l.16.16c.49-.38,1.08-.81,1.35-1.08h0ZM142.46,58.96c-.22-.11-.43-.38-.65-.6s-.43-.38-.6-.54h-.43c-.27,0-.54-.05-.6-.05-.6,0-.87.16-.87.54s.16.38.54.43.54.27.54.65-.22.97-.65,2c-.6,1.35-.87,2.06-.87,2.06-.27.87-.54,1.46-.65,1.9-.6-1.08-.87-1.79-.92-2.06s-.11-.49-.16-.6c-.11-.16-.22-.27-.27-.38-.16-.22-.38-.6-.49-1.08s-.27-.76-.43-.97c-.38-.6-.6-.92-.6-.97.11-.27.22-.49.38-.54.27-.11.49-.16.6-.27,0-.22-.11-.43-.27-.54,0-.05-.11-.16-.22-.27h-.6c-.22.05-.43.11-.54.11-.38,0-1.3.7-2,1.19.11.11.22.22.38.27.11.22.22.54.38.97.11.43.27.76.43.97.38.54.54.87.7,1.19.11.38.22.65.22.81.22.43.43.7.54.87.16.49.38.76.49.97.22.54.38.87.43,1.19.22.43.43.7.54.92.22.6.38,1.08.49,1.35.11.22.43.38.7.43.27-.11.54-.38.65-.7.11-.38.22-.6.38-.92-.76-1.35-1.52-2.65-1.62-2.76h0c.05.11,1.08,1.35,1.84,2.27.22-.54.43-.92.6-1.25.22-.54.38-.92.43-1.25.11-.16.16-.38.22-.43.16-.81.43-1.46.65-1.9.54-1.19.87-2,1.14-2.6.05-.16.22-.38.54-.6h-.05l-.32.16h0ZM163.09,60.91l-.22,1.62c0-.22.11-1.35.11-1.62s0-.76-.11-.87l-.22-.43c0,.16.05.43.05.65v4.12c0,.43-.05.65-.16.76-.05-.05-.38-.27-.7-.65-.38-.27-.6-.54-.7-.7-.43-.54-.76-.92-.97-1.19h0c-.6-.65-1.08-1.08-1.35-1.35-.38-.43-.6-.7-.76-.87-.27-.22-.49-.43-.65-.54-.6-.7-.92-1.19-1.14-1.35-.05,0-.22-.11-.49-.38s-.43-.27-.54-.27c-1.73,0-2.55.22-2.55.7.22.22.43.43.54.49.65.43.97.65,1.08.76s.11.6.11,1.35v4.55c0,.38-.05.7-.16,1.08-.11.43-.16.6-.16.6,0,.11,0,.16-.05.22-.76.05-1.19.27-1.19.65s.16.27.54.43c.11.11.54.11,1.25.11s.27,0,.54,0h.49c.11-.22.38-.65.6-1.08-.22-.11-.43-.27-.43-.49s0-.16.05-.38c0-.11.05-.27.05-.38,0-.16,0-.43-.05-.7,0-.38-.05-.54-.05-.7,0-.38,0-.87.05-1.62,0-.7.05-1.25.05-1.62v-.76c.97,1.08,1.73,1.9,2.22,2.44.16.22.6.6,1.19,1.14.54.43.87.81,1.14,1.19.11.11.22.27.54.54,1.19-.7,2.6-1.41,3.2-1.79v-.49c.05-.43.05-.76.05-.97v-.6c-.38-.6-.97-1.52-.97-1.52v.11h-.05v-.11l-.16-.05h0ZM163.9,64.97v-.49c-.6.43-1.95,1.35-2.92,1.95.38.27.54.54.65.76,0,0,.27.38.76.87.43.43.7.65.81.65h0c.05-.05.11-.11.11-.22s.05-.11.05-.16c.11-.54.22-1.52.43-2.55h0v-.81h.11ZM164.5,57.82h-2.27c.38.6,1.14,2.11,1.84,2.92,0-1.08.16-1.73.54-1.79,0,0,.22-.05.6-.16.22-.11.43-.22.43-.43,0-.38-.38-.54-.97-.54h-.16ZM163.63,68.71s.11,0,.11-.05v-.11c.05,0,.05-.05.05-.05,0,.05-.05.11-.11.11,0,0-.05.05-.11.11h.05ZM197.92,60.91h0c0-1.3-.7-2.17-2.11-2.65h0c.11.65,1.19,1.73,2.11,2.65h0ZM224.83,60.42c.11-.22.38-.43.54-.6.11-.05.22-.11.38-.27.7-.49,1.73-.7,3.09-.7s.49,0,.7.11c.7.22,1.14.6,1.3.92.43.76.65,1.19.7,1.3.11.11.22.16.43.16.43,0,.6-.16.6-.6v-1.95c0-.22-.11-.38-.16-.38l-.11-.11c-.05,0-.11,0-.11-.05-.49-.38-.87-.54-1.25-.54-.11.11-.22.11-.22.16l-1.62-.38h-.81c-.11,0-.54,0-1.08.11-.81.11-1.52.38-2,.6s-.43.22-.65.43c.11.38.16.7.27,1.08,0,.16.11.43.27.65h0c0-.05-.16,0-.16,0l-.11.05h0ZM180.8,58.85c.49-.11.76-.22.87-.38v-.22c0-.22-.43-.38-1.3-.38.05.38.11.7.16.97.05,0,.11-.05.22-.05h0l.05.05h0ZM144.68,58.04c.27-.11.7-.22,1.19-.22h-2.55c-.54,0-.38,0-.49,0h-.11c-.11,0-.38,0-.6.05h-.05c.38.22,1.35.87,1.62.87s.49-.38,1.14-.65h-.16v-.05h0ZM121.01,59.12c.16,0,.38.16.43.38.11-.54.22-1.14.38-1.52h-.11c-.43,0-.7-.05-.87-.05-.54,0-.76.22-.76.6.11.11.16.22.22.38.05.11.38.16.76.27h0l-.05-.05h0ZM161.41,58.85c.22.05.43.11.65.22.11,0,.22,0,.38.11-.22-.49-.54-1.08-.76-1.41h-.22c-.11,0-.22,0-.38.11s-.16.22-.16.38.11.38.49.54h.05l-.05.05h0ZM150.96,59.88c.11-.16.22-.7.22-1.57s-.11-.16-.43-.38c-.22-.11-.43-.22-.54-.22h-1.46c.76.76,1.57,1.62,2.11,2.22,0,0,.05-.11.05-.16h0v.11h.05ZM220.17,57.82h-2c.16.27.43.54.54.7-.11-.11-.43-.43-.6-.7h-.92c-.11,0-.22,0-.38.11s-.16.22-.16.38.11.27.38.43c.49.16.87.27,1.25.38h-.27c.38.05.49.49.49,1.14v2.06c.11.22.22.49.27.54,0-.05-.11-.22-.27-.43v1.95c0,.43-.05.65-.16.76-.05-.05-.38-.27-.7-.65-.38-.27-.6-.54-.7-.7-.43-.54-.76-.92-.97-1.19h0c-.38-.43-.65-.7-.87-.92-.11.38-.22.7-.38,1.08-.11.43-.27.76-.43,1.19.16.16.43.43.76.7.54.43.87.81,1.14,1.19.11.11.27.38.54.54l2.87-.38h0c-.11,0-1.25.38-2.49.7.22.22.43.43.49.6,0,0,.27.38.76.87.43.43.7.65.87.65s.38,0,.54-.11v-.11c.05-.22.05-.54.11-.92,0-.43.05-.7.05-.92v-1.62c0-.16,0-.54.05-.97s.05-.76.05-.97v-2.17c0-1.19.16-1.84.54-1.9,0,0,.22-.05.6-.16.22-.11.43-.22.43-.43,0-.38-.38-.54-.97-.54v.11h-.27l-.16-.27h0ZM202.09,68.76h.7c-.38-.05-.76-.11-1.19-.22.05.11.22.22.43.22h.05,0ZM206.58,67.79c-.6-.16-.87-.38-.92-.49,0-.11-.05-.7-.05-1.57s0-.49,0-.81v-2.87c0-.22,0-.6.05-1.08,0-.49.05-.76.05-.97v-.81c0-.11.11-.16.27-.16s.54-.05.76-.16.43-.22.43-.49v-.38c-.22-.16-.43-.22-.54-.22h-1.46c-.38.05-.65.05-.81.05h-1.52c-.16,0-.38.05-.6.16s-.38.22-.38.43.16.38.6.54c.27.05.6.11.87.16.11.05.22.38.22.7v2c0-.05,0,.05-.05.43-.05.11-.05.54-.05,1.19s0,.11.05.27.05.22.05.27c0,.22,0,.6-.05,1.08s-.05.87-.05,1.19,0,.11.05.27.05.22.05.27c0,.16-.05.43-.22.7,0,0-.43.11-.97.27-.43.11-.6.27-.65.49,1.08.11,2.17.22,2.98.38-.22-.81-.43-1.52-.54-1.84-.22-.54.65-2.22.76-2.92.11-.65.16-.92.22-.92.05.6-.6,2.82-.6,3.3s0,.87.11,1.25c0,.11.16.54.38,1.19h.38c.76.11,1.35.11,1.84,0,.05,0,.11-.05.16-.11v-.11c.05-.22-.11-.43-.65-.6h-.16v-.11h0ZM199.7,67.79c-.43-.16-.7-.22-.76-.27-.16-.22-.22-.38-.27-.49-.22-.22-.43-.38-.54-.43-.38-.43-.6-.7-.76-.92-.6-.6-.87-.87-.97-.92-.49-.38-.76-.6-.97-.76.22,0,.43-.05.54-.16s.22-.16.38-.22c.11-.05.22-.11.38-.11.22-.16.43-.38.49-.49.54-.54.76-1.08.81-1.73-.11-.11-.22-.22-.43-.38-.87-.76-1.9-2-2.11-2.17h0c-.11-.05-.38.43-.54.87.16.11.43.38.65.65.05.43.11.76.11.97.05.22.11.27.11.27h0c0,.43-.11.7-.6,1.08-.43.27-.81.49-1.25.49s-.87,0-1.35-.11c0-.11-.05-.54-.05-1.19s0-.49-.05-.76c0-.27-.05-.49-.05-.6v-.54c0-.27,0-.49.11-.6.22-.11.49-.11.7-.11.54,0,.97.11,1.25.27.05,0,.11.05.16.11.05-.43.11-.81.22-1.25v-.11c-.65-.11-1.08-.22-1.14-.22h-4.01c.7,1.57,1.46,3.14,1.46,3.14,0,0-.6-.54-1.08-1.14.05.22.05.43.05.7v4.33c.38.22.76.49,1.19.7.38.16.6.38.92.54v-.6c0-.43.05-.7.05-.87s0-.11-.05-.16v-.38s0-.05.05-.05h.49c.6.76,1.08,1.3,1.41,1.57.27.38.49.65.6.87.54.49.97.76,1.25.97.6.11.97.22,1.3.22s1.35.11,2.49.22c-.05-.11-.22-.22-.49-.27h0l.38-.11-.05.11h0ZM197.43,68.16h-.49c.54.43,1.08.6,1.57.6s.6,0,.87-.11c.27-.05.54-.16.6-.27-.92-.11-1.84-.16-2.27-.22h-.38.11,0ZM192.61,67.03c0-.11-.05-.22-.11-.38-.6-.27-1.41-.65-2.17-.97h0c0,1.14-.11,1.73-.38,1.95-.05,0-.27.11-.7.22-.38.11-.54.22-.54.43s.05.16.16.38c.49.11.76.16.76.16h3.52l.38-.16c.16-.11.27-.16.43-.27h0c-.54-.54-.97-.97-1.41-1.3h.05v-.05ZM233.12,63.89c-.11-.11-.22-.16-.38-.16h-3.85c-.43.22-.65.43-.65.49l.16.43c.6.27,1.14.43,1.46.54.16.22.22.54.22.7v.87c0,.38-.22.6-.6.76s-.27.11-.43.11v.38s0-.11-.11-.38c-.16,0-.38.05-.54.05-1.84,0-3.09-.54-3.85-1.62-.05-.05-.11-.43-.38-.97-.11-.6-.22-.97-.22-1.08v-.7c-.05-.16-.05-.22-.05-.22,0,0,0-.05.11-.27.11-.54.22-1.08.38-1.57v-.11c-.38-.6-.6-1.3-.76-1.95-.16.16-.43.38-.6.54-.54.49-.76.76-.87.97l-.11.43c-.11.22-.16.38-.22.43-.22.6-.38,1.25-.38,2,0,1.84.7,3.25,2.17,4.22,1.25.87,2.82,1.3,4.71,1.3s1.25-.11,2.06-.38c.97-.22,1.52-.6,1.52-.97.22-.22.43-.49.43-.65,0-1.14,0-1.73.05-1.9,0-.05.11-.16.38-.38s.38-.38.43-.54c0-.11-.05-.22-.16-.38v-.11h0v.16l.05-.05h0ZM212.97,59.77c-.6-.7-.92-1.19-1.14-1.35-.05,0-.22-.11-.49-.38-.22-.16-.43-.27-.54-.27-1.73,0-2.55.22-2.55.7.22.22.43.43.54.49.65.43.97.65,1.08.76s.11.6.11,1.35v4.55c0,.38-.05.7-.16,1.08-.11.43-.16.6-.16.6,0,.11,0,.16-.05.22-.76.05-1.19.27-1.19.65.38-.11.7-.27,1.19-.43.76-.22,1.35-.49,1.84-.6,0-.05,0-.16.05-.38,0-.11.05-.27.05-.38,0-.16,0-.43-.05-.7,0-.38-.05-.54-.05-.7,0-.38,0-.87.05-1.62,0-.7.05-1.25.05-1.62v-.76c.87.97,1.62,1.79,2.11,2.27.22-.87.38-1.79.38-2.76-.05-.11-.11-.16-.22-.22-.27-.22-.49-.43-.65-.54h-.16l-.05.05h0ZM212.38,67.95c-.7.22-1.52.54-2.27.81h1.08c.38,0,.65,0,.87.05.43-.11.6-.27.6-.54s-.11-.22-.22-.38h0l-.05.05h0ZM185.4,65.35c-.38,1.57-1.19,2.33-2.49,2.33s-2-.43-2.44-1.25c-.11-.43-.16-.7-.16-.87l-.11-.11c0-.11-.05-.38-.05-.65s0-.38.05-.54c0-.22.05-.43.05-.54v-.81c-.27.11-1.35.6-2.17.87v.43c0,.38-.05.6-.05.76s.11.7.27,1.41.38,1.08.43,1.19c.22.43.7.76,1.46,1.08.7.27,1.3.43,1.84.43,1.46,0,2.6-.38,3.3-.97.38-.22.54-.49.7-.6.38-.43.6-1.19.76-2.11h-1.46.05v-.05ZM173.11,67.89c-.49-.11-.81-.38-1.08-.65v-.81h-.65c-.38.11-.6.49-.7.87-.11.49-.22.7-.22.87v.54h2.06c.76,0,1.19-.16,1.19-.6s-.22-.27-.6-.38h0v.16h0ZM175.6,57.82c0-.11-.05-.11-.11-.11-.38,0-.87,0-1.52.05-.65,0-1.19.05-1.46.05s0,0,0,0c-.43.54-.81,1.14-1.25,1.62-.6.76-1.08,1.52-1.35,2.11h0c-.05.22-.11.43-.11.54s0,.16.05.38c0,.16.05.27.05.43s0,.27-.05.49c0,.22-.05.38-.05.49s0,.16.05.38v.22c.11.22.22.54.38.65.11.38.11.49.38.6s.6.11.92.22h.05c.11,0,.38.05.54.11v-3.68c0-.22,0-.54.05-.97,0-.43.05-.7.05-.92s0-.22-.05-.43c0-.16-.05-.27-.05-.38v-.11h.22v-.43h1.41c.38,0,.6.11.6.27v.27c0,.49.22.7.6.7h.11c0-.05.16-.05.16-.05.49-.22.7-.76.7-1.57s-.11-.54-.27-.65c0,0-.05,0-.05-.11h0v-.16h0ZM170.29,67.68c.11-.6.38-1.08.22-1.35-.05-.22-.38-.6-.6-.92v.43c0,.92-.11,1.52-.49,1.9-.38,0-.76.11-1.14.22h-.05c0,.11,0,.22.05.27,0,.27,0,.49.05.54s.22.11.6.11c-.11-.05.05-.05.7-.05s.16,0,.38.05h.22c.11-.38-.11-.6,0-1.14h0l.05-.05h0ZM189.25,57.98h-.05c-.22.11-.43.38-.43.54.54.22.87.43,1.08.6-.11-.27-.38-.7-.54-1.19h-.05v.05h0ZM187.03,57.82h-2.76c-.38.16-.54.38-.54.54s.11.27.38.43.43.16.6.16c.54,0,.76.38.76.97v3.3c0,.6,0,1.19-.11,1.62h1.35v-2.76c0-1.57,0-.38,0-.54v-1.9c0-.43.22-.7.65-.87.43-.11.65-.27.65-.49s-.43-.43-1.25-.43h.11l.16-.11v.05h0ZM169.54,59.12c.11,0,.22.11.22.43v.54s0,.11.05.43c.6-.7,1.46-1.84,2.06-2.65h-.43c-.43,0-.76-.05-.97-.05h-3.47c-.43,0-.7.11-.81.27s-.22.54-.38.97-.16.81-.16.97,0,.43.11.76c.6,0,.92-.11,1.08-.43.22-.38.43-.7.6-1.08.54-.11.76-.22.92-.22h1.14c0-.05.05,0,.05,0v.05h0ZM177.98,60.2v.43c.49-.54,1.19-.7,1.19-.7,0,0-.87.49-1.19.87v1.52c0,.11,0,.27.05.54,0,.22.05.43.05.54s0,0,0,0c.38-.11.7-.22.92-.22.49-.11.97-.22,1.19-.38v-.49c0-.6-.05-.97-.05-1.25s0-.38.05-.6c0-.22.05-.49.05-.6v-.54c0-.22.11-.43.27-.54-.05-.22-.16-.65-.27-1.08-1.79,0-2.82,0-3.2-.05-.43.16-.6.43-.6.6s.22.27.76.43.76.43.76.97v.38h-.05v.11l.05.05h0Z"/>
  </g>
</svg>