<?xml version="1.0" encoding="UTF-8"?>
<svg id="Capa_1" xmlns="http://www.w3.org/2000/svg" version="1.1" viewBox="0 0 144.59 121.88">
  <!-- Generator: Adobe Illustrator 30.2.1, SVG Export Plug-In . SVG Version: 2.1.1 Build 1)  -->
  <defs>
    <style>
      .st0 {
        fill: #00496d;
      }
    </style>
  </defs>
  <path class="st0" d="M138.41,42.57c.69,1.11.69,2.74,0,3.86-.34.69-1.11.77-1.71,1.11-.09,0,0,.34-.09.6h.6c.43-.17.86-.94,1.2-.77,1.11.69.6,2.57,0,3.69-.43.86-1.46,1.2-1.37,2.31.26,0,.6-.17.69-.34.17-.17.26-.94.69-.86,2.14.77,0,4.54,0,6.77-.6-.43-1.11-.94-1.71-1.29s-.69-.17-.77.09c.86.94,1.97,1.54,2.4,2.74,1.89,4.63,1.71,8.32,0,15.09-.17.69-1.11.94-.94,1.8.17,1.11-.09,1.89-.86,2.57-.26.26-.6.77-.6,1.11.09,1.2-.34,2.06-1.2,2.83-.43.34-.69.86-.6,1.37.17.86-.09,1.37-.86,1.97-.34.34-.86.86-.94,1.29-.17.86-.69,1.37-1.29,1.89-.43.34-.94.86-1.11,1.37-.6,1.37-1.37,2.4-2.57,3.26-.43.34-1.03.86-1.2,1.29-.43,1.2-1.29,2.06-2.4,2.57s-1.54,1.11-1.89,2.14-1.03,1.54-2.06,1.71c-1.2.17-2.14.86-2.74,1.89-.69,1.11-1.54,1.71-2.92,1.71s-1.89.69-2.4,1.37c-.17.26-.34.69-.69.94-.6.69-1.2,1.11-2.06.94-1.2-.26-2.06.17-2.83,1.03-.26.26-.6.6-.86.94-.69.69-1.37.94-2.23.77-1.2-.26-2.23.17-3,1.11-.6.69-1.37.94-2.23.77-.94-.17-1.71,0-2.23.69-.94.86-1.97,1.11-3.17.69-1.03-.34-1.89-.09-2.74.6-.86.86-1.89.94-3,.6-.94-.34-1.89-.26-2.57.34-.86.69-1.71.77-2.57.34-.69-.17-1.2-.17-1.89.09-.69.34-1.46.6-2.23.09-.86-.34-1.54-.26-2.31.17s-1.46.6-2.23,0c-.69-.43-1.2-.6-1.89-.17-.77.26-1.46.26-2.23-.09-.6-.34-1.2-.34-1.89-.09-.86.34-1.54.17-2.23-.43-.77-.69-1.54-.86-2.4-.34-1.03.34-1.97.34-2.92-.6s-1.2-.77-2.06-.43c-1.46.6-2.74.26-3.69-1.03-.34-.6-.86-.69-1.46-.43-1.2.43-2.23.09-3.09-.86-.69-.77-1.37-.94-2.31-.77-1.03.26-1.89-.09-2.49-.94-.94-1.2-2.14-1.97-3.94-1.54-1.2.34-2.23-.09-2.74-1.29-.69-1.71-1.89-2.23-3.6-2.31-.6,0-1.2-.17-1.46-.6-.69-.94-1.54-1.71-2.4-2.4-.34-.26-.6-.43-1.03-.34-1.2.17-1.97-.34-2.14-1.54-.09-.94-.6-1.37-1.2-1.89-.43-.26-.94-.69-1.37-.86-.69-.34-1.2-.86-1.37-1.54-.17-.94-.77-1.37-1.54-1.8-1.11-.43-1.89-1.29-2.14-2.49-.17-.86-.69-1.29-1.37-1.54s-1.2-.86-1.46-1.54c-.17-.6-.26-1.03-.34-1.54-.09-.86-.43-1.37-1.11-1.97-.69-.43-1.03-1.11-1.11-1.97,0-.69-.34-1.11-.86-1.46-.6-.34-.94-.94-.86-1.54,0-.77-.17-1.37-.77-1.89-.69-.69-.94-1.37-.69-2.31.17-.69,0-1.2-.6-1.71-.6-.6-.86-1.2-.69-1.97.26-.86,0-1.54-.6-2.14s-.86-1.46-.43-2.4c.34-.86,0-1.46-.86-1.89-.17,0-.26-.34-.43-.6.17-.17.43-.34.69-.43.17,0,.43.09.69.17.6.09,1.11.17,1.71.34,0,0,0-.09.09-.17-.26-.17-.6-.43-.86-.69-.77-.43-1.54-.86-2.23-1.2-.17-.09-.17-.43-.34-.69.17-.09.6-.26.77-.34.17,0,.34.09.6.17.94.6,1.8,1.11,2.74,1.71.34.17.77.6,1.2.94,0-.26,0-.43-.09-.6-.6-.94-1.2-1.71-2.23-1.97-.17,0-.6-.09-.69-.26-.43-.6-.86-1.11-1.2-1.71-.17-.26-.34-.69,0-.94.34-.34.69-.09.94.17.34.34.69.86,1.03,1.2.34-.34.43-.34.17-.94-.26-.69-.69-1.2-.94-1.97-.09-.26-.09-.77,0-.94.26-.34.69,0,.86.17.43.69.86,1.37,1.2,2.14.09.17.17.43.34.69h.17c0-.17,0-.34.09-.69,0-.6.09-1.03.26-1.46,0-.17.34-.26.6-.43.17.17.34.34.43.6v1.71c0,.17.09.34.17.6.09-.09.26-.17.34-.34.17-.43.34-.94.6-1.37.17-.17.6-.34.86-.6,0,.26.26.69.17.94,0,.34-.26.86-.34,1.2v.69c.17-.09.43-.17.6-.34.43-.6.86-1.11,1.29-1.46.34-.34.43-.6,0-.86-.77-.43-1.46-.94-2.23-1.46l-.17.17c-1.54.94-3,.86-4.29-.17-.6-.34-.69-1.2-1.11-1.54-.6-.34-1.29-.26-1.89-.69-1.71-.94-2.31-2.57-2.23-4.46,0-1.8.77-3.26,2.4-4.2.17-.09.43-.26.6-.6.6-1.89,1.71-2.83,3.6-2.92.17,0,.43-.17.6-.34.34-.86.26-1.71-.34-2.23-.43-.43-.94-.86-1.37-1.2-.26-.26-.94-.26-.77-.94s.86-.34,1.2-.34h.09c1.03.26,1.71.94,2.23,1.8.09.17.34.17.6.34,0-.17.17-.43.17-.69,0-.34-.17-.69-.34-.94-.6-.69-1.2-1.2-1.89-1.8-.26-.17-.6-.43-.26-.86.17-.34.6-.26.94-.09.17.09.6.17.86.34,0-1.2-.86-1.37-1.54-1.89.26-.69.6-.86,1.2-.6.86.34,1.46.94,1.89,1.89,0,.09.17.17.34.34.09-.17.34-.26.34-.43s0-.43-.09-.69c-.34-1.11-1.11-1.8-2.23-2.23-.34-.17-.86-.34-1.37-.6.26-.6.43-1.11.86-1.54.77-1.03,1.54-2.06,3-2.23.09,0,.17-.17.34-.34l-.34-.34c-.17-.09-.6-.17-.77-.34s-.34-.6-.26-.77c.09-.34.43-.6.86-.26.17.09.43.26.69.34h.43v-.6c-.17-.26-.6-.6-.77-.86-.09-.17-.17-.43,0-.69.09-.17.34-.26.6-.17.26,0,.43.26.77.43s.77.34,1.11.69c0,0,.09-.09.09-.17-.17-.6-.6-1.11-.77-1.71,0-.17.09-.6.17-.86.26.09.6.09.86.26.17.09.26.34.34.6.17.26.34.6.69.86h.26v-1.89c0-.26.34-.69.6-.69.34-.09.6.26.69.69,0,.34,0,.77.09,1.11,0,.17.17.34.17.6.09-.09.26-.17.34-.34.17-.34.34-.86.77-1.2.09-.17.6-.17.69-.09.17,0,.26.34.17.69,0,.26-.17.6-.26.86s-.17.69-.26.94c0,0,.09,0,.17.09l1.2-1.2c.34-.34.6-.43.94-.09.26.34.17.69,0,1.03-.17.26-.43.6-.86,1.03.26,0,.34,0,.43-.09,1.8-.6,3.43,0,4.37,1.37.17.34.43.43.86.26s.34-.43.26-.86c-.34-1.2-1.46-2.06-2.92-2.14-.6,0-.94-.17-1.11-.86-.09-.34-.34-.77-.6-1.11-.86-1.2-2.14-1.8-3.6-1.97.17-.34.34-.69.43-.94.86-1.54,2.06-2.31,3.86-2.23.94,0,1.89.34,2.57,1.03.17.09.43.09.69.17v-.69c-.09-.26-.34-.43-.69-.69-.86-.77-1.89-1.03-3-1.11-.17,0-.6-.17-.6-.26,0-.17,0-.6.17-.69.17-.17.6-.17.77-.26h.86v-.17c-.17-.17-.43-.34-.77-.6-.34-.17-.69-.6-.34-.94s.77-.34,1.11-.17c.26.17.6.34.86.6.09-.69-.69-1.37.17-1.89.69-.34.86.43,1.2.86.17-.17.34-.34.69-.6.17-.17.6-.43.69-.34.77.6,1.11-.26,1.71-.34.43-.09.94-.17,1.46,0,.34.09.86.34,1.11.69.69-.17,1.29-.34,1.89-.6.17,0,.34-.17.6-.26-.17-.09-.34-.34-.6-.34-.86-.34-1.8-.69-2.57-1.11-.34-.17-.6-.69-.77-.94.34-.09.86-.26,1.2-.26.86.09,1.54.34,2.4.6-.17-.26-.43-.6-.69-.86-.6-.69-1.03-1.37-1.54-2.06-.17-.17-.09-.6-.17-.94.26,0,.69,0,.94.09,1.2.6,2.14,1.54,2.92,2.57.17.17.26.34.43.6.09-.17,0-.34,0-.6-.34-1.2-.86-2.49-1.2-3.69-.09-.26,0-.69.09-1.03.34.09.77.17.94.43.6.86.94,1.71,1.37,2.57.17.26.17.6.34,1.03.34-.43.6-.86.86-1.11.69-.69,1.2-1.37,1.89-1.97.17-.17.6-.09.77-.17,0,.26.09.6,0,.86-.34.86-.86,1.54-1.2,2.4-.09.17-.17.34-.17.43.86-.34,1.54-.77,2.4-1.11.17,0,.6,0,.86.09,0,.17,0,.6-.17.77-.34.34-.86.86-1.2,1.11,1.71-.69,3.34-.94,4.97.43,0-.86.17-1.37.94-1.2,0-.34,0-.94.26-1.11.17-.17.77-.17,1.11-.17-.26-.69-.17-1.11.34-1.11s1.11,0,1.71.09c0-.34,0-.94.69-1.03.86-.17.86.6,1.11,1.11.17-.34.34-.6.6-.86.17-.34.6-.43.94-.26s.34.34.26.77v.86c.34-.34.6-.77.86-.94.17-.09.69-.09.94,0,.34.09.17.34.17.69s-.17.43-.17.69c.34-.09.69-.34,1.03-.43.17,0,.6,0,.86.09s0,.43,0,.69-.17.43-.17.69c.69-.17,1.2-.26,1.89-.43l.17.17c-.17.43-.34.94-.6,1.54.26-.09.69-.17.94-.34.26-.17.6-.34.94-.6.17,0,.6,0,.69.09s.09.43,0,.69c-.17.43-.34.94-.69,1.37l.17.17c.69-.17,1.2-.43,1.89-.69.34-.17.6,0,.77.34s0,.6-.26.69c-.17,0-.26.17-.69.6.69.09,1.11.17,1.54.26,0,.34-.17.86-.26,1.46.43-.17.94-.34,1.37-.43.26,0,.69.09.94.17-.17.17-.26.6-.43.77-.17.17-.34.34-.6.43h1.2c.34,0,.6.09.69.17,0,.17,0,.43-.17.69,0,.17-.17.26-.34.34.6,0,.94-.17,1.29-.34.43-.09.86.17.69.69-.09.26-.26.6-.43.94.34-.17.69-.34.94-.34.34-.09.94-.26,1.2-.09.34.26.09.77-.09,1.11v.17c.34-.09.69-.17.94-.17h.94c.34,0,.77.17,1.2.34-.09-.26-.17-.34-.17-.43v-1.03h1.03c.17,0,.26.09.43.17,0-.17-.17-.26-.17-.34,0-.17-.17-.6,0-.77.09-.17.43-.17.69-.17s.34.09.6.09h.77c-.34-.43-.69-.86-.94-1.2,0,0,.09-.17.17-.17.77.09,1.54.17,2.23.26,0-.09.17-.17.17-.26-.34-.17-.69-.34-.94-.69-.17-.09-.34-.6-.26-.6.17-.17.43-.34.77-.34s.6.17.77.17c.26.09.69.17.94.34-.17-.34-.26-.69-.6-.94-.17-.34-.34-.77,0-.94.17-.17.69,0,.94,0,.34.09.6.34.86.69,0-.34-.09-.69-.17-.94-.17-.34-.34-.86,0-.94.26-.09.69,0,1.11,0s.34.17.6.34c0-.6-.17-1.11,0-1.29.17-.26.86-.34,1.11-.43,0-.26-.09-.77.09-.94.6-.6,1.03,0,1.37.26.09-.34,0-.94.26-1.11.17-.17.77,0,1.11,0-.17-.77,0-1.2.69-1.11.6,0,1.11.17,1.71.34.17-.43-.09-1.2.77-1.29.94,0,.86.86,1.2,1.37.34-.34.26-1.37,1.2-1.2.86.09.69.86.69,1.37.77-.86,1.11-1.11,1.46-.86.26.17.34.69.43,1.03.26,0,.86-.09,1.11.09.17.17.17.77.26,1.03.26,0,.86,0,.94.17.17.26.09.86.17,1.11.17.17.69.26.86.6.17.26,0,.77,0,1.11.86-.69,1.89-1.2,2.92-.34,1.03-1.2,3.34-.77,4.03.86,0,.17.09.34.26.34.6.26,1.11.6,1.71.77.34-.6,1.11,0,1.54-.17,0-.17-.09-.26-.17-.43,0-.17-.09-.26-.09-.34.17-.17.34-.26.43-.43.17-.34.6-.6.94-.26.17.17.43.34.69.6.09-.17.17-.34.17-.6.86,0,1.29.17,1.54.77,0-.09.17-.17.17-.26.17-.43.69-.6.94-.34.17.09.17.6.26.94v.86c.6-.26.94-.94,1.54-.43.17.17.17.77.26,1.11.26-.26.86-.17,1.11.09.17.26.17.86.17,1.2.94,0,1.11.17.94,1.2.34.17.6,0,.86-.26.34-.34.86-.69,1.29-.94.6-.17.86.09.86.69.09.77.34,1.37.69,2.14h.17c.17-.17.34-.6.6-.77.6-.86,1.37-1.11,2.23-.94.17,0,.43.26.69.34-.09.17-.17.34-.34.6-.34.43-.77.86-1.2,1.37,1.54.17,1.8.34,2.06,1.03-.6.17-1.11.34-1.71.69-.77-1.11-1.71-1.54-2.92-.94-.69-1.11-1.54-1.29-2.74-.77-1.2-1.03-1.71-.94-2.4.43,0,.09-.26.17-.43.17-1.03,0-1.46.34-1.8,1.29,0,.17-.26.34-.43.6l-.6.26c-.69.26-1.2.69-1.89.86-.69.09-1.2.34-1.46.94-.17.43-.43.6-.94.34-.6-.17-.94,0-1.2.34-.6.77-.17,2.14.69,2.57.43.17.69,0,.69-.6v-.86c0-.26.26-.43.43-.6.17,0,.34.09.6.17.09,0,.09.17.17.26.17.09.34.17.6.34.09-.17.17-.34.26-.69,0-.26,0-.69.09-.86.17-.26.43-.6.69-.69.17,0,.6.34.6.69.09.26,0,.69,0,.94s.26.34.43.34.34-.17.34-.34c0-.69.26-1.11.69-1.11.09-.6.09-.94.26-1.29,0-.09.69.09,1.03.17.26,0,.69,0,.86-.09.09,0,0-.43,0-.69s0-.69.17-.86c.17-.34.6-.17.86,0,.17.17.34.34.6.43.6.34.86.17.94-.43,0-.17,0-.6.09-.69.17-.17.43-.34.69-.34s.34.34.6.6c.09.17,0,.34,0,.6.09.69.34.86.94.43.34-.17.69-.43.94-.69.34-.34.77-.09.94.17s-.09.34-.17.6c-.09.09-.26.17-.34.34,0,.17-.17.6,0,.6.17.09.43.17.69.17s.17-.17.26-.17c.17-.09.6-.26.69-.17.17.09.34.34.43.69v.69h1.11v-.94c0-.43.09-.94.77-.86.6,0,.69.43.69.94v.94l.17.17c.34-.26.69-.6,1.03-.86.17-.09.6-.17.69-.09.17.09.34.43.34.69s-.09.43-.17.6c.34.17.77.34,1.11.43-.17.17-.43.43-.77.6-1.71.94-2.4,2.92-1.8,4.46.69,0,1.11-.26,1.03-1.11v-.86c.09-.94.77-1.71,1.37-1.89,0,.17.09.43.09.69v1.89c0,.17.17.43.17.69l.6-.6c.34-.86.94-1.54,1.8-1.97.17-.09.6,0,.86-.09v.77c-.17.6-.6,1.11-.86,1.71s-.69.94-.94,1.37c-2.14-.94-3.94-.69-4.97.94-.34.6-1.03.69-1.29.09-.69-.94-1.46-1.97-1.54-3.26,0-.6.17-1.11.17-1.8s0-.34-.09-.6c-.17,0-.34,0-.6.09-.09,0-.17.17-.34.34-.86,1.2-.69,2.92.17,4.03.26.34.69.77.94,1.11-.6.17-.94.43-1.37.69-.6-.34-1.03-.86-1.54-1.2-.94-.6-1.97-.69-3-.09-.17.09-.17.34-.34.6.17,0,.43.26.69.17,1.11-.26,2.14.09,3,.86.17.17.69.34.34.86-.17.17-.6.17-.86.17-1.97-.17-3.52,1.11-3.43,3.17v.34c-.6.34-.94.6-1.37.94-.6.6-.43,1.29.09,1.89s1.2.43,1.71-.09c.17-.17.43-.26.77-.34,1.11,0,2.23,0,3.34-.09.17,0,.43-.17.69-.34-.17-.17-.43-.34-.69-.43-.86-.09-1.71,0-2.57-.17-.34,0-1.03,0-.94-.69,0-.34.86-.6,1.37-.34,0,0,.09,0,.17.09.34,0,.69.09,1.03.09s.86-.09,1.2-.09h2.31c.09,0,.34-.17.34-.26s-.09-.34-.17-.34c-.17-.09-.43-.17-.69-.17h-1.37c-.34-.09-.77-.34-1.11-.6,0,0,0-.34.09-.34h2.49c.34-.17.77-.17,1.11.09s.77.17,1.03-.09.26-.26.6-.43c.17.09.26.17.34.26.69.69.94.6,1.37-.17.26-.6.6-.6.86,0,.6.69.86.86,1.46.26.34-.17.69-.17.94,0,.6.26,1.11.34,1.8,0,.26-.09.77-.09,1.11,0s.43.34,0,.6c-.6.17-1.03.34-1.54.6-.34.09-.86,0-1.29.09-.6,0-.69.34-.43.86.86,0,1.54-.09,2.31,0,.86.09,1.37,0,1.97-.6v1.37c-.69.09-1.29.09-1.97.26-.17,0-.34.26-.6.43.17.09.34.26.43.26h1.97c0,1.11.86,2.57,0,3.26-.43.34-1.11-.34-1.8-.43-.09,0-.26.17-.43.34l.34.34c.6.26,1.46.26,1.89.86h.43v-.17l1.11.94-1.2-.77h0ZM35.19,39.4c1.11-.86,2.23-1.54,3.17-2.31.69-.69,1.37-1.03,2.4-1.11,1.71,0,3-.86,4.12-2.06.34-.43.86-.69,1.37-.69,1.2-.09,2.4-.34,3.26-1.2.17-.17.6-.26.86-.26.77,0,1.37,0,2.14-.17.6-.09,1.2-.17,1.71-.6,1.03-.86,2.14-1.11,3.43-1.03.86,0,1.54-.09,2.14-.69.94-.86,2.14-1.03,3.26-.94.94,0,1.89-.09,2.74-.77,1.03-.94,2.23-1.2,3.6-1.11h.26c1.46,0,1.29-.26,1.29,1.29v45.95c0,.17-.17.34-.34.6-.17-.17-.34-.34-.34-.6-.09-.26,0-.6-.09-1.11-.34.17-.69.43-1.03.69-.17,0-.26.09-.43.17,0-.17-.17-.6,0-.6.17-.17.6-.43.86-.69.86-.34.94-.69.43-1.54-.69.26-1.37.6-2.06.86-.69.34-1.2.86-1.29,1.54,0,.17-.34.26-.6.43-.17-.17-.6-.6-.43-.69.17-.6.43-1.11.94-1.37.86-.6,1.89-.94,2.92-1.29.75-.23,1.03-.71.86-1.46v-.17c-.26,0-.69,0-.94.09-1.8.6-3.43,1.11-5.23,1.71-.17,0-.43.17-.69.17s-.34-.09-.43-.17c0-.09,0-.34.17-.6s.34-.17.6-.26c1.97-.94,3.94-1.71,6-2.06.6-.09.69-.26.34-.86-2.92.34-5.74,1.03-8.32,2.57-.77.43-1.37,1.03-2.14,1.46-.17.09-.6,0-.77,0,0-.17,0-.6.09-.77,0-.09.17-.17.34-.26,2.14-1.8,4.54-2.92,7.2-3.52,1.03-.26,2.14-.6,3.17-.77.09,0,.17-.17.34-.34-.17-.09-.26-.17-.43-.17h-.77c-2.31.26-4.54.94-6.69,1.89-1.89.86-3.52,1.89-4.97,3.26s-1.71,2.14-1.89,3.43c0,.34-.17.86-.69.69-.43,0-.6-.43-.43-.86.17-.77.34-1.54.69-2.23.77-1.54,1.97-2.74,3.34-3.6,2.74-1.89,5.74-3,9-3.69.77-.17,1.54-.26,2.31-.43.09,0,.17-.17.26-.26-.09,0-.17-.17-.34-.17h-.6c-1.37.26-2.92.43-4.29.86-3.6.94-7.12,2.49-9.77,5.23-1.71,1.71-2.92,3.6-2.57,6.09v.43h-.17c-.17-.34-.43-.77-.77-1.03s-.43-.86-.34-1.37c.17-1.2.6-2.23,1.29-3.26.86-.94,1.71-1.97,2.49-3,0-.09-.09-.26-.26-.6-2.31,1.8-4.37,3.69-4.89,6.77-.17,0-.26-.09-.43-.09s-.17,0-.34-.09c0,.17.09.43.26.6,1.8.94,2.57,2.49,2.92,4.46,0,.34.17.69.6.77,1.37.34,2.06,1.29,2.14,2.74,0,.34.17.69.43.94.6.6.77,1.2.77,1.97,0,1.11.34,2.14,1.03,3.09.94,1.29,2.06,2.23,3.52,3,.6.26,1.11.34,1.8.34,1.54-.09,3,.34,4.29,1.2.94.69,1.97,1.37,2.92,2.23.17.17.34.43.34.69.17.69.26,1.29.43,1.97.34,1.11.86,2.14,1.2,3.26-.34.09-.69.17-.94.34-.94.26-1.97.69-2.92.94-.34.09-.6.17-.34.69.17.69.34,1.37.6,2.14.17.94.6,1.89.86,2.83-1.03.6-1.97,1.03-3,1.54.69.6,1.2,1.11,1.8,1.54.34.34.34.69-.17.86s-1.2.6-1.8.69c-.17,0-.43,0-.6-.09-.69-.34-1.46-.26-2.06.43.94.6,1.89,1.11,2.74,1.71.09,0,.34,0,.43-.09.6-.94,1.37-1.54,2.4-1.89.17,0,.26-.17.43-.26,1.71-1.37,3.6-1.89,5.66-.26.26-.17.6-.34.86-.34.6-.09.94-.34,1.2-.86.34-.69,1.11-.6,1.54,0,.17.26.34.69.69.94.17-.09.43-.17.69-.34,1.29-.77,2.57-.86,3.94,0,.09.09.34.17.43.09,1.03-.26,1.97,0,2.74.69.86-.69,1.11-.69,1.97-.17.43.26.94.6,1.54.86,0-.34-.09-.6-.09-.77,0-.6-.09-1.03,0-1.46,0-.26.6-.43.86-.69.17.17.34.43.43.69.26.86.6,1.71.86,2.4,0,.17.26.26.43.34l.26-.6v-.43c-.09-.69-.34-1.29-.34-1.97-.09-1.03.34-1.37,1.46-1.2,0,.86-.17,1.71.6,2.4v-.77c0-.34,0-.69.43-.69.86,0,1.54-.09,2.4-.17h.6v-.17c-.34-.17-.69-.43-.94-.6-.6-.17-1.2-.34-1.8-.69-1.54-.86-3.17-1.2-4.72,0-.34.26-.69,0-.6-.34.09-.43.34-.86.6-1.29.17-.34.34-.6.77-1.03-3.26-1.71-6.43-3.34-9.6-5.06,0-.17.17-.6.26-.86.43-1.37,1.29-2.74,1.29-4.29s0-.17.17-.26c1.37-1.11,2.74-2.31,4.54-2.57.86-.17,1.89,0,2.57-.17.86-.17,1.71-.69,2.49-1.03h.34c1.37-.09,2.31-.94,2.92-2.23.17-.34.34-.69.34-.94.34-1.2,1.11-2.06,2.31-2.49.26-.09.6-.26.86-.34,1.89-1.03,3.17-2.49,3.69-4.63.34-1.29.17-2.49.09-3.69-.09-1.46-.69-2.83-1.54-3.94.09.6.34.94.6,1.46.69,1.97.6,3.94-.69,5.74-.17.34-.6.6-.86.17-.09-.09-.09-.6,0-.69,1.29-2.92.94-5.57-.94-7.97-.77-.94-1.71-1.89-2.74-2.57-3-2.23-6.52-3.52-10.12-4.29-1.97-.34-3.94-.6-5.74-.86-.34,0-.69-.09-.86.34.09,0,.09.09.17.09h.69c3.94.34,7.54,1.2,11.15,2.74,2.49,1.11,4.63,2.57,6.34,4.72,1.8,2.4,1.89,5.32,0,7.63-.77.94-1.71,1.89-2.74,2.49-1.11.86-2.31,1.37-3.52,1.97-.17,0-.43-.09-.69-.09.09-.17.17-.34.34-.6s.26-.09.34-.17c1.71-.86,3.26-1.89,4.54-3.34,1.97-2.4,2.14-5.14.17-7.54-.6-.69-1.03-1.2-1.71-1.71-4.37-3.26-9.52-4.46-14.83-4.89-.17,0-.34.26-.69.34.17.09.34.26.69.34,2.92.34,5.66.94,8.49,1.97,2.4.94,4.63,2.06,6.26,4.03,1.71,2.14,1.71,4.54-.17,6.52-1.97,2.14-4.46,3.26-7.2,4.2-.17,0-.43-.17-.69-.26.09-.17.17-.43.34-.6s.43-.17.69-.26c1.97-.77,3.69-1.71,5.32-3.17,1.97-1.89,2.14-4.12.34-6.09-.69-.77-1.46-1.37-2.31-1.97-3.43-2.14-7.29-2.92-11.32-3.26-.6,0-.69.17-.6.77.17,0,.34.09.6.09,1.89.34,3.69.77,5.66,1.2,2.14.6,4.12,1.37,5.66,3,1.71,1.54,1.8,3.43.26,5.23-.09.17-.26.34-.43.43-1.97,1.89-4.37,2.74-7.03,3.34h-.17l-.69-.34c.09-.17.17-.43.43-.6.34-.17.77-.17,1.11-.34,1.89-.6,3.69-1.37,5.23-2.74,1.71-1.71,1.54-3.43-.26-4.72-1.37-1.03-2.92-1.8-4.63-2.14-1.8-.43-3.52-.86-5.32-1.2-.34-.09-.77,0-.86.6,0,.43-.17.94.6,1.03.69,0,1.2.26,1.8.6.86.26,1.71.69,2.06,1.37.17.34.17.86.17,1.2s-.26.26-.6.34c-.09,0-.34-.17-.34-.34-.43-1.37-2.06-2.49-3.6-2.4-.11.63.11,1.09.69,1.37.17.09.43.17.69.34.34.26.34.6,0,.86-.43-.26-.94-.6-1.37-.86,0,.6,0,.86-.09,1.11,0,.17-.26.26-.34.43-.09-.17-.26-.26-.34-.43V27.14c0-.43.17-.69.69-.69h4.03c.26,0,.6,0,.86.17.94.69,2.06.86,3.17.6.69-.09,1.11,0,1.54.34.94.86,2.06,1.2,3.26,1.29,1.29,0,2.4.34,3.43,1.37s2.57,1.8,4.29,1.54c.86-.09,1.54.17,2.23.77.86.86,1.89,1.2,3.09,1.2s.6.26.86.43c.17.17.17.34.26.6l.94-.94c.34,1.54.69,1.89,1.8,1.97-.17-.26-.34-.43-.6-.77-.09-.17-.17-.6,0-.69.09-.17.43-.34.69-.26.34,0,.69.17.94.34.17.17.34.43.6.69.09.09.34.17.6.34,0-.17.17-.43.17-.6-.17-.43-.6-.94-.94-1.29s-.6-.34-.86-.6c.77-.77,1.37-.86,2.23-.34.17.09.34,0,.69,0,0-.17,0-.43-.09-.69s-.34-.34-.6-.6c-.26-.17-.6-.26-.86-.34.69-.86,1.37-.69,2.83.6-.09-.34-.34-.69-.6-.94-.09-.17-.17-.43-.26-.69h.94c.17,0,.34.26.6.43.26.43.6.94.86,1.46,1.03-.6,1.97-.43,3,.26.09,0,.34.09.43,0,.09-.17.17-.34.17-.6-.17-.69-.6-1.2-1.2-1.37-.6-.09-1.11,0-1.54-.09-.17-.34-.26-.86-.6-1.2-.86-1.03-2.06-1.37-3.26-1.03-1.11.34-1.89,1.2-1.97,2.57,0,.17-.17.6-.34.69-.77.17-1.2.6-1.71,1.11-.09.09-.34.17-.43.17s-.34-.34-.26-.43c.09-.34.17-.94.6-1.11.34-.34.94-.6,1.46-.77v-.86c-.86,0-1.46.17-2.06.77-.17.17-.34.34-.6.34-1.11.26-2.23.6-3.26.77-.17,0-.6-.17-.69-.34-.09-.6-.43-.6-.86-.6-.69.09-1.37.17-2.14.26-.17,0-.43-.17-.69-.17.17-.17.26-.6.6-.6.34-.17.86-.17,1.2-.26.17,0,.43-.17.43-.34v-2.92c-1.03.17-1.97.26-2.83.43-1.2.17-2.31.6-3.52.77-.17,0-.34-.17-.6-.17.17-.17.26-.43.43-.6s.6-.17.77-.17c0-.77-.43-.94-1.11-.86-1.11.09-2.14.17-3.17.34-.26,0-.69.17-.77,0-.43-.6-.94-.17-1.37-.17-.86,0-1.71.09-2.49.09s-.77-.17-.77-.34c-.09-.43.26-.43.69-.6.43,0,.94-.09,1.37-.17v-.69c-.43-.09-1.2-.17-1.2-.34,0-.77.69-.69,1.11-.86v-.69h-25.55c-1.54,0-1.29-.17-1.29,1.29v.69c-.09.94-.09,1.89,1.2,1.97.17,0,.26.34.43.6-.17.09-.43.34-.69.26-.94-.17-1.89-.34-2.74-.69-.94-.34-1.89-.86-2.92-1.2-.09,0-.17-.09-.26-.17-.26-.77-1.03-.6-1.54-.86v1.2c.26,0,.6.09.77.17.26.17.6.43.86.69l1.89.94c.09,0,.09.34.17.6-.34,0-.86.26-1.11.09-1.11-.34-2.14-.94-3.26-1.37-.34-.17-.69-.17-.86.17-.09.34-.17.77.34.86.17,0,.34.09.6.26s.43.6.69.86c-.34,0-.69.09-1.03.09-.86,0-1.8-.86-2.57.17h-.34c-.34,0-.69,0-1.03-.17-.86-.17-1.71-.43-2.57-.77v2.57c0,.94-.17,1.2-1.2,1.03-.43-.09-.94-.26-1.2.26,0,.09-.34.09-.69.17h-1.11c.6.6.34.86-.09.94-.34.09-.77.09-1.2.17,0,.69-.34.77-.86.69-.6,0-.94-.26-1.37-.34-.17,0-.6-.17-.77-.09-.69.17-1.2.34-1.89.69-.17,0-.34.26-.77.6.43.09.77.17.94.26s.34.34.34.6-.26.34-.43.34h-2.23c-.43,0-.86.17-1.29.34-.17,0-.34.09-.6.09v.17c1.2.34,1.54,1.37,2.14,2.4h.17v.26h-.86l.34.51h0ZM56.88,60.32c1.71-.34,3.17-.86,4.63-1.11,2.31-.43,4.63-.86,7.12-1.2.34,0,.69,0,.6-.6v-2.23c0-.6-.17-.69-.69-.6-4.46.26-8.75,1.2-13.03,2.4-.86.26-.94.17-1.2-.86,1.03-.26,2.14-.6,3.17-.86s1.54-.94,1.71-1.97h0c.17-.17.34-.43.6-.69.17.17.34.34.43.6.09.34.09.86.09,1.29.43-.09.86-.17,1.2-.17.6-.09.86-.34.94-.94,0-.34,0-.86.43-.86s.17.6.34.86c.09.17.34.6.43.6.26-.09.6-.26.69-.6.09-.17,0-.6,0-.86v-4.37c0-.09.17-.26.34-.26s.26.17.34.26v4.54c0,.34,0,.86.6.86s.69-.34.86-.77v-6.09c0-.34-.17-.86.34-.86s.34.6.34.86v4.03c0,.34.09.69.17.94.17.43.69.69,1.2.6.6-.17.6-.6.6-1.03v-9.77c0-1.46-.69-2.74-1.11-3.94-.17-.6-.69-.6-.94-.09-.26.34-.43.86-.6,1.2-.09.69,0,1.2-.17,1.89,0,.17-.17.6-.34.69-.43,0-.34-.34-.34-.69v-.94c0-.34,0-.77-.09-1.11,0-.17-.17-.6-.34-.6s-.43.17-.6.34c-.17.34-.34.86-.6,1.2-.26,1.37-.6,2.92-.86,4.29-.09.69-.34,1.11-.94,1.37-1.03.43-2.06.94-3.09,1.2-.6.17-.86.6-.86,1.11,0,1.03-.17,1.97-.26,3-.09.94-.6,1.54-1.54,1.89-.34.09-.86.26-1.11.6-.43.69-1.11.86-1.8,1.03-.86.26-1.71.69-2.57,1.03-.34.09-.69.26-1.11.34-.69,0-1.03-.6-.69-1.03.09-.17.34-.26.69-.34,1.29-.26,1.8-.86,1.8-2.14v-3.94c0-.09.17-.34.34-.34s.34.17.34.34v3.52c0,.17.26.43.43.69.17-.17.34-.34.6-.69v-3.26c0-.34-.26-1.11.34-1.11s.34.77.34,1.11v2.92c0,.17.17.6.34.6.86.17,1.97-.69,2.06-1.46.17-1.2.34-2.4.43-3.6,0-.69.34-.94.94-1.11.77-.17,1.37-.6,1.54-1.37,0-.34.34-.34.6-.09.69.6,1.11.6,1.37-.26.86-1.97.86-4.03.69-6.09h0c-.17-.6-.6-.69-.86-.26-.34.34-.69.94-.86,1.37-.17.6-.17,1.11-.34,1.71,0,.17-.26.34-.34.6-.17-.17-.34-.34-.43-.6-.09-.43-.09-1.03-.26-1.46-.09-.34-.43-.86-.77-.86s-.77.26-.94.6c-.26.43-.6,1.03-.69,1.54-.17,1.11-.34,2.23-.69,3.34,0,.17-.17.43-.26.69h-.17c0-.26-.09-.6-.09-.86v-2.23c0-.34-.34-.69-.6-.94-.26.17-.69.34-.86.69-.34.69-.69,1.37-.94,2.14-.34.86-.77,1.54-.69,2.49,0,.17,0,.34-.09.43h-.17c0-.26-.09-.69-.09-.94,0-.43,0-.86-.17-1.29,0-.26-.34-.6-.6-.77-.26.17-.69.34-.77.6-.26.69-.6,1.29-.69,1.97-.17,1.2-.34,2.57-.6,3.86,0,.17-.17.34-.34.6-.09-.17-.17-.34-.17-.6v-3.52c0-.34,0-.77-.09-1.11,0-.17-.26-.34-.43-.34s-.34.17-.43.26c-.09.34-.17.69-.17,1.03v4.63c0,.34,0,.86-.43.86s-.34-.43-.43-.77c-.17-1.37-.34-2.74-.69-4.03,0-.34-.34-.86-.6-1.11s-.6-.34-.86,0c-1.2,1.2-2.14,2.57-1.97,4.46v.86c0,.34,0,.86-.6.77-.17,0-.34-.6-.43-.86v-2.31c-.09-.17-.26-.6-.43-.6s-.6.17-.69.34c-.17.17-.34.6-.34.86-.6,1.54-1.03,3.17-1.54,4.72,0,.17-.09.43-.17.6-.17.17-.6.34-.86.26-.09,0-.34-.34-.34-.6v-10.46c0-1.89-1.03-3-2.92-3.26-.43,0-.69-.17-.77-.69-.17-1.2-1.37-2.06-2.74-2.14-1.2-.09-2.4.69-2.92,1.71-.09.17-.34.34-.6.43-.6.17-1.03.34-1.46.69-.77.43-.94,1.2-.94,2.06s.6.94.94.86c.69-.34,1.2-.17,1.71.34.17.17.34.43.69.69.34-.69-.17-.77-.34-.94s-.17-.34-.34-.69c.17-.09.6-.34.77-.26.34,0,.77.34,1.11.6h.86c.6-.26,1.03-.69,1.54-.94.34-.26.86-.6,1.11.09,0,.09.34.09.6,0,.86-.09,1.37.34,1.89.94.09.09,0,.43.09.86-.43-.17-.69-.34-.94-.6-1.2-.6-3,0-3.43,1.11v.69c.17,0,.34,0,.6-.09,1.11-.86,1.89-.86,3,0,.17.09.43,0,.69,0s.6-.09.77-.17c0,.26.09.6,0,.86,0,.34-.17.86-.17,1.2v.94c0,.09-.17.17-.34.34-.09-.09-.17-.17-.26-.34,0-.17,0-.6-.09-.94-.43.6-.86.94-1.2,1.2-.17.17-.34.43-.69.43-.86,0-.86.6-.86,1.2v3c0,.77-.17,1.46-.26,2.23v5.74c0,.34,0,.86.69.77.34-2.23.86-4.46,1.97-6.43h.17v3.94c.26-.17.34-.43.6-.69.86-1.37,1.71-2.74,3.17-3.6.6-.34.69-.26.77.34v1.37c0,.6.09.86.6,1.03.94.6,1.11.86.94,1.97,0,.26,0,.6-.09.94.43,0,.86-.09,1.2-.09,1.11,0,1.29.17.86,1.2-.26.69-.69,1.2-1.03,1.89.43-.17.86-.43,1.2-.69s.77-.17.94.17-.17.6-.43.77c-.94.69-1.97,1.2-3,1.89-.17.09-.34.34-.6.6,0,0,.09.09.09.17,2.83-1.2,6-2.74,8.83-3.94-.69-1.11-1.11-1.8-1.2-1.97-.26-.43-.69-.86-.86-1.29,0-.17.09-.6.17-.77.17,0,.43.09.69.17.09,0,.17.17.26.34,1.11,1.54,2.14,3.17,3.17,4.63.17.26.43.6.69.86,0,0,.09,0,.17-.09,0-.26-.17-.6-.17-.86,1.2-.6,2.4-1.03,3.6-1.46,0-.6-.17-.6-.69-.34-1.11.43-2.14.86-3.26,1.29-.17-.26-.34-.6-.6-.86,1.2-.6,2.4-.94,3.6-1.46-.09-.6-.34-.69-.86-.43-.86.34-1.71.69-2.57,1.03-.6.17-.94,0-1.11-.69,1.2-.43,2.31-.94,3.43-1.29,0-.6-.34-.69-.86-.43-.94.34-1.89.69-2.74,1.03-.34.09-.6.09-.69-.34,1.11-.43,2.23-.94,3.43-1.37-.09-.17-.17-.34-.26-.43-.26-.34-.69-.86-.09-1.11.6-.34.77.17.94.6,1.2,1.71,2.31,3.34,3.43,5.06.09.09.26.17.43.26v-.6c-.17-.34-.43-.86-.86-1.29l.34-.17h0l.17.26.09-.09h0ZM90.31,35.03v-4.72c0-.17-.09-.6-.17-.69-.43-.34-.94-.77-1.37-1.03-.86-.43-1.46,0-1.46.94v6.17c0,1.46.86,2.4,1.8,3.26.77.69,1.29.43,1.54-.77v-1.97c0-.09.17-.17.26-.34.09.09.26.17.26.34v4.97c0,.26,0,.69.17.94.6.77,1.03,1.46,1.03,2.4s.17.69.69.69.34-.43.34-.69v-5.4c0-.17.17-.69.34-.69.43,0,.34.34.34.69v5.66c0,.26,0,.69.09.94.17.43.6.86,1.03.77.6,0,.6-.43.6-.94v-4.89c0-.17.17-.43.34-.77.09.17.34.43.34.69,0,1.46.09,3,0,4.46-.09,1.37.86,2.23,1.97,2.57.86.26,1.2.86,1.2,1.71v.34c0,.17-.17.34-.26.69-.17-.17-.43-.43-.43-.69,0-.77-.34-1.11-1.03-1.11s-.34,0-.6-.09c-1.71-.6-3.43-.94-5.23-1.46-1.71-.6-3.17-1.2-3.69-3.09,0-.26-.34-.69-.69-.77-1.2-.6-1.8-1.37-2.06-2.57-.09-.69-.34-1.37-.69-2.06-.17-.26-.6-.43-.94-.77-.17.34-.43.69-.6.94-.09.77,0,1.46-.09,2.23,0,.17-.17.34-.34.6-.09-.17-.34-.34-.34-.6,0-.77,0-1.46-.09-2.23,0-.26-.26-.6-.43-.86-.17.17-.6.34-.69.6-.26.94-.69,1.97-.69,3v10.37c0,3.43.17.6.34.86.26-.17.69-.34.86-.69.09-.17.09-.6.09-.77v-1.89c0-.17.17-.34.34-.6.09.17.34.34.34.6v1.89c0,.34,0,.94.6.94s.6-.6.69-.94v-5.06c0-.17.17-.17.34-.34.09.09.34.17.34.34v6c0,.34,0,.69.09,1.03.26.94,1.89,1.54,2.57.94.6-.34.86-.26,1.11.17s.77.43,1.11.34c.17,0,.17-.43.34-.77.09-.17.26-.34.34-.6.09.17.26.34.34.6v.34c0,.6.17.86.69.86s.34-.6.34-.86c0-1.37,0-2.92.09-4.37,0-.17.17-.34.34-.6.09.17.34.34.34.6v4.89c0,.17.34.43.6.77.17-.17.6-.34.77-.69.09-.26,0-.69,0-.94v-1.46c0-.17.26-.43.34-.69.09.17.34.43.34.69v2.74c0,.17,0,.6.17.77.09.17.43.26.69.26s.26-.34.34-.6v-3.86c0-.17.17-.34.34-.6.09.17.26.34.34.6v3.86c0,.34,0,.94.6.94s.69-.43.77-.94v-2.92c0-.34-.09-.86.43-.86s.34.6.34.86v4.37c.17.26.34.69.69.69.43,0,.34-.34.34-.69v-3.43c0-.34-.09-.94.34-.94s.34.6.34.94v4.03c0,.26.17.6.34.86.17-.17.6-.26.69-.6.43-.69.86-1.37,1.2-2.14.86-1.46.94-1.46,2.57-1.11.77.17,1.46.26,1.97-.6h.17c0,.17.17.34.26.69.26.94.86,1.54,1.89,1.8.86.09,1.2.69,1.29,1.37.09,1.54,1.37,1.97,2.4,2.92,0-.26.09-.34.09-.6v-6.43c0-.17,0-.34-.17-.6-.69-1.11-1.2-2.31-1.89-3.43-.09-.17-.34-.43-.69-.6-1.2-.17-2.06-.94-2.74-1.97,0-.09-.17-.17-.17-.26-.17.69-.09,1.37-.17,1.97,0,.17-.34.34-.6.69-.17-.17-.43-.34-.6-.6-.17-.34-.17-.69-.26-1.11-.17-.94-.43-1.97-.86-3-.09-.26-.26-.77-.77-.6-.17.09-.6.6-.6.86-.09.77,0,1.37-.09,2.14,0,.17-.26.43-.34.69-.09-.17-.34-.43-.34-.69v-2.57c0-.86-.34-1.37-.86-1.37s-.77.43-.86,1.37c0,.34-.09.77-.17,1.11h-.26c-.09-.26-.17-.6-.26-.86-.17-.69-.26-1.37-.43-2.14-.17-1.03-.34-1.11-1.46-1.2-1.2,0-1.71-.6-1.71-1.8v-6.09c0-.94-.26-1.2-1.37-1.29v3.6c0,.17-.17.26-.34.43-.09-.17-.26-.26-.34-.43s0-.34,0-.6v-3.09c0-.26,0-.6-.17-.86-1.2-1.46-3-1.89-4.97-1.8v4.37c0,.34,0,.69-.6.6h.69l.6.34h0ZM107.03,83.21c0-1.97.6-3.6,2.06-5.06,1.37,1.11,2.14,2.57,1.97,4.46.69-.26,1.2-.6,1.8-.86-.17-.17-.34-.34-.43-.6-.09-.17-.17-.34-.26-.6.17,0,.34-.17.6-.17h2.23c-.17-.26-.17-.34-.26-.6-1.37-1.71-1.54-3.6-1.37-5.66,0-.69.26-.86.94-.69.77.17,1.54.43,2.31.69.17-1.89,1.11-3.26,2.4-4.63.26-.26.6-.34.86,0,.43.43.86.94,1.2,1.29.17-.17.43-.43.69-.34.17,0,.34.34.6.69.09.17.17.34.26.6s.34.34.43.34c.26-.09.6-.26.77-.43s0-.34,0-.6v-8.23c0-.26,0-.6-.09-.86-1.03.34-1.97.6-2.92.94-.17,0-.6.17-.69.34-.34.6-1.03.86-1.71,1.03-1.11.34-1.97,1.11-2.4,2.23-.09.26-.26.69-.34.94-.77,1.71-1.97,2.92-3.69,3.26-.34.09-.86.26-1.2.34-1.54.34-2.23,1.54-2.4,3-.09,1.54-.86,2.83-1.89,3.86s-1.03,1.29-1.2,2.14c-.17.69-.6,1.37-.94,1.97-1.03,1.46-2.31,2.74-4.03,3.52-1.11.6-1.8,1.29-2.14,2.4-.17.43-.34.94-.69,1.37-.77,1.11-1.89,1.71-3.09,2.06-.86.17-1.71.6-2.4.94-.6.17-.94.34-1.46.26-2.14-.34-3.69.69-5.49,1.97.94.43,1.71.94,2.57,1.2.34.17.43.34.43.86-.09.86-.09,1.8-.17,2.57,0,.17.09.34.17.6h.26v-.94c.09-.69.17-1.2.34-1.89,0-.09.17-.17.34-.26,0,.17.17.26.09.43,0,.17-.17.43-.17.69.94.77.17,1.97.69,2.83.17-.26.34-.6.6-.77.17.26.43.6.69.86.34.6.77,1.03,1.2,1.71.17-.43.34-.77.6-1.11s.17-.6-.17-.77c-.26-.09-.6-.26-.86-.6-.09-.09-.17-.34-.17-.6.17,0,.34-.17.6-.17.43.09.94.34,1.37.43.17,0,.43.09.6,0,1.2-.6,2.49-1.2,3.69-1.8l-.17-.17c-.94-.43-1.8-.94-2.74-1.37-.17-.09-.34-.34-.69-.69.17-.17.43-.6.77-.6,1.29-.6,2.74-.69,4.03-.43.69.09,1.2.17,1.97.34-.6-1.54-1.46-2.57-2.74-3.43-.26-.17-.6-.43-.86-.69,1.2-1.11,3.17-1.97,5.49-.69.77-.94,1.54-1.97,2.31-2.92,0-.09-.26-.26-.34-.43-.6-.86-1.03-1.71-1.46-2.49-.17-.34,0-.6.26-.86.86-.43,1.8-.6,2.83-.09-.17-1.54-.26-3.09,1.03-4.2,0,1.2-.69,2.4,0,3.6h0c0-.09-.17.17-.17.17l-.26.34h0ZM39.56,82.01c.6-.43.94-.94,1.46-1.2.17-.17.6,0,.94,0,0,.26,0,.6-.17.86-.26.43-.69.86-1.03,1.29.6.09.94.17,1.37.34.6.17.77,0,.94-.34,1.29-2.4,3.43-3.86,6.17-4.2.34,0,.69,0,1.11-.09v-.69c-.17-1.54-1.11-2.74-2.49-3.34-1.37-.69-2.31-1.54-3-3-.17-.34-.34-.69-.6-.94-.6-.94-1.2-1.71-2.23-1.97-1.11-.34-2.14-.86-3.17-1.11-1.54-.34-2.74-1.29-3.6-2.57-.6-.69-1.11-1.2-1.97-1.29-1.54-.17-2.57-1.11-3.69-2.06-.69-.43-.94-1.11-1.11-1.89-.09-.69-.17-1.37-.26-2.14-1.37,1.03-2.74,1.29-4.2.34-.17,2.23.6,4.63-1.89,6.34.94,0,.86.6.86.94s-.09.86-.17,1.29c-.09.69-.17,1.37-.26,2.14h.17c.09-.17.17-.43.26-.69.34-1.03.86-2.14,1.2-3.17,0-.17.34-.17.6-.34.09.17.26.34.26.69s-.09.6-.17.86c-.34,1.2-.86,2.49-1.2,3.69,0,.17-.09.34-.17.69.17-.09.34-.17.43-.34l1.71-3.43c.34-.69.69-1.37,1.03-1.97.09-.17.43-.26.6-.17s.26.34.26.69-.17.6-.26.86c-.86,1.71-1.54,3.34-2.31,5.06-.09.17-.17.43-.17.69,0,0,.09,0,.17.09.09-.17.26-.34.34-.6.6-.86,1.11-1.71,1.71-2.4.26-.34.6-1.11,1.11-.77.69.34,0,.94-.17,1.37-.6.94-1.11,1.8-1.8,2.83.6,0,.94-.09,1.29-.17.69-.17,1.29-.34,1.71-.77.26-.17.09-.94.09-1.37v-.26c.09-.86.26-.94,1.11-.69,1.37.6,2.57,1.37,3.34,2.49.77-.34,1.46-.69,2.14-.94.34-.17.69,0,.86.34.09.69.26,1.2.34,1.89.09,1.29-.34,2.49-1.29,3.6,1.54-.34,2.92-.69,4.37-1.03-.34,3-2.14,4.37-4.46,5.14.43,1.2.86,2.4,1.29,3.52.43-.09.69-.34.34-.86-.17-.34-.34-.77-.43-1.11-.17-.6-.17-1.11.43-1.71.43.77.86,1.37,1.2,2.14.09-.86.17-1.46.34-2.14,0-.17.34-.34.6-.6.09.17.26.43.26.69v1.89h0v-.34h-.17ZM61.68,104.73c.17.6.26,1.11.43,1.54,0,.17.26.34.43.6,0-.17.17-.6.17-.77,0-.69,0-1.37-.17-2.14,0-.69.09-.94.77-1.2.77-.26,1.46-.69,2.23-1.11-.17-.34-.34-.69-.6-.77-1.46-.94-2.92-2.14-4.72-2.4-.43,0-.86-.43-1.29-.69-.6-.26-1.03-.69-1.54-.94-.6-.17-1.11-.17-1.54-.34-1.37-.17-2.49-.77-3.26-2.06-1.29-2.06-4.54-2.31-6.34-.77-.09.09-.17.26-.34.43,1.46-.6,2.92-.69,4.37-.17,0,0,0,.17.09.17l-.6.17c.34.17.6.34.86.34,1.54.6,2.57,1.89,2.74,3.26,0,.6-.09.77-.69.77h-2.4c-.69,0-1.46.17-1.97,0-.6-.26-.86-1.11-1.2-1.71-.43-.69-1.11-1.2-1.89-1.29-.86-.09-1.2-.43-1.54-1.29-.34-1.03-1.37-1.37-2.23-1.11,1.2.6,1.54.94,1.29,1.89-.94-.69-2.06-.86-3.17-.34-1.03.34-1.97.86-2.49,1.89.77.43,1.37.94,2.14,1.37v-.34c-.34-.86,0-1.54.94-1.37.69.09,1.37.43,1.97.86s.6.86.43,1.46c-.17.77-.17,1.54-.17,2.31s.17.34.34.69c0,0,.09,0,.17-.09,0-.34,0-.86.09-1.2,0-.34.09-.86.17-1.2,0-.17.26-.34.34-.34.17,0,.34.17.43.34.17.26.17.69.34.94.09.34.17.77.26,1.11.6,0,.69-.17.69-.69s-.17-1.11-.26-1.8v-.69c.17,0,.6,0,.69.09.34.6.94,1.03,1.11,1.71.26,1.11.94,1.54,1.97,1.71.17,0,.43,0,.69.09,2.4.34,3.69,1.97,3.94,4.37.09,1.71-.43,3.26-1.2,4.63v.6c.17,0,.43-.09.6-.17,1.2-1.54,1.89-3.34,1.37-5.32-.17-1.11-.77-2.23-1.11-3.34,0-.17,0-.6.09-.77.17,0,.6,0,.69.17.17.17.34.43.43.69.17.34.34.86.69,1.37.09-.69.17-1.2.34-1.8.09-.26.34-.69.69-.69.6,0,.34.43.34.86,0,.69-.17,1.37-.26,1.97.77-.43,1.46-.94,2.23-1.29.94-.34,1.89-.34,2.83.17.26.17.6.43.17.77-.17.26-.6.6-.94.17-.34-.34-.77-.34-1.11-.17-1.03.6-1.8,1.2-2.23,2.31-.09.17,0,.6-.09.77h.17c.69-.6,1.2-1.2,1.97-1.54.77-.34,1.71-.6,2.57-.86l.17.17h-.09ZM29.53,15.73s.09,0,.17.09c.26-.34.6-.69.94-.94s.77-.6,1.2-.69c.69-.17.94-.09,1.2.17-1.89,1.2-2.49,2.14-2.06,2.92.34-.34.69-.77.94-1.03.26-.17.77-.6,1.03-.43.34.09.69,0,.94-.09.77-.34,1.89,0,2.31.6.34.6.26.86-.34.94-.69.17-1.37.26-2.06.6-2.74,1.46-2.74,3.26-2.49,6.17.69.09.86-.17.77-.69,0-.34,0-.77.17-.94.86-1.03,1.8-2.14,3.17-2.4,1.11-.26,2.14-.43,2.92.69,0,.09.17.17.34.17h.86c-.09-.17-.17-.34-.26-.69,0-.09-.17-.17-.17-.17-.17-.17-.69-.43-.26-.86.17-.09.6,0,.86,0s.17.09.34.17c.6.34,1.11.34,1.8,0-.26-.17-.43-.43-.69-.69s-.6-.26-.69-.43c-.09-.09-.17-.34-.17-.6.17,0,.43-.17.69-.17.34.09.77.34,1.11.43s.86.17,1.2.26c.17,0,.34-.09.69-.17-.09-.17-.17-.34-.34-.6-.17-.17-.43-.26-.69-.34-.26-.17-.86-.34-.69-.86.17-.6.77-.17,1.11,0,.34.09.69.26,1.03.43s.69.34.94.34h.77c-.09-.17-.17-.6-.34-.69-.6-.34-1.11-.69-1.54-1.03-.17-.09-.17-.34-.34-.69.26,0,.6-.26.86-.17.34,0,.69.34.94.43h.69v-.77c-.17-.26-.6-.43-.77-.69-.09-.09-.17-.34-.09-.6.09-.09.34-.17.6-.17s.34.17.43.26c.43.6.86.6,1.29,0,0,0,.17-.17.26-.17h.77c0,.17-.09.6-.17.69-.17.26-.6.6-.77.86v.6h.6c.34-.17.69-.43.94-.6.26,0,.86,0,.94.17.26.34-.17.6-.43.69-.6.34-1.11.69-1.71,1.03-.17.09-.17.34-.26.6.17,0,.43.17.69.17.34,0,.69-.17.94-.34.6-.17,1.03-.6,1.54-.69.17,0,.43.09.69.17-.09.17-.09.43-.26.6-.34.17-.77.34-1.03.69-.17.09-.26.34-.34.6,0,.09.09.17.17.26.69-.17,1.37-.34,2.14-.6s.69-.34,1.03-.34.43.17.69.17c-.09.17-.17.34-.26.6-.17.17-.6.34-.86.6-.34.26-.26.6.09.69s.94,0,1.29,0c.69-.17.86-.09.86.6v2.23c0,.34.17.69.34,1.03.09-.34.34-.69.34-1.03v-6c0-.77.17-1.2.94-1.54.94-.34,1.37-1.11,1.2-2.14,0-.17-.17-.34-.26-.6-.09.17-.34.34-.34.6.09,1.11-.69,1.37-1.46,1.71v-1.71c0-.17-.17-.34-.34-.6-.09.17-.34.34-.34.6v3.69c-.69-.86-1.37-1.11-2.4-1.11v-.94c.09-1.97-.86-2.92-2.83-2.74-.17,0-.43-.09-.6-.17-1.37-1.97-3.43-1.97-4.97,0-.09.09-.34.17-.6.17-1.71-.17-2.92.94-2.74,2.74,0,.34,0,.69.09,1.03-1.37-.09-2.23.69-2.92,1.8-.09-.6-.17-.94-.17-1.37-.17-1.54-.94-2.14-2.4-1.71-.43.09-.77.09-1.03-.34-.17-.26-.43-.43-.77-.6-1.89-.86-3.69.77-4.2,2.14v.6h-.26l.17.17h-.34,0ZM44.87,43.17c.94-.34,1.97-.69,2.74-1.2,1.2-.94,2.4-1.03,3.69-.86.34,0,.86-.09,1.03-.34.69-.6,1.2-1.2,1.8-1.97.17-.34.34-.86.34-1.2v-4.03c0-.26.17-.86.34-.86.6,0,.34.43.43.86v3.52c0,.17.17.6.26.6.17,0,.43-.09.69-.26s.17-.34.17-.69v-2.31c0-.17.26-.34.34-.6.09.17.26.34.34.6s0,.43,0,.77v1.97c.34-.17.86-.26.86-.34.17-.6.69-.77,1.11-.94.86-.26,1.2-.86,1.2-1.71v-.94c0-.17.17-.34.34-.6.09.17.34.34.34.6v1.8c0,.26.26.69.6.69.34.09.6-.26.6-.69v-4.2c0-.17.17-.26.34-.43.09.09.34.26.34.43v3.94c0,.43.09.86.69.86s.69-.34.69-.86v-5.49h-2.4c-1.11,0-1.97.77-2.74,1.37-.26.17-.17,1.03-.17,1.54v.43c0,.17-.17.34-.34.43-.09-.17-.26-.26-.26-.43,0-.69,0-1.2-.09-1.97-1.03.17-2.06,0-2.83.6-1.37.86-2.83,1.37-4.46,1.29h-.34c-1.11.09-1.37.34-1.37,1.46v3.17c0,.17-.17.34-.26.6h-.34c-.09-.17-.17-.34-.17-.69v-3.26c-.69,0-1.11.09-1.71.09h-.6c-.77.17-1.46,1.11-1.46,1.89v7.2h.17v.17h.09,0ZM28.76,53.46h.09c.34.09.86-.17,1.11-.09.6.09.94-.09,1.11-.6,1.11-1.54.43-4.37-1.8-4.63-.09,0-.17,0-.26-.09v-.26c0-1.89-1.2-2.92-3.09-2.74-.43,0-.69-.17-.86-.6-.69-1.2-1.54-1.54-3-1.2-.34,0-.6,0-.69-.26-.77-1.11-1.97-1.54-3.26-1.2-.86.17-1.46.86-1.89,1.54-1.54-.43-2.83-.09-3.43,1.03-.26.43-.6.6-1.03.34-1.54-.26-2.83.77-2.92,2.23v.86c-.69.26-1.54,0-1.8.94h.69c1.2,0,2.4,0,3.34,1.03,0,.09.43.09.6,0s.17-.43.17-.6c-.26-.34-.69-.86-.94-1.11-.17-.17-.26-.43-.43-.69.34,0,.69-.17.94-.17s.6.26.77.6c.26.17.43.6.77.77.26.09.69,0,1.03,0v-.94c0-.17-.26-.34-.6-.6-.26-.17-.6-.34-.94-.69v-.26c.34,0,.69-.17.94-.17.94.26,1.54.94,1.89,1.97,0,.17.09.43.26.69.34.34.86.69,1.29.94.17.09.6,0,.69,0,.09-.09.09-.43,0-.69-.17-.34-.6-.69-.86-.94s-.34-.43-.09-.77.6-.17.86.09.69.69.94.94c.86.69,1.71.69,2.49,0,.17-.09.26-.34.6-.34s.69-.09.86,0c.34.17.09.6-.09.77-.26.26-.6.6-.86.94,0,.09-.09.34,0,.43,0,.09.26.17.43.17s.34-.17.69-.34c.43-.26.86-.77,1.37-.94.86-.17,1.54-.6,1.97-1.2.17-.34.69-.34.94-.09.34.34,0,.6-.17.86-.26.34-.6.86-.77,1.29,0,.17,0,.6.17.69s.34,0,.69-.17.6-.43.86-.69c.69-.34,1.03-.17,1.37.34-.6.43-1.11.86-1.54,1.37-.17.17-.17.69-.26.94.34,0,.69.17,1.03.09.17,0,.43-.26.69-.43s.43-.43.77-.6c.17,0,.6,0,.69.09s0,.6,0,.69c-.17.26-.6.43-.77.77-.17.17-.17.34-.34.69h-.43ZM123.84,90.75c-.6-.6-.86-.77-1.54-.34-2.14,1.03-4.37,1.2-6.52.6-.86-.26-.86-.43-.26-1.11,1.97.94,4.03.77,6.09-.17-.69-.69-1.37-.69-2.06-.43-1.11.34-2.14.17-3.17-.09-1.37-.34-1.46-1.11-.6-2.23.17-.17.6-.34.86-.6,1.11-.34,2.4,0,3.17.94.09.09.17.26.34.34.86.17,1.8.43,2.74.69,0-.94-1.11-1.29-1.54-2.14,1.46-.86,1.89.69,2.74,1.11,0-.34-.17-.77-.26-1.11,0-.17,0-.34-.09-.69.17,0,.6,0,.69.09.34.34.69.86.94,1.37s.34.6.94.26c-.17-.34-.17-.86-.43-1.2-.94-1.46-2.14-2.57-3.86-3.17-3-1.11-5.74-.09-7.37,2.57-.26.43-.69.94-1.11,1.2-.69.69-1.46,1.2-2.14,1.97-1.03,1.11-1.11,1.11-2.4.17-1.03-.86-2.14-.77-3.17-.17-.6.26-1.03.77-1.11,1.37.77-.34,1.37-.77,2.14-.94,1.2-.34,2.14.17,2.31,1.54,0,.17,0,.34.09.6.77,1.71,2.06,2.83,3.69,3.43h.6v-.17c-.17-.17-.6-.34-.77-.6-.86-.77-1.71-1.37-2.31-2.23-.6-.77-.34-1.11.43-1.71v.17c.09,1.37,1.03,2.14,2.14,2.74,3.43,1.89,7.12,1.8,10.8.6.86-.26,1.46-.69,2.4-1.11-.34-.26-.6-.6-.77-.69-.09,0-.34-.09-.43,0-1.71,1.37-3.69,1.71-5.74,1.8-1.97,0-3.94-.26-5.66-1.37-.6-.34-.94-.86-1.37-1.2-.26-.26-.17-.69.17-.94.09,0,.34.17.6.26.34.34.77.86,1.2,1.11,2.74,1.46,5.49,1.54,8.32.69.69-.17,1.2-.6,1.89-.94h-.17v-.26h-.43,0ZM100.43,18.91s0-.17.09-.17c-.26-.17-.6-.34-.86-.6-.34-.17-.86-.26-1.29-.6-.26-.09-.77-.26-.43-.77.17-.34.69-.26.94,0,.17.09.34.26.69.34.69.17,1.2.34,1.97.6.17,0,.43,0,.6-.17s0-.43,0-.6c-.17-.17-.43-.26-.69-.34-.6-.17-1.03-.34-1.54-.69-.17-.09-.26-.34-.34-.6.17,0,.6-.17.77-.17.34.09.86.26,1.2.43.86.43,1.54.34,2.4,0,.34-.17.86-.34,1.29-.43.17,0,.34.17.6.26-.09.17-.17.34-.26.6-.26.17-.6.26-.94.34-.34.17-.86.26-1.2.6-.17.09-.17.43-.17.77,0,0,.26.17.34.09.94-.34,1.97-.77,2.92-1.11.17,0,.6.09.77.17-.09.17-.09.6-.26.69-.6.26-1.03.43-1.54.69-.17.09-.43.34-.69.6,0,0,0,.09.09.17,1.03,0,1.97,0,2.92-.43s.77-.6,1.03,0c.26.43-.17.69-.43.94s-.26.34-.43.69c1.97.17,2.92-1.2,3-2.23.09-1.2-.6-1.97-1.89-2.06-.17-1.29-.34-1.37-1.71-1.8-.34-1.37-.94-1.71-2.4-1.11-.34-.26-.86-.77-1.11-.77-.86,0-1.54.17-2.4,0-.26,0-.77.43-1.11.69-1.11-.6-1.8-.17-2.23.94,0,.09-.09.26-.17.26-1.03.09-1.29.86-1.46,1.71-.6,0-1.11.09-1.71.17v-3.94c0-.17-.26-.34-.34-.69-.09.17-.34.34-.34.69v2.4c-1.11-.17-1.37-.6-1.54-1.54,0-.17,0-.26-.09-.43,0-.09-.17-.17-.26-.17s-.17.17-.17.17c-.17.77.09,1.89.86,2.23.26.17.6.34.94.6s.43.34.43.77v6.69c1.03-1.03.43-2.23.86-3.43.17.17.34.34.6.34.6.17,1.11.34,1.71.6.09,0,.34-.09.6-.17-.09-.17-.17-.34-.26-.43-.26-.26-.94-.34-.69-.94.34-.6.86,0,1.2,0,.94.34,1.8.43,2.74.34h.09l-.69-.17h0ZM115.78,63.4c.09,0,.17,0,.26.09.17-.43.69-.94.69-1.37v-12.43c0-.26,0-.69-.17-.86-1.2-1.37-2.23-3.17-4.54-3h-.17c-.09,0-.26-.17-.26-.26s0-.26.17-.34.34-.17.6-.17c1.2-.17,2.31,0,3.26.77.26.17.6.34.86.6.34-.26.69-.6.94-.86.86-.69,1.89-.86,2.92-.6.26,0,.43.43.69.69-.17,0-.6.09-.77.09-1.29-.09-2.31.6-2.57,1.54,0,.17.09.6.09.77.17-.17.34-.26.69-.43.34-.26.77-.86.94-.86.77.17,1.37.09,2.14.09s1.11,0,1.46-.6c.69-1.03.34-2.23-.6-3.09-.09-.09-.17-.26-.17-.34-.34-.34-.69-.77-1.11-.94-.34-.17-.86-.09-1.29-.17,0,0,0-.09-.09-.17-.43-1.2-1.37-1.97-2.57-1.97s-2.14.6-2.74,1.71c0,.17-.34.34-.69.34-1.46.17-2.49.94-3.17,2.23-.69,1.29-.34,2.74.86,3.6.43.34.86.34,1.11-.09,0-.09.26-.17.34-.17.34.09.86.17,1.11.34.6.43,1.11.94,1.54,1.46.17.17.34.69.34.94v13.29h.09-.09l-.09.17h0ZM101.63,59.63c-.34-.09-.6-.26-.86-.34-4.37-1.54-8.75-2.92-13.29-3.6-1.89-.34-3.69-.6-5.57-.86-.69-.09-.86.17-.86.86v1.89c0,.6.17.69.69.77,3.6.34,7.29,1.11,10.8,2.14,3.26,1.03,6.52,2.31,9.6,3.94,3.09,1.54.69.34.94-.17-.94-.69-1.97-1.29-3-2.06.6-.86,1.03-1.54,1.54-2.4h0v-.17h0ZM67.59,98.47c.86-.09,1.11-.6.94-1.29-.09-.6-.17-1.03-.26-1.54,0-.43-.17-.77-.69-.94s-.94-.6-1.2-.94c-1.2-1.54-2.92-1.97-4.72-1.89-.43,0-1.03,0-1.37-.17-.6-.17-1.03-.6-1.54-.86-2.4-1.54-4.03-3.6-4.2-6.52v-.34c-.34,1.37-.69,2.83-1.2,4.2-.6,1.46-1.89,2.23-3,3.26.17,0,.26.09.34.17.6.34.94.17,1.37-.17.69-.69,1.46-1.03,2.23-1.46.17-.09.43.09.77.17-.09.17-.17.34-.34.6s-.34.17-.6.26c-.6.34-1.11.86-1.46,1.54.26,0,.43,0,.69-.09s.69-.26.94-.34h1.11c-.17.26-.34.69-.6.94l-.69.69c.94.69,1.71.69,2.4.09.17-.09.34-.26.6-.26h.86c-.09.17-.09.6-.26.69-.17.34-.6.6-.86.94.77.17,1.29.26,1.89-.17.26-.17.69-.34,1.11-.43.34-.09.6,0,.43.43,0,.17-.09.34-.17.6-.17.34-.09.69.34.77.86.17,1.71.34,2.57.6.23.63.75.92,1.54.86.17,0,.34.17.34.26.09.17.17.43.17.69.09.69.6.69,1.11.6.69-.09.86-.43.69-1.03-.17-.69-.26-1.2-.34-1.89h.17c.17.09.34.17.43.34.17.69.34,1.37.6,2.14h0l-.17-.17v-.34h0ZM130.35,42.74h-.17v-1.37c0-.6-.17-.94-.69-1.2-.86-.6-1.37-1.29-1.71-2.23,0-.17-.34-.26-.6-.34-.09.17-.34.34-.34.6,0,.86.34,1.71.94,2.14,1.2.86,1.2,1.97,1.11,3.26v24.61c.77,0,.94-.17.94-.77v-13.12c0-.69.17-1.11.86-1.37.94-.34,2.92.94,2.92,1.97v6.43c0,.26,0,.6.09.86.77,0,.94-.34.94-1.11v-22.55c0-.26.17-.77-.43-.77s-.6.34-.6.77c0,.6-.17,1.03-.69,1.37-.34.34-.69.77-.94,1.11-.69.69-1.2,1.37-1.89,2.06h0l.17-.17.09-.17h0ZM121.87,54.66c-1.37.6-1.8,1.11-1.54,2.23,0,.43.26.94.86.86.6,0,.17-.6.34-.86,0-.17.17-.6.34-.69.17,0,.6,0,.77.17.34.6.69.6,1.03,0,0-.09.34-.34.43-.26.17.09.26.26.34.43s0,.34,0,.6c0,4.97.09,9.86.09,14.83v.86h.17c.09-.17.26-.34.34-.6v-1.71c0-4.46,0-8.83.09-13.29v-.86c0-.17.17-.34.26-.43,0,0,.26.09.34.17.17.17.26.34.43.69.34-.34.86-.69.94-.94,0-1.11,0-2.23-.09-3.43,0-.17-.34-.43-.69-.6-.09,0-.34.17-.6.34-.17.09-.34.26-.6.43,0-.17-.17-.43-.17-.69v-12.43c0-.17-.26-.34-.43-.43-.17.17-.34.34-.43.6v12.95c0,.17-.17.26-.26.43-.09-.09-.26-.17-.34-.34-.43-.77-.69-.77-1.11,0-.09.09-.26.17-.34.34-.17.17-.34.43-.34.77v.77h.09l.09.09ZM105.06,35.11v2.92c0,.17-.17.26-.34.43-.09-.17-.34-.26-.34-.43,0-.86-.09-1.54,0-2.31,0-.69-.26-.94-.94-.94v6.52c0,.6.34.69,1.03.6v-1.71c0-.17.17-.34.34-.6.09.17.34.34.34.69v1.71c0,.6.34.86,1.11.69v-2.23c0-.17.26-.34.34-.6.09.17.34.34.34.6v1.71c-.09,1.11.6,1.97,1.2,2.74.34.43.69.34.86-.17.6-1.89,1.71-3,3.52-3.43.77-.17.94-.69,1.2-1.2.17-.43,0-1.03-.6-1.11-.94-.09-1.89-.17-2.92-.26,0,.43,0,.86-.09,1.2,0,.17-.17.26-.34.34-.09-.09-.17-.17-.26-.34v-.86c0-.6-.17-.94-.77-1.2-1.11-.43-1.89-1.2-2.57-2.14-.26-.34-.69-.6-1.2-.34h.09-.09l.09-.26ZM20.87,62.38c.09-2.4.17-4.63.34-7.03,0-.77.26-1.37.34-2.14,0-.17-.17-.34-.17-.69-.17.09-.43.17-.6.34s-.17.43-.17.69c-.09.69-.17,1.37-.34,1.97-.09.26-.34.69-.69.69s-.69-.17-.86-.43c-.17-.34-.34-.86-.43-1.2-.09-.6-.17-1.03-.26-1.54,0-.17-.34-.34-.6-.6-.09.17-.34.6-.34.77.17,1.71.69,3.34,1.89,4.72.17.17.26.6.26.77v7.03c0,.17,0,.6.17.69.69.69.69.94-.17,1.29v3.17c.6-.17.69,0,.6.43,0,.6-.09,1.11,0,1.71.17.6.09.94-.6,1.11v.94c.17,0,.34.09.6.17,1.11.34,1.2.34,1.2-.86v-9.77c0-.69.17-1.11.69-1.54s1.11-1.11,1.2-1.8c.17-1.11,0-2.23,0-3.26-.69-.09-.86.09-.86.69v2.23c0,.69-.34,1.03-1.2,1.2h0v.34s0-.09,0-.09ZM37.16,93.24c.09-.34.17-.69.17-.94,0-1.54-.6-2.92-1.89-3.86-.26-.17-.6-.6-.77-.86-1.03-1.8-2.74-2.57-4.63-2.49-2.06,0-3.52,1.11-4.54,2.92-.09.17,0,.6,0,.77.17,0,.6-.09.69-.26.6-.26.94-.77,1.46-.94.69-.17.86,0,.69.77s-.17.94-.09,1.03c.6.26.77-.26.94-.6.26-.34.6-.26.86,0s.09.34.09.69-.17.6-.26.94c.69-.17,1.2-.34,1.8-.6.17-.09.26-.34.43-.69s.43-.6.86-.26c.34.17.26.6.09.86-.26.6-.6,1.03-.94,1.54-.26.43-.17.77.09,1.03.6-.6,1.11-1.03,1.71-1.37.17-.09.6,0,.86.09-.09.17-.09.6-.26.77-.34.6-.94,1.03-1.29,1.54-.09.17-.09.34-.17.69,1.37-.86,2.4-2.4,4.2-.43h0v-.26s-.09-.09-.09-.09ZM25.33,79.01h.17c.17-.17.26-.43.6-.77.26-.34.6-.86.86-1.11.09-.09.43,0,.69-.09v.69c-.26.86-.69,1.71-.86,2.57-.09.6-.09,1.03-.09,1.54h.17c.09-.34.26-.86.43-1.2.17-.6.43-.94.77-1.37.09-.09.34-.09.69-.17,0,.17.09.34.09.6,0,.34-.17.77-.26,1.11-.09.86-.17,1.54-.34,2.31h.26c.09-.34.26-.69.34-1.03.17-.43.34-.94.69-1.37,0-.17.34-.17.6-.26,0,.17.17.34.17.6,0,.34-.09.69-.09.94,0,.69-.09,1.2-.09,1.97h.26c.34-1.11.69-2.14.94-3.26-.17,0-.34,0-.43-.17-.17-.17-.17-.34-.34-.6.17-.09.34-.26.6-.26s.6.09.77.17c.94.17,1.8.34,2.92.6-.26-.69-.43-1.11-.69-1.46,0-.09-.26-.17-.43-.17-1.2,0-2.49.09-3.69.09s-.69-.34-.77-.69c0-.6.34-.6.86-.6h.86c.94.09,1.89.17,3,.34-.86-.94-1.54-1.97-2.4-2.74-1.54-1.54-3.52-2.14-5.66-1.8-1.03.17-1.8.69-2.14,1.54,1.11-.17,2.23-.34,3.43-.43.17,0,.77.34.86.6,0,.34-.34.43-.77.43-1.03,0-1.97.26-2.92.86l-.69.69s0,.09.09.17c.86-.17,1.54-.34,2.49-.6-.17.94-.34,1.71-.6,2.4h-.09c0,.09,0-.09,0-.09h-.26,0ZM38.62,47.03c.69.17,1.11,0,1.37-.6,0-.17.26-.34.43-.34,1.29-.34,1.37-.34,1.37-1.8v-5.49c0-.34-.09-.94.43-.94s.34.6.34.94v5.23c0,.17.17.6.26.6.17,0,.6-.09.6-.26.17-.26.26-.69.26-.94v-7.03c-1.29.17-2.49.43-3.69.77-.86.17-1.54,1.2-1.54,2.06v7.8h.17ZM110.46,105.16h.17c.09-.26.34-.6.34-.94,0-1.46-1.37-2.83-2.92-2.74h-.6c-.43,0-.94-.17-1.37,0-.77.26-1.37.77-2.14,1.11-.17.09-.34,0-.6.09,0-.17-.09-.43,0-.6.17-.26.34-.6.69-.77.69-.34,1.2-.77,1.89-1.11-.6,0-1.11,0-1.54.09-1.37.43-2.14,1.54-2.57,2.92-.17.6-.6.94-1.11,1.11-.86.17-1.46.69-1.89,1.46-.09.17,0,.6,0,.86.6-.34.94-.69,1.37-1.03.17-.09.6-.09.69,0s.17.43.09.69c-.09.26-.34.6-.6.77-.6.69-.94,1.2-.69,2.23.17-.17.34-.26.6-.43.6-.6,1.11-1.03,1.71-1.54.34-.26.34-.69.34-1.11s0-1.2.17-1.8c.09-.43.6-.69.94-.34v2.23c0,.17.17.26.17.43.09-.17.26-.26.34-.43s0-.34,0-.6c.09-.94.6-1.89,1.37-2.31.17-.09.6-.09.77-.17v.77c-.34.77-.69,1.46-.34,2.31,0,.17.26.34.34.6.09-.17.17-.34.26-.6v-.6c.17-.43.34-.94.69-1.29s.6-.17.69.17c0,.34,0,.86.09,1.2,0,.17.17.34.34.6.17-.17.34-.34.43-.69v-1.29c0-.43,0-.86.6-.94s.69.26.86.69c.09.26.17.69.26.94h.09l.09.09h0ZM22.75,86.55c.17-.17.34-.26.43-.34.6-.69,1.11-1.2,1.89-1.89.43-.34.6-.86.43-1.37-.26-1.37-.86-2.57-1.8-3.6-.69-.77-1.46-1.46-2.31-1.97-1.97-1.03-5.14.34-5.74,2.4v.34c.6-.34.94-.69,1.37-1.03v1.97h.17c0-.26.09-.6.17-.86.17-.43.26-.94.6-1.29.09-.17.43-.26.69-.34,0,.17.17.43.17.69,0,.6-.17,1.2-.17,1.8s.17.6.26.86c.17-.17.6-.34.69-.6.17-.6.17-1.11.34-1.71,0-.26,0-.77.43-.77s.69.26.77.69v2.49h.17c.17-.17.34-.6.6-.69.26-.26.69-.69.94-.86.09,0,.6,0,.69.17.09.09,0,.43,0,.69s-.17.17-.34.34c-.34.6-.77,1.11-1.11,1.71l.17.17c.17-.09.34-.26.6-.34.34-.17.77-.34,1.11-.34s.6.17.6.34-.17.43-.26.6c-.34.34-.86.77-1.2,1.2-.34.34-.34.94,0,1.46h-.17l-.17.09ZM14.35,32.28v.17c.34.17.69.43.94.34,1.11-.17,2.14-.09,2.92.86,0,0,.26.09.34,0,.09,0,.17-.26.09-.34-.09-.17-.17-.34-.34-.6-.26-.26-.6-.6-.94-.86,0,0,0-.09-.09-.17.94.09,1.03-.6,1.37-1.03s.77-.6,1.11,0c1.11-.94,1.89-1.03,2.23-.09-.17,0-.43.09-.69.17-.77.34-1.29.86-1.37,1.71,0,.09,0,.34.09.34h.34c.6-.69,1.11-1.03,2.14-1.11.6,0,.86.09,1.11.43s.26.34.6.43c.69.17,1.2.34,1.89.34s.43-.09.6-.17c0-.09,0-.43-.17-.6-.34-.26-.86-.6-1.29-.77-.6-.17-.77-.34-.86-.94-.17-1.71-1.71-2.92-3.43-2.92s-3.26,1.11-3.52,2.83c-.17.77-.69,1.2-1.37,1.2h-.6c-.34.09-.77.26-1.11.43h.09l-.09.34ZM47.79,85.61h.17l.17-.17c1.03-.94,2.06-1.8,3.17-2.57.17-.09.43,0,.69,0-.09.17-.09.6-.26.69-.17.17-.43.34-.94.77.86.09,1.46.17,2.23.34v-1.03c-.34-.34-.17-.69-.09-.94.34-1.2-.26-2.4-1.54-2.74-2.23-.43-5.23.17-6.86,2.92-.69,1.11-.69,1.2.34,2.14h.09c.26-.86-.09-1.97,1.11-2.57v4.12c0,.17.17.34.34.69.09-.17.26-.43.34-.69s0-.43,0-.69v-2.57c0-.34.17-.86.26-1.2,0-.17.26-.17.34-.34.09.17.17.34.17.43v3.6h.17l.09-.17h0ZM69.14,33.74h.26c.09-.26.26-.69.26-.94v-5.14h-.94c-1.29-.17-2.14.69-3.09,1.37-.09,0-.17.17-.17.34v5.4c0,.34.26.69.77.6.86-.17,1.97-1.54,1.97-2.49v-2.92c0-.17.26-.34.34-.6.09.17.34.34.34.6v3.09c0,.26.17.6.26.86v-.17h0ZM47.62,108.84c1.11-1.2,1.11-2.57,0-3.94-.17-.17-.17-.43-.17-.77.17,0,.6-.17.77-.17.94.17,1.37.86,1.71,1.8.26,1.11,0,2.14-.34,3.17-.09.26-.09.6-.17.86.77-.77,1.2-1.54,1.2-2.57s0-1.97-.09-3c.77.17.94.77,1.11,1.37.26,1.2.26,2.4-.17,3.6-.09.34-.17.69-.26,1.03h.17c.94-1.37,1.37-2.92,1.2-4.54-.17-1.71-1.2-2.74-2.92-3-2.23-.26-3.94.69-5.4,2.14-.17.26-.34.69-.6.94,0,0,.09.09.09.17.94-.77,1.97-1.46,3.17-.43,1.11.86,1.11,1.97.86,3.26h-.09l-.09.09h0ZM37.41,27.14c0-1.2-.94-1.54-1.71-2.23.17-.09.17-.17.34-.17.86-.17,1.37.34,1.89.94s.94,1.11.34,1.97v.43c.17,0,.34,0,.43-.09.09,0,.17-.17.34-.17.69-.69,1.37-.94,2.31-.86.34,0,.86,0,1.37-.17-.34-.6-.69-.94-1.03-1.29-.69-.6-1.46-.43-2.23-.26-.69-1.97-1.97-2.83-3.6-2.31-1.37.34-2.4,1.8-2.14,2.92,1.37-.09,2.57.26,3.6,1.37h-.09l.17-.09ZM85.77,60.57v.17c.17,0,.34.09.6.17,1.2.26,2.57.6,3.86.94,3,.86,6,1.89,8.75,3.43.69.34,1.37.69,1.54,1.46,0,.09.43.17.6.17.34-.43.77-.09,1.03.09l3.6,3.6c.6.6.94,1.2,1.37,1.89.09-.17.09-.26.17-.34.6-.6.43-.94,0-1.37-1.54-1.37-2.92-3.17-4.63-4.37-4.89-3.43-10.46-4.97-16.2-6h-.69v.17h0ZM129.75,78.75c.43-.43.09-.86,0-1.2-.09-.17-.09-.6,0-.77,0-.17.34-.26.6-.17.17,0,.6.26.69.6s0,.69.09.94c0,.17.17.43.26.43.17,0,.34-.09.6-.17.34-.26.69-.6,1.11-.94-.94-1.11-2.31-1.54-3.86-1.29-2.49.43-3.86,2.23-4.37,4.46-.34,1.2.17,2.4.94,3.6.09-.34.17-.6.17-.77.17-.94.69-1.89-.34-2.49-.09,0-.09-.6,0-.69.17-.09.6-.17.69-.09.34.17.69.43.94.69.69-.34.26-.69,0-1.03-.26-.26-.34-.69,0-.86.17-.09.6,0,.86.09.17,0,.26.26.43.6.43-.34.17-.69,0-1.11-.09-.17,0-.6,0-.77h.86c.26.17.43.6.77.94h-.43ZM82,27.74v6.26c0,.43.6,1.03.94,1.37.77.6,1.29.09,1.29-.77v-4.97c0-2.14.43-1.97-2.14-1.97h-.17.09v.09h0ZM99.32,33.14v6.43c0,.34,0,.86.6.86s.6-.34.69-.86v-2.31c0-.34,0-.77.34-.77s.34.43.34.69v2.74c0,.17.34.34.6.69.09-.17.34-.43.34-.69v-5.57c0-.17-.17-.43-.34-.69-.69-.86-1.54-.6-2.57-.43h.09l-.09-.09h0ZM35.79,86.21l.17.17c.86-.17,1.54-.6,2.4-.69,2.14-.34,4.03,0,5.32,1.89.69,1.03.86,2.14.94,3.34,0,.17.09.43.17.69h.17c0-.26.17-.6.17-.86.17-1.54-.17-3.09-1.03-4.37-1.71-2.74-5.14-3.34-7.54-1.37-.34.26-.69.77-.94,1.11h.09l.09.09h0ZM108.49,67.43c.26.17.6.26.69.34.94,0,1.89.09,2.74,0,.34,0,.86-.34,1.2-.6-.34-.26-.69-.69-1.03-.94-.34-.17-.69-.43-1.11-.69v-.17c1.03,0,2.06.09,3,.17v-.17c-.34-.17-.69-.43-1.03-.69-.17-.17-.6-.34-.69-.6-.6-1.2-1.54-1.8-2.57-2.4-.17-.09-.43,0-.69,0,0,.17.09.34.17.6.34.34.69.77,1.03,1.11s.77.6,1.11.94c0,0-.09.17-.17.17-.17,0-.34,0-.69-.09-.69-.09-1.37-.17-2.06-.26-.17,0-.43.17-.69.17l.6.6c.26.17.69.34.94.6.6.34,1.11.86,1.89,1.37-1.03.26-1.97-.09-2.92.6h.26v-.09h0ZM50.79,25.68c.34-.34.77-.77,1.11-1.03.17-.09.6,0,.77,0,0,.17,0,.6-.09.77s-.34.26-.43.43c-.09.09-.09.34-.17.6h.6c.26-.09.6-.26.86-.6.6-.34.86-1.03.6-1.89-.17-.77-.69-1.2-1.37-1.2s-.43-.09-.69-.34c-.34-.69-1.2-.77-1.71-.17-.17.17-.26.34-.34.69-1.2,0-1.71.6-1.89,1.54,0,.94.6,1.71,1.8,1.97-.17-.34-.34-.69-.6-.86-.26-.26-.69-.6-.17-.94.34-.34.77-.09,1.03.17.17.17.43.6.77.86h.09s-.17,0-.17,0ZM34.16,99.84c.34-.6.94-.69,1.46-.6,1.29.26,2.23.94,2.57,2.23.09.34.26.69.77.43.17-1.2-.69-2.92-1.8-3.6s-2.57-.69-3.69.26c-.86.69-1.54,1.46-1.37,2.83.26-.09.43-.09.69-.17,1.03-.77,1.8-.69,2.74.17.34.34.69.26,1.03,0-.34-1.11-1.37-1.29-2.23-1.71h-.09l-.09.17h0ZM127.7,61.09c-1.03,0-1.46.26-1.46,1.2v8.92h.17c.17-.6.26-1.11.69-1.54.86-.94.69-1.97.69-3.09v-5.57h0l-.09.09ZM117.49,62.72c.86-.09,1.11-.43,1.11-1.11v-8.83c0-.17,0-.34-.09-.6,0-.17-.26-.34-.34-.34-.17,0-.34.17-.43.34s0,.34,0,.69v9.95h-.17l-.09-.09ZM104.55,96.07c.34-2.06-1.89-4.97-3.86-5.14-.6,0-1.11,0-1.54.09v.17c2.14,1.29,3.43,3.26,4.54,5.32.09.17.26.43.43.69.09,0,.17-.17.26-.17-.34-2.14-1.8-3.6-3-5.23.69.6,1.2,1.2,1.8,1.89s.94,1.46,1.46,2.31h-.17l.09.09h0ZM24.55,35.71c.86.09,1.2.69,1.54,1.37,0,.17.34.43.6.34.34,0,.69-.26.6-.69v-.26c-.34-1.37-1.71-2.31-3.09-2.23-1.54,0-2.74,1.11-2.92,2.57,0,.17.09.69.26.77.43.17.43-.26.6-.6.17-.6.34-1.2,1.11-1.2s.86.6,1.11,1.11c0,.17.26.17.43.34.09-.17.26-.34.17-.6,0-.34-.17-.69-.26-1.11h-.17v.17ZM120.15,76.78c1.71-1.11.94-4.46-.69-5.74-1.8,1.11-2.14,4.63-.69,5.66,0-1.37-.17-2.74.6-4.03.69,1.37.69,2.83.77,4.2h0v-.09h0ZM89.37,18.31h.09v6c0,.17.17.34.17.6.09-.17.17-.34.34-.69v-11.66c0-.17-.17-.43-.34-.69-.09.17-.26.34-.34.69v5.83h.09v-.09h0ZM60.48,25.68v-.69c0-3.86,0-7.63.09-11.49v-.6c0-.17-.17-.26-.34-.34-.09.09-.26.17-.34.34s0,.34,0,.6v11.57c0,.34,0,.77.6.69h.09l-.09-.09ZM102.92,21.56c-.69-.17-.86-.77-1.11-1.2-.09-.09-.26-.17-.43-.26,0,.17-.17.34-.17.6.17.43.34.94.77,1.2.86.6.94,1.2.86,2.14v4.89c0,.17.17.34.26.6.09-.17.26-.34.34-.6v-.43c.17-2.57-.43-5.23.6-7.72,0-.09-.17-.34-.26-.6-.17.09-.34.17-.43.26-.17.34-.34.86-.6,1.2h.26l-.09-.09h0ZM98.2,24.91c1.29-.26,1.71-1.54.86-2.49-.94-1.03-2.92-.94-3.69.17-.6.86-.34,1.54.43,2.14,0-.34,0-.69.09-.94,0-.17.17-.26.34-.34,0,0,.26.17.34.26.09.26.17.6.34.94.17-.34.34-.77.6-1.03s.26-.6.69-.34c.34.17.34.6.17.86,0,.17-.09.34-.17.69h0v.17-.09h0ZM121.35,80.21c1.97.09,3.94-2.92,3.17-5.83-1.46.69-2.49,1.71-3,3.26.94,0,1.03-1.2,2.06-1.11-.17,1.54-1.37,2.49-2.14,3.69h-.09,0ZM41.44,31.25s.09.09.17.17c.26-.09.6-.17.86-.26.69-.17,1.03-.86,1.11-1.46.09-.77-.17-1.29-.86-1.71-.86-.43-1.71-.34-2.4.17-.86.6-1.2,1.2-1.2,2.14s.17.26.26.34c0,0,.26-.09.34-.17.17-.17.26-.6.43-.86.43-.69,1.29-.77,1.89-.17s.34.6,0,.86c-.17.17-.34.6-.69.86h0s.09.09.09.09ZM96.14,96.24c1.2.6,2.4.94,3.6,1.54,1.11.6,2.14,1.37,3.26,2.06l.17-.17c-.69-.69-1.37-1.2-2.14-1.97.94.6,1.71.94,2.49,1.37-.86-2.14-5.49-3.69-7.37-2.83h-.09.09ZM45.22,69.06c1.54-1.89,3.6-3.17,5.74-4.37-.17-.69-.6-.77-1.11-.43-.86.43-1.71.86-2.4,1.37-1.11.77-2.23,1.54-3.43,2.4.43.34.86.69,1.2.94h0s0,.09,0,.09ZM45.56,25.42h0v4.72c0,.17.17.34.34.6.09-.17.26-.34.34-.6v-9.26c0-.17-.17-.69-.34-.69-.43,0-.34.34-.34.69v4.46h0v.09ZM117.92,80.21c-.69-.86-1.37-1.54-1.97-2.4-.17-.26-.17-.69-.34-1.03.34.09.77.17,1.11.34s.6.43.94.77c-.17-1.37-1.97-2.92-3.17-3-.6,3,1.71,5.66,3.43,5.32h0ZM85.17,28.51v6.69c0,.17.34.6.6.77.17-.26.34-.6.34-.86v-6c0-.77-.09-.86-.94-.69h0v.09h0ZM106.78,95.04c.86-.86.77-1.89.69-2.83v-1.54c0-.77-.09-.94-.86-.77-.26,0-.6.17-.77.34-.94.86-1.11,2.92-.26,3.94.34-.94,0-2.14.86-3,.17.69.26,1.2.26,1.89v1.97h.09,0ZM111.92,84.58l.17.17c-.26.6-.69,1.2-.94,1.8l.26.17c1.03-1.29,2.06-2.57,3.17-3.94-2.23-.17-4.89,2.06-4.54,3.86.69-.69,1.2-1.37,1.89-1.97h0v-.09h0ZM100.6,102.84c-.34-.86-1.29-1.37-2.4-1.37s-2.74.34-3.69,1.71c.69,0,1.2.17,1.89-.09.94-.43,2.06-.6,3.17-.34.34,0,.69.09,1.11.17h0l-.09-.09h0ZM81.14,27.57c-.43.09-.94-.17-.94.6v5.23c0,.17.26.43.43.69.17-.17.6-.43.6-.77v-5.74h-.09,0ZM31.5,54.92c-.77.6-1.11,1.2-1.11,1.97v2.23c0,1.03,0,1.11,1.11,1.46v-5.74h0v.09ZM64.94,62.12s0-.17-.09-.17c-3.86.69-7.29,2.14-10.46,4.46.34.26.69.26,1.03,0,2.4-1.71,5.14-3,7.97-3.86.6-.17,1.03-.34,1.54-.43h-.09.09ZM35.7,62.29c2.06-2.31,3.26-4.97,3-6-1.54,1.2-2.92,3.86-3,6ZM63.14,17.28h0v3.34c0,.17.17.26.34.43.09-.09.26-.26.34-.34v-6.52c0-.17-.26-.43-.34-.69-.09.17-.34.43-.34.69v3.09h0ZM87.06,17.36h0v-3.09c0-.17-.17-.43-.34-.77-.09.17-.26.43-.34.69v6.52c0,.09.17.17.26.34.09-.09.26-.17.34-.34s0-.43,0-.69v-2.92h0v.17l.09.09h0ZM38.44,64.09c1.37-.77,2.92-1.2,3.6-2.92-2.14.17-4.46,1.89-4.97,3.26.6-.34,1.03-.6,1.54-.86h0c-.09.17-.17.26-.26.43h0s.09.09.09.09ZM37.16,87.58c1.03,0,2.14-.17,3.09,0s1.89.86,2.83,1.2c.09-.77-.94-1.8-2.23-2.14s-3.17,0-3.6.94h-.09ZM86.46,99.33c0-.77,0-1.37.09-2.14,0-.09,0-.34-.17-.34-.69-.34-1.37-.69-2.14-1.03,0,.17,0,.26-.09.34,0,.34-.09.69-.17.94-.09.94,0,1.11.94,1.2.09-.34.17-.69.26-1.03h.17c0,.43.09.94.09,1.37s.17.77.86.69h.17,0ZM106.18,74.64c.43-.34.6-.77,0-1.11-.17-.17-.26-.34-.34-.6-.94-1.54-2.14-2.92-3.52-4.12-.09-.09-.34,0-.6-.09,0,.17,0,.43.17.6.86.94,1.71,1.89,2.49,2.92.69.86,1.11,1.71,1.8,2.49h0v-.09ZM113.98,35.11c1.37-1.54,3-1.89,4.54-.17.26-.6.09-1.03-.6-1.54-.94-.86-2.4-.77-3.43.17-.69.6-.86,1.11-.6,1.71h0l.09-.17h0ZM35.01,96.84c-.6-.17-.94-.17-1.46,0-.34.17-.77.17-1.11.17-.77,0-1.37,0-2.14.09-.69.09-1.2.34-1.46,1.11h.6c.94,0,1.89,0,2.92-.09h.34c.86-.43,1.71-.94,2.57-1.37h-.17s-.09.09-.09.09ZM36.64,29.28c.6-.34.34-.94-.26-1.71-.94-1.03-2.74-1.29-3.52-.6.34.43.86.86,1.11,1.2,1.2-.69,1.37-.6,2.74.94h0l-.09.17ZM132.24,82.44c-.94-.77-2.83-.26-3.86.69-.77.69-1.29,1.37-1.11,2.57,1.2-1.71,2.92-2.74,4.97-3.17h0v-.09ZM115.86,97.1c1.89-.86,3.86-.86,6-.6-.34-.94-1.11-1.11-1.89-1.11-1.54,0-3.17,0-4.12,1.54h0v.17ZM37.84,89.38c.6.17.86.26,1.2.34,1.11.34,2.23.86,2.92,1.97.09.17.43.17.77.26,0-2.14-2.74-3.69-4.72-2.57,0,0-.17,0-.17,0ZM109.18,79.61c-.86,1.2-1.03,2.49-.6,3.94.17-.6.34-1.2.6-1.8h.17v2.23c1.03-1.11.94-3.17-.17-4.37h0ZM57.65,23.11v-2.57c0-.17-.17-.43-.34-.69-.09.17-.34.43-.34.69v3c0,.17,0,.43.17.6.6.26,1.11.6,1.71.86.11-.92-.26-1.48-1.11-1.71h0s-.09-.17-.09-.17ZM20.7,86.38h.17c0-.17.09-.34.09-.6-.17-1.11-.86-1.97-1.97-2.23-.69-.17-1.2-.26-1.8-.86s-1.11-.43-1.37-.17c.6.6,1.2,1.03,1.8,1.54h.43c1.03-.09,1.71.34,2.14,1.2.17.26.34.69.43.94h0s.09.17.09.17ZM120.92,97.78c-1.46-.86-4.37-.26-5.32.86-.09.09-.09.34-.17.6,0,0,.09,0,.17.09,1.2-.86,2.57-1.11,4.12-1.11s.69-.17,1.11-.34h.09v-.09h0ZM99.66,99.58c-1.11-.69-2.23-.6-3.26-.17-.94.34-1.46.94-1.46,1.54,1.54-.43,3.09-.86,4.72-1.37ZM32.79,73.61c.43-1.37-.94-3.34-2.57-3.86,0,2.4,2.14,3.09,2.57,3.86ZM65.45,105.07c.86-.34.94-.86.34-2.14-.69.26-1.29.6-1.97.94-.09,0-.17.17-.17.34,0,.86.17,1.54.17,2.23h.17c.09-.17.26-.34.26-.6v-1.2c0-.69.17-.86.86-.86,0,.34.09.69.17,1.03h0v.17l.17.09h0ZM35.53,71.29c-.43.34-.86.77-1.2,1.11,1.03,1.03,0,1.97,0,2.92,1.37-.69,1.97-2.49,1.2-4.03h0ZM128.3,81.75c1.46-1.2,3.09-1.37,4.72-1.54-1.11-.77-2.23-.86-3.43-.17-.69.34-1.2.77-1.29,1.71h0ZM17.27,71.63c.17-.6,0-1.2-.69-1.8-.86-.77-2.14-1.11-2.83-.77,1.11.86,2.23,1.71,3.43,2.49h0s.09.09.09.09ZM107.46,86.98c0-1.03-1.54-2.4-2.92-2.4s-.34.34-.34.34c.26.77.77,1.29,1.54,1.54-.17-.34-.34-.69-.6-.94h0c.69.43,1.37.94,2.06,1.37h.17l.09.09h0ZM97.26,107.13c-.6-1.2-2.92-2.23-4.03-1.97-.09,0-.17.17-.17.17,0,.09.09.17.17.26,1.29.43,2.57.94,4.03,1.37h0v.17ZM51.73,97.7c-.34-1.11-1.11-1.54-2.14-1.89-.6-.09-1.11-.17-1.54.43.34.09.69.17.94.34.6.26,1.2.6,1.71.94.34.34.69.34,1.11.09h0l-.09.09ZM32.61,28.34c-.6.6-.69,4.2,0,4.89.6-.69.69-4.2,0-4.89ZM81.57,19.08h0v1.37c0,.17.17.43.34.69.09-.17.34-.34.34-.69v-3.09c0-.17-.17-.34-.34-.6-.17.17-.34.34-.34.6v1.71h0ZM11.87,70.61v.17c1.11.43,2.14.94,3.17,1.29.09,0,.34,0,.34-.09,0-.17,0-.34-.09-.6-.86-.77-1.71-1.2-2.83-1.2s-.34.17-.69.26h0s.09.17.09.17ZM42.04,66.92v.17c.34.09.86.34.94.26.86-.43,1.54-1.03,2.4-1.54.09,0,.09-.34,0-.6,0,0-.34-.17-.43-.09-1.03.6-2.06,1.11-3,1.71h.09v.09ZM34.67,80.89c-.43,0-.77.09-1.03.09-.43,0-.86-.09-1.29-.09s-.34.17-.6.26c.09.17.17.34.34.43.94.26,1.89.6,2.83.77l.17-.17c-.17-.43-.34-.94-.43-1.29h0ZM106.86,26.97c-.09-.69-.6-.94-1.2-.86-.94.17-1.2.86-.94,1.97h1.97c-.17-.77-.86-.43-1.2-.77.17-.86.94-.34,1.37-.43h0v.09h0ZM31.16,33.4c0-.17.09-.26.09-.34,0-1.03-2.06-2.57-3.09-2.31-.09,0-.17.17-.34.26.09.09.17.17.26.26.69.43,1.29.94,1.97,1.37.34.17.69.6.94.86h.17s0-.09,0-.09ZM39.39,58.52c-.34,1.11-.86,2.14-1.2,3.17.94-.6,2.14-.86,1.97-2.23,0-.34,0-.86-.69-.94h-.09ZM37.59,31c-1.2-.34-1.97.09-2.74.69-.6.34-.94.94-.94,1.71,1.2-.86,2.31-1.54,3.6-2.4h.09ZM15.21,73.18h-.17c-.86.26-1.54.6-2.23.86-.09,0-.17.34-.17.6.17,0,.34.17.6.09.94-.17,1.89-.43,2.74-.77.17,0,.26-.26.34-.34-.17-.09-.34-.17-.6-.26h-.43s-.09-.17-.09-.17ZM14.69,77.12c.69-.17,2.4-2.49,2.23-3.09-1.11.17-2.23,1.8-2.23,3.09ZM16.58,64.95c-.43-.34-.69-.34-1.2-.09-1.03.6-1.89,1.71-1.8,2.31.94-.77,1.97-1.46,3-2.14h0v-.09ZM119.04,88.27c-.34-.86-1.54-1.29-2.23-.86-.34.17-.43.6,0,.69.77.34,1.54.6,2.31.17h-.09,0ZM48.3,67.78s-.09-.17-.17-.17c-1.03.6-1.8,1.37-2.74,2.14.17.26.26.6.43.86.86-.94,1.71-1.89,2.4-2.74h0s.09-.09.09-.09ZM38.44,76.52c-1.11,0-2.49.69-2.74,1.54.34-.17,2.23.34,2.74-1.54ZM48.65,86.9v.26c.94.17,1.97.43,3,.69.09,0,.26-.17.6-.43-1.11-.26-1.97-.6-2.92-.77-.17,0-.43.17-.69.34h0s0-.09,0-.09ZM18.38,37.17c-.09,0-.26-.17-.43-.17-.77,0-1.97,1.29-1.89,1.97,0,.09.09.26.17.26s.26,0,.34-.09c.6-.69,1.11-1.29,1.8-1.97ZM131.21,73.61l.17.17c.86-.34,1.71-.86,2.57-1.2.09,0,.09-.34.17-.6-.17,0-.34-.09-.6,0-.69.34-1.29.86-1.97,1.2-.17.09-.26.34-.34.6h0v-.17h0ZM128.72,70.43c-.34.34-.69.77-.94,1.11.86.34,1.54.77,2.4,1.11l.17-.17c-.6-.69-.94-1.29-1.54-2.14h-.09v.09h0ZM25.93,96.07h1.97c-.17-.86-.6-1.2-1.11-1.2s-.94.6-.94,1.2h.09ZM14.95,67.52l.17.17c.86-.34,1.54-.69,2.31-1.03.17,0,.17-.26.34-.43-.17-.09-.43-.34-.6-.26-.6.17-1.03.43-1.46.86-.26.17-.6.6-.77.86h-.09l.09-.17ZM27.81,92.38h3.17c-.69-.77-1.37-.86-2.14-.77-.43,0-.94.09-1.11.77h.09ZM49.76,85.35v.34c.86.17,1.71.34,2.49.6.09,0,.26-.17.43-.26-.09-.09-.17-.26-.34-.34-.69-.17-1.2-.26-1.89-.34-.17,0-.6.09-.77.17h0l.09-.17ZM133.35,70.86c-.77-.77-.86-.77-1.37,0-.17.26-.43.6-.69.86-.09.17-.17.43-.17.69,0,0,.09,0,.17.09.69-.6,1.37-.94,2.14-1.46h-.09v-.17h0ZM41.1,97.78c-.17-.17-.26-.43-.6-.6-.09,0-.34.17-.6.43-.09.34-.17.77-.17,1.11s.17.34.34.6c0,0,.34-.17.43-.26.17-.34.26-.86.43-1.2h0l.17-.09ZM24.9,90.41c-.34-.69-.94-.77-1.54-.69-.43,0-.86.26-1.03.86.94,0,1.8.34,2.57-.17ZM130.18,74.04c0-.09,0-.17.09-.26-.69-.6-1.54-.86-2.4-1.11,0,0-.26.17-.26.26,0,.17.09.43.17.43.86.17,1.54.34,2.4.69h0ZM91.69,22.77s.09,0,.17.09c.17-.17.6-.34.6-.6v-1.71c0-.6-.17-.26-.34-.34-.09.17-.34.26-.34.43v2.14h-.09ZM93.92,23.71c-.69,0-1.29,0-1.89.17-.09,0-.17.26-.34.43.09.09.26.26.34.26.69,0,1.2,0,1.89-.09v-.86h0v.09ZM29.01,94.7h3c-.26-.6-.77-.69-1.2-.69s-1.2,0-1.8.69ZM50.62,89.12v-.26c-.86-.17-1.8-.43-2.57-.69-.09,0-.26.09-.34.17,0,.09.09.26.17.34.77.17,1.46.43,2.23.69.17,0,.34-.09.6-.17h0l-.09-.09ZM34.07,95.04c1.11.34,1.89,0,1.89-.94s0-.34-.17-.43h-.34l-1.29,1.29h0l-.09.09ZM135.15,74.04v-.26c-.17-.09-.43-.34-.6-.26-.94.34-1.89.86-2.83,1.2v.17c1.11-.26,2.14-.6,3.17-.86,0,0,.26,0,.26,0ZM101.2,110.04l.17.17c.69-.43,1.29-.94,1.97-1.37v-.34c0-.09-.26-.17-.34-.09-.77.34-1.46.94-1.89,1.8h.09v-.17h0ZM33.3,83.89c.77.09,1.37.17,2.14.26.09-.69,0-.94-.69-.94h-1.29c0,.17-.09.34-.17.69h0ZM132.32,66.23v.86c.77.34,1.46.69,2.23,1.03,0-.09.09-.17.17-.26-.6-.77-1.54-.94-2.4-1.54h0s0-.09,0-.09ZM22.84,55.26c.43,0,1.97-1.03,1.97-1.37s-.34-.34-.43-.34c-.69.34-1.2.86-1.46,1.71h-.09ZM15.9,55.34c0-.17,0-.26-.09-.34-.43-.43-.86-.94-1.29-1.37s-.34,0-.34.09-.09.34,0,.43c.34.34.86.86,1.29,1.2h.6-.17ZM8.78,50.8c-.09-.69-.26-.86-1.54-.69-.34,0-.86,0-.69.69h2.23ZM11.35,62.8c.6.6.94,1.11,1.37,1.54,0-.6.09-1.11.17-1.71-.6,0-1.03,0-1.71.09h.09s.09.09.09.09ZM135.24,64.35c-.26-.26-.6-.6-.77-.86-.6.34-.34.69.69,1.46.94-.77,1.11-.94.86-1.37-.17.26-.43.6-.77.86h0v-.09h0ZM134.81,66.66c0-.69-1.03-1.8-1.37-1.8s-.26.09-.34.17c0,.09,0,.34.09.43.6.34,1.03.69,1.71,1.11h0l-.09.09ZM131.55,69.75s-.17-.09-.17-.17c-.09.09-.26.17-.34.34-.34.43-.69.43-.94,0-.09-.17-.34-.17-.6-.34l-.17.17c.34.43.69.94,1.11,1.37.34-.6.77-1.03,1.11-1.46h0v.09h0ZM13.84,62.89c0,.77-.09,1.29-.17,1.97.43-.6.86-.94,1.2-1.37-.17-.09-.6-.34-1.03-.69h0s0,.09,0,.09ZM135.84,68.03c1.2-.09,2.23-.86,1.97-1.46-.69.43-1.46.69-1.97,1.46ZM135.75,66.58c.43-.34.94-.69,1.37-.94,0,0,.09-.26,0-.43,0-.09-.17-.17-.34-.17-.34,0-1.11,1.03-1.03,1.54h0ZM21.21,92.55c.43.09.94.17,1.29.17s.34-.09.34-.17,0-.34-.09-.43c-.6-.6-1.2-.34-1.54.34h0v.09ZM27.81,28.94c-.86-.34-1.54-.26-1.89.17v.34s.17.09.34.09c.6-.17.94-.43,1.54-.77h-.09l.09.17ZM26.87,27.57c-.43-.43-1.37-.43-1.71,0v.34c.09,0,.26.17.34.09.34-.09.86-.17,1.29-.34h0l.09-.09ZM131.98,68.21v.17c.34.6,1.54.94,2.23.69-.86-.34-1.54-.69-2.23-.94h0v.09ZM128.98,74.89h0c-.6-.17-1.11-.34-1.71-.43v.94c.6-.17,1.11-.34,1.71-.6h0v.09ZM24.13,93.75c.34,0,.77,0,1.11-.09.09,0,.26-.17.26-.34s-.17-.26-.34-.26c-.43-.09-.94.17-1.03.86h0s0-.17,0-.17ZM135.24,76.09c-.26-.94-.6-.94-1.97-.43.77.17,1.29.26,1.97.43ZM134.04,79.18c-.17-.34-.34-.86-.69-1.37-.34.77-.09,1.2.69,1.37ZM31.5,84.07c.34-.17.6-.17.69-.34.09-.26.09-.69.17-.94-.17,0-.6,0-.6.09-.09.26-.17.69-.26,1.2h0ZM7.66,52.43v-.17c-.17-.09-.43-.17-.69-.17s-.26.17-.34.34c.17.09.34.34.69.34s.26-.17.43-.26h-.09v-.09ZM69.14,61.35v-.17c-.77.09-1.54,0-2.23.34v.17c.77-.09,1.46-.17,2.23-.34ZM48.13,90.41v-.17c-.34-.17-.69-.26-1.03-.34-.09,0-.17,0-.34.09,0,.09.09.34.17.34.34.09.77.09,1.11.17h.09v-.09ZM36.47,39.66c.34.26.69.6.94.86v-1.03c-.26.09-.6.17-.94.26h0v-.09ZM29.44,71.81c-.17.17-.34.26-.77.6.34.17.69.26,1.11.43-.17-.34-.26-.69-.34-.94h0v-.09ZM80.88,61.09v.17h1.37c0,.09,0-.09,0-.09-.43,0-.94,0-1.37-.09h0Z"/>
  <path class="st0" d="M138.41,31.6c-.09,0-.34-.09-.34-.17-.6-1.11-1.37-1.29-2.4-1.37h-.6c.86-1.37,2.23-3.34,3.43-2.31.94.86,1.11,3.26,0,3.94h-.09v-.09Z"/>
  <path class="st0" d="M103.43,6.56c.26-.86,1.03-1.2,1.8-.94.34.17.69.09.94-.17.6-.43,1.2-.6,1.71-.17.09,0,.17.17.17.26s-.17.17-.26.17c-.77,0-1.37.09-1.71.94,0,0-.34.09-.34,0-.6-.69-1.2-.6-1.97-.17h-.34.09l-.09.09h0Z"/>
  <path class="st0" d="M115.26,6.65c-.34.09-.6.17-.77.17-.6.09-.94.34-1.11.94,0,.09-.34.34-.34.34-.69-.43-1.37-.34-2.14,0,0-.69.43-1.11,1.2-1.03.6,0,.86,0,1.2-.34.6-.6,1.37-.6,1.97,0h0v-.09Z"/>
  <path class="st0" d="M9.55,43.34c-.69,0-1.11-.34-1.11-.86s.34-.86.94-.86,1.29.6,1.2,1.03c-.09.69-.77.6-1.11.69h.09Z"/>
  <path class="st0" d="M77.71,59.72v14.23c0,.17-.09.6-.17.69-.34.17-.69,0-.69-.6v-28.64c.17-.17.26-.69.43-.69.43,0,.43.34.43.69v14.23h-.09l.09.09Z"/>
  <path class="st0" d="M73.08,60.66v13.63c0,.17-.26.34-.43.34s-.34-.17-.34-.34v-27.35c0-.17.26-.34.43-.34s.26.17.34.34v13.63h0v.09Z"/>
  <path class="st0" d="M85.86,106.7c.26-.77.6-1.37.77-1.97,0-.09.26-.17.34-.34.09.17.26.34.26.6-.09.86-.17,1.71-.34,2.57.69-.34.94-1.37,1.97-1.37-.17.69-.26,1.11-.34,1.71.17,0,.34.09.6.17-.34.69-.77,1.2-1.11,1.89-.17.34-.6.6-.94.17-1.2-.77-2.4-1.11-3.86-.69-.17,0-.34,0-.6-.17s-.69-.34-.86-.69c-.17-.17-.17-.6-.34-.77.26,0,.6-.17.86-.09.34.09.86.34,1.37.69-.09-.34-.17-.6-.26-.69-.17-.26-.34-.6-.6-.86s-.6-.69,0-.94c.17-.09.69.17.86.34s.34.43.6.69.26.34.6.43c-.09-.6-.26-1.2-.34-1.8,0-.34-.17-.69-.17-.94s.17-.34.26-.6c.17.09.43.17.6.34.26.69.43,1.2.69,1.89,0,.09,0,.17.17.34h0c0,.09,0-.09,0-.09l-.17.17h0Z"/>
  <path class="st0" d="M74.45,61.35v-10.12c0-.17.26-.34.34-.6.09.17.26.26.34.43v20.41c0,.17-.26.34-.34.34-.17,0-.34-.17-.34-.34v-10.12h0Z"/>
  <path class="st0" d="M74.88,79.61c-1.71-.17-3.69-.34-5.66-.69h-.17c-.17-.17-.69-.34-.69-.6,0-.6.43-.34.86-.34,2.23.17,4.46.34,6.77.6,1.11,0,2.14-.09,3.17-.09s.43.17.77.34c-.17.17-.34.6-.69.6-1.29.17-2.57.17-4.29.34h0v-.17h-.09,0Z"/>
  <path class="st0" d="M66.22,81.15c-2.14-.69-3.17-1.11-4.63-1.89-1.11-.6-2.06-1.29-3-2.06-.34-.26-.86-.77-.34-1.2.43-.34.86.09,1.11.34,1.71,1.71,3.86,2.57,6.09,3.26.34.09.86.17,1.2.34.17,0,.34.34.26.6,0,.17-.26.6-.6.43h-.09v.17Z"/>
  <path class="st0" d="M89.03,74.38c0,.77-.6,1.46-1.11,2.14-.94.94-2.23,1.46-3.43,1.89-.17,0-.6-.17-.86-.26.17-.17.26-.6.6-.69.77-.34,1.54-.69,2.23-1.11,1.46-.94,1.71-2.14.86-3.6-.09-.17,0-.34,0-.6h.69c.69.26,1.2,1.37,1.2,2.31h-.09l-.09-.09h0Z"/>
  <path class="st0" d="M77.28,105.16c-.6-.09-1.11-.17-1.71-.34-.86-.26-.94-1.11-.17-1.71.94-.77,2.92-.69,3.69.09.6.6.6,1.2-.17,1.54-.6.17-1.11.26-1.54.34h-.09v.09h0Z"/>
  <path class="st0" d="M83.37,82.78c.09,0,.26-.09.34,0,.17,0,.34.17.43.26-.09.17-.17.34-.34.34-.69.17-1.2.26-1.89.34-2.57.43-5.23.6-7.72.34-.17,0-.69-.09-.69-.34s.43-.34.77-.34h2.57s4.37-.34,6.43-.69l.09.09Z"/>
  <path class="st0" d="M69.57,83.89c-2.74-.43-5.32-1.03-7.72-1.97-.86-.34-1.54-.69-2.31-1.11-.17-.09-.6-.34-.34-.69s.6-.09.77,0c2.92,1.54,6,2.31,9.17,2.92.17,0,.34,0,.6.09s.6.17.6.34-.34.17-.43.26h-.09l-.26.17h0Z"/>
  <path class="st0" d="M75.4,40.43v3c0,.17-.17.43-.34.69-.17-.17-.43-.43-.43-.69v-6.09c0-.17.26-.34.34-.69.09.17.34.34.34.69v3.09h.09Z"/>
  <path class="st0" d="M73.08,38.37v1.89c0,.17-.26.34-.34.6-.17-.17-.43-.34-.43-.6v-3.69c0-.17.26-.34.34-.6.17.17.34.34.43.69v1.8h0v-.09Z"/>
  <path class="st0" d="M60.99,73.86c.17-.6.34-1.11.69-1.54.09-.17.6-.34.86-.17.43.17.17.43,0,.77-.34.69-.34,1.29-.09,1.97.09.34.17.69-.17.86-.17,0-.6-.17-.69-.34-.17-.34-.26-.86-.43-1.37h-.09s-.09-.17-.09-.17Z"/>
  <path class="st0" d="M65.88,78.32c-.94-.43-1.8-.94-2.57-1.37-.17-.09-.09-.43-.17-.77.17,0,.6-.17.69-.09.86.34,1.54.86,2.4,1.2.09,0,.26.34.17.6,0,.17-.26.26-.6.43h.09,0Z"/>
  <path class="st0" d="M76.77,40.26v-1.37c0-.17.26-.34.43-.6.09.17.34.34.34.6v2.83c0,.17-.26.34-.34.69-.17-.17-.34-.34-.43-.69v-1.46Z"/>
  <path class="st0" d="M77.63,31.6v1.37c0,.17-.17.34-.34.6-.17-.17-.43-.34-.43-.6v-2.83c0-.17.26-.34.43-.6.09.17.34.34.34.6v1.37h0v.09Z"/>
  <path class="st0" d="M73.08,33.05v.94c0,.17-.17.34-.34.34s-.34-.17-.34-.26v-2.06c0-.09.26-.26.43-.26s.26.17.34.34v.94h-.09Z"/>
  <path class="st0" d="M75.31,29.45c-.43.17-.77.09-.77-.34v-1.89c0-.17.26-.34.34-.6.09.17.34.34.34.6v2.14h0s.09.09.09.09Z"/>
  <path class="st0" d="M73.08,27.65v.6c0,.17-.26.34-.34.43-.17-.17-.34-.26-.34-.43v-1.2c0-.17.26-.34.43-.43.09.17.26.34.34.6v.6h-.09v-.17Z"/>
  <path class="st0" d="M77.71,27.74c-.17.26-.34.86-.6.86-.69,0-.43-.6-.34-.94,0-.34.17-.86.34-.86.69,0,.34.6.6,1.03h0v-.09Z"/>
  <path class="st0" d="M75.48,74.72c-.6,0-1.03.17-.94-.43,0-.34-.26-1.03.34-.94.86.09.17.86.6,1.37h0Z"/>
  <path class="st0" d="M41.87,56.55c.26.17.43.26.6.34.77.69,1.2.6,2.06,0,.69-.43,1.37-.77,2.23-1.11.17-.09.6-.17.86,0,.34.09.69.34.94.69-.26.17-.6.34-.86.43-1.11.26-2.14.69-3.17,1.37-.43.34-1.2.43-1.89.69-.09,0-.34,0-.34-.09-.34-.69-.6-1.37-.43-2.31h.09-.09Z"/>
  <path class="st0" d="M35.87,55.69c0-.34-.17-.86-.17-1.2v-4.72c.09-.09.26-.26.43-.26s.17.17.34.26v5.14c0,.26-.17.69-.26.94h-.34v-.17Z"/>
  <path class="st0" d="M36.3,18.48c-1.46.6-2.92,1.2-3.94,2.74,0-1.71,2.57-3.43,3.94-2.74Z"/>
  <path class="st0" d="M113.21,43.86c1.29-.6,2.49-.17,3.52.94-.17.43-.43.6-.86.17-.77-.69-1.71-.94-2.57-1.11h-.09Z"/>
  <path class="st0" d="M116.04,42.66c.86-.34,1.71,0,2.4.94-.26.34-.6.34-.94.09-.43-.34-.94-.69-1.46-1.11h0v.09Z"/>
  <path class="st0" d="M133.78,40.77v11.4c-1.2-.69-2.23-1.29-3.6-1.11v-6c0-.09,0-.26.17-.34,1.11-1.2,2.23-2.57,3.43-3.94h0Z"/>
  <path class="st0" d="M31.67,75.92c-1.11.09-2.23.34-3.34.34s-.6-.34-.86-.69c.17-.17.43-.6.69-.6,1.2-.09,2.4-.34,3.43.69,0,0,.09.09.09.17h0v.09Z"/>
  <path class="st0" d="M48.82,83.72c-.6-1.11-.26-2.49.69-3v2.4c0,.17-.34.34-.6.6h-.09Z"/>
</svg>